<svg width="72" height="105" viewBox="0 0 72 105" fill="none" xmlns="http://www.w3.org/2000/svg">
<path d="M44.0132 48.2118V46.4309H41.8507V48.2118H40.833V57.1164H41.8507V58.8973H44.0132V57.1164H45.0309V48.2118H44.0132ZM43.6316 55.7171H42.2323V49.6111H43.6316V55.7171Z" fill="#403B3A"/>
<path d="M24.6792 25.06V23.2791H22.5167V25.06H21.499V33.9645H22.5167V35.7454H24.6792V33.9645H25.6969V25.06H24.6792ZM24.2976 32.5652H22.8983V26.4593H24.2976V32.5652Z" fill="#403B3A"/>
<path d="M37.1441 72.8901C37.7801 72.8901 38.1618 72.3812 38.1618 71.8724C38.1618 71.3636 37.6529 70.8547 37.1441 70.8547H34.4727C33.8367 70.8547 33.4551 71.3636 33.4551 71.8724C33.4551 72.3812 33.9639 72.8901 34.4727 72.8901H37.1441Z" fill="#403B3A"/>
<path d="M14.756 23.2791V32.9469C14.756 33.5829 14.2472 33.9645 13.7384 33.9645C13.2295 33.9645 12.7207 33.4557 12.7207 32.9469V23.2791C12.7207 10.4311 23.1518 0 35.9998 0C48.8478 0 59.2788 10.4311 59.2788 23.2791V36.5087C59.2788 37.1447 58.77 37.5264 58.2612 37.5264C57.7523 37.5264 57.2435 37.0175 57.2435 36.5087V23.2791C57.2435 11.7031 47.8301 2.16253 36.127 2.16253C24.1694 2.16253 14.756 11.5759 14.756 23.2791Z" fill="#403B3A"/>
<path d="M53.9357 28.2401C53.9357 27.604 53.4269 27.2224 52.9181 27.2224C52.282 27.2224 51.9004 27.7312 51.9004 28.2401V35.3637L57.1159 45.7948C57.3703 46.3036 58.0064 46.558 58.5152 46.3036C59.024 46.0492 59.2785 45.4132 59.024 44.9043L54.0629 34.9821V28.2401H53.9357Z" fill="#403B3A"/>
<path d="M28.2387 60.6782L25.6945 65.6393H18.3165C17.6805 65.6393 17.2988 66.1482 17.2988 66.657C17.2988 67.2931 17.8077 67.6747 18.3165 67.6747H27.0938L29.638 62.7136H41.9772L44.5213 67.6747H53.2987C53.9347 67.6747 54.3163 67.1658 54.3163 66.657C54.3163 66.021 53.8075 65.6393 53.2987 65.6393H45.9206L43.3765 60.6782H28.2387Z" fill="#403B3A"/>
<path d="M13.6117 37.9081H18.4456L19.7177 35.4911V23.2791C19.7177 14.3746 26.9685 7.25091 35.7459 7.25091C44.6504 7.25091 51.7741 14.5018 51.7741 23.2791C51.7741 23.9152 52.2829 24.2968 52.7917 24.2968C53.4278 24.2968 53.8094 23.788 53.8094 23.2791C53.8094 13.2297 45.6681 5.08838 35.6187 5.08838C25.5692 5.08838 17.4279 13.2297 17.4279 23.2791V34.9823L17.0463 35.8727H13.4845C12.8484 35.8727 12.4668 36.3816 12.4668 36.8904C12.4668 37.3992 12.9756 37.9081 13.6117 37.9081Z" fill="#403B3A"/>
<path d="M46.9392 70.7277H42.7414L40.1972 65.7666H31.4198L28.8757 70.7277H24.6778C24.0418 70.7277 23.6602 71.2366 23.6602 71.7454C23.6602 72.2542 24.169 72.763 24.6778 72.763H30.275L32.8191 67.8019H39.0523L41.5965 72.763H47.1936C47.8297 72.763 48.2113 72.2542 48.2113 71.7454C48.2113 71.2366 47.5753 70.7277 46.9392 70.7277Z" fill="#403B3A"/>
<path d="M43.2511 36.7631C42.7423 36.5087 42.1062 36.7631 41.8518 37.272L32.5656 55.7171H26.7141H26.4596H13.9933C13.3572 55.7171 12.9756 56.226 12.9756 56.7348C12.9756 57.3708 13.4844 57.7525 13.9933 57.7525H26.4596H26.7141H33.8377L43.6327 38.1624C44.0144 37.6536 43.7599 37.0176 43.2511 36.7631Z" fill="#EF7D00"/>
<path d="M15.0099 62.841H23.6601C24.2961 62.841 24.6778 62.3322 24.6778 61.8233C24.6778 61.1873 24.1689 60.8057 23.6601 60.8057H15.0099C14.3739 60.8057 13.9923 61.3145 13.9923 61.8233C13.8651 62.4594 14.3739 62.841 15.0099 62.841Z" fill="#403B3A"/>
<path d="M13.6112 40.7063H20.226L21.8797 37.5261C22.1341 37.0173 22.7701 36.7629 23.279 37.0173C23.7878 37.2717 24.0422 37.9077 23.7878 38.4166L21.6253 42.8688H13.7384C13.1023 42.8688 12.7207 42.36 12.7207 41.8512C12.7207 41.3424 12.9751 40.7063 13.6112 40.7063Z" fill="#403B3A"/>
<path d="M57.8806 52.9184H54.9548L46.8135 36.6358V23.2789C46.8135 17.173 41.8524 12.2118 35.7464 12.2118C30.7853 12.2118 26.333 15.5193 25.0609 20.4804C24.9337 20.9892 24.2977 21.3708 23.7889 21.2436C23.28 21.1164 22.8984 20.4804 23.0256 19.9715C24.5521 14.2472 29.7677 10.1765 35.7464 10.1765C42.9973 10.1765 48.9761 16.1553 48.9761 23.4062V36.2542L56.3541 50.8831H58.0078C58.6439 50.8831 59.0255 51.3919 59.0255 51.9008C59.0255 52.4096 58.5167 52.9184 57.8806 52.9184Z" fill="#403B3A"/>
<path d="M13.6124 47.8304H24.6795L29.7678 37.781V23.2793C29.7678 19.9719 32.4392 17.1733 35.8738 17.1733C39.1812 17.1733 41.9798 19.8446 41.9798 23.2793V33.3287C41.9798 33.9647 42.4886 34.3464 42.9974 34.3464C43.6335 34.3464 44.0151 33.8375 44.0151 33.3287V23.2793C44.0151 18.6998 40.3261 15.0107 35.7466 15.0107C31.1671 15.0107 27.4781 18.6998 27.4781 23.2793V37.2721L23.2802 45.7951H13.6124C12.9763 45.7951 12.5947 46.3039 12.5947 46.8127C12.5947 47.4488 12.9763 47.8304 13.6124 47.8304Z" fill="#403B3A"/>
<path d="M13.6117 52.9187H29.2583L36.7635 37.7809V26.5866C38.6717 25.9506 39.6893 24.0424 39.0533 22.1343C38.4172 20.2262 36.5091 19.2085 34.601 19.8446C32.6929 20.4806 31.6752 22.3887 32.3113 24.2969C32.6929 25.4417 33.5833 26.3322 34.601 26.5866V37.2721L27.859 50.7561H13.4845C12.8484 50.7561 12.4668 51.2649 12.4668 51.7738C12.594 52.4098 12.9756 52.9187 13.6117 52.9187Z" fill="#0BBBEF"/>
<path d="M56.607 60.6782H47.5753C46.9392 60.6782 46.5576 61.1871 46.5576 61.6959C46.5576 62.3319 47.0665 62.7136 47.5753 62.7136H56.607C57.2431 62.7136 57.6247 62.2047 57.6247 61.6959C57.6247 61.1871 57.1159 60.6782 56.607 60.6782Z" fill="#403B3A"/>
<path d="M58.3884 55.717H53.3001L45.922 41.0881C45.6676 40.5793 45.0315 40.3249 44.5227 40.5793C44.0139 40.8337 43.7595 41.4697 44.0139 41.9786L51.9008 57.7524H58.134C58.2612 57.7524 58.2612 57.7524 58.3884 57.7524C59.0244 57.7524 59.406 57.2435 59.406 56.7347C59.406 56.2259 58.8972 55.717 58.3884 55.717Z" fill="#EF7D00"/>
<path d="M7.25085 91.0809H2.92579L2.03534 93.8795H0L4.19787 81.6675H6.10599L10.3039 93.8795H8.26852L7.25085 91.0809ZM3.56183 89.3H6.74203L5.21554 84.4661L3.56183 89.3Z" fill="#403B3A"/>
<path d="M14.2472 93.8795H12.2119V81.6675H14.2472V93.8795Z" fill="#403B3A"/>
<path d="M18.9533 88.7911V93.8795H16.918V81.6675H21.1158C22.5151 81.6675 23.5328 81.9219 24.296 82.558C25.0593 83.194 25.4409 84.0844 25.4409 85.2293C25.4409 85.8653 25.3137 86.3742 24.9321 86.883C24.5505 87.3918 24.1688 87.6463 23.5328 88.0279C24.1688 88.2823 24.6776 88.5367 25.0593 89.0455C25.3137 89.5544 25.5681 90.1904 25.5681 90.8265V91.8441C25.5681 92.2257 25.5681 92.6074 25.6953 92.8618C25.8225 93.2434 25.9497 93.4978 26.0769 93.625V93.8795H23.9144C23.66 93.7522 23.5328 93.3706 23.5328 92.989C23.5328 92.6074 23.4056 92.2257 23.4056 91.8441V90.8265C23.4056 90.1904 23.2784 89.6816 22.8967 89.3C22.5151 88.9183 22.0063 88.7911 21.3702 88.7911H18.9533ZM18.9533 87.1374H20.9886C21.7519 87.1374 22.3879 87.0102 22.7695 86.6286C23.1512 86.3742 23.2784 85.8653 23.2784 85.2293C23.2784 84.5933 23.1512 84.0844 22.7695 83.83C22.3879 83.4484 21.8791 83.3212 21.1158 83.3212H18.9533V87.1374Z" fill="#403B3A"/>
<path d="M36.6346 89.936C36.6346 91.2081 36.2529 92.2258 35.4897 92.989C34.7264 93.7523 33.5816 94.1339 32.1823 94.1339C30.783 94.1339 29.6381 93.6251 28.7477 92.7346C27.8572 91.7169 27.4756 90.572 27.4756 89.0455V86.7558C27.4756 85.2293 27.8572 84.0844 28.7477 83.0668C29.6381 82.0491 30.783 81.6675 32.1823 81.6675C33.5816 81.6675 34.7264 82.0491 35.6169 82.8124C36.3801 83.5756 36.889 84.5933 36.7618 85.8653H34.8537C34.8537 85.1021 34.5992 84.4661 34.2176 83.9572C33.836 83.5756 33.0727 83.3212 32.3095 83.3212C31.5462 83.3212 30.783 83.7028 30.4014 84.3389C29.8925 84.9749 29.6381 85.8653 29.6381 86.7558V89.0455C29.6381 90.0632 29.8925 90.8265 30.4014 91.5897C30.9102 92.2258 31.5462 92.6074 32.4367 92.6074C33.3271 92.6074 33.836 92.353 34.3448 91.9713C34.7264 91.5897 34.9809 90.9537 34.9809 90.0632H36.6346V89.936Z" fill="#403B3A"/>
<path d="M48.2116 88.9186C48.2116 90.4451 47.7027 91.59 46.8123 92.6076C45.9218 93.6253 44.6497 94.1341 43.1232 94.1341C41.7239 94.1341 40.4519 93.6253 39.5614 92.6076C38.6709 91.59 38.1621 90.4451 38.1621 88.9186V86.756C38.1621 85.2295 38.6709 84.0847 39.5614 83.067C40.4519 82.0494 41.5967 81.5405 43.1232 81.5405C44.6497 81.5405 45.7946 82.0494 46.8123 83.067C47.7027 84.0847 48.2116 85.2295 48.2116 86.756V88.9186ZM46.1762 86.6288C46.1762 85.6112 45.9218 84.7207 45.413 84.0847C44.9041 83.4486 44.1409 83.067 43.2504 83.067C42.36 83.067 41.5967 83.4486 41.0879 84.0847C40.5791 84.7207 40.3246 85.6112 40.3246 86.6288V88.7914C40.3246 89.809 40.5791 90.6995 41.0879 91.3355C41.5967 91.9716 42.36 92.3532 43.2504 92.3532C44.1409 92.3532 44.9041 91.9716 45.413 91.3355C45.9218 90.6995 46.1762 89.809 46.1762 88.7914V86.6288Z" fill="#403B3A"/>
<path d="M59.9144 93.8795H57.879L52.5363 85.1021V93.8795H50.501V81.6675H52.5363L57.879 90.4448V81.6675H59.9144V93.8795Z" fill="#403B3A"/>
<path d="M71.9993 93.8795H69.964L64.6213 85.1021V93.8795H62.5859V81.6675H64.6213L69.964 90.4448V81.6675H71.9993V93.8795Z" fill="#403B3A"/>
<path d="M0.126953 98.9683C0.126953 98.8411 0.254149 98.8411 0.254149 98.8411H2.03507C3.05274 98.8411 3.81598 99.4771 3.81598 100.368C3.81598 101.004 3.43437 101.512 3.05274 101.767C3.56157 101.894 4.07039 102.403 4.07039 103.166C4.07039 104.057 3.30715 104.82 2.28949 104.82H0.381365C0.254157 104.82 0.254149 104.693 0.254149 104.693V98.9683H0.126953ZM2.28949 104.184C2.92553 104.184 3.30715 103.675 3.30715 103.166C3.30715 102.53 2.79831 102.148 2.16227 102.148H0.762993V104.311H2.28949V104.184ZM2.16227 101.512C2.79831 101.512 3.17994 101.004 3.17994 100.495C3.17994 99.8587 2.79831 99.4771 2.16227 99.4771H0.762993V101.512H2.16227Z" fill="#403B3A"/>
<path d="M5.34277 98.9683C5.34277 98.8411 5.46999 98.8411 5.46999 98.8411H8.77741C8.90461 98.8411 8.9046 98.9683 8.9046 98.9683V99.2227C8.9046 99.3499 8.77741 99.3499 8.77741 99.3499H5.97881V101.385H8.39578C8.52299 101.385 8.52297 101.512 8.52297 101.512V101.767C8.52297 101.894 8.39578 101.894 8.39578 101.894H5.97881V104.057H8.77741C8.90461 104.057 8.9046 104.184 8.9046 104.184V104.438C8.9046 104.565 8.77741 104.565 8.77741 104.565H5.46999C5.34278 104.565 5.34277 104.438 5.34277 104.438V98.9683Z" fill="#403B3A"/>
<path d="M10.3037 98.9683C10.3037 98.8411 10.4309 98.8411 10.4309 98.8411H10.8125C10.9397 98.8411 10.9398 98.9683 10.9398 98.9683V104.184H13.3567C13.4839 104.184 13.4839 104.311 13.4839 104.311V104.565C13.4839 104.693 13.3567 104.693 13.3567 104.693H10.4309C10.3037 104.693 10.3037 104.565 10.3037 104.565V98.9683Z" fill="#403B3A"/>
<path d="M17.174 99.3499H15.7747C15.6475 99.3499 15.6475 99.2227 15.6475 99.2227V98.9683C15.6475 98.8411 15.7747 98.8411 15.7747 98.8411H19.3365C19.4637 98.8411 19.4637 98.9683 19.4637 98.9683V99.2227C19.4637 99.3499 19.3365 99.3499 19.3365 99.3499H17.9372V104.565C17.9372 104.693 17.81 104.693 17.81 104.693H17.4284C17.3012 104.693 17.3012 104.565 17.3012 104.565V99.3499H17.174Z" fill="#403B3A"/>
<path d="M20.3535 98.9683C20.3535 98.8411 20.4807 98.8411 20.4807 98.8411H23.7881C23.9153 98.8411 23.9153 98.9683 23.9153 98.9683V99.2227C23.9153 99.3499 23.7881 99.3499 23.7881 99.3499H20.9896V101.385H23.4065C23.5337 101.385 23.5337 101.512 23.5337 101.512V101.767C23.5337 101.894 23.4065 101.894 23.4065 101.894H20.9896V104.057H23.7881C23.9153 104.057 23.9153 104.184 23.9153 104.184V104.438C23.9153 104.565 23.7881 104.565 23.7881 104.565H20.4807C20.3535 104.565 20.3535 104.438 20.3535 104.438V98.9683Z" fill="#403B3A"/>
<path d="M27.8587 98.7136C28.7491 98.7136 29.2579 98.968 29.894 99.4769C30.0212 99.6041 30.0212 99.6041 29.894 99.7313L29.6396 99.9857C29.5124 100.113 29.5124 100.113 29.3852 99.9857C29.0035 99.6041 28.3675 99.3497 27.7315 99.3497C26.4594 99.3497 25.4417 100.495 25.4417 101.767C25.4417 103.039 26.4594 104.184 27.7315 104.184C28.4947 104.184 28.8763 103.929 29.3852 103.548C29.5124 103.42 29.5124 103.548 29.6396 103.548L29.894 103.802C30.0212 103.802 29.894 103.929 29.894 104.056C29.3852 104.565 28.6219 104.82 27.8587 104.82C26.205 104.82 24.8057 103.42 24.8057 101.767C24.9329 100.113 26.205 98.7136 27.8587 98.7136Z" fill="#403B3A"/>
<path d="M31.293 98.9683C31.293 98.8411 31.4202 98.8411 31.4202 98.8411H31.8018C31.929 98.8411 31.929 98.9683 31.929 98.9683V101.385H35.3636V98.9683C35.3636 98.8411 35.4908 98.8411 35.4908 98.8411H35.8724C35.9997 98.8411 35.9997 98.9683 35.9997 98.9683V104.565C35.9997 104.693 35.8724 104.693 35.8724 104.693H35.4908C35.3636 104.693 35.3636 104.565 35.3636 104.565V102.021H31.929V104.565C31.929 104.693 31.8018 104.693 31.8018 104.693H31.4202C31.293 104.693 31.293 104.565 31.293 104.565V98.9683Z" fill="#403B3A"/>
<path d="M37.6543 98.9683C37.6543 98.8411 37.7815 98.8411 37.7815 98.8411H38.0359L41.8522 103.548V99.0955C41.8522 98.9683 41.9794 98.9683 41.9794 98.9683H42.2338C42.361 98.9683 42.361 99.0955 42.361 99.0955V104.693C42.361 104.82 42.2338 104.82 42.2338 104.82H42.1066L38.2903 99.9859V104.565C38.2903 104.693 38.1631 104.693 38.1631 104.693H37.9087C37.7815 104.693 37.7815 104.565 37.7815 104.565V98.9683H37.6543Z" fill="#403B3A"/>
<path d="M46.8118 98.7136C48.4655 98.7136 49.8648 100.113 49.8648 101.767C49.8648 103.42 48.4655 104.82 46.8118 104.82C45.1581 104.82 43.7588 103.42 43.7588 101.767C43.7588 100.113 45.0309 98.7136 46.8118 98.7136ZM46.8118 104.184C48.2111 104.184 49.2287 103.039 49.2287 101.767C49.2287 100.367 48.0839 99.3497 46.8118 99.3497C45.4125 99.3497 44.3948 100.495 44.3948 101.767C44.2676 103.166 45.4125 104.184 46.8118 104.184Z" fill="#403B3A"/>
<path d="M51.0098 98.9683C51.0098 98.8411 51.137 98.8411 51.137 98.8411H51.5186C51.6458 98.8411 51.6458 98.9683 51.6458 98.9683V104.184H54.0628C54.19 104.184 54.19 104.311 54.19 104.311V104.565C54.19 104.693 54.0628 104.693 54.0628 104.693H51.137C51.0098 104.693 51.0098 104.565 51.0098 104.565V98.9683Z" fill="#403B3A"/>
<path d="M57.6243 98.7136C59.278 98.7136 60.6773 100.113 60.6773 101.767C60.6773 103.42 59.278 104.82 57.6243 104.82C55.9706 104.82 54.5713 103.42 54.5713 101.767C54.6985 100.113 55.9706 98.7136 57.6243 98.7136ZM57.6243 104.184C59.0236 104.184 60.0412 103.039 60.0412 101.767C60.0412 100.367 58.8964 99.3497 57.6243 99.3497C56.225 99.3497 55.2073 100.495 55.2073 101.767C55.2073 103.166 56.3522 104.184 57.6243 104.184Z" fill="#403B3A"/>
<path d="M64.6216 98.7136C65.5121 98.7136 66.0209 98.968 66.6569 99.4769C66.7842 99.6041 66.7842 99.6041 66.6569 99.7313C66.5297 99.8585 66.5297 99.8585 66.4025 99.9857C66.2753 100.113 66.2753 100.113 66.1481 99.9857C65.7665 99.6041 65.1304 99.3497 64.4944 99.3497C63.2223 99.3497 62.2047 100.495 62.2047 101.767C62.2047 103.039 63.2223 104.184 64.4944 104.184C65.3848 104.184 66.0209 103.802 66.0209 103.802V102.657V102.53V102.148C66.0209 102.021 66.1481 102.021 66.1481 102.021H66.5297C66.6569 102.021 66.6569 102.148 66.6569 102.148V104.056C66.6569 104.056 66.6569 104.184 66.5297 104.184C66.5297 104.184 65.6393 104.692 64.4944 104.692C62.8407 104.692 61.4414 103.293 61.4414 101.639C61.5686 100.113 62.9679 98.7136 64.6216 98.7136Z" fill="#403B3A"/>
<path d="M69.3282 101.894L67.2929 99.0955C67.1657 98.9683 67.2929 98.8411 67.4201 98.8411H67.8018C67.8018 98.8411 67.929 98.8411 67.929 98.9683L69.5827 101.258L71.2364 98.9683L71.3636 98.8411H71.7452C71.8724 98.8411 71.9996 98.9683 71.8724 99.0955L69.8371 101.894V104.565C69.8371 104.693 69.7099 104.693 69.7099 104.693H69.3282C69.201 104.693 69.201 104.565 69.201 104.565V101.894H69.3282Z" fill="#403B3A"/>
</svg>
