<svg width="434" height="325" viewBox="0 0 434 325" fill="none" xmlns="http://www.w3.org/2000/svg">
<path fill-rule="evenodd" clip-rule="evenodd" d="M86.0993 279.88L81 250.739L83.4284 235.824L86.0996 228.586L89.7421 223.103L95.0845 217.181V211.917L97.2701 207.092L95.0845 200.731L97.2701 194.809L101.155 186.913V177.92L99.2128 171.998L102.855 163.883V157.741L109.655 144.142L117.183 131.64L124.468 120.893L136.852 107.514L149.48 96.9855L156.765 92.5988L164.779 87.1154H171.578L175.463 84.7027L178.863 87.1154V90.6247L182.749 92.5988L187.362 90.6247H193.433L196.833 94.5728H201.69H203.147L207.518 92.5988V88.6507L209.218 84.7027L215.532 82.948L223.059 80.974L231.316 79H235.444L237.63 80.974L235.444 87.1154L233.501 90.6247V92.5988L235.444 96.9855L239.815 94.5728L246.129 92.5988L251.714 90.6247L254.143 87.1154V84.7027H259.242V90.6247L261.67 92.5988L263.37 94.5728L265.313 96.9855L268.956 98.3015L271.87 100.714H276.726L279.398 105.978L281.583 107.514L287.411 105.978L292.754 104.004L297.367 105.978L299.553 107.514H295.182V110.365L291.054 107.514L287.411 110.365L283.526 113.436L284.983 115.41L283.526 119.577L287.411 123.525L288.868 126.815V129.886L292.754 131.64L299.553 129.886H302.953L306.11 131.64L302.953 134.711H308.538L313.152 131.64L317.523 132.956V137.343L321.894 138.659L324.322 137.343L321.894 132.956L317.523 128.131L321.894 123.525L329.179 120.893L335.979 123.525L355.891 128.131L370.218 132.956L382.603 134.711L396.202 144.142L398.388 150.503L403 171.998L410.5 194.809L424 211.917V247L375 217.181L382.603 247L392.724 283.999L398.388 312.515L392.724 316L330.82 303.009L277.958 289.385L252.222 293.504L240.746 297.623L228.921 293.504L220.227 286.533L213.272 283.999L209.218 279.88L180.233 293.504L175.463 299.841V309.663L164.779 312.515H156.765L149.48 305.544L143.021 303.009L136.852 297.623L130.849 276.078L124.468 267.523L117.183 293.504L109.655 297.623L97.2701 305.544L86.0993 279.88ZM194.809 95.7295L191.438 98.3689L189.416 103.648V107.387L192.562 110.686V113.546L194.809 115.525V119.484L192.562 123.223L194.809 125.423L196.382 128.942L194.809 131.142L196.382 134.441L194.809 136.64L196.382 139.06H192.562L189.416 142.799H185.82L181.55 147.198L180.202 151.157V156.876L177.73 163.034L176.157 169.853V175.132V179.091L180.202 177.771L183.798 176.232L185.82 177.771V183.05L187.169 193.168L188.292 200.866L189.416 207.245L192.562 209.664L194.809 211.644V214.503V218.682L197.955 221.761H201.326L208.068 218.682L215.259 216.922L218.406 214.503L219.979 211.644V207.245H215.259L213.686 204.165V200.866V197.787L210.54 196.027L209.192 193.168V190.528L208.068 188.769L210.54 183.05L213.686 180.191L216.608 179.091L218.406 176.232L221.552 177.771L224.024 180.191L227.17 181.73L229.192 183.05L230.99 187.229L235.485 188.769L239.305 193.168L240.298 197.787V204.165L243.125 208.344L246.721 211.644L250.317 212.523L252.789 210.764L253.688 208.344V205.485L252.789 202.406L254.362 199.546L253.688 194.927L254.362 192.068V190.528L258.856 192.068L261.328 191.408V189.868L263.576 188.769L266.272 190.528L263.576 187.229L259.53 185.03L257.733 183.05H255.71L254.362 184.37L253.688 186.129L254.362 188.109L253.688 189.868L250.317 187.229L246.721 185.03V183.05H248.744V179.091L251.89 180.191V177.111L251.216 175.132L252.789 172.712L250.317 171.393L246.272 171.833L244.024 172.712L241.552 171.393L237.058 172.712L232.114 173.372L230.091 175.132L228.294 177.111L227.17 180.191L226.046 179.091L224.923 176.232L222.451 177.111L220.878 175.132L222.451 172.712L221.552 169.853L219.979 167.873L217.282 169.853L215.709 168.313L217.282 165.454L212.787 168.313L210.54 171.393L209.192 174.032H207.169V171.393L205.371 172.712L202.45 175.132L201.326 171.393L204.248 167.873L208.068 163.694L210.54 159.955L213.686 156.876L218.406 154.016L219.979 152.917L221.552 148.078L222.451 143.899L224.923 140.38L226.046 136.64L229.192 134.441L230.091 132.901L232.114 131.142V128.942H229.192L224.923 131.142L220.878 135.761L217.282 141.479L215.259 147.198L213.686 150.277L212.787 152.917H210.54L211.664 150.277L209.192 149.178V151.157L205.371 152.037L202.45 151.157L200.652 149.178L195.933 150.717L197.955 141.479H199.978L202.45 148.078H205.371L208.068 146.318L210.847 143.899L212.787 139.06L215.259 134.441L217.282 131.142L219.979 127.622L222.451 125.423L224.024 123.223L224.923 121.244L224.024 118.824L221.552 115.525L219.979 113.546L219.08 109.806L214.585 109.146L212.787 107.387L209.192 104.967L205.371 104.308L202.45 104.967L199.978 105.847L197.955 104.308L195.933 102.988V100.128L196.382 98.3689L194.809 95.7295Z" fill="#EFEFEF"/>
<path d="M81 250.739L80.013 250.578L79.9859 250.745L80.015 250.912L81 250.739ZM86.0993 279.88L85.1143 280.052L85.1349 280.169L85.1824 280.279L86.0993 279.88ZM83.4284 235.824L82.4902 235.478L82.4568 235.569L82.4414 235.664L83.4284 235.824ZM86.0996 228.586L85.2666 228.033L85.2019 228.13L85.1614 228.24L86.0996 228.586ZM89.7421 223.103L88.9996 222.433L88.9501 222.488L88.9092 222.55L89.7421 223.103ZM95.0845 217.181L95.827 217.851L96.0845 217.565V217.181H95.0845ZM95.0845 211.917L94.1736 211.504L94.0845 211.701V211.917H95.0845ZM97.2701 207.092L98.181 207.504L98.3449 207.142L98.2158 206.767L97.2701 207.092ZM95.0845 200.731L94.1464 200.385L94.023 200.719L94.1388 201.056L95.0845 200.731ZM97.2701 194.809L96.3728 194.367L96.3499 194.414L96.3319 194.463L97.2701 194.809ZM101.155 186.913L102.053 187.354L102.155 187.145V186.913H101.155ZM101.155 177.92H102.155V177.76L102.106 177.608L101.155 177.92ZM99.2128 171.998L98.3004 171.588L98.1419 171.942L98.2626 172.31L99.2128 171.998ZM102.855 163.883L103.768 164.292L103.855 164.097V163.883H102.855ZM102.855 157.741L101.961 157.294L101.855 157.505V157.741H102.855ZM109.655 144.142L108.798 143.627L108.778 143.66L108.76 143.695L109.655 144.142ZM117.183 131.64L116.355 131.079L116.34 131.102L116.326 131.125L117.183 131.64ZM124.468 120.893L123.734 120.214L123.682 120.269L123.64 120.332L124.468 120.893ZM136.852 107.514L136.212 106.745L136.162 106.787L136.119 106.834L136.852 107.514ZM149.48 96.9855L148.964 96.1288L148.898 96.1683L148.84 96.2174L149.48 96.9855ZM156.765 92.5988L157.281 93.4554L157.306 93.4405L157.33 93.424L156.765 92.5988ZM164.779 87.1154V86.1154H164.469L164.214 86.2901L164.779 87.1154ZM171.578 87.1154V88.1154H171.863L172.106 87.9649L171.578 87.1154ZM175.463 84.7027L176.042 83.8872L175.5 83.5027L174.936 83.8532L175.463 84.7027ZM178.863 87.1154H179.863V86.5988L179.442 86.2999L178.863 87.1154ZM178.863 90.6247H177.863V91.2383L178.41 91.5163L178.863 90.6247ZM182.749 92.5988L182.296 93.4903L182.712 93.702L183.142 93.5181L182.749 92.5988ZM187.362 90.6247V89.6247H187.158L186.969 89.7054L187.362 90.6247ZM193.433 90.6247L194.191 89.9722L193.892 89.6247H193.433V90.6247ZM196.833 94.5728L196.075 95.2253L196.375 95.5728H196.833V94.5728ZM203.147 94.5728V95.5728H203.362L203.558 95.4841L203.147 94.5728ZM207.518 92.5988L207.929 93.5101L208.518 93.2444V92.5988H207.518ZM207.518 88.6507L206.599 88.2553L206.518 88.4446V88.6507H207.518ZM209.218 84.7027L208.95 83.7392L208.489 83.8674L208.299 84.3072L209.218 84.7027ZM215.532 82.948L215.278 81.9807L215.271 81.9826L215.264 81.9845L215.532 82.948ZM223.059 80.974L222.827 80.0014L222.816 80.004L222.806 80.0067L223.059 80.974ZM231.316 79V78H231.198L231.083 78.0274L231.316 79ZM235.444 79L236.114 78.2579L235.829 78H235.444V79ZM237.63 80.974L238.572 81.3093L238.796 80.6798L238.3 80.2319L237.63 80.974ZM235.444 87.1154L236.319 87.5997L236.359 87.5279L236.386 87.4507L235.444 87.1154ZM233.501 90.6247L232.627 90.1404L232.501 90.3664V90.6247H233.501ZM233.501 92.5988H232.501V92.8103L232.587 93.0037L233.501 92.5988ZM235.444 96.9855L234.53 97.3904L234.972 98.3884L235.927 97.8609L235.444 96.9855ZM239.815 94.5728L239.517 93.6183L239.42 93.6485L239.332 93.6973L239.815 94.5728ZM246.129 92.5988L246.427 93.5532L246.445 93.5477L246.462 93.5416L246.129 92.5988ZM251.714 90.6247L252.047 91.5676L252.352 91.4598L252.536 91.1938L251.714 90.6247ZM254.143 87.1154L254.965 87.6844L255.143 87.4276V87.1154H254.143ZM254.143 84.7027V83.7027H253.143V84.7027H254.143ZM259.242 84.7027H260.242V83.7027H259.242V84.7027ZM259.242 90.6247H258.242V91.1006L258.611 91.4007L259.242 90.6247ZM261.67 92.5988L262.428 91.9462L262.37 91.8789L262.301 91.8228L261.67 92.5988ZM263.37 94.5728L264.149 93.9456L264.139 93.9328L264.128 93.9202L263.37 94.5728ZM265.313 96.9855L264.534 97.6126L264.71 97.8308L264.973 97.926L265.313 96.9855ZM268.956 98.3015L269.593 97.5312L269.459 97.4201L269.295 97.361L268.956 98.3015ZM271.87 100.714L271.232 101.484L271.509 101.714H271.87V100.714ZM276.726 100.714L277.618 100.262L277.34 99.7141H276.726V100.714ZM279.398 105.978L278.506 106.431L278.619 106.653L278.823 106.796L279.398 105.978ZM281.583 107.514L281.008 108.332L281.388 108.599L281.838 108.481L281.583 107.514ZM287.411 105.978L287.666 106.945L287.713 106.933L287.758 106.916L287.411 105.978ZM292.754 104.004L293.147 103.085L292.781 102.928L292.407 103.066L292.754 104.004ZM297.367 105.978L297.942 105.16L297.857 105.1L297.761 105.059L297.367 105.978ZM299.553 107.514V108.514H302.716L300.128 106.695L299.553 107.514ZM295.182 107.514V106.514H294.182V107.514H295.182ZM295.182 110.365L294.614 111.188L296.182 112.271V110.365H295.182ZM291.054 107.514L291.622 106.691L291.017 106.273L290.437 106.726L291.054 107.514ZM287.411 110.365L286.795 109.577L286.791 109.58L287.411 110.365ZM283.526 113.436L282.906 112.651L282.147 113.251L282.721 114.029L283.526 113.436ZM284.983 115.41L285.927 115.74L286.101 115.241L285.787 114.816L284.983 115.41ZM283.526 119.577L282.582 119.247L282.376 119.835L282.813 120.278L283.526 119.577ZM287.411 123.525L288.326 123.12L288.252 122.953L288.124 122.824L287.411 123.525ZM288.868 126.815H289.868V126.603L289.783 126.41L288.868 126.815ZM288.868 129.886H287.868V130.531L288.457 130.797L288.868 129.886ZM292.754 131.64L292.342 132.552L292.663 132.697L293.003 132.609L292.754 131.64ZM299.553 129.886V128.886H299.426L299.303 128.917L299.553 129.886ZM302.953 129.886L303.439 129.012L303.212 128.886H302.953V129.886ZM306.11 131.64L306.807 132.357L307.771 131.42L306.595 130.766L306.11 131.64ZM302.953 134.711L302.255 133.994L300.49 135.711H302.953V134.711ZM308.538 134.711V135.711H308.84L309.092 135.544L308.538 134.711ZM313.152 131.64L313.44 130.683L312.99 130.547L312.598 130.808L313.152 131.64ZM317.523 132.956H318.523V132.213L317.811 131.999L317.523 132.956ZM317.523 137.343H316.523V138.086L317.235 138.301L317.523 137.343ZM321.894 138.659L321.606 139.617L322.004 139.737L322.37 139.538L321.894 138.659ZM324.322 137.343L324.799 138.222L325.686 137.742L325.197 136.859L324.322 137.343ZM321.894 132.956L322.769 132.472L322.713 132.371L322.635 132.285L321.894 132.956ZM317.523 128.131L316.798 127.443L316.159 128.115L316.782 128.802L317.523 128.131ZM321.894 123.525L321.554 122.584L321.332 122.665L321.169 122.837L321.894 123.525ZM329.179 120.893L329.54 119.96L329.191 119.825L328.839 119.952L329.179 120.893ZM335.979 123.525L335.618 124.458L335.684 124.483L335.753 124.499L335.979 123.525ZM355.891 128.131L356.21 127.183L356.164 127.168L356.116 127.157L355.891 128.131ZM370.218 132.956L369.899 133.904L369.987 133.934L370.078 133.946L370.218 132.956ZM382.603 134.711L383.173 133.889L382.978 133.754L382.743 133.721L382.603 134.711ZM396.202 144.142L397.148 143.817L397.041 143.508L396.772 143.321L396.202 144.142ZM398.388 150.503L399.365 150.293L399.353 150.235L399.333 150.178L398.388 150.503ZM403 171.998L402.022 172.208L402.033 172.26L402.05 172.31L403 171.998ZM410.5 194.809L409.55 195.121L409.605 195.289L409.715 195.428L410.5 194.809ZM424 211.917H425V211.57L424.785 211.297L424 211.917ZM424 247L423.48 247.854L425 248.779V247H424ZM375 217.181L375.52 216.327L373.425 215.052L374.031 217.428L375 217.181ZM382.603 247L381.634 247.247L381.636 247.255L381.639 247.264L382.603 247ZM392.724 283.999L393.705 283.804L393.698 283.769L393.688 283.735L392.724 283.999ZM398.388 312.515L398.912 313.366L399.504 313.002L399.368 312.32L398.388 312.515ZM392.724 316L392.518 316.979L392.908 317.061L393.248 316.852L392.724 316ZM330.82 303.009L330.57 303.978L330.592 303.983L330.614 303.988L330.82 303.009ZM277.958 289.385L278.207 288.417L278.006 288.365L277.8 288.398L277.958 289.385ZM252.222 293.504L252.064 292.517L251.972 292.531L251.885 292.563L252.222 293.504ZM240.746 297.623L240.417 298.567L240.751 298.684L241.084 298.564L240.746 297.623ZM228.921 293.504L228.296 294.284L228.43 294.392L228.593 294.448L228.921 293.504ZM220.227 286.533L220.853 285.753L220.724 285.65L220.569 285.594L220.227 286.533ZM213.272 283.999L212.559 284.7L212.717 284.861L212.929 284.938L213.272 283.999ZM209.218 279.88L209.93 279.178L209.434 278.673L208.792 278.975L209.218 279.88ZM180.233 293.504L179.807 292.599L179.583 292.705L179.434 292.903L180.233 293.504ZM175.463 299.841L174.664 299.24L174.463 299.507V299.841H175.463ZM175.463 309.663L175.721 310.629L176.463 310.431V309.663H175.463ZM164.779 312.515V313.515H164.91L165.037 313.481L164.779 312.515ZM156.765 312.515L156.074 313.237L156.364 313.515H156.765V312.515ZM149.48 305.544L150.171 304.822L150.029 304.685L149.845 304.613L149.48 305.544ZM143.021 303.009L142.363 303.763L142.494 303.877L142.656 303.94L143.021 303.009ZM136.852 297.623L135.889 297.891L135.969 298.18L136.195 298.376L136.852 297.623ZM130.849 276.078L131.812 275.809L131.762 275.629L131.65 275.48L130.849 276.078ZM124.468 267.523L125.269 266.925L124.054 265.295L123.505 267.253L124.468 267.523ZM117.183 293.504L117.663 294.381L118.032 294.179L118.146 293.774L117.183 293.504ZM109.655 297.623L109.175 296.746L109.145 296.762L109.116 296.781L109.655 297.623ZM97.2701 305.544L96.3531 305.943L96.8211 307.018L97.8089 306.387L97.2701 305.544ZM191.438 98.3689L190.822 97.5815L190.604 97.7524L190.505 98.0111L191.438 98.3689ZM194.809 95.7295L195.668 95.2175L195.087 94.242L194.193 94.9421L194.809 95.7295ZM189.416 103.648L188.482 103.29L188.416 103.463V103.648H189.416ZM189.416 107.387H188.416V107.787L188.692 108.077L189.416 107.387ZM192.562 110.686H193.562V110.286L193.286 109.996L192.562 110.686ZM192.562 113.546H191.562V113.997L191.901 114.296L192.562 113.546ZM194.809 115.525H195.809V115.073L195.47 114.775L194.809 115.525ZM194.809 119.484L195.666 119.999L195.809 119.762V119.484H194.809ZM192.562 123.223L191.705 122.708L191.298 123.385L191.863 123.938L192.562 123.223ZM194.809 125.423L195.722 125.015L195.645 124.841L195.509 124.708L194.809 125.423ZM196.382 128.942L197.196 129.524L197.529 129.057L197.295 128.534L196.382 128.942ZM194.809 131.142L193.996 130.56L193.653 131.04L193.907 131.572L194.809 131.142ZM196.382 134.441L197.196 135.023L197.539 134.543L197.285 134.01L196.382 134.441ZM194.809 136.64L193.996 136.059L193.599 136.614L193.971 137.185L194.809 136.64ZM196.382 139.06V140.06H198.225L197.221 138.515L196.382 139.06ZM192.562 139.06V138.06H192.097L191.797 138.416L192.562 139.06ZM189.416 142.799V143.799H189.881L190.181 143.443L189.416 142.799ZM185.82 142.799V141.799H185.397L185.103 142.102L185.82 142.799ZM181.55 147.198L180.833 146.502L180.676 146.663L180.604 146.876L181.55 147.198ZM180.202 151.157L179.256 150.835L179.202 150.992V151.157H180.202ZM180.202 156.876L181.13 157.248L181.202 157.069V156.876H180.202ZM177.73 163.034L176.802 162.662L176.773 162.734L176.756 162.81L177.73 163.034ZM176.157 169.853L175.183 169.628L175.157 169.739V169.853H176.157ZM176.157 179.091H175.157V180.469L176.467 180.042L176.157 179.091ZM180.202 177.771L180.512 178.722L180.555 178.708L180.596 178.69L180.202 177.771ZM183.798 176.232L184.403 175.436L183.94 175.083L183.404 175.312L183.798 176.232ZM185.82 177.771H186.82V177.276L186.426 176.975L185.82 177.771ZM185.82 183.05H184.82V183.116L184.829 183.182L185.82 183.05ZM187.169 193.168L186.177 193.3L186.179 193.312L187.169 193.168ZM188.292 200.866L187.303 201.01L187.305 201.025L187.307 201.04L188.292 200.866ZM189.416 207.245L188.431 207.418L188.498 207.801L188.806 208.037L189.416 207.245ZM192.562 209.664L193.223 208.914L193.198 208.892L193.172 208.871L192.562 209.664ZM194.809 211.644H195.809V211.192L195.47 210.893L194.809 211.644ZM194.809 218.682H193.809V219.103L194.11 219.397L194.809 218.682ZM197.955 221.761L197.256 222.476L197.548 222.761H197.955V221.761ZM201.326 221.761V222.761H201.544L201.742 222.671L201.326 221.761ZM208.068 218.682L207.83 217.711L207.739 217.733L207.653 217.772L208.068 218.682ZM215.259 216.922L215.497 217.894L215.702 217.844L215.869 217.715L215.259 216.922ZM218.406 214.503L219.015 215.296L219.181 215.168L219.282 214.985L218.406 214.503ZM219.979 211.644L220.855 212.126L220.979 211.901V211.644H219.979ZM219.979 207.245H220.979V206.245H219.979V207.245ZM215.259 207.245L214.369 207.7L214.647 208.245H215.259V207.245ZM213.686 204.165H212.686V204.406L212.796 204.62L213.686 204.165ZM213.686 197.787H214.686V197.2L214.174 196.914L213.686 197.787ZM210.54 196.027L209.636 196.454L209.772 196.743L210.052 196.9L210.54 196.027ZM209.192 193.168H208.192V193.392L208.287 193.594L209.192 193.168ZM209.192 190.528H210.192V190.236L210.035 189.99L209.192 190.528ZM208.068 188.769L207.15 188.372L206.94 188.859L207.225 189.307L208.068 188.769ZM210.54 183.05L209.868 182.31L209.708 182.455L209.622 182.653L210.54 183.05ZM213.686 180.191L213.334 179.255L213.155 179.322L213.014 179.451L213.686 180.191ZM216.608 179.091L216.96 180.027L217.275 179.908L217.454 179.623L216.608 179.091ZM218.406 176.232L218.845 175.333L218.038 174.938L217.559 175.699L218.406 176.232ZM221.552 177.771L222.251 177.057L222.136 176.944L221.991 176.873L221.552 177.771ZM224.024 180.191L223.324 180.905L223.439 181.018L223.584 181.089L224.024 180.191ZM227.17 181.73L227.716 180.893L227.665 180.859L227.609 180.832L227.17 181.73ZM229.192 183.05L230.111 182.655L229.992 182.377L229.739 182.213L229.192 183.05ZM230.99 187.229L230.072 187.624L230.247 188.031L230.666 188.175L230.99 187.229ZM235.485 188.769L236.24 188.113L236.063 187.91L235.809 187.823L235.485 188.769ZM239.305 193.168L240.283 192.958L240.229 192.706L240.06 192.512L239.305 193.168ZM240.298 197.787H241.298V197.68L241.276 197.577L240.298 197.787ZM240.298 204.165H239.298V204.472L239.47 204.726L240.298 204.165ZM243.125 208.344L242.297 208.905L242.363 209.002L242.449 209.081L243.125 208.344ZM246.721 211.644L246.045 212.38L246.234 212.554L246.483 212.615L246.721 211.644ZM250.317 212.523L250.079 213.495L250.524 213.604L250.897 213.338L250.317 212.523ZM252.789 210.764L253.369 211.579L253.619 211.4L253.726 211.112L252.789 210.764ZM253.688 208.344L254.625 208.693L254.688 208.524V208.344H253.688ZM253.688 205.485H254.688V205.342L254.647 205.205L253.688 205.485ZM252.789 202.406L251.912 201.924L251.712 202.287L251.829 202.686L252.789 202.406ZM254.362 199.546L255.238 200.028L255.4 199.734L255.351 199.402L254.362 199.546ZM253.688 194.927L252.714 194.698L252.671 194.883L252.698 195.072L253.688 194.927ZM254.362 192.068L255.335 192.297L255.362 192.184V192.068H254.362ZM254.362 190.528L254.686 189.582L253.362 189.129V190.528H254.362ZM258.856 192.068L258.532 193.014L258.82 193.113L259.114 193.034L258.856 192.068ZM261.328 191.408L261.586 192.374L262.328 192.176V191.408H261.328ZM261.328 189.868L260.889 188.97L260.328 189.245V189.868H261.328ZM263.576 188.769L264.122 187.931L263.646 187.621L263.136 187.871L263.576 188.769ZM266.272 190.528L265.726 191.366L267.046 189.895L266.272 190.528ZM263.576 187.229L264.35 186.596L264.226 186.444L264.053 186.351L263.576 187.229ZM259.53 185.03L258.79 185.702L258.904 185.827L259.053 185.908L259.53 185.03ZM257.733 183.05L258.473 182.378L258.175 182.05H257.733V183.05ZM255.71 183.05V182.05H255.302L255.011 182.335L255.71 183.05ZM254.362 184.37L253.662 183.655L253.506 183.808L253.428 184.012L254.362 184.37ZM253.688 186.129L252.754 185.772L252.624 186.109L252.741 186.452L253.688 186.129ZM254.362 188.109L255.296 188.467L255.425 188.129L255.308 187.787L254.362 188.109ZM253.688 189.868L253.071 190.656L254.137 191.49L254.621 190.226L253.688 189.868ZM250.317 187.229L250.933 186.442L250.888 186.406L250.838 186.376L250.317 187.229ZM246.721 185.03H245.721V185.59L246.199 185.883L246.721 185.03ZM246.721 183.05V182.05H245.721V183.05H246.721ZM248.744 183.05V184.05H249.744V183.05H248.744ZM248.744 179.091L249.074 178.147L247.744 177.682V179.091H248.744ZM251.89 180.191L251.56 181.135L252.89 181.6V180.191H251.89ZM251.89 177.111H252.89V176.946L252.836 176.789L251.89 177.111ZM251.216 175.132L250.377 174.587L250.112 174.994L250.269 175.454L251.216 175.132ZM252.789 172.712L253.627 173.257L254.221 172.344L253.26 171.83L252.789 172.712ZM250.317 171.393L250.788 170.51L250.515 170.365L250.209 170.398L250.317 171.393ZM246.272 171.833L246.163 170.838L246.031 170.853L245.907 170.901L246.272 171.833ZM244.024 172.712L243.553 173.594L243.96 173.811L244.389 173.643L244.024 172.712ZM241.552 171.393L242.023 170.51L241.663 170.318L241.271 170.433L241.552 171.393ZM237.058 172.712L237.19 173.704L237.266 173.693L237.34 173.672L237.058 172.712ZM232.114 173.372L231.982 172.381L231.684 172.421L231.457 172.618L232.114 173.372ZM230.091 175.132L229.435 174.377L229.391 174.416L229.351 174.459L230.091 175.132ZM228.294 177.111L227.553 176.439L227.421 176.584L227.354 176.769L228.294 177.111ZM227.17 180.191L226.47 180.905L227.578 181.989L228.109 180.533L227.17 180.191ZM226.046 179.091L225.116 179.457L225.194 179.656L225.347 179.806L226.046 179.091ZM224.923 176.232L225.853 175.866L225.499 174.965L224.587 175.289L224.923 176.232ZM222.451 177.111L221.668 177.733L222.112 178.293L222.786 178.053L222.451 177.111ZM220.878 175.132L220.039 174.587L219.647 175.19L220.095 175.754L220.878 175.132ZM222.451 172.712L223.289 173.257L223.546 172.862L223.405 172.412L222.451 172.712ZM221.552 169.853L222.506 169.553L222.45 169.376L222.335 169.231L221.552 169.853ZM219.979 167.873L220.762 167.251L220.163 166.498L219.387 167.067L219.979 167.873ZM217.282 169.853L216.582 170.568L217.189 171.161L217.874 170.659L217.282 169.853ZM215.709 168.313L214.833 167.831L214.467 168.497L215.009 169.028L215.709 168.313ZM217.282 165.454L218.158 165.936L216.745 164.61L217.282 165.454ZM212.787 168.313L212.251 167.47L212.091 167.571L211.98 167.724L212.787 168.313ZM210.54 171.393L209.732 170.803L209.686 170.867L209.65 170.938L210.54 171.393ZM209.192 174.032V175.032H209.804L210.082 174.487L209.192 174.032ZM207.169 174.032H206.169V175.032H207.169V174.032ZM207.169 171.393H208.169V169.418L206.578 170.586L207.169 171.393ZM205.371 172.712L204.78 171.906L204.756 171.923L204.734 171.942L205.371 172.712ZM202.45 175.132L201.492 175.42L201.926 176.864L203.088 175.902L202.45 175.132ZM201.326 171.393L200.557 170.754L200.214 171.167L200.369 171.68L201.326 171.393ZM204.248 167.873L203.51 167.199L203.494 167.216L203.478 167.235L204.248 167.873ZM208.068 163.694L208.806 164.369L208.859 164.311L208.902 164.246L208.068 163.694ZM210.54 159.955L209.841 159.24L209.765 159.315L209.706 159.404L210.54 159.955ZM213.686 156.876L213.168 156.021L213.069 156.08L212.987 156.161L213.686 156.876ZM218.406 154.016L218.924 154.872L218.952 154.855L218.979 154.836L218.406 154.016ZM219.979 152.917L220.552 153.736L220.826 153.544L220.93 153.226L219.979 152.917ZM221.552 148.078L222.503 148.387L222.519 148.338L222.529 148.288L221.552 148.078ZM222.451 143.899L221.632 143.324L221.516 143.49L221.473 143.688L222.451 143.899ZM224.923 140.38L225.741 140.954L225.834 140.822L225.88 140.667L224.923 140.38ZM226.046 136.64L225.473 135.821L225.189 136.02L225.089 136.353L226.046 136.64ZM229.192 134.441L229.765 135.26L229.945 135.135L230.056 134.945L229.192 134.441ZM230.091 132.901L229.435 132.147L229.311 132.255L229.228 132.397L230.091 132.901ZM232.114 131.142L232.77 131.896L233.114 131.597V131.142H232.114ZM232.114 128.942H233.114V127.942H232.114V128.942ZM229.192 128.942V127.942H228.95L228.734 128.053L229.192 128.942ZM224.923 131.142L224.465 130.253L224.296 130.34L224.17 130.483L224.923 131.142ZM220.878 135.761L220.125 135.102L220.073 135.161L220.031 135.228L220.878 135.761ZM217.282 141.479L216.435 140.947L216.376 141.041L216.339 141.146L217.282 141.479ZM215.259 147.198L216.15 147.653L216.18 147.594L216.202 147.531L215.259 147.198ZM213.686 150.277L212.796 149.822L212.763 149.887L212.74 149.955L213.686 150.277ZM212.787 152.917V153.917H213.503L213.734 153.239L212.787 152.917ZM210.54 152.917L209.62 152.525L209.028 153.917H210.54V152.917ZM211.664 150.277L212.584 150.669L212.969 149.764L212.07 149.364L211.664 150.277ZM209.192 149.178L209.598 148.264L208.192 147.638V149.178H209.192ZM209.192 151.157L209.416 152.132L210.192 151.953V151.157H209.192ZM205.371 152.037L205.083 152.994L205.337 153.071L205.596 153.011L205.371 152.037ZM202.45 151.157L201.71 151.829L201.896 152.035L202.162 152.115L202.45 151.157ZM200.652 149.178L201.392 148.505L200.957 148.026L200.342 148.227L200.652 149.178ZM195.933 150.717L194.956 150.503L194.583 152.21L196.243 151.668L195.933 150.717ZM197.955 141.479V140.479H197.151L196.979 141.265L197.955 141.479ZM199.978 141.479L200.914 141.128L200.671 140.479H199.978V141.479ZM202.45 148.078L201.514 148.429L201.757 149.078H202.45V148.078ZM205.371 148.078V149.078H205.669L205.918 148.915L205.371 148.078ZM208.068 146.318L208.615 147.156L208.673 147.118L208.725 147.072L208.068 146.318ZM210.847 143.899L211.504 144.653L211.685 144.495L211.775 144.271L210.847 143.899ZM212.787 139.06L211.906 138.588L211.88 138.637L211.859 138.688L212.787 139.06ZM215.259 134.441L214.407 133.918L214.392 133.943L214.378 133.969L215.259 134.441ZM217.282 131.142L216.488 130.533L216.457 130.575L216.429 130.619L217.282 131.142ZM219.979 127.622L219.314 126.875L219.243 126.939L219.185 127.014L219.979 127.622ZM222.451 125.423L223.115 126.17L223.199 126.096L223.264 126.005L222.451 125.423ZM224.024 123.223L224.837 123.805L224.894 123.726L224.934 123.637L224.024 123.223ZM224.923 121.244L225.833 121.657L226.004 121.282L225.86 120.896L224.923 121.244ZM224.024 118.824L224.961 118.476L224.911 118.34L224.824 118.225L224.024 118.824ZM221.552 115.525L222.352 114.925L222.343 114.914L222.335 114.903L221.552 115.525ZM219.979 113.546L219.006 113.779L219.058 113.994L219.196 114.168L219.979 113.546ZM219.08 109.806L220.052 109.573L219.894 108.915L219.225 108.817L219.08 109.806ZM214.585 109.146L213.886 109.861L214.118 110.089L214.44 110.136L214.585 109.146ZM212.787 107.387L213.487 106.672L213.422 106.608L213.346 106.557L212.787 107.387ZM209.192 104.967L209.75 104.138L209.573 104.018L209.362 103.982L209.192 104.967ZM205.371 104.308L205.542 103.322L205.345 103.288L205.151 103.332L205.371 104.308ZM202.45 104.967L202.23 103.992L202.171 104.005L202.115 104.025L202.45 104.967ZM199.978 105.847L199.372 106.643L199.803 106.971L200.313 106.789L199.978 105.847ZM197.955 104.308L198.561 103.512L198.532 103.49L198.502 103.47L197.955 104.308ZM195.933 102.988H194.933V103.529L195.387 103.825L195.933 102.988ZM195.933 100.128L194.964 99.881L194.933 100.003V100.128H195.933ZM196.382 98.3689L197.351 98.6164L197.454 98.2138L197.241 97.8569L196.382 98.3689ZM80.015 250.912L85.1143 280.052L87.0844 279.707L81.985 250.567L80.015 250.912ZM82.4414 235.664L80.013 250.578L81.987 250.9L84.4154 235.985L82.4414 235.664ZM85.1614 228.24L82.4902 235.478L84.3665 236.171L87.0377 228.933L85.1614 228.24ZM88.9092 222.55L85.2666 228.033L86.9325 229.14L90.5751 223.656L88.9092 222.55ZM94.342 216.511L88.9996 222.433L90.4846 223.773L95.827 217.851L94.342 216.511ZM94.0845 211.917V217.181H96.0845V211.917H94.0845ZM96.3591 206.679L94.1736 211.504L95.9954 212.329L98.181 207.504L96.3591 206.679ZM94.1388 201.056L96.3243 207.416L98.2158 206.767L96.0303 200.406L94.1388 201.056ZM96.3319 194.463L94.1464 200.385L96.0227 201.077L98.2082 195.155L96.3319 194.463ZM100.258 186.471L96.3728 194.367L98.1673 195.25L102.053 187.354L100.258 186.471ZM100.155 177.92V186.913H102.155V177.92H100.155ZM98.2626 172.31L100.205 178.232L102.106 177.608L100.163 171.686L98.2626 172.31ZM101.943 163.473L98.3004 171.588L100.125 172.407L103.768 164.292L101.943 163.473ZM101.855 157.741V163.883H103.855V157.741H101.855ZM108.76 143.695L101.961 157.294L103.75 158.188L110.549 144.59L108.76 143.695ZM116.326 131.125L108.798 143.627L110.511 144.658L118.039 132.156L116.326 131.125ZM123.64 120.332L116.355 131.079L118.01 132.201L125.296 121.454L123.64 120.332ZM136.119 106.834L123.734 120.214L125.202 121.572L137.586 108.193L136.119 106.834ZM148.84 96.2174L136.212 106.745L137.493 108.282L150.12 97.7535L148.84 96.2174ZM156.249 91.7421L148.964 96.1288L149.996 97.8421L157.281 93.4554L156.249 91.7421ZM164.214 86.2901L156.2 91.7735L157.33 93.424L165.343 87.9407L164.214 86.2901ZM171.578 86.1154H164.779V88.1154H171.578V86.1154ZM174.936 83.8532L171.051 86.2659L172.106 87.9649L175.991 85.5522L174.936 83.8532ZM179.442 86.2999L176.042 83.8872L174.885 85.5182L178.284 87.9309L179.442 86.2999ZM179.863 90.6247V87.1154H177.863V90.6247H179.863ZM183.202 91.7072L179.316 89.7332L178.41 91.5163L182.296 93.4903L183.202 91.7072ZM186.969 89.7054L182.355 91.6794L183.142 93.5181L187.756 91.5441L186.969 89.7054ZM193.433 89.6247H187.362V91.6247H193.433V89.6247ZM197.591 93.9202L194.191 89.9722L192.676 91.2773L196.075 95.2253L197.591 93.9202ZM201.69 93.5728H196.833V95.5728H201.69V93.5728ZM203.147 93.5728H201.69V95.5728H203.147V93.5728ZM207.106 91.6874L202.735 93.6614L203.558 95.4841L207.929 93.5101L207.106 91.6874ZM206.518 88.6507V92.5988H208.518V88.6507H206.518ZM208.299 84.3072L206.599 88.2553L208.436 89.0462L210.136 85.0982L208.299 84.3072ZM215.264 81.9845L208.95 83.7392L209.486 85.6662L215.799 83.9115L215.264 81.9845ZM222.806 80.0067L215.278 81.9807L215.785 83.9153L223.313 81.9413L222.806 80.0067ZM231.083 78.0274L222.827 80.0014L223.292 81.9466L231.548 79.9726L231.083 78.0274ZM235.444 78H231.316V80H235.444V78ZM238.3 80.2319L236.114 78.2579L234.774 79.7421L236.959 81.7161L238.3 80.2319ZM236.386 87.4507L238.572 81.3093L236.688 80.6387L234.502 86.7801L236.386 87.4507ZM234.376 91.1091L236.319 87.5997L234.569 86.6311L232.627 90.1404L234.376 91.1091ZM234.501 92.5988V90.6247H232.501V92.5988H234.501ZM236.358 96.5805L234.416 92.1938L232.587 93.0037L234.53 97.3904L236.358 96.5805ZM239.332 93.6973L234.961 96.11L235.927 97.8609L240.298 95.4483L239.332 93.6973ZM245.831 91.6443L239.517 93.6183L240.114 95.5272L246.427 93.5532L245.831 91.6443ZM251.381 89.6819L245.796 91.6559L246.462 93.5416L252.047 91.5676L251.381 89.6819ZM253.32 86.5464L250.892 90.0557L252.536 91.1938L254.965 87.6844L253.32 86.5464ZM253.143 84.7027V87.1154H255.143V84.7027H253.143ZM259.242 83.7027H254.143V85.7027H259.242V83.7027ZM260.242 90.6247V84.7027H258.242V90.6247H260.242ZM262.301 91.8228L259.873 89.8488L258.611 91.4007L261.04 93.3747L262.301 91.8228ZM264.128 93.9202L262.428 91.9462L260.913 93.2513L262.613 95.2253L264.128 93.9202ZM266.092 96.3583L264.149 93.9456L262.591 95.1999L264.534 97.6126L266.092 96.3583ZM269.295 97.361L265.653 96.045L264.973 97.926L268.616 99.242L269.295 97.361ZM272.507 99.9439L269.593 97.5312L268.318 99.0717L271.232 101.484L272.507 99.9439ZM276.726 99.7141H271.87V101.714H276.726V99.7141ZM280.289 105.526L277.618 100.262L275.835 101.167L278.506 106.431L280.289 105.526ZM282.158 106.695L279.972 105.16L278.823 106.796L281.008 108.332L282.158 106.695ZM287.156 105.011L281.328 106.547L281.838 108.481L287.666 106.945L287.156 105.011ZM292.407 103.066L287.065 105.04L287.758 106.916L293.1 104.942L292.407 103.066ZM297.761 105.059L293.147 103.085L292.36 104.924L296.974 106.898L297.761 105.059ZM300.128 106.695L297.942 105.16L296.793 106.796L298.978 108.332L300.128 106.695ZM295.182 108.514H299.553V106.514H295.182V108.514ZM296.182 110.365V107.514H294.182V110.365H296.182ZM290.485 108.336L294.614 111.188L295.75 109.542L291.622 106.691L290.485 108.336ZM288.028 111.152L291.67 108.301L290.437 106.726L286.795 109.577L288.028 111.152ZM284.146 114.22L288.031 111.149L286.791 109.58L282.906 112.651L284.146 114.22ZM285.787 114.816L284.33 112.842L282.721 114.029L284.178 116.003L285.787 114.816ZM284.47 119.907L285.927 115.74L284.039 115.08L282.582 119.247L284.47 119.907ZM288.124 122.824L284.239 118.876L282.813 120.278L286.698 124.226L288.124 122.824ZM289.783 126.41L288.326 123.12L286.497 123.93L287.954 127.22L289.783 126.41ZM289.868 129.886V126.815H287.868V129.886H289.868ZM293.165 130.729L289.28 128.974L288.457 130.797L292.342 132.552L293.165 130.729ZM299.303 128.917L292.504 130.672L293.003 132.609L299.803 130.854L299.303 128.917ZM302.953 128.886H299.553V130.886H302.953V128.886ZM306.595 130.766L303.439 129.012L302.467 130.76L305.624 132.514L306.595 130.766ZM303.65 135.428L306.807 132.357L305.412 130.924L302.255 133.994L303.65 135.428ZM308.538 133.711H302.953V135.711H308.538V133.711ZM312.598 130.808L307.984 133.879L309.092 135.544L313.706 132.473L312.598 130.808ZM317.811 131.999L313.44 130.683L312.864 132.598L317.235 133.914L317.811 131.999ZM318.523 137.343V132.956H316.523V137.343H318.523ZM322.182 137.702L317.811 136.386L317.235 138.301L321.606 139.617L322.182 137.702ZM323.846 136.464L321.418 137.78L322.37 139.538L324.799 138.222L323.846 136.464ZM321.019 133.441L323.447 137.827L325.197 136.859L322.769 132.472L321.019 133.441ZM316.782 128.802L321.153 133.628L322.635 132.285L318.264 127.46L316.782 128.802ZM321.169 122.837L316.798 127.443L318.248 128.819L322.619 124.213L321.169 122.837ZM328.839 119.952L321.554 122.584L322.234 124.465L329.519 121.833L328.839 119.952ZM336.34 122.592L329.54 119.96L328.818 121.826L335.618 124.458L336.34 122.592ZM356.116 127.157L336.204 122.551L335.753 124.499L355.666 129.105L356.116 127.157ZM370.538 132.009L356.21 127.183L355.572 129.079L369.899 133.904L370.538 132.009ZM382.743 133.721L370.359 131.966L370.078 133.946L382.463 135.701L382.743 133.721ZM396.772 143.321L383.173 133.889L382.033 135.533L395.632 144.964L396.772 143.321ZM399.333 150.178L397.148 143.817L395.256 144.467L397.442 150.828L399.333 150.178ZM403.978 171.788L399.365 150.293L397.41 150.713L402.022 172.208L403.978 171.788ZM411.45 194.496L403.95 171.686L402.05 172.31L409.55 195.121L411.45 194.496ZM424.785 211.297L411.285 194.189L409.715 195.428L423.215 212.536L424.785 211.297ZM425 247V211.917H423V247H425ZM374.48 218.035L423.48 247.854L424.52 246.146L375.52 216.327L374.48 218.035ZM383.572 246.753L375.969 216.934L374.031 217.428L381.634 247.247L383.572 246.753ZM393.688 283.735L383.568 246.736L381.639 247.264L391.759 284.263L393.688 283.735ZM399.368 312.32L393.705 283.804L391.743 284.193L397.407 312.71L399.368 312.32ZM393.248 316.852L398.912 313.366L397.863 311.663L392.2 315.148L393.248 316.852ZM330.614 303.988L392.518 316.979L392.929 315.021L331.025 302.031L330.614 303.988ZM277.708 290.353L330.57 303.978L331.069 302.041L278.207 288.417L277.708 290.353ZM252.38 294.491L278.116 290.372L277.8 288.398L252.064 292.517L252.38 294.491ZM241.084 298.564L252.56 294.445L251.885 292.563L240.408 296.682L241.084 298.564ZM228.593 294.448L240.417 298.567L241.075 296.679L229.25 292.56L228.593 294.448ZM219.602 287.314L228.296 294.284L229.547 292.724L220.853 285.753L219.602 287.314ZM212.929 284.938L219.885 287.473L220.569 285.594L213.614 283.059L212.929 284.938ZM208.505 280.581L212.559 284.7L213.984 283.297L209.93 279.178L208.505 280.581ZM180.658 294.409L209.643 280.785L208.792 278.975L179.807 292.599L180.658 294.409ZM176.262 300.442L181.032 294.105L179.434 292.903L174.664 299.24L176.262 300.442ZM176.463 309.663V299.841H174.463V309.663H176.463ZM165.037 313.481L175.721 310.629L175.206 308.697L164.521 311.549L165.037 313.481ZM156.765 313.515H164.779V311.515H156.765V313.515ZM148.789 306.267L156.074 313.237L157.456 311.792L150.171 304.822L148.789 306.267ZM142.656 303.94L149.115 306.475L149.845 304.613L143.386 302.078L142.656 303.94ZM136.195 298.376L142.363 303.763L143.679 302.256L137.51 296.87L136.195 298.376ZM129.885 276.346L135.889 297.891L137.816 297.355L131.812 275.809L129.885 276.346ZM123.666 268.121L130.047 276.675L131.65 275.48L125.269 266.925L123.666 268.121ZM118.146 293.774L125.431 267.793L123.505 267.253L116.22 293.234L118.146 293.774ZM110.135 298.5L117.663 294.381L116.703 292.627L109.175 296.746L110.135 298.5ZM97.8089 306.387L110.194 298.465L109.116 296.781L96.7312 304.702L97.8089 306.387ZM85.1824 280.279L96.3531 305.943L98.187 305.145L87.0162 279.481L85.1824 280.279ZM192.055 99.1562L195.426 96.5168L194.193 94.9421L190.822 97.5815L192.055 99.1562ZM190.35 104.005L192.372 98.7267L190.505 98.0111L188.482 103.29L190.35 104.005ZM190.416 107.387V103.648H188.416V107.387H190.416ZM193.286 109.996L190.14 106.697L188.692 108.077L191.838 111.376L193.286 109.996ZM193.562 113.546V110.686H191.562V113.546H193.562ZM195.47 114.775L193.223 112.795L191.901 114.296L194.148 116.275L195.47 114.775ZM195.809 119.484V115.525H193.809V119.484H195.809ZM193.419 123.738L195.666 119.999L193.952 118.969L191.705 122.708L193.419 123.738ZM195.509 124.708L193.262 122.509L191.863 123.938L194.11 126.138L195.509 124.708ZM197.295 128.534L195.722 125.015L193.896 125.831L195.469 129.35L197.295 128.534ZM195.623 131.723L197.196 129.524L195.569 128.36L193.996 130.56L195.623 131.723ZM197.285 134.01L195.712 130.711L193.907 131.572L195.48 134.871L197.285 134.01ZM195.623 137.222L197.196 135.023L195.569 133.859L193.996 136.059L195.623 137.222ZM197.221 138.515L195.648 136.095L193.971 137.185L195.544 139.605L197.221 138.515ZM192.562 140.06H196.382V138.06H192.562V140.06ZM190.181 143.443L193.327 139.704L191.797 138.416L188.651 142.155L190.181 143.443ZM185.82 143.799H189.416V141.799H185.82V143.799ZM182.268 147.894L186.538 143.495L185.103 142.102L180.833 146.502L182.268 147.894ZM181.149 151.48L182.497 147.52L180.604 146.876L179.256 150.835L181.149 151.48ZM181.202 156.876V151.157H179.202V156.876H181.202ZM178.658 163.407L181.13 157.248L179.274 156.503L176.802 162.662L178.658 163.407ZM177.131 170.078L178.705 163.259L176.756 162.81L175.183 169.628L177.131 170.078ZM177.157 175.132V169.853H175.157V175.132H177.157ZM177.157 179.091V175.132H175.157V179.091H177.157ZM179.892 176.82L175.847 178.14L176.467 180.042L180.512 178.722L179.892 176.82ZM183.404 175.312L179.809 176.852L180.596 178.69L184.191 177.151L183.404 175.312ZM186.426 176.975L184.403 175.436L183.192 177.027L185.215 178.567L186.426 176.975ZM186.82 183.05V177.771H184.82V183.05H186.82ZM188.16 193.036L186.812 182.918L184.829 183.182L186.177 193.3L188.16 193.036ZM189.282 200.722L188.158 193.023L186.179 193.312L187.303 201.01L189.282 200.722ZM190.401 207.071L189.277 200.693L187.307 201.04L188.431 207.418L190.401 207.071ZM193.172 208.871L190.026 206.452L188.806 208.037L191.952 210.457L193.172 208.871ZM195.47 210.893L193.223 208.914L191.901 210.414L194.148 212.394L195.47 210.893ZM195.809 214.503V211.644H193.809V214.503H195.809ZM195.809 218.682V214.503H193.809V218.682H195.809ZM198.655 221.047L195.509 217.967L194.11 219.397L197.256 222.476L198.655 221.047ZM201.326 220.761H197.955V222.761H201.326V220.761ZM207.653 217.772L200.911 220.852L201.742 222.671L208.484 219.592L207.653 217.772ZM215.022 215.951L207.83 217.711L208.306 219.653L215.497 217.894L215.022 215.951ZM217.796 213.71L214.65 216.13L215.869 217.715L219.015 215.296L217.796 213.71ZM219.102 211.162L217.529 214.021L219.282 214.985L220.855 212.126L219.102 211.162ZM218.979 207.245V211.644H220.979V207.245H218.979ZM215.259 208.245H219.979V206.245H215.259V208.245ZM212.796 204.62L214.369 207.7L216.15 206.79L214.577 203.71L212.796 204.62ZM212.686 200.866V204.165H214.686V200.866H212.686ZM212.686 197.787V200.866H214.686V197.787H212.686ZM210.052 196.9L213.198 198.659L214.174 196.914L211.028 195.154L210.052 196.9ZM208.287 193.594L209.636 196.454L211.445 195.601L210.096 192.741L208.287 193.594ZM208.192 190.528V193.168H210.192V190.528H208.192ZM207.225 189.307L208.349 191.067L210.035 189.99L208.911 188.231L207.225 189.307ZM209.622 182.653L207.15 188.372L208.986 189.166L211.458 183.447L209.622 182.653ZM213.014 179.451L209.868 182.31L211.213 183.79L214.359 180.931L213.014 179.451ZM216.255 178.155L213.334 179.255L214.039 181.127L216.96 180.027L216.255 178.155ZM217.559 175.699L215.761 178.559L217.454 179.623L219.252 176.764L217.559 175.699ZM221.991 176.873L218.845 175.333L217.966 177.13L221.112 178.669L221.991 176.873ZM224.723 179.476L222.251 177.057L220.852 178.486L223.324 180.905L224.723 179.476ZM227.609 180.832L224.463 179.292L223.584 181.089L226.73 182.629L227.609 180.832ZM229.739 182.213L227.716 180.893L226.623 182.568L228.646 183.887L229.739 182.213ZM231.909 186.834L230.111 182.655L228.274 183.445L230.072 187.624L231.909 186.834ZM235.809 187.823L231.314 186.283L230.666 188.175L235.161 189.715L235.809 187.823ZM240.06 192.512L236.24 188.113L234.73 189.424L238.55 193.823L240.06 192.512ZM241.276 197.577L240.283 192.958L238.327 193.378L239.32 197.997L241.276 197.577ZM241.298 204.165V197.787H239.298V204.165H241.298ZM243.954 207.784L241.126 203.605L239.47 204.726L242.297 208.905L243.954 207.784ZM247.397 210.907L243.802 207.608L242.449 209.081L246.045 212.38L247.397 210.907ZM250.554 211.552L246.959 210.672L246.483 212.615L250.079 213.495L250.554 211.552ZM252.209 209.949L249.737 211.709L250.897 213.338L253.369 211.579L252.209 209.949ZM252.75 207.996L251.851 210.416L253.726 211.112L254.625 208.693L252.75 207.996ZM252.688 205.485V208.344H254.688V205.485H252.688ZM251.829 202.686L252.728 205.765L254.647 205.205L253.749 202.125L251.829 202.686ZM253.486 199.064L251.912 201.924L253.665 202.888L255.238 200.028L253.486 199.064ZM252.698 195.072L253.372 199.691L255.351 199.402L254.677 194.783L252.698 195.072ZM253.388 191.839L252.714 194.698L254.661 195.157L255.335 192.297L253.388 191.839ZM253.362 190.528V192.068H255.362V190.528H253.362ZM259.18 191.122L254.686 189.582L254.038 191.474L258.532 193.014L259.18 191.122ZM261.07 190.442L258.598 191.102L259.114 193.034L261.586 192.374L261.07 190.442ZM260.328 189.868V191.408H262.328V189.868H260.328ZM263.136 187.871L260.889 188.97L261.768 190.767L264.015 189.667L263.136 187.871ZM266.819 189.691L264.122 187.931L263.029 189.606L265.726 191.366L266.819 189.691ZM262.801 187.862L265.498 191.161L267.046 189.895L264.35 186.596L262.801 187.862ZM259.053 185.908L263.098 188.108L264.053 186.351L260.008 184.151L259.053 185.908ZM256.992 183.722L258.79 185.702L260.271 184.357L258.473 182.378L256.992 183.722ZM255.71 184.05H257.733V182.05H255.71V184.05ZM255.061 185.084L256.41 183.765L255.011 182.335L253.662 183.655L255.061 185.084ZM254.621 186.487L255.296 184.728L253.428 184.012L252.754 185.772L254.621 186.487ZM255.308 187.787L254.634 185.807L252.741 186.452L253.415 188.431L255.308 187.787ZM254.621 190.226L255.296 188.467L253.428 187.751L252.754 189.511L254.621 190.226ZM249.7 188.016L253.071 190.656L254.304 189.081L250.933 186.442L249.7 188.016ZM246.199 185.883L249.795 188.082L250.838 186.376L247.243 184.177L246.199 185.883ZM245.721 183.05V185.03H247.721V183.05H245.721ZM248.744 182.05H246.721V184.05H248.744V182.05ZM247.744 179.091V183.05H249.744V179.091H247.744ZM252.22 179.247L249.074 178.147L248.414 180.035L251.56 181.135L252.22 179.247ZM250.89 177.111V180.191H252.89V177.111H250.89ZM250.269 175.454L250.943 177.434L252.836 176.789L252.162 174.809L250.269 175.454ZM251.95 172.167L250.377 174.587L252.054 175.677L253.627 173.257L251.95 172.167ZM249.846 172.275L252.318 173.594L253.26 171.83L250.788 170.51L249.846 172.275ZM246.38 172.827L250.425 172.387L250.209 170.398L246.163 170.838L246.38 172.827ZM244.389 173.643L246.636 172.764L245.907 170.901L243.66 171.781L244.389 173.643ZM241.081 172.275L243.553 173.594L244.495 171.83L242.023 170.51L241.081 172.275ZM237.34 173.672L241.834 172.352L241.271 170.433L236.776 171.753L237.34 173.672ZM232.246 174.363L237.19 173.704L236.926 171.721L231.982 172.381L232.246 174.363ZM230.748 175.886L232.77 174.127L231.457 172.618L229.435 174.377L230.748 175.886ZM229.034 177.784L230.832 175.804L229.351 174.459L227.553 176.439L229.034 177.784ZM228.109 180.533L229.233 177.454L227.354 176.769L226.23 179.848L228.109 180.533ZM225.347 179.806L226.47 180.905L227.869 179.476L226.746 178.376L225.347 179.806ZM223.992 176.597L225.116 179.457L226.977 178.725L225.853 175.866L223.992 176.597ZM222.786 178.053L225.258 177.174L224.587 175.289L222.115 176.169L222.786 178.053ZM220.095 175.754L221.668 177.733L223.234 176.489L221.66 174.51L220.095 175.754ZM221.612 172.167L220.039 174.587L221.716 175.677L223.289 173.257L221.612 172.167ZM220.598 170.153L221.497 173.012L223.405 172.412L222.506 169.553L220.598 170.153ZM219.196 168.496L220.769 170.475L222.335 169.231L220.762 167.251L219.196 168.496ZM217.874 170.659L220.57 168.68L219.387 167.067L216.69 169.047L217.874 170.659ZM215.009 169.028L216.582 170.568L217.981 169.138L216.408 167.599L215.009 169.028ZM216.406 164.972L214.833 167.831L216.585 168.795L218.158 165.936L216.406 164.972ZM213.324 169.157L217.819 166.298L216.745 164.61L212.251 167.47L213.324 169.157ZM211.348 171.982L213.595 168.903L211.98 167.724L209.732 170.803L211.348 171.982ZM210.082 174.487L211.431 171.848L209.65 170.938L208.301 173.577L210.082 174.487ZM207.169 175.032H209.192V173.032H207.169V175.032ZM206.169 171.393V174.032H208.169V171.393H206.169ZM205.963 173.518L207.761 172.199L206.578 170.586L204.78 171.906L205.963 173.518ZM203.088 175.902L206.009 173.482L204.734 171.942L201.812 174.362L203.088 175.902ZM200.369 171.68L201.492 175.42L203.408 174.844L202.284 171.105L200.369 171.68ZM203.478 167.235L200.557 170.754L202.096 172.031L205.017 168.512L203.478 167.235ZM207.33 163.02L203.51 167.199L204.986 168.548L208.806 164.369L207.33 163.02ZM209.706 159.404L207.234 163.143L208.902 164.246L211.374 160.507L209.706 159.404ZM212.987 156.161L209.841 159.24L211.24 160.67L214.386 157.59L212.987 156.161ZM217.887 153.161L213.168 156.021L214.205 157.731L218.924 154.872L217.887 153.161ZM219.406 152.097L217.833 153.197L218.979 154.836L220.552 153.736L219.406 152.097ZM220.601 147.769L219.028 152.608L220.93 153.226L222.503 148.387L220.601 147.769ZM221.473 143.688L220.574 147.868L222.529 148.288L223.428 144.109L221.473 143.688ZM224.104 139.805L221.632 143.324L223.269 144.474L225.741 140.954L224.104 139.805ZM225.089 136.353L223.965 140.092L225.88 140.667L227.004 136.928L225.089 136.353ZM228.619 133.621L225.473 135.821L226.619 137.46L229.765 135.26L228.619 133.621ZM229.228 132.397L228.329 133.937L230.056 134.945L230.955 133.405L229.228 132.397ZM231.457 130.387L229.435 132.147L230.748 133.656L232.77 131.896L231.457 130.387ZM231.114 128.942V131.142H233.114V128.942H231.114ZM229.192 129.942H232.114V127.942H229.192V129.942ZM225.381 132.031L229.65 129.831L228.734 128.053L224.465 130.253L225.381 132.031ZM221.63 136.419L225.675 131.8L224.17 130.483L220.125 135.102L221.63 136.419ZM218.129 142.012L221.724 136.293L220.031 135.228L216.435 140.947L218.129 142.012ZM216.202 147.531L218.225 141.813L216.339 141.146L214.317 146.865L216.202 147.531ZM214.577 150.732L216.15 147.653L214.369 146.743L212.796 149.822L214.577 150.732ZM213.734 153.239L214.633 150.6L212.74 149.955L211.841 152.594L213.734 153.239ZM210.54 153.917H212.787V151.917H210.54V153.917ZM210.744 149.886L209.62 152.525L211.46 153.308L212.584 150.669L210.744 149.886ZM208.785 150.091L211.257 151.191L212.07 149.364L209.598 148.264L208.785 150.091ZM210.192 151.157V149.178H208.192V151.157H210.192ZM205.596 153.011L209.416 152.132L208.967 150.183L205.147 151.062L205.596 153.011ZM202.162 152.115L205.083 152.994L205.66 151.079L202.738 150.2L202.162 152.115ZM199.912 149.85L201.71 151.829L203.19 150.485L201.392 148.505L199.912 149.85ZM196.243 151.668L200.962 150.128L200.342 148.227L195.623 149.767L196.243 151.668ZM196.979 141.265L194.956 150.503L196.91 150.931L198.932 141.693L196.979 141.265ZM199.978 140.479H197.955V142.479H199.978V140.479ZM203.386 147.727L200.914 141.128L199.042 141.83L201.514 148.429L203.386 147.727ZM205.371 147.078H202.45V149.078H205.371V147.078ZM207.522 145.481L204.825 147.24L205.918 148.915L208.615 147.156L207.522 145.481ZM210.19 143.145L207.412 145.564L208.725 147.072L211.504 144.653L210.19 143.145ZM211.859 138.688L209.919 143.527L211.775 144.271L213.716 139.432L211.859 138.688ZM214.378 133.969L211.906 138.588L213.669 139.532L216.141 134.913L214.378 133.969ZM216.429 130.619L214.407 133.918L216.112 134.963L218.134 131.664L216.429 130.619ZM219.185 127.014L216.488 130.533L218.076 131.75L220.772 128.231L219.185 127.014ZM221.786 124.676L219.314 126.875L220.643 128.369L223.115 126.17L221.786 124.676ZM223.21 122.642L221.637 124.841L223.264 126.005L224.837 123.805L223.21 122.642ZM224.012 120.83L223.113 122.81L224.934 123.637L225.833 121.657L224.012 120.83ZM223.086 119.173L223.985 121.592L225.86 120.896L224.961 118.476L223.086 119.173ZM220.751 116.125L223.223 119.424L224.824 118.225L222.352 114.925L220.751 116.125ZM219.196 114.168L220.769 116.147L222.335 114.903L220.762 112.923L219.196 114.168ZM218.107 110.04L219.006 113.779L220.951 113.312L220.052 109.573L218.107 110.04ZM214.44 110.136L218.934 110.796L219.225 108.817L214.73 108.157L214.44 110.136ZM212.088 108.102L213.886 109.861L215.285 108.432L213.487 106.672L212.088 108.102ZM208.634 105.797L212.229 108.217L213.346 106.557L209.75 104.138L208.634 105.797ZM205.201 105.293L209.022 105.953L209.362 103.982L205.542 103.322L205.201 105.293ZM202.67 105.943L205.592 105.283L205.151 103.332L202.23 103.992L202.67 105.943ZM200.313 106.789L202.785 105.91L202.115 104.025L199.643 104.905L200.313 106.789ZM197.35 105.103L199.372 106.643L200.584 105.052L198.561 103.512L197.35 105.103ZM195.387 103.825L197.409 105.145L198.502 103.47L196.479 102.15L195.387 103.825ZM194.933 100.128V102.988H196.933V100.128H194.933ZM195.414 98.1214L194.964 99.881L196.902 100.376L197.351 98.6164L195.414 98.1214ZM193.95 96.2414L195.523 98.8809L197.241 97.8569L195.668 95.2175L193.95 96.2414Z" fill="#413D3D"/>
<path d="M206.025 131.479L204.227 129.499L210.969 124.88L213.441 127.079L206.025 131.479Z" stroke="#413D3D" stroke-width="2"/>
<path d="M217.935 123.34L219.508 125.32L215.014 125.76V124.22L217.935 123.34Z" stroke="#413D3D" stroke-width="2"/>
<path d="M253.665 83.3094L252.541 81.9897L253.665 81.5497L256.137 82.4296L257.26 83.3094L258.609 85.2889L259.508 83.9692L260.182 82.4296L261.081 81.5497L262.654 82.8695H264.451L265.8 81.9897H268.047V84.6291L268.946 85.2889L270.969 83.9692L272.991 82.8695L274.564 80.45L274.115 79.3502H270.969L264.451 78.6904L263.103 76.9308V74.5113L264.002 72.5318L273.665 72.9717L277.261 76.2709L275.463 78.2505V79.3502L278.609 79.7901L280.407 78.6904H282.205H288.272L290.295 79.3502L291.643 80.45L290.295 83.3094L288.272 81.9897L286.699 82.4296L286.025 85.2889L281.306 84.4091H278.609L277.261 86.3887H275.463L275.014 87.7084H272.991L271.643 88.5882L269.395 91.0076H266.249L265.126 91.8874L263.553 92.9872L263.103 94.087L262.654 95.1867L261.081 95.6266L257.934 94.7468L256.137 95.6266L254.339 93.6471V91.8874V86.8286L252.766 85.2889L253.665 84.4091V83.3094Z" fill="#F0F0F0"/>
<path d="M325.128 60.2145L327.375 58.015L329.173 58.8948L330.746 58.015L333.218 56.4753L332.319 58.4549L332.768 59.7746L334.341 58.8948L336.589 57.5751L338.386 58.8948L338.162 60.4345L336.813 61.3143L334.341 61.7542V63.9537L333.218 64.8335V65.7133L333.667 67.9128V69.8923L332.543 70.3323H330.521L328.049 69.8923L326.026 69.2325L324.453 68.3527L323.105 66.813L322.88 64.8335L323.33 62.1941L325.128 60.2145Z" fill="#F0F0F0"/>
<path d="M253.665 83.3094L252.541 81.9897L253.665 81.5497L256.137 82.4296L257.26 83.3094L258.609 85.2889L259.508 83.9692L260.182 82.4296L261.081 81.5497L262.654 82.8695H264.451L265.8 81.9897H268.047V84.6291L268.946 85.2889L270.969 83.9692L272.991 82.8695L274.564 80.45L274.115 79.3502H270.969L264.451 78.6904L263.103 76.9308V74.5113L264.002 72.5318L273.665 72.9717L277.261 76.2709L275.463 78.2505V79.3502L278.609 79.7901L280.407 78.6904H282.205H288.272L290.295 79.3502L291.643 80.45L290.295 83.3094L288.272 81.9897L286.699 82.4296L286.025 85.2889L281.306 84.4091H278.609L277.261 86.3887H275.463L275.014 87.7084H272.991L271.643 88.5882L269.395 91.0076H266.249L265.126 91.8874L263.553 92.9872L263.103 94.087L262.654 95.1867L261.081 95.6266L257.934 94.7468L256.137 95.6266L254.339 93.6471V91.8874V86.8286L252.766 85.2889L253.665 84.4091V83.3094Z" stroke="#413D3D" stroke-width="2"/>
<path d="M325.128 60.2145L327.375 58.015L329.173 58.8948L330.746 58.015L333.218 56.4753L332.319 58.4549L332.768 59.7746L334.341 58.8948L336.589 57.5751L338.386 58.8948L338.162 60.4345L336.813 61.3143L334.341 61.7542V63.9537L333.218 64.8335V65.7133L333.667 67.9128V69.8923L332.543 70.3323H330.521L328.049 69.8923L326.026 69.2325L324.453 68.3527L323.105 66.813L322.88 64.8335L323.33 62.1941L325.128 60.2145Z" stroke="#413D3D" stroke-width="2"/>
<path d="M343.61 44.228L337.696 41.3133L339.856 39.8739L343.323 39.6645L348.012 39.3811L352.498 39.11L359.92 39.9703L369.301 42.6755L373.342 48.3212L375.315 53.6554L373.917 57.4483L379.63 63.6473L387.15 69.3008L394.831 71.018L409.104 70.1555L404.639 57.7732L398.136 48.7861L391.528 44.6045L385.409 41.7021L380.922 38.7012L385.203 38.4424L380.647 34.3549L387.66 31.9679L395.928 36.4855L403.268 36.0419L400.833 33.1351L392.35 31.6845L384.669 29.9673L380.14 26.3144L373.616 26.7087L372.122 28.9804L365.868 27.1769L355.046 24.3406L347.094 24.8212L342.404 25.1045L307.538 27.2115L267.973 39.2006L307.113 20.4748L336.105 16.1051L344.63 18.2077L348.543 15.3535L354.621 17.6039L359.757 14.6758L365.059 14.3555L374.438 13.7887L389.691 15.4846L403.408 18.8004C403.408 18.8004 410.029 26.3549 417.325 31.9679C424.622 37.5809 420.5 78.4998 420.5 78.4998L409.104 86L397.641 89.6083L381.535 93.8537L359.309 91.9247L352.779 82.503L350.178 73.7164L347.769 67.9722L351.422 60.9891L349.246 58.9392L349.013 55.2449L350.832 51.6447L346.467 47.3275L343.61 44.228Z" fill="#F0F0F0" stroke="#413D3D" stroke-width="2"/>
<path d="M84.6999 324.258C78.6512 303.255 75.4282 281.192 75.4282 258.435C75.4282 116.984 199.959 2.31543 353.576 2.31543C381.174 2.31543 407.833 6.01645 433 12.9089" stroke="black" stroke-width="3"/>
<path d="M13.4883 22.884C10.6481 24.2639 6.15479 26.2895 6.15479 26.2895L6.41669 112.213C6.41669 112.213 7.18957 111.687 7.72624 111.427C8.68716 110.961 9.33118 110.976 10.3453 110.641C11.4823 110.266 12.1456 110.108 13.2263 109.593C14.3031 109.08 14.8192 108.63 15.8454 108.022C17.068 107.297 17.8439 107.03 18.9884 106.188C19.9803 105.458 20.4118 104.895 21.3456 104.092C22.9442 102.717 23.8707 101.98 25.5361 100.687C27.4427 99.2057 28.5017 98.3551 30.5124 97.0191C32.6895 95.5725 34.0783 95.0311 36.2744 93.6136C38.3725 92.2594 39.5023 91.4276 41.5126 89.9462C43.9176 88.1738 45.0831 86.9354 47.5365 85.2308C49.4243 83.9193 52.5128 82.0873 52.5128 82.0873C52.5128 82.0873 55.3266 80.6445 56.9653 79.4677C58.2631 78.5357 60.1082 76.8481 60.1082 76.8481C60.1082 76.8481 62.4299 75.5477 64.0368 75.0143C65.332 74.5845 67.4417 74.2284 67.4417 74.2284C67.4417 74.2284 69.6501 73.5766 71.1084 73.4426C72.2288 73.3396 73.9894 73.4426 73.9894 73.4426L76.6085 74.2284C76.6085 74.2284 77.7528 74.6511 78.4419 75.0143C79.7991 75.7299 81.5848 77.372 81.5848 77.372C81.5848 77.372 83.5856 79.68 84.9896 81.0395C86.8151 82.8069 89.9659 85.2308 89.9659 85.2308C89.9659 85.2308 92.441 87.5617 94.1565 88.8983C96.0141 90.3457 99.1327 92.3038 99.1327 92.3038C99.1327 92.3038 102.246 94.3634 104.371 95.4473C106.74 96.6557 108.179 97.1019 110.657 98.067C112.587 98.8185 115.633 99.9007 115.633 99.9007L119.3 101.211C119.3 101.211 120.888 101.574 121.919 101.734C125.658 102.318 127.825 101.734 131.61 101.734C134.473 101.734 136.693 101.53 138.943 101.734L144.705 102.258C144.705 102.258 146.975 101.941 148.372 102.258C149.224 102.452 150.467 103.044 150.467 103.044C150.467 103.044 150.324 104.176 150.467 104.878C150.701 106.027 151.218 106.595 151.997 107.452L152.039 107.498C153.031 108.589 153.781 109.131 155.181 109.593C156.833 110.138 158.029 110.262 159.634 109.593C161.037 109.008 161.415 108.024 162.515 106.974C163.561 105.975 164.139 105.404 165.134 104.354C166.08 103.355 166.263 102.356 167.491 101.734C168.244 101.354 169.586 101.211 169.586 101.211C169.586 101.211 171.063 100.478 171.944 99.9007C172.919 99.2613 173.402 98.8103 174.301 98.067C175.139 97.3739 176.074 97.272 176.396 96.2332C176.578 95.6469 176.34 95.2727 176.396 94.6615C176.503 93.4999 177.182 91.7799 177.182 91.7799C177.182 91.7799 178.507 91.9605 179.277 92.3038C180.342 92.7785 181.634 94.1375 181.634 94.1375C181.634 94.1375 182.345 95.4763 182.944 96.2332C183.572 97.0275 184.777 98.067 184.777 98.067C184.777 98.067 186.777 99.0563 187.92 99.9007C188.795 100.547 190.015 101.734 190.015 101.734C190.015 101.734 192.025 102.758 193.42 103.044C195.124 103.393 197.873 103.044 197.873 103.044C197.873 103.044 197.705 104.182 197.873 104.878C198.099 105.816 199.182 106.974 199.182 106.974C199.182 106.974 199.791 107.797 200.23 108.283C201.054 109.199 202.587 110.379 202.587 110.379C202.587 110.379 203.985 111.12 204.944 111.427C205.938 111.745 207.563 111.951 207.563 111.951H209.659C209.659 111.951 211.124 111.732 212.016 111.427C213.709 110.848 215.945 109.069 215.945 109.069C215.945 109.069 217.674 108.072 218.04 106.974C218.299 106.197 218.04 104.878 218.04 104.878L216.73 103.044C216.73 103.044 215.123 101.942 214.111 101.211C212.867 100.312 212.017 99.9729 210.968 98.8528C210.115 97.9414 209.966 97.1652 209.135 96.2332C208.315 95.3138 206.778 94.1375 206.778 94.1375C206.778 94.1375 205.132 92.8704 204.42 91.7799C203.87 90.9361 203.844 90.3126 203.373 89.4222C202.682 88.1184 201.278 86.2787 201.278 86.2787C201.278 86.2787 199.99 85.0114 199.182 84.183C197.717 82.6807 196.935 81.7993 195.516 80.2536C193.654 78.2265 192.194 77.3887 190.801 75.0143C190.338 74.2251 190.197 73.7192 189.754 72.9186C189.108 71.7517 188.811 71.0293 187.92 70.0371C186.744 68.7277 185.586 68.5664 184.253 67.4174C182.664 66.0472 182.017 65.0244 180.587 63.488C179.255 62.0574 177.182 59.8206 177.182 59.8206C177.182 59.8206 175.313 57.5023 174.301 55.8911C173.254 54.225 171.944 51.4378 171.944 51.4378C171.944 51.4378 170.623 48.9669 169.586 47.5084C168.828 46.4406 167.491 44.8887 167.491 44.8887C167.491 44.8887 165.564 42.5001 164.086 41.2213C162.585 39.9216 161.637 39.2945 159.896 38.3397C157.681 37.1252 153.872 35.982 153.872 35.982C153.872 35.982 149.4 34.7143 146.538 33.8863C141.005 32.2851 137.967 31.158 132.395 29.695C127.62 28.441 124.881 27.9884 120.086 26.8134C114.134 25.3551 110.875 24.2184 104.895 22.884C100.216 21.8399 97.4984 21.6874 92.8469 20.5263C90.2705 19.8832 88.8671 19.3686 86.2992 18.6926C84.26 18.1557 83.0838 17.978 81.061 17.3828C78.6715 16.6796 77.416 16.0249 75.037 15.2871C72.4066 14.4713 70.9423 13.916 68.2274 13.4533C66.1004 13.0909 64.8467 13.3341 62.7273 12.9294C60.3119 12.4682 59.1453 11.3848 56.7034 11.0957C55.0782 10.9032 54.1493 11.0957 52.5128 11.0957C50.5695 11.0957 49.4679 10.8804 47.5365 11.0957C45.6621 11.3046 44.6641 11.738 42.8222 12.1435C40.471 12.6611 39.1355 12.8761 36.7982 13.4533C34.2203 14.09 32.7711 14.4517 30.2505 15.2871C27.3297 16.255 25.7166 16.8917 22.917 18.1686C21.0442 19.0229 20.0437 19.6056 18.2026 20.5263C16.3616 21.447 15.3397 21.9843 13.4883 22.884Z" fill="white"/>
<path d="M12.8753 22.9966C14.7448 22.0884 15.7765 21.546 17.6353 20.6166C19.4942 19.6871 20.5044 19.0989 22.3953 18.2366C25.222 16.9475 26.8507 16.3048 29.7998 15.3277C32.3448 14.4845 33.808 14.1193 36.4109 13.4766C38.7707 12.8939 40.1192 12.6769 42.4931 12.1544C44.3528 11.745 45.3606 11.3075 47.2531 11.0966C49.2032 10.8793 50.3154 11.0966 52.2776 11.0966C53.9299 11.0966 54.8678 10.9023 56.5087 11.0966C58.9743 11.3885 60.1521 12.4821 62.5909 12.9477C64.7308 13.3562 65.9966 13.1107 68.1442 13.4766C70.8854 13.9436 72.3638 14.5042 75.0198 15.3277C77.4218 16.0725 78.6894 16.7335 81.102 17.4432C83.1444 18.0441 84.332 18.2235 86.3909 18.7655C88.9837 19.448 90.4007 19.9674 93.002 20.6166C97.6985 21.7887 100.442 21.9426 105.166 22.9966C111.205 24.3436 114.495 25.4912 120.504 26.9632C125.346 28.1494 128.112 28.6063 132.933 29.8721C138.559 31.3491 141.626 32.4868 147.213 34.1032C150.102 34.939 154.618 36.2188 154.618 36.2188C154.618 36.2188 158.463 37.3728 160.7 38.5988C162.458 39.5626 163.414 40.1957 164.931 41.5077C166.423 42.7986 168.369 45.2099 168.369 45.2099C168.369 45.2099 169.718 46.7764 170.484 47.8544C171.531 49.3268 172.864 51.821 172.864 51.821C172.864 51.821 174.187 54.6346 175.244 56.3166C176.266 57.943 178.153 60.2832 178.153 60.2832C178.153 60.2832 180.247 62.5413 181.591 63.9855C183.035 65.5364 183.688 66.5689 185.293 67.9521C186.639 69.112 187.808 69.2748 188.995 70.5966C189.895 71.5983 190.194 72.3274 190.846 73.5055C191.294 74.3136 191.437 74.8243 191.904 75.621C193.31 78.0179 194.784 78.8637 196.664 80.9099C198.098 82.4703 198.887 83.36 200.366 84.8766C201.182 85.7128 202.482 86.9921 202.482 86.9921C202.482 86.9921 203.9 88.8493 204.597 90.1654C205.074 91.0643 205.099 91.6936 205.655 92.5455C206.374 93.6463 208.035 94.9254 208.035 94.9254C208.035 94.9254 209.588 96.1129 210.415 97.041C211.254 97.9818 211.405 98.7653 212.266 99.6854C213.325 100.816 214.184 101.159 215.44 102.065C216.462 102.803 218.084 103.917 218.084 103.917L219.406 105.768C219.406 105.768 219.668 107.099 219.406 107.883C219.037 108.992 217.291 109.999 217.291 109.999C217.291 109.999 215.034 111.795 213.324 112.379C212.423 112.687 210.944 112.908 210.944 112.908H208.829C208.829 112.908 207.187 112.7 206.184 112.379C205.215 112.069 203.804 111.321 203.804 111.321C203.804 111.321 202.257 110.129 201.424 109.205C200.981 108.714 200.366 107.883 200.366 107.883C200.366 107.883 199.273 106.715 199.044 105.768C198.875 105.065 199.044 103.917 199.044 103.917C199.044 103.917 196.269 104.269 194.549 103.917C193.139 103.628 191.111 102.594 191.111 102.594C191.111 102.594 189.878 101.395 188.995 100.743C187.841 99.8908 185.822 98.8921 185.822 98.8921C185.822 98.8921 184.605 97.8428 183.971 97.041C183.366 96.2769 182.649 94.9254 182.649 94.9254C182.649 94.9254 181.344 93.5535 180.269 93.0743C179.491 92.7278 178.153 92.5455 178.153 92.5455C178.153 92.5455 177.467 94.2818 177.36 95.4543C177.303 96.0714 177.543 96.4491 177.36 97.041C177.035 98.0897 176.09 98.1925 175.244 98.8921C174.337 99.6425 173.849 100.098 172.864 100.743C171.975 101.326 170.484 102.065 170.484 102.065C170.484 102.065 169.129 102.21 168.369 102.594C167.129 103.221 166.944 104.23 165.989 105.239C164.984 106.299 164.401 106.875 163.344 107.883C162.234 108.943 161.852 109.937 160.435 110.528C158.815 111.203 157.607 111.078 155.94 110.528C154.525 110.061 153.768 109.514 152.766 108.412C151.956 107.521 151.42 106.948 151.18 105.768C151.035 105.059 151.18 103.917 151.18 103.917C151.18 103.917 149.925 103.319 149.064 103.123C147.654 102.803 145.362 103.123 145.362 103.123C143.09 102.917 141.816 102.801 139.544 102.594C137.272 102.388 135.031 102.594 132.14 102.594C128.319 102.594 126.131 103.184 122.355 102.594C121.315 102.432 119.711 102.065 119.711 102.065L116.009 100.743C116.009 100.743 112.933 99.6508 110.984 98.8921C108.482 97.9179 107.03 97.4674 104.638 96.2477C102.492 95.1534 99.3486 93.0743 99.3486 93.0743C99.3486 93.0743 96.1998 91.0976 94.3242 89.6366C92.5921 88.2873 90.0931 85.9343 90.0931 85.9343C90.0931 85.9343 86.9118 83.4874 85.0687 81.7032C83.6511 80.3309 81.6309 78.001 81.6309 78.001C81.6309 78.001 79.8279 76.3433 78.4575 75.621C77.7618 75.2543 76.6064 74.8277 76.6064 74.8277L73.962 74.0343C73.962 74.0343 72.1843 73.9304 71.0531 74.0343C69.5807 74.1697 67.3509 74.8277 67.3509 74.8277C67.3509 74.8277 65.2208 75.1871 63.9131 75.621C62.2906 76.1594 59.9464 77.4721 59.9464 77.4721C59.9464 77.4721 58.0835 79.1757 56.7731 80.1166C55.1186 81.3045 52.2776 82.761 52.2776 82.761C52.2776 82.761 49.1591 84.6104 47.2531 85.9343C44.7759 87.6551 43.5991 88.9052 41.1709 90.6943C39.1412 92.1899 38.0004 93.0295 35.882 94.3966C33.6647 95.8275 32.2624 96.374 30.0642 97.8343C28.0341 99.183 26.9648 100.042 25.0398 101.537C23.3582 102.842 22.4228 103.586 20.8087 104.974C19.8659 105.785 19.4302 106.353 18.4287 107.09C17.2732 107.94 16.4897 108.21 15.2553 108.941C14.2192 109.555 13.6981 110.009 12.6109 110.528C11.5197 111.048 10.85 111.207 9.70202 111.585C8.67804 111.923 8.02778 111.908 7.05757 112.379C6.51571 112.641 5.73535 113.172 5.73535 113.172" stroke="#30312F" stroke-width="2"/>
<path d="M148.006 69.2746L147.213 71.1257V73.7701L148.006 75.8857L149.064 78.2657L150.386 80.6457L152.502 82.4968L154.617 84.8768L156.204 86.7279L156.733 88.579V90.1657L158.584 92.5457L159.642 94.6612L159.906 96.5123L159.642 98.3635L158.584 100.215L156.733 102.066L154.617 103.388L152.502 104.446M160.964 68.2168L159.642 70.0679L157.526 71.919L155.411 73.7701L153.295 74.8279L151.708 75.8857L154.617 77.4723L156.997 78.0012L159.113 78.7946L161.757 79.5879L164.666 79.8523H166.253L168.633 79.059H169.162L169.691 78.7946L166.517 81.1746L165.988 82.4968L166.517 84.0835L168.104 85.4057L170.22 86.7279L172.335 88.0501L174.715 89.6368L177.095 91.4879L178.153 92.5457" stroke="#30312F" stroke-width="2"/>
<rect x="334.151" y="274.696" width="24.7902" height="15.058" stroke="#FF9010"/>
<path d="M334.125 273.71V290.255C334.125 292.228 332.652 293.857 330.745 294.102V269.862C332.652 270.108 334.125 271.737 334.125 273.71Z" stroke="#FF9010"/>
<path d="M330.719 294.102C328.812 293.857 327.339 292.228 327.339 290.255V273.71C327.339 271.737 328.812 270.108 330.719 269.862V294.102Z" stroke="#FF9010"/>
<path d="M365.754 273.71V290.255C365.754 292.228 364.281 293.857 362.375 294.102V269.862C364.281 270.108 365.754 271.737 365.754 273.71Z" stroke="#FF9010"/>
<path d="M362.348 294.102C360.442 293.857 358.969 292.228 358.969 290.255V273.71C358.969 271.737 360.442 270.108 362.348 269.862V294.102Z" stroke="#FF9010"/>
<circle cx="346.594" cy="257.822" r="12.3221" stroke="#FF9010"/>
<circle cx="346.594" cy="257.822" r="9.42679" stroke="#FF9010"/>
<circle cx="346.594" cy="257.822" r="1.9817" stroke="#FF9010"/>
<path d="M367.715 274.367H372.265" stroke="#FF9010"/>
<path d="M367.715 289.67H372.265" stroke="#FF9010"/>
<path d="M321 274.367H325.55" stroke="#FF9010"/>
<path d="M321 289.67H325.55" stroke="#FF9010"/>
<path d="M344.601 262.274H348.493" stroke="#FF9010" stroke-linecap="round"/>
<path d="M342.898 254.245L344.94 256.374" stroke="#FF9010" stroke-linecap="round"/>
<path d="M346.791 264.951V266.897" stroke="#FF9010" stroke-linecap="round"/>
<path d="M346.791 248.893V250.839" stroke="#FF9010" stroke-linecap="round"/>
<path d="M339.492 257.652L337.546 257.652" stroke="#FF9010" stroke-linecap="round"/>
<path d="M355.55 257.652L353.603 257.652" stroke="#FF9010" stroke-linecap="round"/>
<path d="M341.653 262.763L340.28 264.136" stroke="#FF9010" stroke-linecap="round"/>
<path d="M352.908 251.508L351.535 252.881" stroke="#FF9010" stroke-linecap="round"/>
<path d="M341.653 252.881L340.28 251.508" stroke="#FF9010" stroke-linecap="round"/>
<path d="M352.908 264.136L351.535 262.763" stroke="#FF9010" stroke-linecap="round"/>
<path d="M244.18 266.6H221.865C220.2 266.6 218.85 265.25 218.85 263.585C218.85 261.919 220.2 260.569 221.865 260.569H238.149L244.18 266.6Z" stroke="#FF8900" stroke-linecap="round" stroke-linejoin="round"/>
<path d="M223.674 260.569L229.705 266.6" stroke="#FF8900" stroke-linecap="round"/>
<path d="M230.308 260.569L236.339 266.6" stroke="#FF8900" stroke-linecap="round"/>
<path d="M243.879 256.951L247.671 260.743C251.422 264.493 256.509 266.6 261.813 266.6H264.988" stroke="#FF8900" stroke-linecap="round"/>
<path d="M212.818 278.663H274.336M218.849 256.951L246.894 256.951C250.412 256.85 257.794 259.168 263.781 265.394C271.32 273.235 265.59 275.044 257.448 275.044C250.935 275.044 229.504 275.044 218.849 275.044" stroke="#FF8900" stroke-linecap="round"/>
<path d="M221.563 245.793V246.293H222.063V245.793H221.563ZM233.022 245.793H232.522V246.293H233.022V245.793ZM212.818 249.816C212.542 249.816 212.318 250.04 212.318 250.316C212.318 250.592 212.542 250.816 212.818 250.816V249.816ZM235.435 250.816C235.711 250.816 235.935 250.592 235.935 250.316C235.935 250.04 235.711 249.816 235.435 249.816V250.816ZM251.719 240.262C251.995 240.262 252.219 240.038 252.219 239.762C252.219 239.486 251.995 239.262 251.719 239.262V240.262ZM229.507 239.762C229.507 240.038 229.731 240.262 230.007 240.262C230.283 240.262 230.507 240.038 230.507 239.762H229.507ZM241.466 239.762H240.966V240.262H241.466V239.762ZM212.818 245.293C212.542 245.293 212.318 245.517 212.318 245.793C212.318 246.069 212.542 246.293 212.818 246.293V245.293ZM242.672 246.293C242.948 246.293 243.172 246.069 243.172 245.793C243.172 245.517 242.948 245.293 242.672 245.293V246.293ZM222.063 245.793C222.063 242.905 224.404 240.563 227.293 240.563V239.563C223.852 239.563 221.063 242.352 221.063 245.793H222.063ZM227.293 240.563C230.181 240.563 232.522 242.905 232.522 245.793H233.522C233.522 242.352 230.733 239.563 227.293 239.563V240.563ZM212.818 250.816H235.435V249.816H212.818V250.816ZM230.507 239.762C230.507 236.874 232.848 234.532 235.736 234.532V233.532C232.296 233.532 229.507 236.321 229.507 239.762H230.507ZM235.736 234.532C238.624 234.532 240.966 236.874 240.966 239.762H241.966C241.966 236.321 239.177 233.532 235.736 233.532V234.532ZM212.818 246.293H221.563V245.293H212.818V246.293ZM233.022 246.293H242.672V245.293H233.022V246.293ZM251.719 239.262H241.466V240.262H251.719V239.262Z" fill="#FF8900"/>
<path d="M122.511 196.204L122.111 195.904L122.011 196.038V196.204H122.511ZM122.511 211.715L122.985 211.873L123.011 211.796V211.715H122.511ZM114.281 234.823C114.194 235.085 114.335 235.369 114.597 235.456C114.859 235.543 115.142 235.402 115.23 235.14L114.281 234.823ZM131.817 196.204H132.317V196.038L132.217 195.904L131.817 196.204ZM131.817 211.715H131.317V211.796L131.343 211.873L131.817 211.715ZM139.098 235.14C139.186 235.402 139.469 235.543 139.731 235.456C139.993 235.369 140.134 235.085 140.047 234.823L139.098 235.14ZM125.564 192.133L125.164 191.833L125.564 192.133ZM125.164 191.833L122.111 195.904L122.911 196.504L125.964 192.433L125.164 191.833ZM122.011 196.204V211.715H123.011V196.204H122.011ZM122.036 211.557L114.281 234.823L115.23 235.14L122.985 211.873L122.036 211.557ZM128.364 192.433L131.417 196.504L132.217 195.904L129.164 191.833L128.364 192.433ZM131.317 196.204V211.715H132.317V196.204H131.317ZM131.343 211.873L139.098 235.14L140.047 234.823L132.292 211.557L131.343 211.873ZM125.964 192.433C126.564 191.633 127.764 191.633 128.364 192.433L129.164 191.833C128.164 190.5 126.164 190.5 125.164 191.833L125.964 192.433Z" fill="#FF8900"/>
<path d="M122.511 196.204H128.327" stroke="#FF8900" stroke-linecap="round"/>
<path d="M122.511 201.633H128.327" stroke="#FF8900" stroke-linecap="round"/>
<path d="M122.705 206.674H128.133" stroke="#FF8900" stroke-linecap="round"/>
<path d="M122.705 211.715H128.133" stroke="#FF8900" stroke-linecap="round"/>
<path d="M122.511 201.633H112.884C111.758 201.633 111.491 200.061 112.554 199.689L120.572 196.883" stroke="#FF8900" stroke-linecap="round"/>
<path d="M131.817 196.204L141.774 199.689C142.837 200.061 142.57 201.633 141.444 201.633H134.144" stroke="#FF8900" stroke-linecap="round"/>
<path d="M107 203.378H110.878" stroke="#FF8900" stroke-linecap="round"/>
<path d="M122.511 211.715H112.884C111.758 211.715 111.491 210.143 112.554 209.771L120.572 206.965" stroke="#FF8900" stroke-linecap="round"/>
<path d="M107 213.46H110.878" stroke="#FF8900" stroke-linecap="round"/>
<path d="M143.451 203.378H147.328" stroke="#FF8900" stroke-linecap="round"/>
<path d="M131.817 206.286L141.774 209.771C142.837 210.143 142.57 211.715 141.444 211.715H134.144" stroke="#FF8900" stroke-linecap="round"/>
<path d="M143.451 213.46H147.328" stroke="#FF8900" stroke-linecap="round"/>
<path d="M121.542 214.817L136.083 224.318" stroke="#FF8900" stroke-linecap="round"/>
<path d="M119.021 221.991L139.573 234.982" stroke="#FF8900" stroke-linecap="round"/>
<path d="M127.164 218.501L122.511 221.797" stroke="#FF8900" stroke-linecap="round"/>
<path d="M132.593 214.43L129.297 216.756" stroke="#FF8900" stroke-linecap="round"/>
<path d="M134.144 222.961L129.491 226.257" stroke="#FF8900" stroke-linecap="round"/>
<path d="M112.816 237.308V237.308C112.816 236.023 113.858 234.981 115.143 234.981H139.185C140.47 234.981 141.512 236.023 141.512 237.308V237.308" stroke="#FF8900" stroke-linecap="round"/>
<path d="M127.552 227.614L121.929 231.491" stroke="#FF8900" stroke-linecap="round" stroke-linejoin="round"/>
</svg>
