<svg width="523" height="427" viewBox="0 0 523 427" fill="none" xmlns="http://www.w3.org/2000/svg">
<path d="M33.631 101.887L8.12203 144.32L2.23535 180.866L13.2729 214.715L62.0832 232.375L114.818 242.431H149.402L162.647 276.77L198.458 290.015L229.118 304.977L265.174 288.789L286.022 302.279L301.965 327.543L323.55 350.108L345.625 363.598L354.7 385.919L367.7 420.258L379.228 424.918L392.228 417.56L374.813 371.693L384.869 333.184L411.605 330.486L443.736 317.241L468.019 289.034L473.66 274.072L499.905 254.45L520.999 211.526L511.188 172.281L503.094 141.867L487.15 112.434L470.717 92.0755L467.528 75.6418L454.528 68.774L449.132 59.4535L416.02 35.6615L396.398 22.907L371.134 13.0959L332.625 7.45447L308.097 2.05835L274.985 5.00169L249.231 2.05835L198.458 7.94503L158.478 20.4542L138.119 38.8501L107.46 44.7368L92.2525 77.3588L56.1966 79.8115L33.631 101.887Z" stroke="url(#paint0_linear)" stroke-width="3" stroke-miterlimit="10"/>
<path d="M33.631 101.887L8.12203 144.32L2.23535 180.866L13.2729 214.715L62.0832 232.375L114.818 242.431H149.402L162.647 276.77L198.458 290.015L229.118 304.977L265.174 288.789L286.022 302.279L301.965 327.543L323.55 350.108L345.625 363.598L354.7 385.919L367.7 420.258L379.228 424.918L392.228 417.56L374.813 371.693L384.869 333.184L411.605 330.486L443.736 317.241L468.019 289.034L473.66 274.072L499.905 254.45L520.999 211.526L511.188 172.281L503.094 141.867L487.15 112.434L470.717 92.0755L467.528 75.6418L454.528 68.774L449.132 59.4535L416.02 35.6615L396.398 22.907L371.134 13.0959L332.625 7.45447L308.097 2.05835L274.985 5.00169L249.231 2.05835L198.458 7.94503L158.478 20.4542L138.119 38.8501L107.46 44.7368L92.2525 77.3588L56.1966 79.8115L33.631 101.887Z" stroke="#7D8498" stroke-width="3" stroke-miterlimit="10"/>
<path d="M56.1975 79.8115L73.367 123.226L46.877 157.565L97.159 206.13L116.291 190.677L96.6684 168.602" stroke="url(#paint1_linear)" stroke-miterlimit="10"/>
<path d="M96.6674 168.602L73.3659 123.226L33.6309 101.886L46.8759 157.565L69.4415 195.583" stroke="url(#paint2_linear)" stroke-miterlimit="10"/>
<path d="M402.53 85.2075L412.341 62.6419L396.398 22.9068L370.643 59.6986L371.134 13.0957L344.153 32.718L322.814 52.0949L291.664 33.2085L242.363 30.0199L245.551 65.8305L216.609 73.1889L200.666 107.528L194.043 134.999H224.703L246.042 117.83L297.796 105.075L303.192 162.715L329.437 129.603L356.663 123.226L376.285 101.886L400.077 129.603L383.398 160.263L412.341 178.659L365.247 223.299L311.041 190.677L239.91 227.714L257.08 186.017L237.703 201.715L210.477 190.677L196.986 220.846L159.704 205.639L171.232 180.866L180.553 157.565L216.854 162.715L247.759 150.452L277.928 177.432L330.908 168.602L353.964 190.677L365.247 150.452L397.379 216.677" stroke="url(#paint3_linear)" stroke-miterlimit="10"/>
<path d="M452.077 117.83L470.718 92.0754L487.152 112.434L452.077 117.83Z" stroke="url(#paint4_linear)" stroke-miterlimit="10"/>
<path d="M162.648 276.77L178.837 240.469L198.459 290.015L227.647 260.091L239.911 227.714L262.722 264.506L296.816 244.148L344.4 268.676L318.891 295.656L329.438 321.411L323.551 350.108L358.871 352.806L369.909 391.315L354.701 385.919L345.626 363.598L352.003 306.694L384.87 333.184L390.757 314.788L409.153 282.902L417.738 309.637L411.606 330.486L443.737 317.241L417.247 251.997L452.077 252.733L473.661 274.072L487.152 222.809L499.906 254.45L521 211.526L464.341 204.168" stroke="url(#paint5_linear)" stroke-miterlimit="10"/>
<path d="M511.677 173.753L473.169 160.753L428.773 197.545L445.943 157.565" stroke="url(#paint6_linear)" stroke-miterlimit="10"/>
<path d="M417.247 251.997V216.677H397.38L378.984 251.997L365.248 223.299" stroke="url(#paint7_linear)" stroke-miterlimit="10"/>
<path d="M390.756 314.788L375.058 282.902L378.983 251.997L330.908 237.526" stroke="url(#paint8_linear)" stroke-miterlimit="10"/>
<path d="M344.398 268.676L352.002 306.694L375.058 282.902" stroke="url(#paint9_linear)" stroke-miterlimit="10"/>
<path d="M329.437 321.411L352.002 306.694" stroke="url(#paint10_linear)" stroke-miterlimit="10"/>
<path d="M301.965 327.543L318.89 295.656L286.022 302.279L296.814 244.148L265.174 288.789L227.646 260.091L229.118 304.977L149.402 242.431L159.704 205.639L134.44 213.488L114.818 242.431L97.158 206.13L96.6675 168.602L46.876 157.565L8.12203 144.32L2.23535 180.866L13.2729 214.715L46.876 195.583L62.0832 232.375L69.4416 195.583L97.158 206.13L116.29 190.677L134.44 213.488L159.704 205.639L178.836 240.469L344.398 268.676L330.908 237.525L375.058 282.902L417.246 251.997L443 241.695L464.34 204.168L511.678 173.753L503.093 141.867L473.17 160.753L445.944 157.565L452.076 117.83L419.208 110.962L454.528 68.774L402.529 85.2077L370.643 59.6987L341.7 77.3588L284.305 65.8307L322.814 52.0951L332.625 7.45447L308.097 2.05835L291.664 33.2087L274.985 5.00169L242.363 30.0201L249.231 2.05835L211.212 31.4917L198.458 7.94503L190.854 48.6612L138.119 38.8501L143.025 74.4154L193.552 82.2643L162.647 101.887L150.629 122.735L180.553 157.565L142.534 176.696L123.403 144.32L96.6675 168.602L113.592 95.2641L92.2524 77.3588L143.025 74.4154L107.46 44.7368" stroke="url(#paint11_linear)" stroke-miterlimit="10"/>
<path d="M123.403 144.32L113.592 95.2639L162.647 101.886" stroke="url(#paint12_linear)" stroke-miterlimit="10"/>
<path d="M150.629 122.735L116.29 190.677" stroke="url(#paint13_linear)" stroke-miterlimit="10"/>
<path d="M303.191 162.715L286.021 144.32L257.078 186.017L247.758 150.452" stroke="url(#paint14_linear)" stroke-miterlimit="10"/>
<path d="M449.133 59.4534L412.341 62.642L416.02 35.6614" stroke="url(#paint15_linear)" stroke-miterlimit="10"/>
<path d="M344.154 32.7178L370.644 59.6984L376.286 101.886" stroke="url(#paint16_linear)" stroke-miterlimit="10"/>
<path d="M291.664 33.2085L245.552 65.8305L190.855 48.661L143.025 74.4152" stroke="url(#paint17_linear)" stroke-miterlimit="10"/>
<path d="M341.702 77.3586L245.553 65.8306L257.081 88.3962L246.043 117.83L297.797 105.075L338.023 101.886L341.702 77.3586Z" stroke="url(#paint18_linear)" stroke-miterlimit="10"/>
<path d="M73.3652 123.226L113.591 95.2639" stroke="url(#paint19_linear)" stroke-miterlimit="10"/>
<path d="M46.876 195.583L44.9138 158.546L2.23535 180.866L62.0832 232.375" stroke="url(#paint20_linear)" stroke-miterlimit="10"/>
<path d="M210.478 190.677L180.554 157.565L162.648 101.887L200.667 107.528L193.553 82.2643L216.61 73.189L246.043 117.83" stroke="url(#paint21_linear)" stroke-miterlimit="10"/>
<path d="M392.227 417.56L381.435 406.767L367.699 420.258" stroke="url(#paint22_linear)" stroke-miterlimit="10"/>
<path d="M374.814 371.693L369.908 391.315L381.436 406.767" stroke="url(#paint23_linear)" stroke-miterlimit="10"/>
<path d="M417.738 309.637L443.738 317.241L411.606 330.486" stroke="url(#paint24_linear)" stroke-miterlimit="10"/>
<path d="M439.565 276.034L468.018 289.034L439.565 276.034Z" stroke="url(#paint25_linear)" stroke-miterlimit="10"/>
<path d="M296.816 244.148L298.778 220.846L330.91 237.525L311.042 190.677L330.91 168.602L329.438 129.603L338.023 101.886L245.553 65.8306" stroke="url(#paint26_linear)" stroke-miterlimit="10"/>
<path d="M257.081 88.396L297.797 105.075" stroke="url(#paint27_linear)" stroke-miterlimit="10"/>
<path d="M158.478 20.4541L190.854 48.6611L193.552 82.2642" stroke="url(#paint28_linear)" stroke-miterlimit="10"/>
<path d="M286.023 144.32L246.043 117.829L247.76 150.451L216.855 162.715L224.704 134.999H194.044L180.554 157.565" stroke="url(#paint29_linear)" stroke-miterlimit="10"/>
<path d="M338.022 101.887H376.286L402.531 85.2078L419.21 110.962L400.078 129.603L445.945 157.565L412.342 178.659L428.775 197.545L417.247 216.677" stroke="url(#paint30_linear)" stroke-miterlimit="10"/>
<path d="M443.002 241.695L452.077 252.733L439.568 276.034L409.153 282.902" stroke="url(#paint31_linear)" stroke-miterlimit="10"/>
<path d="M196.987 220.846L231.572 249.544" stroke="url(#paint32_linear)" stroke-miterlimit="10"/>
<path d="M216.854 162.716L237.702 201.715" stroke="url(#paint33_linear)" stroke-miterlimit="10"/>
<path d="M200.666 107.528L246.042 117.83" stroke="url(#paint34_linear)" stroke-miterlimit="10"/>
<path d="M359.852 122.735L365.248 150.452L383.398 160.263" stroke="url(#paint35_linear)" stroke-miterlimit="10"/>
<path d="M142.537 176.696L134.442 213.488L149.404 242.431" stroke="url(#paint36_linear)" stroke-miterlimit="10"/>
<path d="M428.773 197.545L464.339 204.168L487.15 222.809L520.998 211.526" stroke="url(#paint37_linear)" stroke-miterlimit="10"/>
<defs>
<linearGradient id="paint0_linear" x1="261.617" y1="2.05835" x2="261.617" y2="424.918" gradientUnits="userSpaceOnUse">
<stop stop-color="#4B688B"/>
<stop offset="1" stop-color="#EAEEEE"/>
</linearGradient>
<linearGradient id="paint1_linear" x1="81.5838" y1="79.8115" x2="81.5838" y2="206.13" gradientUnits="userSpaceOnUse">
<stop stop-color="#385E8B"/>
<stop offset="1" stop-color="#FBFCFC"/>
</linearGradient>
<linearGradient id="paint2_linear" x1="65.1491" y1="101.886" x2="65.1491" y2="195.583" gradientUnits="userSpaceOnUse">
<stop stop-color="#385E8B"/>
<stop offset="1" stop-color="#FBFCFC"/>
</linearGradient>
<linearGradient id="paint3_linear" x1="286.022" y1="13.0957" x2="286.022" y2="227.714" gradientUnits="userSpaceOnUse">
<stop stop-color="#385E8B"/>
<stop offset="1" stop-color="#FBFCFC"/>
</linearGradient>
<linearGradient id="paint4_linear" x1="469.615" y1="92.0754" x2="469.615" y2="117.83" gradientUnits="userSpaceOnUse">
<stop stop-color="#385E8B"/>
<stop offset="1" stop-color="#FBFCFC"/>
</linearGradient>
<linearGradient id="paint5_linear" x1="341.824" y1="204.168" x2="341.824" y2="391.315" gradientUnits="userSpaceOnUse">
<stop stop-color="#385E8B"/>
<stop offset="1" stop-color="#FBFCFC"/>
</linearGradient>
<linearGradient id="paint6_linear" x1="470.225" y1="157.565" x2="470.225" y2="197.545" gradientUnits="userSpaceOnUse">
<stop stop-color="#385E8B"/>
<stop offset="1" stop-color="#FBFCFC"/>
</linearGradient>
<linearGradient id="paint7_linear" x1="391.248" y1="216.677" x2="391.248" y2="251.997" gradientUnits="userSpaceOnUse">
<stop stop-color="#385E8B"/>
<stop offset="1" stop-color="#FBFCFC"/>
</linearGradient>
<linearGradient id="paint8_linear" x1="360.832" y1="237.526" x2="360.832" y2="314.788" gradientUnits="userSpaceOnUse">
<stop stop-color="#385E8B"/>
<stop offset="1" stop-color="#FBFCFC"/>
</linearGradient>
<linearGradient id="paint9_linear" x1="359.728" y1="268.676" x2="359.728" y2="306.694" gradientUnits="userSpaceOnUse">
<stop stop-color="#385E8B"/>
<stop offset="1" stop-color="#FBFCFC"/>
</linearGradient>
<linearGradient id="paint10_linear" x1="340.719" y1="306.694" x2="340.719" y2="321.411" gradientUnits="userSpaceOnUse">
<stop stop-color="#385E8B"/>
<stop offset="1" stop-color="#FBFCFC"/>
</linearGradient>
<linearGradient id="paint11_linear" x1="256.957" y1="2.05835" x2="256.957" y2="327.543" gradientUnits="userSpaceOnUse">
<stop stop-color="#385E8B"/>
<stop offset="1" stop-color="#FBFCFC"/>
</linearGradient>
<linearGradient id="paint12_linear" x1="138.12" y1="95.2639" x2="138.12" y2="144.32" gradientUnits="userSpaceOnUse">
<stop stop-color="#385E8B"/>
<stop offset="1" stop-color="#FBFCFC"/>
</linearGradient>
<linearGradient id="paint13_linear" x1="133.46" y1="122.735" x2="133.46" y2="190.677" gradientUnits="userSpaceOnUse">
<stop stop-color="#385E8B"/>
<stop offset="1" stop-color="#FBFCFC"/>
</linearGradient>
<linearGradient id="paint14_linear" x1="275.474" y1="144.32" x2="275.474" y2="186.017" gradientUnits="userSpaceOnUse">
<stop stop-color="#385E8B"/>
<stop offset="1" stop-color="#FBFCFC"/>
</linearGradient>
<linearGradient id="paint15_linear" x1="430.737" y1="35.6614" x2="430.737" y2="62.642" gradientUnits="userSpaceOnUse">
<stop stop-color="#385E8B"/>
<stop offset="1" stop-color="#FBFCFC"/>
</linearGradient>
<linearGradient id="paint16_linear" x1="360.22" y1="32.7178" x2="360.22" y2="101.886" gradientUnits="userSpaceOnUse">
<stop stop-color="#385E8B"/>
<stop offset="1" stop-color="#FBFCFC"/>
</linearGradient>
<linearGradient id="paint17_linear" x1="217.345" y1="33.2085" x2="217.345" y2="74.4152" gradientUnits="userSpaceOnUse">
<stop stop-color="#385E8B"/>
<stop offset="1" stop-color="#FBFCFC"/>
</linearGradient>
<linearGradient id="paint18_linear" x1="293.627" y1="65.8306" x2="293.627" y2="117.83" gradientUnits="userSpaceOnUse">
<stop stop-color="#385E8B"/>
<stop offset="1" stop-color="#FBFCFC"/>
</linearGradient>
<linearGradient id="paint19_linear" x1="93.478" y1="95.2639" x2="93.478" y2="123.226" gradientUnits="userSpaceOnUse">
<stop stop-color="#385E8B"/>
<stop offset="1" stop-color="#FBFCFC"/>
</linearGradient>
<linearGradient id="paint20_linear" x1="32.1593" y1="158.546" x2="32.1593" y2="232.375" gradientUnits="userSpaceOnUse">
<stop stop-color="#385E8B"/>
<stop offset="1" stop-color="#FBFCFC"/>
</linearGradient>
<linearGradient id="paint21_linear" x1="204.346" y1="73.189" x2="204.346" y2="190.677" gradientUnits="userSpaceOnUse">
<stop stop-color="#385E8B"/>
<stop offset="1" stop-color="#FBFCFC"/>
</linearGradient>
<linearGradient id="paint22_linear" x1="379.963" y1="406.767" x2="379.963" y2="420.258" gradientUnits="userSpaceOnUse">
<stop stop-color="#385E8B"/>
<stop offset="1" stop-color="#FBFCFC"/>
</linearGradient>
<linearGradient id="paint23_linear" x1="375.672" y1="371.693" x2="375.672" y2="406.767" gradientUnits="userSpaceOnUse">
<stop stop-color="#385E8B"/>
<stop offset="1" stop-color="#FBFCFC"/>
</linearGradient>
<linearGradient id="paint24_linear" x1="427.672" y1="309.637" x2="427.672" y2="330.486" gradientUnits="userSpaceOnUse">
<stop stop-color="#385E8B"/>
<stop offset="1" stop-color="#FBFCFC"/>
</linearGradient>
<linearGradient id="paint25_linear" x1="453.792" y1="276.034" x2="453.792" y2="289.034" gradientUnits="userSpaceOnUse">
<stop stop-color="#385E8B"/>
<stop offset="1" stop-color="#FBFCFC"/>
</linearGradient>
<linearGradient id="paint26_linear" x1="291.788" y1="65.8306" x2="291.788" y2="244.148" gradientUnits="userSpaceOnUse">
<stop stop-color="#385E8B"/>
<stop offset="1" stop-color="#FBFCFC"/>
</linearGradient>
<linearGradient id="paint27_linear" x1="277.439" y1="88.396" x2="277.439" y2="105.075" gradientUnits="userSpaceOnUse">
<stop stop-color="#385E8B"/>
<stop offset="1" stop-color="#FBFCFC"/>
</linearGradient>
<linearGradient id="paint28_linear" x1="176.015" y1="20.4541" x2="176.015" y2="82.2642" gradientUnits="userSpaceOnUse">
<stop stop-color="#385E8B"/>
<stop offset="1" stop-color="#FBFCFC"/>
</linearGradient>
<linearGradient id="paint29_linear" x1="233.289" y1="117.829" x2="233.289" y2="162.715" gradientUnits="userSpaceOnUse">
<stop stop-color="#385E8B"/>
<stop offset="1" stop-color="#FBFCFC"/>
</linearGradient>
<linearGradient id="paint30_linear" x1="391.984" y1="85.2078" x2="391.984" y2="216.677" gradientUnits="userSpaceOnUse">
<stop stop-color="#385E8B"/>
<stop offset="1" stop-color="#FBFCFC"/>
</linearGradient>
<linearGradient id="paint31_linear" x1="430.615" y1="241.695" x2="430.615" y2="282.902" gradientUnits="userSpaceOnUse">
<stop stop-color="#385E8B"/>
<stop offset="1" stop-color="#FBFCFC"/>
</linearGradient>
<linearGradient id="paint32_linear" x1="214.279" y1="220.846" x2="214.279" y2="249.544" gradientUnits="userSpaceOnUse">
<stop stop-color="#385E8B"/>
<stop offset="1" stop-color="#FBFCFC"/>
</linearGradient>
<linearGradient id="paint33_linear" x1="227.278" y1="162.716" x2="227.278" y2="201.715" gradientUnits="userSpaceOnUse">
<stop stop-color="#385E8B"/>
<stop offset="1" stop-color="#FBFCFC"/>
</linearGradient>
<linearGradient id="paint34_linear" x1="223.354" y1="107.528" x2="223.354" y2="117.83" gradientUnits="userSpaceOnUse">
<stop stop-color="#385E8B"/>
<stop offset="1" stop-color="#FBFCFC"/>
</linearGradient>
<linearGradient id="paint35_linear" x1="371.625" y1="122.735" x2="371.625" y2="160.263" gradientUnits="userSpaceOnUse">
<stop stop-color="#385E8B"/>
<stop offset="1" stop-color="#FBFCFC"/>
</linearGradient>
<linearGradient id="paint36_linear" x1="141.923" y1="176.696" x2="141.923" y2="242.431" gradientUnits="userSpaceOnUse">
<stop stop-color="#385E8B"/>
<stop offset="1" stop-color="#FBFCFC"/>
</linearGradient>
<linearGradient id="paint37_linear" x1="474.886" y1="197.545" x2="474.886" y2="222.809" gradientUnits="userSpaceOnUse">
<stop stop-color="#385E8B"/>
<stop offset="1" stop-color="#FBFCFC"/>
</linearGradient>
</defs>
</svg>
