<?xml version="1.0" encoding="utf-8"?><svg xmlns="http://www.w3.org/2000/svg" xmlns:xlink="http://www.w3.org/1999/xlink"><symbol viewBox="0 0 41 14" id="i-arrow" xmlns="http://www.w3.org/2000/svg"><path d="M33 1l6 6-6 6m5-6H0" stroke="#373938" stroke-width="2"/></symbol><symbol viewBox="0 0 16 9" id="i-arrow-top" xmlns="http://www.w3.org/2000/svg"><path d="M15 8L8 2 1 8" stroke="#707070" stroke-width="2"/></symbol><symbol viewBox="0 0 100 100" id="i-call" xmlns="http://www.w3.org/2000/svg"><path d="M93.65 67.939a63.181 63.181 0 0 1-19.26-3.015 5.381 5.381 0 0 0-5.51 1.292l-8.565 10.608c-15.44-7.27-29.897-21.002-37.59-36.78l10.639-8.94a5.445 5.445 0 0 0 1.31-5.492c-2.02-5.978-3.056-12.386-3.056-19.01 0-2.908-2.455-5.33-5.401-5.33H7.34c-2.946 0-6.493 1.292-6.493 5.33 0 50.028 42.173 91.601 92.803 91.601 3.873 0 5.4-3.392 5.4-6.354V73.27c0-2.908-2.454-5.331-5.4-5.331z"/></symbol><symbol viewBox="0 0 52 100" id="i-fb" xmlns="http://www.w3.org/2000/svg"><path d="M51.597.02L38.477 0C23.739 0 14.214 9.661 14.214 24.615v11.35H1.02c-1.14 0-2.063.913-2.063 2.04v16.444c0 1.126.924 2.039 2.063 2.039h13.192v41.493a2.05 2.05 0 0 0 2.063 2.04h17.21c1.14 0 2.064-.914 2.064-2.04V56.488h15.423a2.05 2.05 0 0 0 2.063-2.04l.007-16.443a2.03 2.03 0 0 0-.605-1.442 2.075 2.075 0 0 0-1.46-.599H35.55v-9.62c0-4.625 1.114-6.972 7.207-6.972l8.838-.003a2.051 2.051 0 0 0 2.062-2.04V2.06c0-1.125-.922-2.037-2.06-2.04z"/></symbol><symbol viewBox="0 0 100 100" id="i-google" xmlns="http://www.w3.org/2000/svg"><path d="M81.134 48.521v12.472h6.236V48.52h12.472v-6.236H87.37V29.813h-6.236v12.472H68.662v6.236zm-49.888-6.236v12.472h17.642c-2.576 7.259-9.51 12.472-17.642 12.472-10.314 0-18.707-8.394-18.707-18.708 0-10.314 8.393-18.708 18.707-18.708a18.43 18.43 0 0 1 12.117 4.515l8.194-9.404a30.9 30.9 0 0 0-20.31-7.583c-17.193 0-31.18 13.988-31.18 31.18s13.987 31.18 31.18 31.18c17.192 0 31.18-13.988 31.18-31.18v-6.236z"/></symbol><symbol viewBox="0 0 486.196 486.196" id="i-house" xmlns="http://www.w3.org/2000/svg"><path d="M481.708 220.456l-228.8-204.6c-.4-.4-.8-.7-1.3-1-5-4.8-13-5-18.3-.3l-228.8 204.6c-5.6 5-6 13.5-1.1 19.1 2.7 3 6.4 4.5 10.1 4.5 3.2 0 6.4-1.1 9-3.4l41.2-36.9v238.6c0 18.7 15.2 34 34 34h72.2c17.6 0 31.9-14.3 31.9-31.9v-121.3c0-2.7 2.2-4.9 4.9-4.9h72.9c2.7 0 4.9 2.2 4.9 4.9v121.3c0 17.6 14.3 31.9 31.9 31.9h72.2c19 0 34-18.7 34-42.6v-228.7l41.2 36.9c2.6 2.3 5.8 3.4 9 3.4 3.7 0 7.4-1.5 10.1-4.5 4.8-5.6 4.3-14.1-1.2-19.1zm-86.2 66.7v145.1c0 9.7-4.8 15.6-7 15.6h-72.2c-2.7 0-4.9-2.2-4.9-4.9v-121.1c0-17.6-14.3-31.9-31.9-31.9h-72.9c-17.6 0-31.9 14.3-31.9 31.9v121.3c0 2.7-2.2 4.9-4.9 4.9h-72.2c-3.8 0-7-3.1-7-7v-262.8l151.8-135.6 153.1 136.9v107.6z"/></symbol><symbol viewBox="0 0 100 100" id="i-in" xmlns="http://www.w3.org/2000/svg"><path d="M100.004 61.314v38.683h-21.43V63.905c0-9.066-3.099-15.254-10.855-15.254-5.921 0-9.445 4.17-10.995 8.204-.566 1.442-.711 3.449-.711 5.468v37.674H34.577s.289-61.127 0-67.46H56.01v9.562c-.044.071-.1.148-.141.218h.14v-.218c2.849-4.59 7.934-11.147 19.318-11.147 14.103 0 24.676 9.641 24.676 30.362zM12.154.017C4.82.017.024 5.051.024 11.67c0 6.476 4.658 11.662 11.845 11.662h.143c7.476 0 12.125-5.185 12.125-11.662C23.996 5.05 19.487.017 12.154.017zM1.297 99.997h21.428v-67.46H1.297z"/></symbol><symbol viewBox="0 0 100 100" id="i-insta" xmlns="http://www.w3.org/2000/svg"><path d="M99.934 10.487C99.322 4.537 94.392.084 88.403.08c-25.57 0-51.137 0-76.707.006-.7 0-1.412.052-2.088.184C3.943 1.354.096 6.04.096 11.805v38.246c0 12.723 0 25.446.007 38.17 0 .647.048 1.298.129 1.946.74 5.533 5.654 9.823 11.245 9.826 25.708 0 51.42 0 77.129-.003.441 0 .876-.026 1.317-.075 5.649-.663 10.04-5.597 10.04-11.285.01-25.72.01-51.437.003-77.154.007-.335.013-.66-.032-.99zm-49.9 20.344c10.614-.003 19.204 8.576 19.217 19.201.013 10.619-8.564 19.213-19.184 19.22-10.64.003-19.242-8.598-19.23-19.233.014-10.59 8.61-19.188 19.198-19.188zm38.443 12.05v41.401c0 2.598-1.58 4.193-4.18 4.193h-64.02c-1.537 0-3.064.003-4.604 0-2.407-.003-4.04-1.64-4.04-4.044-.004-13.864 0-27.728 0-41.595v-.445H20.3c-1.94 7.828-1.05 15.317 2.78 22.4 2.8 5.17 6.815 9.189 11.935 12.08 10.11 5.707 22.69 5.168 32.317-1.412 5.342-3.655 9.182-8.515 11.473-14.57 2.278-6.042 2.575-12.21.983-18.51h8.683c.007.17.007.334.007.502zm0-15.984c-.007 2.272-1.679 3.928-3.96 3.931h-5.652c-1.894 0-3.795.003-5.696-.003-2.188 0-3.89-1.634-3.902-3.822a862.09 862.09 0 0 1 0-11.547c.013-2.214 1.708-3.835 3.934-3.838 3.79-.003 7.569-.003 11.351 0 2.243.003 3.921 1.67 3.928 3.925.003 3.79.003 7.57-.003 11.354z"/></symbol><symbol viewBox="0 0 100 100" id="i-message" xmlns="http://www.w3.org/2000/svg"><path d="M88.83 18.644H11.069c-5.346 0-9.672 3.63-9.672 8.068l-.049 48.407c0 4.437 4.375 8.067 9.72 8.067h77.764c5.346 0 9.72-3.63 9.72-8.067V26.712c0-4.437-4.374-8.068-9.72-8.068zm0 16.136L49.95 54.95 11.067 34.78v-8.068l38.881 20.17 38.882-20.17z"/></symbol><symbol viewBox="0 0 100 100" id="i-ok" xmlns="http://www.w3.org/2000/svg"><path d="M47.362 70.474c-7.76-.81-14.755-2.72-20.745-7.405-.744-.583-1.51-1.145-2.19-1.796-2.62-2.518-2.885-5.402-.81-8.374 1.774-2.543 4.753-3.223 7.85-1.763.6.283 1.171.636 1.718 1.016 11.163 7.67 26.499 7.882 37.704.345 1.11-.851 2.297-1.545 3.672-1.9 2.674-.686 5.168.296 6.603 2.636 1.64 2.672 1.619 5.28-.401 7.354-3.1 3.18-6.826 5.482-10.966 7.088-3.916 1.518-8.204 2.282-12.449 2.79.64.696.943 1.04 1.343 1.442 5.763 5.79 11.552 11.557 17.297 17.366 1.957 1.979 2.366 4.433 1.288 6.735-1.178 2.516-3.816 4.17-6.402 3.994-1.638-.113-2.916-.929-4.051-2.073-4.35-4.376-8.78-8.672-13.042-13.132-1.24-1.296-1.837-1.051-2.931.075-4.376 4.504-8.823 8.94-13.296 13.35-2.008 1.98-4.398 2.336-6.727 1.205-2.476-1.2-4.052-3.727-3.93-6.267.083-1.719.928-3.031 2.108-4.208 5.703-5.696 11.391-11.406 17.081-17.11.377-.38.728-.782 1.276-1.368z"/><path d="M52.089 50.635c-13.843-.047-25.193-11.523-25.113-25.387C27.056 11.23 38.414-.066 52.393-.027c14.007.037 25.25 11.496 25.18 25.66-.072 13.836-11.501 25.05-25.484 25.002zm12.58-25.354c-.024-6.884-5.506-12.364-12.377-12.37-6.928-.008-12.46 5.572-12.406 12.52.051 6.857 5.58 12.299 12.47 12.273 6.869-.024 12.336-5.54 12.313-12.423z"/></symbol><symbol viewBox="0 0 1945.568 1945.568" id="i-pint" xmlns="http://www.w3.org/2000/svg"><path d="M1674.04 597.295c-49.599-347.64-407.25-524.648-788.849-483.201-301.693 32.763-602.48 269.033-614.965 606.886-7.606 206.252 52.78 360.942 255.384 404.482 87.739-150.4-28.26-183.276-46.422-292.23C404.842 387.962 1009.476 83.86 1326.153 395c219.29 215.489 74.798 878.006-278.425 809.073-338.355-65.747 165.715-593.143-104.31-696.6-219.517-84.217-336.084 257.268-232.002 427.021-61.066 291.9-192.5 566.756-139.269 932.758 172.525-121.378 230.753-353.467 278.425-595.671 86.716 51.124 133.141 104.006 243.694 112.252 407.705 30.669 635.732-394.262 579.774-786.538z"/></symbol><symbol viewBox="0 0 100 100" id="i-sk" xmlns="http://www.w3.org/2000/svg"><path d="M94.895 56.856c.273-2.02.43-4.075.43-6.166 0-25.091-20.451-45.436-45.675-45.436a45.45 45.45 0 0 0-7.356.598A27.155 27.155 0 0 0 27.41 1.43C12.349 1.43.155 13.631.155 28.688a27.13 27.13 0 0 0 4.389 14.84 45.24 45.24 0 0 0-.566 7.161c0 25.096 20.442 45.438 45.672 45.438 2.847 0 5.62-.278 8.314-.765a27.234 27.234 0 0 0 14.405 4.109c15.057 0 27.256-12.205 27.256-27.26a27.134 27.134 0 0 0-4.73-15.355zm-40.976 27.32c-14.513.757-21.305-2.455-27.527-8.294-6.948-6.52-4.157-13.96 1.504-14.338 5.658-.377 9.054 6.414 12.074 8.303 3.016 1.882 14.492 6.17 20.553-.76 6.601-7.543-4.39-11.446-12.445-12.628-11.502-1.703-26.023-7.925-24.894-20.186 1.13-12.254 10.41-18.537 20.176-19.423 12.449-1.13 20.553 1.886 26.963 7.355 7.411 6.32 3.401 13.385-1.321 13.953-4.704.565-9.987-10.395-20.359-10.56-10.69-.167-17.915 11.125-4.718 14.335 13.204 3.207 27.344 4.524 32.437 16.595 5.096 12.071-7.917 24.891-22.443 25.648z"/></symbol><symbol viewBox="0 0 100 100" id="i-tg" xmlns="http://www.w3.org/2000/svg"><path d="M1.826 48.254l23.035 8.598 8.916 28.673c.57 1.837 2.816 2.515 4.307 1.297l12.84-10.468a3.83 3.83 0 0 1 4.67-.13l23.158 16.814c1.595 1.159 3.854.285 4.254-1.642L99.97 9.791c.436-2.105-1.632-3.86-3.636-3.085L1.8 43.175c-2.333.9-2.313 4.203.027 5.08zm30.514 4.021l45.019-27.727c.809-.497 1.641.597.947 1.241L41.152 60.326a7.702 7.702 0 0 0-2.387 4.608L37.5 74.313c-.167 1.252-1.926 1.377-2.272.165L30.36 57.374a4.533 4.533 0 0 1 1.98-5.099z"/></symbol><symbol viewBox="0 0 100 100" id="i-tw" xmlns="http://www.w3.org/2000/svg"><path d="M99.902 17.831a40.867 40.867 0 0 1-11.75 3.223A20.55 20.55 0 0 0 97.145 9.74a41.256 41.256 0 0 1-13.003 4.968 20.406 20.406 0 0 0-14.936-6.464c-11.302 0-20.466 9.163-20.466 20.459 0 1.602.181 3.167.53 4.663-17.005-.854-32.084-9.002-42.177-21.382A20.309 20.309 0 0 0 4.327 22.27c0 7.1 3.615 13.365 9.1 17.03a20.466 20.466 0 0 1-9.269-2.568v.255c0 9.912 7.057 18.184 16.414 20.067a20.728 20.728 0 0 1-5.393.717c-1.321 0-2.599-.131-3.852-.38 2.606 8.134 10.161 14.05 19.113 14.212-7 5.486-15.828 8.746-25.415 8.746-1.652 0-3.28-.1-4.881-.28 9.057 5.816 19.81 9.207 31.368 9.207 37.645 0 58.223-31.181 58.223-58.223l-.069-2.65a40.866 40.866 0 0 0 10.236-10.572z"/></symbol><symbol viewBox="0 0 100 100" id="i-vb" xmlns="http://www.w3.org/2000/svg"><path d="M85.866 41.98c.12-14.147-11.93-27.116-26.86-28.91a21.006 21.006 0 0 1-.964-.145c-.739-.123-1.503-.248-2.275-.248-3.06 0-3.878 2.15-4.093 3.431-.21 1.247-.01 2.294.593 3.113 1.013 1.378 2.796 1.622 4.228 1.819.42.057.816.111 1.148.186 13.415 2.997 17.932 7.71 20.14 21.011.054.325.078.726.104 1.15.096 1.59.297 4.899 3.853 4.899.297 0 .615-.026.946-.076 3.312-.504 3.208-3.528 3.158-4.98-.014-.41-.027-.797.007-1.054.01-.065.014-.13.015-.195z"/><path d="M54.9 7.877c.397.029.773.056 1.086.104 22.029 3.388 32.16 13.825 34.967 36.027.048.377.055.837.063 1.325.028 1.734.086 5.343 3.961 5.418h.12c1.216 0 2.182-.366 2.874-1.09 1.206-1.261 1.122-3.136 1.054-4.642-.016-.37-.032-.718-.028-1.022C99.277 21.29 79.622.7 56.937-.065a1.573 1.573 0 0 0-.275.014 1.898 1.898 0 0 1-.269.015c-.226 0-.504-.02-.8-.04-.356-.024-.76-.052-1.17-.052-3.614 0-4.3 2.568-4.388 4.099-.203 3.537 3.22 3.786 4.864 3.906zm34.99 64.825a70.094 70.094 0 0 1-1.406-1.093c-2.405-1.936-4.964-3.72-7.438-5.446-.514-.357-1.028-.715-1.54-1.074-3.17-2.227-6.02-3.31-8.712-3.31-3.626 0-6.788 2.005-9.398 5.956-1.156 1.752-2.558 2.603-4.287 2.603-1.022 0-2.184-.291-3.452-.867-10.232-4.64-17.538-11.754-21.716-21.144-2.02-4.539-1.365-7.506 2.19-9.92 2.018-1.37 5.775-3.92 5.51-8.804-.302-5.547-12.54-22.234-17.695-24.13-2.183-.802-4.477-.81-6.83-.018C9.19 7.447 4.936 10.947 2.814 15.574c-2.05 4.47-1.957 9.72.268 15.182C9.514 46.545 18.556 60.31 29.96 71.67 41.12 82.79 54.839 91.9 70.733 98.744c1.432.616 2.935.953 4.032 1.198.374.084.697.156.932.22.13.035.263.054.397.056h.125c7.476 0 16.452-6.83 19.209-14.618 2.415-6.82-1.994-10.19-5.538-12.898zM58.206 25.913c-1.28.033-3.944.099-4.878 2.812-.438 1.267-.385 2.368.155 3.271.794 1.325 2.314 1.731 3.697 1.954 5.014.805 7.59 3.578 8.105 8.726.239 2.4 1.855 4.077 3.93 4.077h.001c.154 0 .31-.01.466-.028 2.497-.297 3.707-2.131 3.597-5.45.04-3.465-1.773-7.398-4.856-10.531-3.095-3.143-6.825-4.913-10.217-4.83z"/></symbol><symbol viewBox="0 0 175.78 100.29" id="i-vk" xmlns="http://www.w3.org/2000/svg"><path d="M171.737 87.02c-.204-.454-.394-.83-.57-1.131-2.92-5.428-8.5-12.091-16.735-19.99l-.174-.181-.087-.089-.088-.09h-.089c-3.737-3.68-6.104-6.152-7.096-7.418-1.813-2.413-2.22-4.854-1.228-7.328.7-1.869 3.33-5.816 7.885-11.847a659.355 659.355 0 0 0 5.695-7.688c10.106-13.869 14.487-22.731 13.143-26.59l-.522-.903c-.35-.543-1.256-1.04-2.715-1.492-1.462-.452-3.33-.527-5.609-.226l-25.233.18c-.409-.15-.993-.136-1.753.046-.76.18-1.14.272-1.14.272l-.439.226-.348.272c-.292.18-.614.497-.964.95-.35.45-.641.98-.874 1.582-2.748 7.296-5.871 14.08-9.377 20.35-2.161 3.74-4.146 6.98-5.959 9.723-1.81 2.743-3.329 4.764-4.554 6.06-1.228 1.296-2.336 2.335-3.33 3.12-.994.784-1.752 1.116-2.278.995a62.515 62.515 0 0 1-1.49-.362c-.818-.543-1.475-1.282-1.97-2.216-.499-.935-.834-2.111-1.009-3.528-.174-1.418-.277-2.638-.307-3.663-.027-1.024-.015-2.473.045-4.342.06-1.87.088-3.135.088-3.799 0-2.292.043-4.779.13-7.462.088-2.683.16-4.81.22-6.375.06-1.568.087-3.227.087-4.976 0-1.748-.103-3.12-.307-4.115a14.402 14.402 0 0 0-.918-2.894c-.41-.935-1.009-1.658-1.796-2.171-.788-.513-1.768-.92-2.935-1.222-3.096-.723-7.039-1.114-11.83-1.175-10.863-.12-17.844.604-20.94 2.172-1.226.662-2.336 1.567-3.329 2.712-1.052 1.327-1.198 2.051-.439 2.17 3.505.542 5.987 1.839 7.447 3.889l.526 1.086c.41.784.819 2.172 1.228 4.161.408 1.99.672 4.19.788 6.601.291 4.402.291 8.171 0 11.306-.293 3.136-.569 5.578-.833 7.326-.263 1.75-.657 3.166-1.183 4.251-.526 1.085-.876 1.749-1.052 1.99-.175.24-.32.392-.437.452-.76.3-1.549.453-2.366.453-.818 0-1.81-.423-2.979-1.267-1.168-.845-2.38-2.005-3.635-3.482-1.257-1.478-2.673-3.543-4.25-6.196-1.577-2.653-3.213-5.788-4.907-9.406l-1.401-2.624c-.877-1.688-2.073-4.145-3.592-7.37a144.489 144.489 0 0 1-4.03-9.363c-.468-1.266-1.169-2.23-2.103-2.894l-.439-.272c-.291-.24-.76-.496-1.401-.769a9.075 9.075 0 0 0-2.016-.587l-24.007.18c-2.453 0-4.117.574-4.994 1.72l-.35.542c-.176.302-.264.784-.264 1.447 0 .664.175 1.478.526 2.442a302.81 302.81 0 0 0 11.433 24.602c4.118 7.898 7.696 14.261 10.733 19.082a225.546 225.546 0 0 0 9.287 13.658c3.155 4.281 5.243 7.025 6.264 8.23 1.023 1.208 1.827 2.11 2.41 2.714l2.191 2.17c1.402 1.447 3.46 3.18 6.177 5.2 2.717 2.021 5.725 4.01 9.025 5.972 3.3 1.958 7.14 3.556 11.522 4.792 4.38 1.237 8.645 1.733 12.792 1.494h10.076c2.044-.182 3.592-.846 4.644-1.99l.35-.454c.234-.36.453-.919.655-1.671a9.468 9.468 0 0 0 .307-2.488c-.06-2.592.132-4.928.569-7.008.436-2.08.934-3.647 1.49-4.703.557-1.055 1.185-1.945 1.884-2.667.7-.723 1.2-1.161 1.492-1.312.29-.152.523-.255.698-.317 1.402-.482 3.052-.015 4.952 1.403 1.899 1.417 3.68 3.167 5.346 5.246 1.664 2.082 3.665 4.417 6 7.01 2.338 2.592 4.382 4.52 6.134 5.788l1.751 1.086c1.17.724 2.689 1.387 4.559 1.99 1.866.602 3.5.753 4.905.452l22.429-.361c2.218 0 3.945-.38 5.169-1.132 1.227-.753 1.956-1.584 2.19-2.487.235-.904.248-1.93.045-3.077-.207-1.143-.412-1.943-.616-2.395z"/></symbol><symbol viewBox="0 0 100 100" id="i-wa" xmlns="http://www.w3.org/2000/svg"><path d="M50.286.139h-.025C22.748.139.375 22.519.375 50.037a49.526 49.526 0 0 0 9.5 29.247l-6.22 18.537 19.18-6.131c7.89 5.227 17.303 8.246 27.45 8.246 27.513 0 49.887-22.386 49.887-49.899C100.172 22.525 77.798.14 50.286.14zM79.32 70.602c-1.203 3.398-5.98 6.218-9.792 7.042-2.607.555-6.013.998-17.477-3.755-14.664-6.075-24.107-20.976-24.843-21.943-.705-.967-5.926-7.89-5.926-15.05 0-7.161 3.637-10.648 5.102-12.145 1.204-1.228 3.194-1.79 5.103-1.79.617 0 1.172.031 1.671.056 1.466.063 2.202.15 3.169 2.464 1.203 2.9 4.135 10.06 4.484 10.797.356.736.711 1.734.212 2.7-.467.999-.88 1.441-1.615 2.29-.736.848-1.435 1.497-2.17 2.407-.674.792-1.435 1.64-.587 3.106.848 1.435 3.78 6.219 8.096 10.061 5.57 4.959 10.086 6.543 11.701 7.217 1.204.499 2.639.38 3.518-.555 1.116-1.204 2.495-3.2 3.898-5.165.998-1.41 2.258-1.584 3.58-1.085 1.348.468 8.477 3.992 9.943 4.722 1.466.736 2.432 1.085 2.788 1.702.35.618.35 3.518-.855 6.924z"/></symbol></svg>