<svg width="111" height="90" viewBox="0 0 111 90" fill="none" xmlns="http://www.w3.org/2000/svg">
<path d="M102.983 16.6182L103.36 16.9469L102.592 16.9298L102.983 16.6182ZM109.592 12.6449V12.1449L110.091 12.6133L109.592 12.6449ZM106.623 18.321L106.458 18.7931V17.8488L106.623 18.321ZM97.1404 7.63107L97.197 7.13429L97.601 7.43672L97.1404 7.63107ZM89.7651 10.9421L90.1255 11.2887L89.8484 11.4351L89.7651 10.9421ZM79.1333 18.321L78.6943 18.5603V18.0816L79.1333 18.321ZM102.983 20.0238L102.592 19.7121L103.36 19.695L102.983 20.0238ZM109.592 23.997L110.091 24.0286L109.592 24.497V23.997ZM97.1404 29.0109L97.601 29.2052L97.197 29.5076L97.1404 29.0109ZM89.7651 25.6998L89.8484 25.2068L90.1255 25.3532L89.7651 25.6998ZM102.606 16.2894C103.846 14.8694 105.235 13.8398 106.48 13.1634C107.708 12.4964 108.848 12.1449 109.592 12.1449V13.1449C109.091 13.1449 108.124 13.4083 106.957 14.0421C105.808 14.6664 104.515 15.6235 103.36 16.9469L102.606 16.2894ZM110.091 12.6133C110.143 13.4275 110.046 14.6935 109.587 15.8892C109.126 17.09 108.275 18.2746 106.787 18.7931L106.458 17.8488C107.576 17.4592 108.257 16.5626 108.653 15.5308C109.052 14.4939 109.137 13.376 109.093 12.6765L110.091 12.6133ZM94.4454 10.8274C94.9783 10.9168 95.711 11.1101 96.5505 11.4267L96.1977 12.3624C95.4071 12.0642 94.7377 11.8904 94.28 11.8136L94.4454 10.8274ZM96.5505 11.4267C98.5768 12.1909 101.297 13.7006 103.374 16.3065L102.592 16.9298C100.659 14.5042 98.1098 13.0835 96.1977 12.3624L96.5505 11.4267ZM95.9501 11.6296C96.1173 11.3619 96.4128 10.6382 96.606 9.82394C96.7009 9.42381 96.7663 9.02153 96.7815 8.6616C96.797 8.29378 96.7582 8.01163 96.6797 7.82542L97.601 7.43672C97.7619 7.81812 97.799 8.26966 97.7806 8.70386C97.7619 9.14595 97.6836 9.61402 97.579 10.0548C97.3731 10.9225 97.0459 11.7629 96.7981 12.1595L95.9501 11.6296ZM97.0837 8.12786C95.9655 8.00042 94.6744 8.31788 93.4178 8.92138C92.1666 9.52224 90.9941 10.3857 90.1255 11.2887L89.4048 10.5955C90.356 9.60653 91.626 8.67254 92.9849 8.01994C94.3383 7.36996 95.8249 6.97792 97.197 7.13429L97.0837 8.12786ZM89.8484 11.4351C88.6947 11.63 86.7644 12.2242 84.7971 13.3724C82.8322 14.5191 80.858 16.2022 79.5723 18.5603L78.6943 18.0816C80.0906 15.5206 82.2191 13.7191 84.293 12.5087C86.3645 11.2997 88.4091 10.6641 89.6818 10.4491L89.8484 11.4351ZM103.36 19.695C104.515 21.0184 105.808 21.9755 106.957 22.5998C108.124 23.2336 109.091 23.497 109.592 23.497V24.497C108.848 24.497 107.708 24.1455 106.48 23.4785C105.235 22.8021 103.846 21.7725 102.606 20.3526L103.36 19.695ZM109.093 23.9654C109.137 23.2659 109.052 22.148 108.653 21.1112C108.257 20.0793 107.576 19.1828 106.458 18.7931L106.787 17.8488C108.275 18.3673 109.126 19.552 109.587 20.7527C110.046 21.9485 110.143 23.2145 110.091 24.0286L109.093 23.9654ZM94.28 24.8283C94.7377 24.7515 95.4071 24.5777 96.1977 24.2795L96.5505 25.2152C95.711 25.5318 94.9783 25.7251 94.4454 25.8145L94.28 24.8283ZM96.1977 24.2795C98.1098 23.5584 100.659 22.1377 102.592 19.7121L103.374 20.3354C101.297 22.9413 98.5768 24.451 96.5505 25.2152L96.1977 24.2795ZM96.7981 24.4825C97.0459 24.8791 97.3731 25.7195 97.579 26.5871C97.6836 27.0279 97.7619 27.496 97.7806 27.9381C97.799 28.3723 97.7619 28.8238 97.601 29.2052L96.6797 28.8165C96.7582 28.6303 96.797 28.3481 96.7815 27.9803C96.7663 27.6204 96.7009 27.2181 96.606 26.818C96.4128 26.0038 96.1173 25.2801 95.9501 25.0123L96.7981 24.4825ZM97.197 29.5076C95.8249 29.664 94.3383 29.272 92.9849 28.622C91.626 27.9694 90.356 27.0354 89.4048 26.0464L90.1255 25.3532C90.9941 26.2563 92.1666 27.1197 93.4178 27.7206C94.6744 28.324 95.9655 28.6415 97.0837 28.5141L97.197 29.5076ZM89.6818 26.1928C88.4091 25.9778 86.3645 25.3422 84.293 24.1332C82.2191 22.9228 80.0906 21.1214 78.6943 18.5603L79.5723 18.0816C80.858 20.4398 82.8322 22.1228 84.7971 23.2695C86.7644 24.4177 88.6947 25.0119 89.8484 25.2068L89.6818 26.1928Z" fill="#373938"/>
<circle r="1.69279" transform="matrix(-1 0 0 1 86.4679 18.3209)" stroke="#373938"/>
<path d="M36.4874 66.8848L36.8641 67.2136L36.0964 67.1965L36.4874 66.8848ZM43.0964 62.9116V62.4116L43.5954 62.88L43.0964 62.9116ZM40.1271 68.5876L39.9626 69.0598V68.1155L40.1271 68.5876ZM30.6447 57.8977L30.7014 57.401L31.1054 57.7034L30.6447 57.8977ZM23.2695 61.2088L23.6299 61.5554L23.3528 61.7018L23.2695 61.2088ZM12.6377 68.5876L12.1987 68.827V68.3483L12.6377 68.5876ZM36.4874 70.2904L36.0964 69.9788L36.8641 69.9616L36.4874 70.2904ZM43.0964 74.2637L43.5954 74.2952L43.0964 74.7637V74.2637ZM30.6447 79.2775L31.1054 79.4719L30.7014 79.7743L30.6447 79.2775ZM23.2695 75.9665L23.3528 75.4735L23.6299 75.6199L23.2695 75.9665ZM36.1107 66.556C37.3502 65.1361 38.739 64.1065 39.9843 63.4301C41.2121 62.7631 42.3526 62.4116 43.0964 62.4116V63.4116C42.5951 63.4116 41.6283 63.675 40.4616 64.3088C39.3123 64.9331 38.0193 65.8902 36.8641 67.2136L36.1107 66.556ZM43.5954 62.88C43.6469 63.6941 43.5506 64.9601 43.0914 66.1559C42.6304 67.3566 41.7791 68.5413 40.2917 69.0598L39.9626 68.1155C41.0805 67.7258 41.7617 66.8293 42.1579 65.7974C42.556 64.7606 42.6417 63.6427 42.5974 62.9432L43.5954 62.88ZM27.9498 61.0941C28.4827 61.1834 29.2154 61.3768 30.0549 61.6934L29.7021 62.629C28.9115 62.3309 28.242 62.157 27.7844 62.0803L27.9498 61.0941ZM30.0549 61.6934C32.0812 62.4575 34.8014 63.9673 36.8784 66.5732L36.0964 67.1965C34.1631 64.7708 31.6142 63.3502 29.7021 62.629L30.0549 61.6934ZM29.4544 61.8963C29.6217 61.6285 29.9172 60.9048 30.1104 60.0906C30.2053 59.6905 30.2706 59.2882 30.2859 58.9283C30.3014 58.5604 30.2626 58.2783 30.1841 58.0921L31.1054 57.7034C31.2663 58.0848 31.3033 58.5363 31.285 58.9705C31.2663 59.4126 31.1879 59.8807 31.0833 60.3215C30.8775 61.1891 30.5503 62.0295 30.3025 62.4261L29.4544 61.8963ZM30.5881 58.3945C29.4699 58.2671 28.1788 58.5845 26.9222 59.188C25.671 59.7889 24.4985 60.6523 23.6299 61.5554L22.9092 60.8622C23.8604 59.8732 25.1304 58.9392 26.4893 58.2866C27.8427 57.6366 29.3293 57.2446 30.7014 57.401L30.5881 58.3945ZM23.3528 61.7018C22.1991 61.8967 20.2688 62.4909 18.3014 63.6391C16.3365 64.7858 14.3624 66.4688 13.0767 68.827L12.1987 68.3483C13.595 65.7872 15.7235 63.9858 17.7974 62.7754C19.8689 61.5664 21.9135 60.9308 23.1862 60.7158L23.3528 61.7018ZM36.8641 69.9616C38.0193 71.2851 39.3123 72.2421 40.4616 72.8665C41.6283 73.5002 42.5951 73.7637 43.0964 73.7637V74.7637C42.3526 74.7637 41.2121 74.4122 39.9843 73.7452C38.739 73.0688 37.3502 72.0392 36.1107 70.6192L36.8641 69.9616ZM42.5974 74.2321C42.6417 73.5326 42.556 72.4147 42.1579 71.3778C41.7617 70.346 41.0805 69.4495 39.9626 69.0598L40.2917 68.1155C41.7791 68.634 42.6304 69.8186 43.0914 71.0194C43.5506 72.2151 43.6469 73.4811 43.5954 74.2952L42.5974 74.2321ZM27.7844 75.095C28.242 75.0182 28.9115 74.8443 29.7021 74.5462L30.0549 75.4819C29.2154 75.7985 28.4827 75.9918 27.9498 76.0812L27.7844 75.095ZM29.7021 74.5462C31.6142 73.8251 34.1631 72.4044 36.0964 69.9788L36.8784 70.6021C34.8014 73.208 32.0812 74.7177 30.0549 75.4819L29.7021 74.5462ZM30.3025 74.7491C30.5503 75.1457 30.8775 75.9861 31.0833 76.8538C31.1879 77.2946 31.2663 77.7626 31.285 78.2047C31.3033 78.6389 31.2663 79.0905 31.1054 79.4719L30.1841 79.0832C30.2626 78.897 30.3014 78.6148 30.2859 78.247C30.2706 77.8871 30.2053 77.4848 30.1104 77.0847C29.9172 76.2704 29.6217 75.5467 29.4544 75.279L30.3025 74.7491ZM30.7014 79.7743C29.3293 79.9307 27.8427 79.5386 26.4893 78.8886C25.1304 78.236 23.8604 77.3021 22.9092 76.3131L23.6299 75.6199C24.4985 76.5229 25.671 77.3864 26.9222 77.9872C28.1788 78.5907 29.4699 78.9082 30.5881 78.7807L30.7014 79.7743ZM23.1862 76.4595C21.9135 76.2445 19.8689 75.6088 17.7974 74.3999C15.7235 73.1895 13.595 71.3881 12.1987 68.827L13.0767 68.3483C14.3624 70.7065 16.3365 72.3895 18.3014 73.5362C20.2688 74.6844 22.1991 75.2785 23.3528 75.4735L23.1862 76.4595Z" fill="#373938"/>
<circle r="1.69279" transform="matrix(-1 0 0 1 19.9737 68.5876)" stroke="#373938"/>
<path d="M87.3839 72.0848L87.7606 72.4136L86.9929 72.3965L87.3839 72.0848ZM93.9929 68.1116V67.6116L94.4919 68.08L93.9929 68.1116ZM91.0236 73.7876L90.8591 74.2598V73.3155L91.0236 73.7876ZM81.5412 63.0977L81.5978 62.601L82.0019 62.9034L81.5412 63.0977ZM74.166 66.4088L74.5264 66.7554L74.2493 66.9018L74.166 66.4088ZM63.5342 73.7876L63.0952 74.027V73.5483L63.5342 73.7876ZM87.3839 75.4904L86.9929 75.1788L87.7606 75.1617L87.3839 75.4904ZM93.9929 79.4637L94.4919 79.4953L93.9929 79.9637V79.4637ZM81.5412 84.4775L82.0019 84.6719L81.5978 84.9743L81.5412 84.4775ZM74.166 81.1665L74.2493 80.6735L74.5264 80.8199L74.166 81.1665ZM87.0072 71.756C88.2466 70.3361 89.6355 69.3065 90.8808 68.6301C92.1086 67.9631 93.2491 67.6116 93.9929 67.6116V68.6116C93.4915 68.6116 92.5248 68.875 91.3581 69.5088C90.2088 70.1331 88.9158 71.0902 87.7606 72.4136L87.0072 71.756ZM94.4919 68.08C94.5434 68.8941 94.4471 70.1601 93.9879 71.3559C93.5269 72.5566 92.6756 73.7413 91.1882 74.2598L90.8591 73.3155C91.9769 72.9258 92.6582 72.0293 93.0544 70.9974C93.4525 69.9606 93.5381 68.8427 93.4939 68.1432L94.4919 68.08ZM78.8462 66.2941C79.3792 66.3835 80.1119 66.5768 80.9514 66.8934L80.5985 67.8291C79.808 67.5309 79.1385 67.3571 78.6808 67.2803L78.8462 66.2941ZM80.9514 66.8934C82.9777 67.6576 85.6978 69.1673 87.7749 71.7732L86.9929 72.3965C85.0596 69.9709 82.5107 68.5502 80.5985 67.8291L80.9514 66.8934ZM80.3509 67.0963C80.5182 66.8285 80.8136 66.1048 81.0069 65.2906C81.1018 64.8905 81.1671 64.4882 81.1824 64.1283C81.1979 63.7605 81.1591 63.4783 81.0805 63.2921L82.0019 62.9034C82.1628 63.2848 82.1998 63.7363 82.1815 64.1705C82.1628 64.6126 82.0844 65.0807 81.9798 65.5215C81.7739 66.3891 81.4468 67.2295 81.199 67.6261L80.3509 67.0963ZM81.4846 63.5945C80.3664 63.4671 79.0753 63.7846 77.8187 64.388C76.5675 64.9889 75.395 65.8523 74.5264 66.7554L73.8057 66.0622C74.7569 65.0732 76.0268 64.1392 77.3857 63.4866C78.7392 62.8366 80.2258 62.4446 81.5978 62.601L81.4846 63.5945ZM74.2493 66.9018C73.0956 67.0967 71.1652 67.6909 69.1979 68.8391C67.233 69.9858 65.2588 71.6688 63.9732 74.027L63.0952 73.5483C64.4915 70.9872 66.62 69.1858 68.6939 67.9754C70.7654 66.7664 72.81 66.1308 74.0827 65.9158L74.2493 66.9018ZM87.7606 75.1617C88.9158 76.4851 90.2088 77.4422 91.3581 78.0665C92.5248 78.7003 93.4915 78.9637 93.9929 78.9637V79.9637C93.2491 79.9637 92.1086 79.6122 90.8808 78.9452C89.6355 78.2688 88.2466 77.2392 87.0072 75.8192L87.7606 75.1617ZM93.4939 79.4321C93.5381 78.7326 93.4525 77.6147 93.0544 76.5779C92.6582 75.546 91.9769 74.6495 90.8591 74.2598L91.1882 73.3155C92.6756 73.834 93.5269 75.0187 93.9879 76.2194C94.4471 77.4151 94.5434 78.6811 94.4919 79.4953L93.4939 79.4321ZM78.6808 80.295C79.1385 80.2182 79.808 80.0444 80.5985 79.7462L80.9514 80.6819C80.1119 80.9985 79.3792 81.1918 78.8462 81.2812L78.6808 80.295ZM80.5985 79.7462C82.5107 79.0251 85.0596 77.6044 86.9929 75.1788L87.7749 75.8021C85.6978 78.408 82.9777 79.9177 80.9514 80.6819L80.5985 79.7462ZM81.199 79.9491C81.4468 80.3457 81.7739 81.1861 81.9798 82.0538C82.0844 82.4946 82.1628 82.9626 82.1815 83.4047C82.1998 83.8389 82.1628 84.2905 82.0019 84.6719L81.0805 84.2832C81.1591 84.097 81.1979 83.8148 81.1824 83.447C81.1671 83.0871 81.1018 82.6848 81.0069 82.2847C80.8136 81.4704 80.5182 80.7467 80.3509 80.479L81.199 79.9491ZM81.5978 84.9743C80.2258 85.1307 78.7392 84.7386 77.3857 84.0887C76.0268 83.4361 74.7569 82.5021 73.8057 81.5131L74.5264 80.8199C75.395 81.7229 76.5675 82.5864 77.8187 83.1872C79.0753 83.7907 80.3664 84.1082 81.4846 83.9807L81.5978 84.9743ZM74.0827 81.6595C72.81 81.4445 70.7654 80.8089 68.6939 79.5999C66.62 78.3895 64.4915 76.5881 63.0952 74.027L63.9732 73.5483C65.2588 75.9065 67.233 77.5895 69.1979 78.7362C71.1652 79.8844 73.0956 80.4786 74.2493 80.6735L74.0827 81.6595Z" fill="#373938"/>
<circle r="1.69279" transform="matrix(-1 0 0 1 70.8692 73.7876)" stroke="#373938"/>
<path d="M24.983 23.5515L25.3597 23.8803L24.592 23.8632L24.983 23.5515ZM31.592 19.5783V19.0783L32.091 19.5467L31.592 19.5783ZM28.6228 25.2543L28.4582 25.7265V24.7822L28.6228 25.2543ZM19.1404 14.5644L19.197 14.0676L19.601 14.3701L19.1404 14.5644ZM11.7651 17.8755L12.1255 18.2221L11.8484 18.3685L11.7651 17.8755ZM1.13334 25.2543L0.694344 25.4937V25.015L1.13334 25.2543ZM24.983 26.9571L24.592 26.6455L25.3597 26.6283L24.983 26.9571ZM31.592 30.9304L32.091 30.9619L31.592 31.4304V30.9304ZM19.1404 35.9442L19.601 36.1385L19.197 36.441L19.1404 35.9442ZM11.7651 32.6332L11.8484 32.1402L12.1255 32.2866L11.7651 32.6332ZM24.6063 23.2227C25.8458 21.8027 27.2346 20.7732 28.4799 20.0967C29.7077 19.4298 30.8482 19.0783 31.592 19.0783V20.0783C31.0907 20.0783 30.1239 20.3417 28.9572 20.9755C27.8079 21.5998 26.5149 22.5569 25.3597 23.8803L24.6063 23.2227ZM32.091 19.5467C32.1425 20.3608 32.0462 21.6268 31.587 22.8226C31.126 24.0233 30.2747 25.208 28.7873 25.7265L28.4582 24.7822C29.5761 24.3925 30.2573 23.4959 30.6535 22.4641C31.0516 21.4273 31.1373 20.3093 31.093 19.6098L32.091 19.5467ZM16.4454 17.7607C16.9783 17.8501 17.711 18.0435 18.5505 18.3601L18.1977 19.2957C17.4071 18.9976 16.7377 18.8237 16.28 18.747L16.4454 17.7607ZM18.5505 18.3601C20.5768 19.1242 23.297 20.6339 25.374 23.2399L24.592 23.8632C22.6587 21.4375 20.1098 20.0168 18.1977 19.2957L18.5505 18.3601ZM17.9501 18.563C18.1173 18.2952 18.4128 17.5715 18.606 16.7573C18.7009 16.3572 18.7663 15.9549 18.7815 15.5949C18.797 15.2271 18.7582 14.945 18.6797 14.7588L19.601 14.3701C19.7619 14.7515 19.799 15.203 19.7806 15.6372C19.7619 16.0793 19.6836 16.5474 19.579 16.9882C19.3731 17.8558 19.0459 18.6962 18.7981 19.0928L17.9501 18.563ZM19.0837 15.0612C17.9655 14.9338 16.6744 15.2512 15.4178 15.8547C14.1666 16.4556 12.9941 17.319 12.1255 18.2221L11.4048 17.5288C12.356 16.5399 13.626 15.6059 14.9849 14.9533C16.3383 14.3033 17.8249 13.9113 19.197 14.0676L19.0837 15.0612ZM11.8484 18.3685C10.6947 18.5634 8.76437 19.1576 6.79705 20.3057C4.83216 21.4525 2.85797 23.1355 1.57234 25.4937L0.694344 25.015C2.09061 22.4539 4.21908 20.6524 6.29299 19.4421C8.36448 18.2331 10.4091 17.5975 11.6818 17.3824L11.8484 18.3685ZM25.3597 26.6283C26.5149 27.9518 27.8079 28.9088 28.9572 29.5332C30.1239 30.1669 31.0907 30.4304 31.592 30.4304V31.4304C30.8482 31.4304 29.7077 31.0789 28.4799 30.4119C27.2346 29.7354 25.8458 28.7059 24.6063 27.2859L25.3597 26.6283ZM31.093 30.8988C31.1373 30.1993 31.0516 29.0814 30.6535 28.0445C30.2573 27.0127 29.5761 26.1161 28.4582 25.7265L28.7873 24.7822C30.2747 25.3007 31.126 26.4853 31.587 27.6861C32.0462 28.8818 32.1425 30.1478 32.091 30.9619L31.093 30.8988ZM16.28 31.7617C16.7377 31.6849 17.4071 31.511 18.1977 31.2129L18.5505 32.1486C17.711 32.4652 16.9783 32.6585 16.4454 32.7479L16.28 31.7617ZM18.1977 31.2129C20.1098 30.4918 22.6587 29.0711 24.592 26.6455L25.374 27.2688C23.297 29.8747 20.5768 31.3844 18.5505 32.1486L18.1977 31.2129ZM18.7981 31.4158C19.0459 31.8124 19.3731 32.6528 19.579 33.5205C19.6836 33.9613 19.7619 34.4293 19.7806 34.8714C19.799 35.3056 19.7619 35.7572 19.601 36.1385L18.6797 35.7499C18.7582 35.5636 18.797 35.2815 18.7815 34.9137C18.7663 34.5537 18.7009 34.1515 18.606 33.7513C18.4128 32.9371 18.1173 32.2134 17.9501 31.9457L18.7981 31.4158ZM19.197 36.441C17.8249 36.5974 16.3383 36.2053 14.9849 35.5553C13.626 34.9027 12.356 33.9687 11.4048 32.9798L12.1255 32.2866C12.9941 33.1896 14.1666 34.053 15.4178 34.6539C16.6744 35.2574 17.9655 35.5749 19.0837 35.4474L19.197 36.441ZM11.6818 33.1262C10.4091 32.9112 8.36448 32.2755 6.293 31.0666C4.21908 29.8562 2.09061 28.0547 0.694344 25.4937L1.57234 25.015C2.85797 27.3731 4.83215 29.0561 6.79705 30.2029C8.76437 31.3511 10.6947 31.9452 11.8484 32.1402L11.6818 33.1262Z" fill="#373938"/>
<circle r="1.69279" transform="matrix(-1 0 0 1 8.46786 25.2543)" stroke="#373938"/>
<g filter="url(#filter0_d)">
<circle cx="58.3332" cy="42.2667" r="34.6667" fill="white"/>
<circle cx="58.3332" cy="42.2667" r="34.1667" stroke="#E7E7E7"/>
</g>
<mask id="mask0" mask-type="alpha" maskUnits="userSpaceOnUse" x="23" y="7" width="70" height="70">
<circle cx="58.3332" cy="42.2667" r="34.1667" fill="white" stroke="black"/>
</mask>
<g mask="url(#mask0)">
<path d="M25.4058 24.5992L25.7825 24.928L25.0148 24.9108L25.4058 24.5992ZM34.0528 19.4007V18.9007L34.5518 19.3691L34.0528 19.4007ZM30.1679 26.8271L30.0033 27.2992V26.355L30.1679 26.8271ZM17.7614 12.8407L17.818 12.3439L18.2221 12.6464L17.7614 12.8407ZM8.11185 17.1728L8.4722 17.5194L8.19514 17.6658L8.11185 17.1728ZM-5.79853 26.8271L-6.23753 27.0664V26.5878L-5.79853 26.8271ZM25.4058 29.055L25.0148 28.7433L25.7825 28.7262L25.4058 29.055ZM34.0528 34.2535L34.5518 34.2851L34.0528 34.7535V34.2535ZM17.7614 40.8135L18.2221 41.0078L17.818 41.3102L17.7614 40.8135ZM8.11185 36.4814L8.19514 35.9884L8.4722 36.1348L8.11185 36.4814ZM25.0291 24.2704C26.6377 22.4274 28.4401 21.0915 30.0546 20.2145C31.6516 19.347 33.117 18.9007 34.0528 18.9007V19.9007C33.3595 19.9007 32.0678 20.2589 30.5319 21.0933C29.0134 21.9181 27.3069 23.1815 25.7825 24.928L25.0291 24.2704ZM34.5518 19.3691C34.6181 20.4166 34.4937 22.0502 33.9024 23.5902C33.3092 25.1352 32.2216 26.6407 30.3325 27.2992L30.0033 26.355C31.5229 25.8253 32.4405 24.6078 32.9688 23.2317C33.4991 21.8507 33.6128 20.3651 33.5538 19.4323L34.5518 19.3691ZM14.2098 17.1748C14.8956 17.2898 15.8444 17.5397 16.9353 17.9511L16.5824 18.8868C15.5405 18.4938 14.6549 18.2634 14.0444 18.161L14.2098 17.1748ZM16.9353 17.9511C19.5688 18.9443 23.1014 20.9058 25.7968 24.2875L25.0148 24.9108C22.4631 21.7094 19.1018 19.8369 16.5824 18.8868L16.9353 17.9511ZM16.3348 18.154C16.5661 17.7838 16.9575 16.8189 17.2122 15.7454C17.3379 15.2156 17.4254 14.6791 17.4459 14.1955C17.4667 13.7041 17.4162 13.3088 17.3007 13.0351L18.2221 12.6464C18.4199 13.1153 18.4686 13.6799 18.445 14.2378C18.4211 14.8036 18.3206 15.4058 18.1852 15.9763C17.9178 17.1032 17.4947 18.1848 17.1829 18.6838L16.3348 18.154ZM17.7048 13.3375C16.2026 13.1663 14.4832 13.5932 12.8241 14.3899C11.1705 15.184 9.62142 16.3246 8.4722 17.5194L7.75149 16.8262C8.98333 15.5455 10.6299 14.3343 12.3912 13.4885C14.1471 12.6452 16.0619 12.1438 17.818 12.3439L17.7048 13.3375ZM8.19514 17.6658C6.66725 17.9239 4.12405 18.7077 1.534 20.2193C-1.05362 21.7295 -3.66039 23.9498 -5.35953 27.0664L-6.23753 26.5878C-4.42775 23.2682 -1.66669 20.9295 1.02995 19.3557C3.72417 17.7832 6.3817 16.958 8.02855 16.6798L8.19514 17.6658ZM25.7825 28.7262C27.3069 30.4726 29.0134 31.736 30.5319 32.5609C32.0678 33.3952 33.3595 33.7535 34.0528 33.7535V34.7535C33.117 34.7535 31.6516 34.3072 30.0546 33.4396C28.4401 32.5626 26.6377 31.2268 25.0291 29.3838L25.7825 28.7262ZM33.5538 34.2219C33.6128 33.289 33.4991 31.8035 32.9688 30.4225C32.4405 29.0464 31.5229 27.8289 30.0033 27.2992L30.3325 26.355C32.2216 27.0135 33.3091 28.519 33.9024 30.064C34.4937 31.604 34.6181 33.2376 34.5518 34.2851L33.5538 34.2219ZM14.0444 35.4932C14.6549 35.3908 15.5405 35.1603 16.5824 34.7674L16.9353 35.7031C15.8444 36.1145 14.8956 36.3644 14.2098 36.4794L14.0444 35.4932ZM16.5824 34.7674C19.1018 33.8173 22.4631 31.9448 25.0148 28.7433L25.7968 29.3666C23.1014 32.7483 19.5688 34.7099 16.9353 35.7031L16.5824 34.7674ZM17.1829 34.9703C17.4947 35.4694 17.9178 36.5509 18.1852 37.6779C18.3206 38.2484 18.4211 38.8506 18.445 39.4164C18.4686 39.9742 18.4199 40.5389 18.2221 41.0078L17.3007 40.6191C17.4162 40.3454 17.4667 39.9501 17.4459 39.4586C17.4254 38.975 17.3379 38.4386 17.2122 37.9088C16.9575 36.8352 16.5661 35.8704 16.3348 35.5002L17.1829 34.9703ZM17.818 41.3102C16.0619 41.5104 14.1471 41.0089 12.3912 40.1657C10.6299 39.3198 8.98333 38.1087 7.75149 36.828L8.4722 36.1348C9.62142 37.3296 11.1705 38.4701 12.8241 39.2643C14.4832 40.061 16.2026 40.4879 17.7048 40.3167L17.818 41.3102ZM8.02855 36.9744C6.3817 36.6962 3.72417 35.8709 1.02995 34.2985C-1.66669 32.7247 -4.42775 30.386 -6.23753 27.0664L-5.35953 26.5878C-3.66039 29.7044 -1.05362 31.9247 1.534 33.4349C4.12405 34.9465 6.66725 35.7303 8.19514 35.9884L8.02855 36.9744Z" fill="#373938"/>
<path d="M106.872 17.6659L107.248 17.9947L106.481 17.9776L106.872 17.6659ZM115.519 12.4674V11.9674L116.018 12.4358L115.519 12.4674ZM111.634 19.8938L111.469 20.366V19.4217L111.634 19.8938ZM99.2271 5.90736L99.2837 5.41057L99.6878 5.71301L99.2271 5.90736ZM89.5775 10.2395L89.9379 10.5861L89.6608 10.7325L89.5775 10.2395ZM75.667 19.8938L75.228 20.1332V19.6545L75.667 19.8938ZM106.872 22.1217L106.481 21.8101L107.248 21.793L106.872 22.1217ZM115.519 27.3203L116.018 27.3518L115.519 27.8203V27.3203ZM99.2271 33.8803L99.6878 34.0746L99.2837 34.3771L99.2271 33.8803ZM89.5775 29.5482L89.6608 29.0552L89.9379 29.2016L89.5775 29.5482ZM106.495 17.3371C108.104 15.4941 109.906 14.1582 111.52 13.2812C113.117 12.4137 114.583 11.9674 115.519 11.9674V12.9674C114.825 12.9674 113.534 13.3256 111.998 14.16C110.479 14.9849 108.773 16.2482 107.248 17.9947L106.495 17.3371ZM116.018 12.4358C116.084 13.4833 115.96 15.1169 115.368 16.6569C114.775 18.2019 113.687 19.7075 111.798 20.366L111.469 19.4217C112.989 18.892 113.906 17.6745 114.435 16.2984C114.965 14.9174 115.079 13.4318 115.02 12.499L116.018 12.4358ZM95.6755 10.2414C96.3612 10.3564 97.3101 10.6064 98.401 11.0178L98.0481 11.9534C97.0062 11.5605 96.1206 11.33 95.5101 11.2277L95.6755 10.2414ZM98.401 11.0178C101.035 12.011 104.567 13.9725 107.263 17.3543L106.481 17.9776C103.929 14.7761 100.568 12.9036 98.0481 11.9534L98.401 11.0178ZM97.8005 11.2207C98.0318 10.8505 98.4232 9.8856 98.6779 8.81206C98.8037 8.28228 98.8912 7.74579 98.9116 7.2622C98.9324 6.77071 98.8819 6.37543 98.7664 6.10171L99.6878 5.71301C99.8856 6.18192 99.9343 6.74659 99.9107 7.30446C99.8868 7.87021 99.7863 8.47248 99.6509 9.04295C99.3835 10.1699 98.9604 11.2515 98.6486 11.7505L97.8005 11.2207ZM99.1705 6.40414C97.6683 6.23294 95.9489 6.65981 94.2898 7.45657C92.6362 8.25071 91.0871 9.39129 89.9379 10.5861L89.2171 9.89284C90.449 8.61215 92.0955 7.40101 93.8569 6.55513C95.6128 5.71189 97.5276 5.21044 99.2837 5.41057L99.1705 6.40414ZM89.6608 10.7325C88.1329 10.9906 85.5897 11.7744 82.9996 13.286C80.412 14.7962 77.8052 17.0165 76.106 20.1332L75.228 19.6545C77.0378 16.3349 79.7989 13.9962 82.4955 12.4224C85.1898 10.8499 87.8473 10.0247 89.4942 9.74644L89.6608 10.7325ZM107.248 21.793C108.773 23.5394 110.479 24.8028 111.998 25.6277C113.534 26.462 114.825 26.8203 115.519 26.8203V27.8203C114.583 27.8203 113.117 27.374 111.52 26.5064C109.906 25.6294 108.104 24.2935 106.495 22.4505L107.248 21.793ZM115.02 27.2887C115.079 26.3558 114.965 24.8703 114.435 23.4892C113.906 22.1131 112.989 20.8957 111.469 20.366L111.798 19.4217C113.687 20.0802 114.775 21.5858 115.368 23.1308C115.96 24.6707 116.084 26.3043 116.018 27.3518L115.02 27.2887ZM95.5101 28.56C96.1206 28.4576 97.0062 28.2271 98.0481 27.8342L98.401 28.7699C97.3101 29.1813 96.3612 29.4312 95.6755 29.5462L95.5101 28.56ZM98.0481 27.8342C100.568 26.8841 103.929 25.0115 106.481 21.8101L107.263 22.4334C104.567 25.8151 101.035 27.7767 98.401 28.7699L98.0481 27.8342ZM98.6486 28.0371C98.9604 28.5362 99.3835 29.6178 99.6509 30.7447C99.7863 31.3152 99.8868 31.9174 99.9107 32.4832C99.9343 33.0411 99.8856 33.6057 99.6878 34.0746L98.7664 33.6859C98.8819 33.4122 98.9324 33.0169 98.9116 32.5255C98.8912 32.0419 98.8037 31.5054 98.6779 30.9756C98.4232 29.9021 98.0318 28.9372 97.8005 28.567L98.6486 28.0371ZM99.2837 34.3771C97.5276 34.5772 95.6128 34.0758 93.8569 33.2325C92.0955 32.3866 90.449 31.1755 89.2171 29.8948L89.9379 29.2016C91.0871 30.3964 92.6362 31.5369 94.2898 32.3311C95.9489 33.1278 97.6683 33.5547 99.1705 33.3835L99.2837 34.3771ZM89.4942 30.0412C87.8473 29.763 85.1898 28.9377 82.4956 27.3653C79.7989 25.7915 77.0378 23.4528 75.228 20.1332L76.106 19.6545C77.8052 22.7712 80.412 24.9914 82.9996 26.5016C85.5897 28.0133 88.1329 28.7971 89.6608 29.0552L89.4942 30.0412Z" fill="#373938"/>
<circle r="2.21481" transform="matrix(-1 0 0 1 85.2642 19.8935)" stroke="#373938"/>
<path d="M91.271 71.3992L91.6477 71.728L90.88 71.7109L91.271 71.3992ZM99.918 66.2007V65.7007L100.417 66.1692L99.918 66.2007ZM96.0331 73.6272L95.8685 74.0993V73.155L96.0331 73.6272ZM83.6265 59.6407L83.6831 59.1439L84.0872 59.4463L83.6265 59.6407ZM73.9769 63.9728L74.3373 64.3194L74.0602 64.4658L73.9769 63.9728ZM60.0664 73.6272L59.6274 73.8665V73.3878L60.0664 73.6272ZM91.271 75.8551L90.88 75.5434L91.6477 75.5263L91.271 75.8551ZM99.918 81.0536L100.417 81.0852L99.918 81.5536V81.0536ZM83.6265 87.6136L84.0872 87.808L83.6831 88.1104L83.6265 87.6136ZM73.9769 83.2815L74.0602 82.7885L74.3373 82.9349L73.9769 83.2815ZM90.8943 71.0705C92.5029 69.2275 94.3053 67.8916 95.9198 67.0146C97.5169 66.147 98.9822 65.7007 99.918 65.7007V66.7007C99.2247 66.7007 97.9331 67.059 96.3971 67.8933C94.8786 68.7182 93.1721 69.9816 91.6477 71.728L90.8943 71.0705ZM100.417 66.1692C100.483 67.2167 100.359 68.8503 99.7676 70.3902C99.1744 71.9352 98.0868 73.4408 96.1977 74.0993L95.8685 73.155C97.3882 72.6253 98.3057 71.4079 98.8341 70.0318C99.3644 68.6507 99.4781 67.1652 99.419 66.2323L100.417 66.1692ZM80.0749 63.9748C80.7607 64.0898 81.7095 64.3397 82.8004 64.7511L82.4475 65.6868C81.4056 65.2939 80.52 65.0634 79.9095 64.961L80.0749 63.9748ZM82.8004 64.7511C85.434 65.7443 88.9665 67.7059 91.662 71.0876L90.88 71.7109C88.3282 68.5095 84.9669 66.6369 82.4475 65.6868L82.8004 64.7511ZM82.1999 64.954C82.4312 64.5838 82.8226 63.6189 83.0774 62.5454C83.2031 62.0156 83.2906 61.4791 83.311 60.9955C83.3318 60.504 83.2813 60.1088 83.1658 59.835L84.0872 59.4463C84.285 59.9153 84.3337 60.4799 84.3101 61.0378C84.2862 61.6036 84.1857 62.2058 84.0503 62.7763C83.7829 63.9032 83.3598 64.9848 83.048 65.4839L82.1999 64.954ZM83.5699 60.1375C82.0677 59.9663 80.3483 60.3931 78.6892 61.1899C77.0356 61.984 75.4865 63.1246 74.3373 64.3194L73.6166 63.6262C74.8484 62.3455 76.4949 61.1344 78.2563 60.2885C80.0122 59.4452 81.927 58.9438 83.6831 59.1439L83.5699 60.1375ZM74.0602 64.4658C72.5323 64.7239 69.9891 65.5077 67.399 67.0194C64.8114 68.5296 62.2046 70.7499 60.5054 73.8665L59.6274 73.3878C61.4372 70.0683 64.1983 67.7295 66.895 66.1557C69.5892 64.5833 72.2467 63.758 73.8936 63.4798L74.0602 64.4658ZM91.6477 75.5263C93.1721 77.2728 94.8786 78.5361 96.3971 79.361C97.9331 80.1954 99.2247 80.5536 99.918 80.5536V81.5536C98.9822 81.5536 97.5169 81.1073 95.9198 80.2397C94.3053 79.3627 92.5029 78.0269 90.8943 76.1839L91.6477 75.5263ZM99.419 81.022C99.4781 80.0891 99.3644 78.6036 98.8341 77.2226C98.3057 75.8465 97.3882 74.629 95.8685 74.0993L96.1977 73.155C98.0868 73.8136 99.1744 75.3191 99.7676 76.8641C100.359 78.4041 100.483 80.0377 100.417 81.0852L99.419 81.022ZM79.9095 82.2933C80.52 82.1909 81.4056 81.9605 82.4475 81.5675L82.8004 82.5032C81.7095 82.9146 80.7607 83.1645 80.0749 83.2796L79.9095 82.2933ZM82.4475 81.5675C84.9669 80.6174 88.3282 78.7449 90.88 75.5434L91.662 76.1667C88.9665 79.5485 85.434 81.51 82.8004 82.5032L82.4475 81.5675ZM83.048 81.7705C83.3598 82.2695 83.7829 83.3511 84.0503 84.478C84.1857 85.0485 84.2862 85.6508 84.3101 86.2165C84.3337 86.7744 84.285 87.3391 84.0872 87.808L83.1658 87.4193C83.2813 87.1456 83.3318 86.7503 83.311 86.2588C83.2906 85.7752 83.2031 85.2387 83.0774 84.7089C82.8226 83.6354 82.4312 82.6705 82.1999 82.3003L83.048 81.7705ZM83.6831 88.1104C81.927 88.3106 80.0122 87.8091 78.2563 86.9659C76.4949 86.12 74.8484 84.9088 73.6166 83.6282L74.3373 82.9349C75.4865 84.1297 77.0356 85.2703 78.6892 86.0644C80.3483 86.8612 82.0677 87.2881 83.5699 87.1169L83.6831 88.1104ZM73.8936 83.7746C72.2468 83.4963 69.5892 82.6711 66.895 81.0987C64.1983 79.5248 61.4372 77.1861 59.6274 73.8665L60.5054 73.3878C62.2046 76.5045 64.8114 78.7248 67.399 80.235C69.9891 81.7466 72.5323 82.5304 74.0602 82.7885L73.8936 83.7746Z" fill="#373938"/>
<circle r="2.21481" transform="matrix(-1 0 0 1 69.6641 73.6268)" stroke="#373938"/>
<path d="M38.6411 66.1992L39.0178 66.528L38.2501 66.5109L38.6411 66.1992ZM47.2882 61.0007V60.5007L47.7872 60.9691L47.2882 61.0007ZM43.4032 68.4272L43.2387 68.8993V67.955L43.4032 68.4272ZM30.9966 54.4407L31.0532 53.9439L31.4573 54.2463L30.9966 54.4407ZM21.347 58.7728L21.7074 59.1194L21.4303 59.2658L21.347 58.7728ZM7.43655 68.4272L6.99756 68.6665V68.1878L7.43655 68.4272ZM38.6411 70.6551L38.2501 70.3434L39.0178 70.3263L38.6411 70.6551ZM47.2882 75.8536L47.7872 75.8852L47.2882 76.3536V75.8536ZM30.9966 82.4136L31.4573 82.608L31.0532 82.9104L30.9966 82.4136ZM21.347 78.0815L21.4303 77.5885L21.7074 77.7349L21.347 78.0815ZM38.2644 65.8704C39.873 64.0274 41.6755 62.6916 43.2899 61.8146C44.887 60.947 46.3523 60.5007 47.2882 60.5007V61.5007C46.5948 61.5007 45.3032 61.8589 43.7672 62.6933C42.2487 63.5182 40.5422 64.7816 39.0178 66.528L38.2644 65.8704ZM47.7872 60.9691C47.8534 62.0166 47.729 63.6502 47.1377 65.1902C46.5445 66.7352 45.4569 68.2408 43.5678 68.8993L43.2387 67.955C44.7583 67.4253 45.6758 66.2079 46.2042 64.8318C46.7345 63.4507 46.8482 61.9652 46.7891 61.0323L47.7872 60.9691ZM27.445 58.7748C28.1308 58.8898 29.0797 59.1397 30.1705 59.5511L29.8176 60.4868C28.7757 60.0938 27.8901 59.8634 27.2796 59.761L27.445 58.7748ZM30.1705 59.5511C32.8041 60.5443 36.3366 62.5059 39.0321 65.8876L38.2501 66.5109C35.6984 63.3094 32.3371 61.4369 29.8176 60.4868L30.1705 59.5511ZM29.57 59.754C29.8013 59.3838 30.1927 58.4189 30.4475 57.3454C30.5732 56.8156 30.6607 56.2791 30.6811 55.7955C30.7019 55.304 30.6514 54.9088 30.5359 54.635L31.4573 54.2463C31.6551 54.7152 31.7038 55.2799 31.6802 55.8378C31.6563 56.4035 31.5558 57.0058 31.4205 57.5763C31.153 58.7032 30.7299 59.7848 30.4181 60.2839L29.57 59.754ZM30.94 54.9375C29.4378 54.7663 27.7184 55.1931 26.0593 55.9899C24.4057 56.784 22.8566 57.9246 21.7074 59.1194L20.9867 58.4262C22.2185 57.1455 23.8651 55.9343 25.6264 55.0885C27.3823 54.2452 29.2972 53.7438 31.0532 53.9439L30.94 54.9375ZM21.4303 59.2658C19.9024 59.5239 17.3592 60.3077 14.7691 61.8194C12.1815 63.3296 9.57471 65.5498 7.87555 68.6665L6.99756 68.1878C8.80735 64.8682 11.5684 62.5295 14.2651 60.9557C16.9593 59.3833 19.6169 58.558 21.2637 58.2798L21.4303 59.2658ZM39.0178 70.3263C40.5422 72.0727 42.2487 73.3361 43.7672 74.161C45.3032 74.9954 46.5948 75.3536 47.2882 75.3536V76.3536C46.3523 76.3536 44.887 75.9073 43.2899 75.0397C41.6755 74.1627 39.873 72.8269 38.2644 70.9839L39.0178 70.3263ZM46.7891 75.822C46.8482 74.8891 46.7345 73.4036 46.2042 72.0226C45.6758 70.6465 44.7583 69.429 43.2387 68.8993L43.5678 67.955C45.4569 68.6135 46.5445 70.1191 47.1377 71.6641C47.729 73.2041 47.8534 74.8377 47.7872 75.8852L46.7891 75.822ZM27.2796 77.0933C27.8901 76.9909 28.7757 76.7605 29.8176 76.3675L30.1705 77.3032C29.0797 77.7146 28.1308 77.9645 27.445 78.0795L27.2796 77.0933ZM29.8176 76.3675C32.3371 75.4174 35.6984 73.5449 38.2501 70.3434L39.0321 70.9667C36.3366 74.3485 32.8041 76.31 30.1705 77.3032L29.8176 76.3675ZM30.4181 76.5704C30.7299 77.0695 31.153 78.1511 31.4205 79.278C31.5558 79.8485 31.6563 80.4508 31.6802 81.0165C31.7038 81.5744 31.6551 82.1391 31.4573 82.608L30.5359 82.2193C30.6514 81.9455 30.7019 81.5503 30.6811 81.0588C30.6607 80.5752 30.5732 80.0387 30.4475 79.5089C30.1927 78.4354 29.8013 77.4705 29.57 77.1003L30.4181 76.5704ZM31.0532 82.9104C29.2972 83.1105 27.3823 82.6091 25.6264 81.7658C23.8651 80.92 22.2185 79.7088 20.9867 78.4281L21.7074 77.7349C22.8566 78.9297 24.4057 80.0703 26.0593 80.8644C27.7184 81.6612 29.4378 82.088 30.94 81.9168L31.0532 82.9104ZM21.2637 78.5745C19.6169 78.2963 16.9593 77.4711 14.2651 75.8986C11.5684 74.3248 8.80735 71.9861 6.99756 68.6665L7.87555 68.1878C9.57471 71.3045 12.1815 73.5248 14.7691 75.035C17.3592 76.5466 19.9024 77.3304 21.4303 77.5885L21.2637 78.5745Z" fill="#373938"/>
<circle cx="58.3332" cy="42.2667" r="34.1667" stroke="#373938"/>
</g>
<path d="M47.2779 40.0642L46.9012 40.393L47.6688 40.3759L47.2779 40.0642ZM38.7297 34.9252V34.4252L38.2307 34.8936L38.7297 34.9252ZM42.5702 42.2667L42.7348 42.7388V41.7945L42.5702 42.2667ZM54.8349 28.4402L54.7782 27.9434L54.3742 28.2459L54.8349 28.4402ZM64.3741 32.7227L64.0137 33.0694L64.2908 33.2158L64.3741 32.7227ZM78.1254 42.2667L78.5644 42.506V42.0273L78.1254 42.2667ZM47.2779 44.4691L47.6688 44.1574L46.9012 44.1403L47.2779 44.4691ZM38.7297 49.6081L38.2307 49.6397L38.7297 50.1081V49.6081ZM54.8349 56.0931L54.3742 56.2875L54.7782 56.5899L54.8349 56.0931ZM64.3741 51.8106L64.2908 51.3176L64.0137 51.464L64.3741 51.8106ZM47.6545 39.7354C46.0638 37.913 44.2815 36.592 42.685 35.7247C41.1058 34.8669 39.6562 34.4252 38.7297 34.4252V35.4252C39.4137 35.4252 40.6896 35.7788 42.2076 36.6034C43.7082 37.4186 45.3947 38.6671 46.9012 40.393L47.6545 39.7354ZM38.2307 34.8936C38.1652 35.9298 38.2882 37.5455 38.8731 39.0688C39.4599 40.5971 40.536 42.0871 42.4056 42.7388L42.7348 41.7945C41.2347 41.2716 40.3286 40.0697 39.8067 38.7104C39.2828 37.346 39.1704 35.8783 39.2287 34.9568L38.2307 34.8936ZM58.3449 32.7191C57.6665 32.8328 56.7282 33.08 55.6495 33.4868L56.0024 34.4225C57.0321 34.0342 57.9072 33.8064 58.5103 33.7053L58.3449 32.7191ZM55.6495 33.4868C53.0454 34.4689 49.5523 36.4085 46.8869 39.7526L47.6688 40.3759C50.1906 37.2121 53.5124 35.3615 56.0024 34.4225L55.6495 33.4868ZM56.25 33.6897C56.0218 33.3245 55.6351 32.3713 55.3833 31.3104C55.2591 30.7869 55.1727 30.2569 55.1525 29.7793C55.1319 29.2938 55.1819 28.904 55.2955 28.6346L54.3742 28.2459C54.1782 28.7105 54.13 29.2697 54.1534 29.8216C54.177 30.3813 54.2764 30.9771 54.4103 31.5412C54.6748 32.6556 55.0932 33.7255 55.4019 34.2196L56.25 33.6897ZM54.8915 28.937C56.3751 28.7679 58.0737 29.1895 59.7132 29.9769C61.3473 30.7616 62.8781 31.8887 64.0137 33.0694L64.7344 32.3761C63.5162 31.1096 61.8879 29.9119 60.1461 29.0754C58.4098 28.2416 56.5157 27.7454 54.7782 27.9434L54.8915 28.937ZM64.2908 33.2158C65.8005 33.4708 68.314 34.2454 70.8738 35.7394C73.4312 37.232 76.0073 39.4262 77.6864 42.506L78.5644 42.0273C76.7747 38.7446 74.0443 36.4319 71.3779 34.8757C68.7139 33.321 66.0861 32.5049 64.4574 32.2297L64.2908 33.2158ZM46.9012 44.1403C45.3947 45.8662 43.7082 47.1147 42.2076 47.9299C40.6896 48.7545 39.4137 49.1081 38.7297 49.1081V50.1081C39.6562 50.1081 41.1058 49.6664 42.685 48.8086C44.2815 47.9413 46.0638 46.6203 47.6545 44.7979L46.9012 44.1403ZM39.2287 49.5766C39.1704 48.655 39.2828 47.1873 39.8067 45.823C40.3286 44.4636 41.2347 43.2617 42.7348 42.7388L42.4056 41.7945C40.536 42.4463 39.4599 43.9362 38.8731 45.4645C38.2882 46.9878 38.1652 48.6035 38.2307 49.6397L39.2287 49.5766ZM58.5103 50.828C57.9072 50.7269 57.0321 50.4992 56.0024 50.1108L55.6495 51.0465C56.7282 51.4533 57.6665 51.7005 58.3449 51.8143L58.5103 50.828ZM56.0024 50.1108C53.5124 49.1718 50.1906 47.3212 47.6688 44.1574L46.8869 44.7807C49.5523 48.1248 53.0454 50.0644 55.6495 51.0465L56.0024 50.1108ZM55.4019 50.3137C55.0932 50.8078 54.6748 51.8777 54.4103 52.9921C54.2764 53.5562 54.177 54.152 54.1534 54.7118C54.13 55.2636 54.1782 55.8228 54.3742 56.2875L55.2955 55.8988C55.1819 55.6293 55.1319 55.2395 55.1525 54.754C55.1727 54.2764 55.2591 53.7464 55.3833 53.223C55.6351 52.162 56.0218 51.2088 56.25 50.8436L55.4019 50.3137ZM54.7782 56.5899C56.5157 56.7879 58.4098 56.2918 60.1461 55.4579C61.8879 54.6214 63.5162 53.4237 64.7344 52.1572L64.0137 51.464C62.8781 52.6446 61.3473 53.7717 59.7132 54.5565C58.0737 55.3438 56.3751 55.7654 54.8915 55.5963L54.7782 56.5899ZM64.4574 52.3036C66.0861 52.0284 68.7139 51.2124 71.3779 49.6576C74.0443 48.1014 76.7747 45.7888 78.5644 42.506L77.6864 42.0273C76.0073 45.1072 73.4312 47.3014 70.8738 48.7939C68.314 50.2879 65.8005 51.0625 64.2908 51.3176L64.4574 52.3036Z" fill="#FF8900"/>
<circle cx="68.6377" cy="42.2665" r="2.18947" stroke="#FF8900"/>
<defs>
<filter id="filter0_d" x="13.6665" y="0.600006" width="89.3333" height="89.3333" filterUnits="userSpaceOnUse" color-interpolation-filters="sRGB">
<feFlood flood-opacity="0" result="BackgroundImageFix"/>
<feColorMatrix in="SourceAlpha" type="matrix" values="0 0 0 0 0 0 0 0 0 0 0 0 0 0 0 0 0 0 127 0"/>
<feOffset dy="3"/>
<feGaussianBlur stdDeviation="5"/>
<feColorMatrix type="matrix" values="0 0 0 0 0 0 0 0 0 0 0 0 0 0 0 0 0 0 0.25 0"/>
<feBlend mode="normal" in2="BackgroundImageFix" result="effect1_dropShadow"/>
<feBlend mode="normal" in="SourceGraphic" in2="effect1_dropShadow" result="shape"/>
</filter>
</defs>
</svg>
