<svg width="94" height="93" viewBox="0 0 94 93" fill="none" xmlns="http://www.w3.org/2000/svg">
<path d="M56.1715 46.7752C56.6328 46.4739 57.4017 46.6246 57.863 47.0765L59.4007 48.7337C61.2459 50.5415 64.3213 49.6376 64.6288 47.0765L64.9364 44.8168C65.0901 44.2142 65.5514 43.6116 66.3203 43.6116C67.0891 43.6116 67.858 43.4609 68.6268 43.4609C69.3957 43.4609 70.1645 43.4609 70.9334 43.6116C71.5485 43.6116 72.1635 44.2142 72.3173 44.8168L72.6248 47.0765C72.9324 49.6376 76.1615 50.5415 77.853 48.7337L79.3907 47.0765C79.852 46.6246 80.6208 46.4739 81.2359 46.7752C82.4661 47.5285 83.6962 48.4324 84.9264 49.3363C85.3877 49.7882 85.5415 50.5415 85.2339 51.1441L84.1576 53.1025C82.9274 55.3623 84.9264 57.9234 87.3867 57.4714L89.6932 57.0195C90.3083 56.8688 91.0772 57.1701 91.3847 57.9234C91.9998 59.2792 92.4611 60.6351 92.7686 62.1416C92.9224 62.7442 92.6149 63.4974 91.9998 63.7987L89.847 64.7027C87.5405 65.7572 87.5405 69.0715 89.847 70.1261L91.9998 71.03C92.6149 71.3313 92.9224 71.9339 92.7686 72.6871C92.4611 74.1936 91.9998 75.5495 91.3847 76.9054C91.0772 77.508 90.4621 77.8093 89.6932 77.8093L87.3867 77.3573C84.7726 76.9054 82.9274 79.4664 84.1576 81.7262L85.2339 83.6846C85.5415 84.2872 85.3877 85.0405 84.9264 85.4924C83.85 86.3963 82.6199 87.3003 81.2359 88.0535C80.6208 88.3548 79.852 88.2042 79.3907 87.7522L77.853 86.095C76.0078 84.2872 72.9324 85.1911 72.6248 87.7522L72.3173 90.3133C72.1635 90.9159 71.7022 91.5185 70.9334 91.5185C70.1645 91.5185 69.3957 91.6691 68.6268 91.6691C67.858 91.6691 67.0891 91.6691 66.3203 91.5185C65.7052 91.5185 65.0901 90.9159 64.9364 90.3133L64.6288 88.0535C64.3213 85.4924 61.0921 84.5885 59.4007 86.3963L57.863 88.0535C57.4017 88.5055 56.6328 88.6561 56.0177 88.3548C54.7876 87.6016 53.5574 86.6977 52.3273 85.7937C51.866 85.3418 51.7122 84.5885 52.0197 83.9859L53.0961 82.0275C54.3263 79.7677 52.3273 77.2067 49.867 77.6586L47.7142 77.9599C47.0991 78.1106 46.3303 77.8093 46.0227 77.056C45.4076 75.7001 44.9463 74.3443 44.6388 72.8378C44.485 72.2352 44.7926 71.4819 45.4076 71.1806L47.5604 70.2767C49.867 69.2222 49.867 65.9079 47.5604 64.8533L45.4076 63.9494C44.7926 63.6481 44.485 63.0455 44.6388 62.2922C44.9463 60.7857 45.4076 59.4299 46.0227 58.074C46.3303 57.4714 47.0991 57.0195 47.7142 57.1701L50.0207 57.6221C52.481 58.074 54.48 55.513 53.2499 53.2532L52.1735 51.2947C51.866 50.6921 51.866 49.9389 52.481 49.4869C53.5574 48.4324 54.7876 47.5285 56.1715 46.7752Z" fill="white" stroke="#373938"/>
<circle cx="68.7046" cy="67.5649" r="10.2129" stroke="#D1D1D1"/>
<path d="M12.9552 4.18028C13.4165 3.87898 14.1854 4.02963 14.6467 4.48158L16.1844 6.13874C18.0296 7.94655 21.105 7.04264 21.4125 4.48158L21.7201 2.22182C21.8738 1.61922 22.3351 1.01662 23.104 1.01662C23.8728 1.01662 24.6417 0.865967 25.4105 0.865967C26.1794 0.865967 26.9482 0.865967 27.7171 1.01662C28.3321 1.01662 28.9472 1.61922 29.101 2.22182L29.4085 4.48158C29.7161 7.04264 32.9452 7.94655 34.6367 6.13874L36.1744 4.48158C36.6357 4.02963 37.4045 3.87898 38.0196 4.18028C39.2498 4.93354 40.4799 5.83744 41.7101 6.74134C42.1714 7.1933 42.3252 7.94655 42.0176 8.54915L40.9412 10.5076C39.7111 12.7674 41.7101 15.3284 44.1704 14.8765L46.4769 14.4245C47.092 14.2739 47.8609 14.5752 48.1684 15.3284C48.7835 16.6843 49.2448 18.0401 49.5523 19.5466C49.7061 20.1493 49.3986 20.9025 48.7835 21.2038L46.6307 22.1077C44.3242 23.1623 44.3242 26.4766 46.6307 27.5311L48.7835 28.435C49.3986 28.7363 49.7061 29.3389 49.5523 30.0922C49.2448 31.5987 48.7835 32.9546 48.1684 34.3104C47.8609 34.913 47.2458 35.2143 46.4769 35.2143L44.1704 34.7624C41.5563 34.3104 39.7111 36.8715 40.9412 39.1312L42.0176 41.0897C42.3252 41.6923 42.1714 42.4455 41.7101 42.8975C40.6337 43.8014 39.4035 44.7053 38.0196 45.4586C37.4045 45.7599 36.6357 45.6092 36.1744 45.1573L34.6367 43.5001C32.7915 41.6923 29.7161 42.5962 29.4085 45.1573L29.101 47.7183C28.9472 48.3209 28.4859 48.9235 27.7171 48.9235C26.9482 48.9235 26.1794 49.0742 25.4105 49.0742C24.6417 49.0742 23.8728 49.0742 23.104 48.9235C22.4889 48.9235 21.8738 48.3209 21.7201 47.7183L21.4125 45.4586C21.105 42.8975 17.8758 41.9936 16.1844 43.8014L14.6467 45.4586C14.1854 45.9105 13.4165 46.0612 12.8014 45.7599C11.5713 45.0066 10.3411 44.1027 9.11096 43.1988C8.64965 42.7469 8.49588 41.9936 8.80342 41.391L9.87981 39.4325C11.11 37.1728 9.11096 34.6117 6.65065 35.0637L4.49788 35.365C3.8828 35.5156 3.11395 35.2143 2.80641 34.4611C2.19133 33.1052 1.73003 31.7494 1.42249 30.2428C1.26872 29.6402 1.57626 28.887 2.19133 28.5857L4.34411 27.6818C6.65065 26.6272 6.65065 23.3129 4.34411 22.2584L2.19133 21.3545C1.57626 21.0532 1.26872 20.4506 1.42249 19.6973C1.73003 18.1908 2.19133 16.8349 2.80641 15.4791C3.11395 14.8765 3.8828 14.4245 4.49788 14.5752L6.80442 15.0271C9.26473 15.4791 11.2637 12.918 10.0336 10.6583L8.95719 8.6998C8.64965 8.0972 8.64965 7.34395 9.26473 6.89199C10.3411 5.83744 11.5713 4.93354 12.9552 4.18028Z" fill="white" stroke="#373938"/>
<circle cx="25.4883" cy="24.9701" r="10.2129" stroke="#D1D1D1"/>
<g filter="url(#filter0_d)">
<circle cx="47.368" cy="46.7238" r="34.6493" fill="white"/>
<circle cx="47.368" cy="46.7238" r="34.1493" stroke="#373938"/>
</g>
<mask id="mask0" mask-type="alpha" maskUnits="userSpaceOnUse" x="12" y="12" width="71" height="70">
<circle cx="47.368" cy="46.7238" r="34.1493" fill="white" stroke="#373938"/>
</mask>
<g mask="url(#mask0)">
<path d="M53.2135 39.581C53.8563 39.1612 54.9277 39.3711 55.5705 40.0009L57.7133 42.3102C60.2847 44.8294 64.5703 43.5698 64.9988 40.0009L65.4274 36.8519C65.6417 36.0122 66.2845 35.1724 67.3559 35.1724C68.4273 35.1724 69.4987 34.9625 70.5701 34.9625C71.6415 34.9625 72.7129 34.9625 73.7843 35.1724C74.6414 35.1724 75.4985 36.0122 75.7128 36.8519L76.1414 40.0009C76.5699 43.5698 81.0698 44.8294 83.4269 42.3102L85.5697 40.0009C86.2125 39.3711 87.2839 39.1612 88.141 39.581C89.8552 40.6307 91.5695 41.8903 93.2837 43.1499C93.9266 43.7797 94.1408 44.8294 93.7123 45.6691L92.2123 48.3982C90.4981 51.5472 93.2837 55.1161 96.7122 54.4863L99.9264 53.8565C100.784 53.6466 101.855 54.0664 102.283 55.1161C103.141 57.0055 103.783 58.8949 104.212 60.9942C104.426 61.834 103.998 62.8836 103.141 63.3035L100.141 64.5631C96.9265 66.0326 96.9265 70.6512 100.141 72.1207L103.141 73.3803C103.998 73.8002 104.426 74.6399 104.212 75.6896C103.783 77.7889 103.141 79.6783 102.283 81.5677C101.855 82.4074 100.998 82.8273 99.9264 82.8273L96.7122 82.1975C93.0694 81.5677 90.4981 85.1366 92.2123 88.2856L93.7123 91.0147C94.1408 91.8544 93.9266 92.9041 93.2837 93.5339C91.7838 94.7935 90.0695 96.0531 88.141 97.1028C87.2839 97.5226 86.2125 97.3127 85.5697 96.6829L83.4269 94.3736C80.8555 91.8544 76.5699 93.114 76.1414 96.6829L75.7128 100.252C75.4985 101.092 74.8557 101.931 73.7843 101.931C72.7129 101.931 71.6415 102.141 70.5701 102.141C69.4987 102.141 68.4273 102.141 67.3559 101.931C66.4988 101.931 65.6417 101.092 65.4274 100.252L64.9988 97.1028C64.5703 93.5339 60.0704 92.2743 57.7133 94.7935L55.5705 97.1028C54.9277 97.7326 53.8563 97.9425 52.9992 97.5226C51.2849 96.473 49.5707 95.2134 47.8565 93.9538C47.2136 93.324 46.9994 92.2743 47.4279 91.4346L48.9279 88.7054C50.6421 85.5564 47.8565 81.9876 44.428 82.6174L41.4281 83.0372C40.571 83.2472 39.4996 82.8273 39.071 81.7776C38.2139 79.8882 37.5711 77.9988 37.1425 75.8995C36.9282 75.0598 37.3568 74.0101 38.2139 73.5902L41.2138 72.3306C44.428 70.8611 44.428 66.2426 41.2138 64.773L38.2139 63.5134C37.3568 63.0936 36.9282 62.2538 37.1425 61.2042C37.5711 59.1048 38.2139 57.2154 39.071 55.326C39.4996 54.4863 40.571 53.8565 41.4281 54.0664L44.6423 54.6962C48.0707 55.326 50.8564 51.7572 49.1421 48.6082L47.6422 45.879C47.2136 45.0393 47.2136 43.9896 48.0707 43.3598C49.5707 41.8903 51.2849 40.6307 53.2135 39.581Z" fill="white" stroke="#373938"/>
<circle cx="70.6781" cy="68.5517" r="14.4286" stroke="#D1D1D1"/>
<path d="M6.59578 -5.21069C7.23862 -5.63056 8.31001 -5.42062 8.95285 -4.79082L11.0956 -2.48156C13.667 0.0376453 17.9526 -1.22195 18.3812 -4.79082L18.8097 -7.93982C19.024 -8.77956 19.6668 -9.61929 20.7382 -9.61929C21.8096 -9.61929 22.881 -9.82922 23.9524 -9.82922C25.0238 -9.82922 26.0952 -9.82922 27.1666 -9.61929C28.0237 -9.61929 28.8808 -8.77956 29.0951 -7.93982L29.5237 -4.79082C29.9522 -1.22195 34.4521 0.0376453 36.8092 -2.48156L38.952 -4.79082C39.5948 -5.42062 40.6662 -5.63056 41.5233 -5.21069C43.2376 -4.16102 44.9518 -2.90142 46.666 -1.64182C47.3089 -1.01202 47.5232 0.0376444 47.0946 0.877378L45.5946 3.60651C43.8804 6.75551 46.666 10.3244 50.0945 9.69458L53.3087 9.06478C54.1658 8.85485 55.2372 9.27472 55.6658 10.3244C56.5229 12.2138 57.1657 14.1032 57.5943 16.2025C57.8086 17.0422 57.38 18.0919 56.5229 18.5118L53.523 19.7714C50.3088 21.2409 50.3088 25.8595 53.523 27.329L56.5229 28.5886C57.38 29.0084 57.8086 29.8482 57.5943 30.8979C57.1657 32.9972 56.5229 34.8866 55.6658 36.776C55.2372 37.6157 54.3801 38.0356 53.3087 38.0356L50.0945 37.4058C46.4518 36.776 43.8804 40.3449 45.5946 43.4939L47.0946 46.223C47.5232 47.0627 47.3089 48.1124 46.666 48.7422C45.1661 50.0018 43.4518 51.2614 41.5233 52.3111C40.6662 52.7309 39.5948 52.521 38.952 51.8912L36.8092 49.5819C34.2378 47.0627 29.9522 48.3223 29.5237 51.8912L29.0951 55.4601C28.8808 56.2998 28.238 57.1395 27.1666 57.1395C26.0952 57.1395 25.0238 57.3495 23.9524 57.3495C22.881 57.3495 21.8096 57.3495 20.7382 57.1395C19.8811 57.1395 19.024 56.2998 18.8097 55.4601L18.3812 52.3111C17.9526 48.7422 13.4527 47.4826 11.0956 50.0018L8.95285 52.3111C8.31001 52.9409 7.23862 53.1508 6.3815 52.7309C4.66726 51.6813 2.95303 50.4217 1.23879 49.1621C0.595956 48.5323 0.381677 47.4826 0.810236 46.6428L2.31019 43.9137C4.02443 40.7647 1.23879 37.1959 -2.18968 37.8257L-5.18959 38.2455C-6.04671 38.4555 -7.11811 38.0356 -7.54666 36.9859C-8.40378 35.0965 -9.04662 33.2071 -9.47518 31.1078C-9.68946 30.2681 -9.2609 29.2184 -8.40378 28.7985L-5.40387 27.5389C-2.18968 26.0694 -2.18968 21.4508 -5.40387 19.9813L-8.40378 18.7217C-9.2609 18.3019 -9.68946 17.4621 -9.47518 16.4124C-9.04662 14.3131 -8.40378 12.4237 -7.54666 10.5343C-7.11811 9.69458 -6.04671 9.06478 -5.18959 9.27472L-1.9754 9.90451C1.45307 10.5343 4.23871 6.96545 2.52447 3.81645L1.02452 1.08731C0.595956 0.247578 0.595956 -0.802089 1.45307 -1.43189C2.95303 -2.90142 4.66726 -4.16102 6.59578 -5.21069Z" fill="white" stroke="#373938"/>
<mask id="path-11-outside-1" maskUnits="userSpaceOnUse" x="34.2246" y="40.6205" width="18" height="17" fill="black">
<rect fill="white" x="34.2246" y="40.6205" width="18" height="17"/>
<path fill-rule="evenodd" clip-rule="evenodd" d="M48.6551 44.0166C48.271 44.2988 48.1678 44.8138 48.4796 45.4331L49.9744 48.1527C52.0616 51.9869 48.6509 56.2589 44.5572 55.5069L44.5471 55.505L41.3131 54.8713L41.2934 54.8665C41.1358 54.8279 40.8785 54.8545 40.5783 55.02C40.2834 55.1825 40.0407 55.4302 39.914 55.6785L38.3709 54.891C38.6727 54.2995 39.18 53.8124 39.7422 53.5026C39.8614 53.4369 39.9875 53.3769 40.119 53.3248C39.4692 53.2243 38.8568 52.928 38.3962 52.4767L38.3814 52.4623L36.2246 50.1379L37.4946 48.9595L39.6214 51.2516C40.0117 51.6227 40.6722 51.7462 41.178 51.507C43.022 50.5013 44.6725 49.292 46.1306 48.0698C46.5009 47.6889 46.6134 47.0657 46.3786 46.5937L44.8859 43.8779L46.4042 43.0434L46.7642 43.6985C46.9292 43.3022 47.2069 42.9308 47.6292 42.6205L48.6551 44.0166ZM41.6732 53.1761C41.6766 53.1769 41.6801 53.1777 41.6835 53.1785L44.8749 53.8038C47.6353 54.3072 49.7915 51.443 48.4527 48.981L48.0361 48.2229C47.8806 48.6384 47.638 49.0188 47.3227 49.3277L47.2989 49.351L47.2735 49.3723C45.7436 50.657 43.9813 51.9536 41.9878 53.0387L41.9715 53.0476L41.9548 53.0557C41.8624 53.101 41.7684 53.1411 41.6732 53.1761Z"/>
</mask>
<path fill-rule="evenodd" clip-rule="evenodd" d="M48.6551 44.0166C48.271 44.2988 48.1678 44.8138 48.4796 45.4331L49.9744 48.1527C52.0616 51.9869 48.6509 56.2589 44.5572 55.5069L44.5471 55.505L41.3131 54.8713L41.2934 54.8665C41.1358 54.8279 40.8785 54.8545 40.5783 55.02C40.2834 55.1825 40.0407 55.4302 39.914 55.6785L38.3709 54.891C38.6727 54.2995 39.18 53.8124 39.7422 53.5026C39.8614 53.4369 39.9875 53.3769 40.119 53.3248C39.4692 53.2243 38.8568 52.928 38.3962 52.4767L38.3814 52.4623L36.2246 50.1379L37.4946 48.9595L39.6214 51.2516C40.0117 51.6227 40.6722 51.7462 41.178 51.507C43.022 50.5013 44.6725 49.292 46.1306 48.0698C46.5009 47.6889 46.6134 47.0657 46.3786 46.5937L44.8859 43.8779L46.4042 43.0434L46.7642 43.6985C46.9292 43.3022 47.2069 42.9308 47.6292 42.6205L48.6551 44.0166ZM41.6732 53.1761C41.6766 53.1769 41.6801 53.1777 41.6835 53.1785L44.8749 53.8038C47.6353 54.3072 49.7915 51.443 48.4527 48.981L48.0361 48.2229C47.8806 48.6384 47.638 49.0188 47.3227 49.3277L47.2989 49.351L47.2735 49.3723C45.7436 50.657 43.9813 51.9536 41.9878 53.0387L41.9715 53.0476L41.9548 53.0557C41.8624 53.101 41.7684 53.1411 41.6732 53.1761Z" fill="#FF8900"/>
<path d="M48.4796 45.4331L47.5865 45.8828L47.5946 45.8989L47.6033 45.9147L48.4796 45.4331ZM48.6551 44.0166L49.2472 44.8224L50.053 44.2303L49.4609 43.4244L48.6551 44.0166ZM49.9744 48.1527L50.8527 47.6746L50.8507 47.671L49.9744 48.1527ZM44.5572 55.5069L44.3706 56.4894L44.3765 56.4904L44.5572 55.5069ZM44.5471 55.505L44.3548 56.4863L44.3606 56.4874L44.5471 55.505ZM41.3131 54.8713L41.0751 55.8426L41.0978 55.8481L41.1208 55.8526L41.3131 54.8713ZM41.2934 54.8665L41.5313 53.8952L41.5313 53.8952L41.2934 54.8665ZM40.5783 55.02L40.0957 54.1441H40.0957L40.5783 55.02ZM39.914 55.6785L39.4594 56.5692L40.3501 57.0238L40.8047 56.1331L39.914 55.6785ZM38.3709 54.891L37.4801 54.4364L37.0256 55.3271L37.9163 55.7817L38.3709 54.891ZM39.7422 53.5026L39.2595 52.6268H39.2595L39.7422 53.5026ZM40.119 53.3248L40.4875 54.2544L43.9075 52.8986L40.2718 52.3365L40.119 53.3248ZM38.3962 52.4767L37.6963 53.191L37.6963 53.191L38.3962 52.4767ZM38.3814 52.4623L37.6484 53.1425L37.6646 53.1599L37.6816 53.1766L38.3814 52.4623ZM36.2246 50.1379L35.5444 49.4049L34.8114 50.0851L35.4916 50.8181L36.2246 50.1379ZM37.4946 48.9595L38.2276 48.2793L37.5474 47.5463L36.8144 48.2265L37.4946 48.9595ZM39.6214 51.2516L38.8884 51.9318L38.9097 51.9547L38.9324 51.9763L39.6214 51.2516ZM41.178 51.507L41.6056 52.4109L41.6316 52.3987L41.6568 52.3849L41.178 51.507ZM46.1306 48.0698L46.773 48.8361L46.812 48.8034L46.8476 48.7669L46.1306 48.0698ZM46.3786 46.5937L47.2739 46.1483L47.2648 46.13L47.2549 46.112L46.3786 46.5937ZM44.8859 43.8779L44.4043 43.0015L43.5279 43.4832L44.0096 44.3595L44.8859 43.8779ZM46.4042 43.0434L47.2805 42.5618L46.7989 41.6854L45.9225 42.167L46.4042 43.0434ZM46.7642 43.6985L45.8879 44.1801L46.8886 46.0011L47.6874 44.0829L46.7642 43.6985ZM47.6292 42.6205L48.4351 42.0283L47.843 41.2225L47.0371 41.8146L47.6292 42.6205ZM41.6835 53.1785L41.4554 54.1521L41.4733 54.1563L41.4912 54.1598L41.6835 53.1785ZM41.6732 53.1761L41.3282 52.2375L38.1693 53.3987L41.4497 54.1508L41.6732 53.1761ZM44.8749 53.8038L44.6826 54.7852L44.6955 54.7876L44.8749 53.8038ZM48.4527 48.981L49.3313 48.5033L49.3291 48.4994L48.4527 48.981ZM48.0361 48.2229L48.9124 47.7412L47.8629 45.8316L47.0994 47.8725L48.0361 48.2229ZM47.3227 49.3277L48.0225 50.042L48.0225 50.042L47.3227 49.3277ZM47.2989 49.351L47.942 50.1168L47.9714 50.0921L47.9988 50.0653L47.2989 49.351ZM47.2735 49.3723L47.9166 50.1381L47.9166 50.1381L47.2735 49.3723ZM41.9878 53.0387L42.4659 53.917L42.4659 53.917L41.9878 53.0387ZM41.9715 53.0476L42.4114 53.9456L42.4307 53.9362L42.4495 53.9259L41.9715 53.0476ZM41.9548 53.0557L41.5149 52.1577L41.5149 52.1577L41.9548 53.0557ZM49.3728 44.9834C49.2842 44.8073 49.2976 44.7314 49.2962 44.7412C49.2953 44.747 49.2912 44.7646 49.2784 44.7858C49.2657 44.8069 49.2523 44.8187 49.2472 44.8224L48.0629 43.2107C47.6571 43.509 47.3901 43.9461 47.3166 44.4557C47.2456 44.9484 47.3633 45.4395 47.5865 45.8828L49.3728 44.9834ZM50.8507 47.671L49.356 44.9514L47.6033 45.9147L49.098 48.6343L50.8507 47.671ZM44.3765 56.4904C49.2287 57.3818 53.3751 52.3082 50.8527 47.6746L49.0961 48.6308C50.7482 51.6656 48.0731 55.136 44.7379 54.5234L44.3765 56.4904ZM44.3606 56.4874L44.3706 56.4893L44.7437 54.5245L44.7337 54.5225L44.3606 56.4874ZM41.1208 55.8526L44.3548 56.4863L44.7394 54.5236L41.5054 53.89L41.1208 55.8526ZM41.0555 55.8378L41.0751 55.8426L41.551 53.9L41.5313 53.8952L41.0555 55.8378ZM41.061 55.8958C41.126 55.86 41.1645 55.8513 41.1715 55.85C41.1749 55.8493 41.1678 55.851 41.1506 55.8509C41.1343 55.8508 41.1014 55.849 41.0555 55.8378L41.5313 53.8952C41.0633 53.7806 40.5469 53.8955 40.0957 54.1441L41.061 55.8958ZM40.8047 56.1331C40.8138 56.1153 40.8396 56.0747 40.8899 56.0245C40.9388 55.9756 40.9982 55.9304 41.061 55.8958L40.0957 54.1441C39.6461 54.3919 39.2509 54.7779 39.0233 55.2239L40.8047 56.1331ZM37.9163 55.7817L39.4594 56.5692L40.3686 54.7878L38.8254 54.0002L37.9163 55.7817ZM39.2595 52.6268C38.5433 53.0215 37.8832 53.6466 37.4801 54.4364L39.2616 55.3455C39.4622 54.9523 39.8167 54.6034 40.2248 54.3784L39.2595 52.6268ZM39.7505 52.3951C39.5783 52.4634 39.4141 52.5416 39.2595 52.6268L40.2248 54.3784C40.3087 54.3322 40.3968 54.2903 40.4875 54.2544L39.7505 52.3951ZM40.2718 52.3365C39.8163 52.2661 39.3988 52.0591 39.096 51.7624L37.6963 53.191C38.3148 53.7969 39.122 54.1825 39.9662 54.313L40.2718 52.3365ZM39.096 51.7624L39.0813 51.748L37.6816 53.1766L37.6963 53.191L39.096 51.7624ZM39.1145 51.7821L36.9576 49.4577L35.4916 50.8181L37.6484 53.1425L39.1145 51.7821ZM36.9048 50.8709L38.1748 49.6925L36.8144 48.2265L35.5444 49.4049L36.9048 50.8709ZM36.7615 49.6397L38.8884 51.9318L40.3545 50.5714L38.2276 48.2793L36.7615 49.6397ZM38.9324 51.9763C39.6102 52.6207 40.7116 52.8338 41.6056 52.4109L40.7504 50.603C40.6328 50.6586 40.4133 50.6246 40.3104 50.5268L38.9324 51.9763ZM41.6568 52.3849C43.575 51.3387 45.2804 50.0872 46.773 48.8361L45.4882 47.3034C44.0645 48.4967 42.469 49.6638 40.6992 50.6291L41.6568 52.3849ZM46.8476 48.7669C47.4964 48.0996 47.7087 47.0224 47.2739 46.1483L45.4832 47.039C45.5181 47.1091 45.5054 47.2783 45.4137 47.3726L46.8476 48.7669ZM47.2549 46.112L45.7623 43.3962L44.0096 44.3595L45.5022 47.0753L47.2549 46.112ZM45.3676 44.7542L46.8858 43.9198L45.9225 42.167L44.4043 43.0015L45.3676 44.7542ZM45.5278 43.5251L45.8879 44.1801L47.6406 43.2168L47.2805 42.5618L45.5278 43.5251ZM47.0371 41.8146C46.4701 42.2312 46.0769 42.7476 45.8411 43.3141L47.6874 44.0829C47.7815 43.8569 47.9437 43.6304 48.2214 43.4263L47.0371 41.8146ZM49.4609 43.4244L48.4351 42.0283L46.8234 43.2126L47.8492 44.6087L49.4609 43.4244ZM41.9116 52.2048C41.9066 52.2037 41.9016 52.2025 41.8967 52.2014L41.4497 54.1508C41.4516 54.1512 41.4535 54.1517 41.4554 54.1521L41.9116 52.2048ZM45.0672 52.8225L41.8758 52.1971L41.4912 54.1598L44.6826 54.7851L45.0672 52.8225ZM47.5742 49.4587C48.4905 51.1438 47.0318 53.1806 45.0543 52.82L44.6955 54.7876C48.2387 55.4337 51.0925 51.7423 49.3313 48.5033L47.5742 49.4587ZM47.1597 48.7045L47.5764 49.4627L49.3291 48.4994L48.9124 47.7412L47.1597 48.7045ZM47.0994 47.8725C46.993 48.1571 46.8288 48.4116 46.6228 48.6134L48.0225 50.042C48.4472 49.6259 48.7683 49.1196 48.9727 48.5732L47.0994 47.8725ZM46.6228 48.6134L46.5991 48.6366L47.9988 50.0653L48.0225 50.042L46.6228 48.6134ZM46.6558 48.5852L46.6304 48.6065L47.9166 50.1381L47.942 50.1168L46.6558 48.5852ZM46.6304 48.6065C45.1351 49.8622 43.4283 51.1161 41.5098 52.1603L42.4659 53.917C44.5344 52.7912 46.3522 51.4518 47.9166 50.1381L46.6304 48.6065ZM41.5098 52.1603L41.4935 52.1692L42.4495 53.9259L42.4659 53.917L41.5098 52.1603ZM41.5316 52.1495L41.5149 52.1577L42.3947 53.9538L42.4114 53.9456L41.5316 52.1495ZM41.5149 52.1577C41.4537 52.1877 41.3914 52.2142 41.3282 52.2375L42.0182 54.1147C42.1453 54.068 42.271 54.0144 42.3947 53.9538L41.5149 52.1577Z" fill="white" mask="url(#path-11-outside-1)"/>
<circle cx="24.0604" cy="23.76" r="14.4286" stroke="#D1D1D1"/>
<path d="M81.5173 46.7238C81.5173 65.584 66.2282 80.8731 47.368 80.8731C28.5079 80.8731 13.2188 65.584 13.2188 46.7238C13.2188 27.8637 28.5079 12.5745 47.368 12.5745C66.2282 12.5745 81.5173 27.8637 81.5173 46.7238Z" stroke="#373938"/>
</g>
<defs>
<filter id="filter0_d" x="7.71875" y="9.07452" width="79.2986" height="79.2986" filterUnits="userSpaceOnUse" color-interpolation-filters="sRGB">
<feFlood flood-opacity="0" result="BackgroundImageFix"/>
<feColorMatrix in="SourceAlpha" type="matrix" values="0 0 0 0 0 0 0 0 0 0 0 0 0 0 0 0 0 0 127 0"/>
<feOffset dy="2"/>
<feGaussianBlur stdDeviation="2.5"/>
<feColorMatrix type="matrix" values="0 0 0 0 0 0 0 0 0 0 0 0 0 0 0 0 0 0 0.3 0"/>
<feBlend mode="normal" in2="BackgroundImageFix" result="effect1_dropShadow"/>
<feBlend mode="normal" in="SourceGraphic" in2="effect1_dropShadow" result="shape"/>
</filter>
</defs>
</svg>
