<svg width="80" height="80" viewBox="0 0 80 80" fill="none" xmlns="http://www.w3.org/2000/svg">
<g filter="url(#filter0_d)">
<circle cx="39.9457" cy="37.8793" r="34.2792" fill="white"/>
</g>
<path d="M27.5059 14.3784L27.7297 14.8255L28.1768 14.6016C31.7122 12.8316 35.7026 11.8352 39.9282 11.8352C54.4454 11.8352 66.2139 23.6037 66.2139 38.1209C66.2139 52.6381 54.4454 64.4066 39.9282 64.4066C25.411 64.4066 13.6425 52.6381 13.6425 38.1209C13.6425 29.1246 18.1612 21.1834 25.0566 16.4435L25.4687 16.1603L25.1854 15.7482L24.7808 15.1596L24.4976 14.7476L24.0855 15.0308C16.7448 20.0768 11.9282 28.5363 11.9282 38.1209C11.9282 53.5849 24.4643 66.1209 39.9282 66.1209C55.3922 66.1209 67.9282 53.5849 67.9282 38.1209C67.9282 22.6569 55.3922 10.1209 39.9282 10.1209C35.4302 10.1209 31.1776 11.1821 27.4094 13.0687L26.9623 13.2926L27.1861 13.7397L27.5059 14.3784Z" fill="#373938" stroke="white"/>
<path d="M31.8867 20.5653L32.0833 21.025L32.543 20.8284C34.8089 19.8595 37.3045 19.3226 39.9277 19.3226C50.3097 19.3226 58.726 27.7389 58.726 38.1209C58.726 48.5029 50.3097 56.9191 39.9277 56.9191C29.5457 56.9191 21.1295 48.5029 21.1295 38.1209C21.1295 31.7257 24.3222 26.076 29.2045 22.679L29.615 22.3934L29.3294 21.983L28.9286 21.4069L28.643 20.9965L28.2326 21.2821C22.9127 24.9836 19.4277 31.1452 19.4277 38.1209C19.4277 49.4427 28.6059 58.6209 39.9277 58.6209C51.2496 58.6209 60.4277 49.4427 60.4277 38.1209C60.4277 26.799 51.2496 17.6209 39.9277 17.6209C37.0703 17.6209 34.3474 18.206 31.8739 19.2637L31.4142 19.4603L31.6107 19.92L31.8867 20.5653Z" fill="#373938" stroke="white"/>
<path fill-rule="evenodd" clip-rule="evenodd" d="M39.9287 25.8236C38.6649 25.8236 37.4462 26.0141 36.2995 26.3678L36.0924 25.6963C37.3055 25.3222 38.5939 25.1209 39.9287 25.1209C47.1084 25.1209 52.9287 30.9412 52.9287 38.1209C52.9287 45.3006 47.1084 51.1209 39.9287 51.1209C32.749 51.1209 26.9287 45.3006 26.9287 38.1209C26.9287 33.6712 29.1646 29.7437 32.5727 27.4008L32.9708 27.9799C29.7453 30.1973 27.6314 33.9123 27.6314 38.1209C27.6314 44.9125 33.1371 50.4182 39.9287 50.4182C46.7203 50.4182 52.226 44.9125 52.226 38.1209C52.226 31.3293 46.7203 25.8236 39.9287 25.8236Z" fill="#373938"/>
<path d="M20.6048 10.1417L21.0162 9.85758L20.7318 9.44579L20.3203 9.73054L20.6048 10.1417ZM20.1934 10.4258L39.5163 38.405L40.3392 37.8368L21.0162 9.85758L20.1934 10.4258ZM73.4277 38.1209C73.4277 56.6224 58.4293 71.6209 39.9277 71.6209V72.6209C58.9816 72.6209 74.4277 57.1747 74.4277 38.1209H73.4277ZM39.9277 71.6209C21.4262 71.6209 6.42773 56.6224 6.42773 38.1209H5.42773C5.42773 57.1747 20.8739 72.6209 39.9277 72.6209V71.6209ZM39.9277 4.62088C58.4293 4.62088 73.4277 19.6193 73.4277 38.1209H74.4277C74.4277 19.0671 58.9816 3.62088 39.9277 3.62088V4.62088ZM24.2249 8.52146C28.9081 6.03175 34.2524 4.62088 39.9277 4.62088V3.62088C34.0848 3.62088 28.5797 5.0738 23.7555 7.63849L24.2249 8.52146ZM6.42773 38.1209C6.42773 26.6919 12.1506 16.5994 20.8893 10.5529L20.3203 9.73054C11.3232 15.9559 5.42773 26.3498 5.42773 38.1209H6.42773Z" fill="#373938"/>
<circle cx="21.0005" cy="32.6565" r="2.66356" fill="#FF8900" stroke="#FF8900"/>
<circle cx="27.3271" cy="62.1194" r="2.66356" fill="#373938" stroke="white"/>
<circle cx="65.7412" cy="29.4929" r="2.66356" fill="#373938" stroke="white"/>
<defs>
<filter id="filter0_d" x="0.666504" y="0.600098" width="78.5584" height="78.5584" filterUnits="userSpaceOnUse" color-interpolation-filters="sRGB">
<feFlood flood-opacity="0" result="BackgroundImageFix"/>
<feColorMatrix in="SourceAlpha" type="matrix" values="0 0 0 0 0 0 0 0 0 0 0 0 0 0 0 0 0 0 127 0"/>
<feOffset dy="2"/>
<feGaussianBlur stdDeviation="2.5"/>
<feColorMatrix type="matrix" values="0 0 0 0 0 0 0 0 0 0 0 0 0 0 0 0 0 0 0.3 0"/>
<feBlend mode="normal" in2="BackgroundImageFix" result="effect1_dropShadow"/>
<feBlend mode="normal" in="SourceGraphic" in2="effect1_dropShadow" result="shape"/>
</filter>
</defs>
</svg>
