<svg width="148" height="127" viewBox="0 0 148 127" fill="none" xmlns="http://www.w3.org/2000/svg">
<path d="M1 114C4.96866 106.126 18.5455 88.8579 39.5 75C47.4373 76.5748 49 81.9136 49 89C42.121 93.4619 25.3684 108.363 15.2086 126" stroke="#373938" stroke-width="2"/>
<path d="M48.5115 79.471C49.7488 81.6139 50.3054 83.8242 50.2496 85.6365C50.1932 87.4668 49.5325 88.7249 48.5324 89.3023C47.5323 89.8797 46.1125 89.8228 44.4992 88.9565C42.9017 88.0987 41.2659 86.5115 40.0287 84.3686C38.7915 82.2256 38.2348 80.0154 38.2907 78.2031C38.3471 76.3727 39.0077 75.1146 40.0078 74.5372C41.0079 73.9598 42.4278 74.0168 44.0411 74.8831C45.6385 75.7409 47.2743 77.3281 48.5115 79.471Z" fill="white" stroke="#373938" stroke-width="2"/>
<path d="M38.5132 81.6262L59.2465 69.6559M38.1465 78.12L57.9142 66.8262" stroke="#373938"/>
<path d="M40.1094 84.3906L60.8426 72.4203" stroke="#373938"/>
<path d="M41.7031 87.1548L62.4364 75.1844" stroke="#373938"/>
<path d="M44.7641 89.1503L64.0348 77.9491" stroke="#373938"/>
<path d="M146.735 10.413C142.782 18.257 127.875 38.1944 107 52C99.0927 50.4312 98 44.5597 98 37.5C104.853 33.055 120.799 18.5707 130.921 1.00002" stroke="#373938" stroke-width="2"/>
<path d="M98.0627 47.3414C96.8153 45.1809 96.2539 42.9522 96.3102 41.1243C96.3671 39.2784 97.0335 38.0075 98.0444 37.4239C99.0554 36.8402 100.489 36.8986 102.116 37.7723C103.727 38.6374 105.377 40.238 106.624 42.3984C107.871 44.5589 108.433 46.7875 108.377 48.6154C108.32 50.4614 107.653 51.7322 106.642 52.3159C105.631 52.8996 104.198 52.8412 102.571 51.9675C100.959 51.1023 99.31 49.5018 98.0627 47.3414Z" fill="white" stroke="#373938" stroke-width="2"/>
<path d="M108.888 48.2921L90.0923 58.9569" stroke="#373938"/>
<path d="M108.19 45.0215L88.5825 56.3421" stroke="#373938"/>
<path d="M106.679 42.4073L87.0708 53.728" stroke="#373938"/>
<path d="M105.173 39.7926L85.5649 51.1132" stroke="#373938"/>
<path d="M102.561 37.6929L83.8423 48.5053" stroke="#373938"/>
<path d="M86.0416 53.7313L80.4626 57.9362L83.2028 69.2554L71.253 55.8528L72.0548 64.2732L67.8116 67.4713L69.8864 75.9459L63.4023 69.2229L60.7691 70.816" stroke="#FF8900" stroke-width="2" stroke-linejoin="bevel"/>
</svg>
