<svg width="303" height="312" viewBox="0 0 303 312" fill="none" xmlns="http://www.w3.org/2000/svg">
<path d="M196.332 205.124C201.156 199.885 204.22 205.415 214.521 205.614C220.349 205.727 233.333 205.793 233.333 205.793C233.333 205.793 249.028 205.596 254.39 205.124C259.753 204.652 254.39 221.615 254.39 221.615C254.39 221.615 252.624 227.546 252.624 237.967C252.624 244.402 256.779 257.943 252.624 262.842C246.055 262.842 243.426 265.252 235.902 265.252C223.062 265.252 212.014 265.252 212.014 265.252C212.014 265.252 205.744 265.252 200.369 262.842C192.903 270.968 196.332 253.091 196.332 245.602C196.332 236.234 196.332 230.982 196.332 221.615C196.332 215.175 191.978 209.852 196.332 205.124Z" fill="white"/>
<path d="M279.418 184.614L279.418 247.596L255.457 271.214L256.484 204.467L279.418 184.614Z" fill="#F2F2F2"/>
<path d="M222.491 183.244H283.077L260.828 202.755L195.792 202.071L222.491 183.244Z" fill="#F2F2F2"/>
<path d="M228.13 245.341H209.505C208.115 245.341 206.988 244.214 206.988 242.824C206.988 241.434 208.115 240.307 209.505 240.307H223.096L228.13 245.341Z" stroke="#FF8900" stroke-linecap="round" stroke-linejoin="round"/>
<path d="M211.015 240.307L216.049 245.341" stroke="#FF8900" stroke-linecap="round"/>
<path d="M216.552 240.307L221.586 245.341" stroke="#FF8900" stroke-linecap="round"/>
<path d="M227.878 237.286L230.075 239.483C233.825 243.233 238.912 245.34 244.217 245.34H245.497" stroke="#FF8900" stroke-linecap="round"/>
<path d="M201.954 255.408H253.298M206.988 237.287L230.395 237.287C233.331 237.203 239.492 239.137 244.489 244.334C250.781 250.878 245.999 252.388 239.204 252.388C233.767 252.388 215.881 252.388 206.988 252.388" stroke="#FF8900" stroke-linecap="round"/>
<path d="M209.254 227.974V228.474H209.754V227.974H209.254ZM218.818 227.974H218.318V228.474H218.818V227.974ZM201.955 231.249C201.678 231.249 201.455 231.473 201.455 231.749C201.455 232.025 201.678 232.249 201.955 232.249V231.249ZM220.831 232.249C221.107 232.249 221.331 232.025 221.331 231.749C221.331 231.473 221.107 231.249 220.831 231.249V232.249ZM234.422 223.44C234.698 223.44 234.922 223.216 234.922 222.94C234.922 222.664 234.698 222.44 234.422 222.44V223.44ZM215.801 222.94C215.801 223.216 216.025 223.44 216.301 223.44C216.577 223.44 216.801 223.216 216.801 222.94H215.801ZM225.865 222.94H225.365V223.44H225.865V222.94ZM201.955 227.474C201.678 227.474 201.455 227.698 201.455 227.974C201.455 228.25 201.678 228.474 201.955 228.474V227.474ZM226.872 228.474C227.148 228.474 227.372 228.25 227.372 227.974C227.372 227.698 227.148 227.474 226.872 227.474V228.474ZM209.754 227.974C209.754 225.609 211.671 223.692 214.036 223.692V222.692C211.118 222.692 208.754 225.057 208.754 227.974H209.754ZM214.036 223.692C216.401 223.692 218.318 225.609 218.318 227.974H219.318C219.318 225.057 216.953 222.692 214.036 222.692V223.692ZM201.955 232.249H220.831V231.249H201.955V232.249ZM216.801 222.94C216.801 220.575 218.718 218.658 221.083 218.658V217.658C218.166 217.658 215.801 220.023 215.801 222.94H216.801ZM221.083 218.658C223.448 218.658 225.365 220.575 225.365 222.94H226.365C226.365 220.023 224 217.658 221.083 217.658V218.658ZM201.955 228.474H209.254V227.474H201.955V228.474ZM218.818 228.474H226.872V227.474H218.818V228.474ZM234.422 222.44H225.865V223.44H234.422V222.44Z" fill="#FF8900"/>
<path fill-rule="evenodd" clip-rule="evenodd" d="M250.56 182.724H278.999L257.221 201.079H195.62L221.132 182.724H222.589L222.689 181.479H219.886L192.508 200.768V267.968L257.219 268.279L280.864 245.4L281.175 181.479H250.56V182.724ZM193.752 267.022L194.063 202.324H255.974L255.663 266.724L193.752 267.022ZM279.931 183.968L257.531 202.635L257.22 266.413L279.62 244.324L279.931 183.968Z" fill="#3E3B3B"/>
<path d="M223.176 193.355C226.926 200.211 247.98 195.528 249.533 193.355C251.085 191.182 249.533 161.864 249.533 159.125C249.533 156.387 251.929 160.837 255.01 159.81C255.804 159.039 255.01 153.306 258.433 152.622C259.459 152.416 261.871 150.486 260.486 148.514C260.964 147.265 263.014 148.285 263.567 147.83C267.054 144.958 266.104 145.417 265.621 143.038C268.017 142.011 268.615 141.272 269.386 139.615C268.017 137.782 268.017 135.507 268.017 134.822C270.797 128.604 269.414 125.926 269.386 124.554C269.307 120.742 269.386 122.5 268.854 120.788C268.238 120.235 266.99 119.077 266.648 118.05C265.963 115.996 268.067 111.93 265.621 111.889C262.882 110.52 262.971 108.23 262.54 107.439C260.486 103.674 259.117 104.016 255.01 102.647C248.848 93.747 251.677 86.2165 251.677 86.2165L240.291 86.2165L230.022 86.2165C230.022 86.2165 232.103 94.2286 232.76 104.7C233.187 111.5 223.157 118.008 223.812 125.694C224.151 129.673 222.2 134.13 222.592 137.782C224.203 139.272 225.887 138.926 226.257 142.011C229.225 150.115 224.332 157.368 223.812 161.179C221.384 178.979 223.176 193.355 223.176 193.355Z" fill="#F2F2F2"/>
<path d="M229.378 87.4665L229.036 86.2175L231.222 85.5443C230.91 87.4665 231.204 88.9083 231.535 90.9009C231.846 92.7739 232.077 93.9362 232.354 94.9596C232.967 97.2161 232.926 99.6426 233.095 101.204C233.407 104.096 233.899 104.881 233.095 105.887C231.847 107.448 229.902 109.185 229.349 109.945C228.047 111.738 223.73 118.999 222.667 121.242C222.116 122.406 222.404 122.427 222.168 123.683C221.918 125.007 221.856 126.394 221.856 127.741C221.856 128.978 221.783 129.619 221.673 130.864C221.591 131.791 221.649 132.433 221.673 133.336C221.7 134.367 221.706 135.082 222.168 135.859C222.768 136.87 223.032 137.26 224.042 137.732L224.085 137.752C224.828 138.099 225.446 138.388 226.227 138.668C227.297 139.052 229.212 140.005 230.286 140.542C230.91 140.854 232.259 141.856 233.096 141.166C233.615 140.738 233.237 138.524 233.096 137.936C232.784 136.633 232.424 135.916 232.159 135.173C231.847 134.299 231.589 133.91 231.224 133.363L231.222 133.361C230.598 132.424 230.286 132.112 229.974 131.488C229.485 130.51 229.258 130.749 229.037 129.614C228.921 129.021 228.99 127.453 229.037 126.804C229.154 125.199 230.119 123.725 231.222 122.434C232.055 121.46 232.851 120.218 233.72 119.312C234.694 118.296 234.888 118.078 235.906 117.126C237.15 115.961 238.112 115.508 239.34 114.316C240.506 113.185 241.294 112.761 242.462 111.632C243.5 110.629 244.221 109.991 245.272 109.009C246.29 108.057 246.684 107.743 247.728 106.837C248.647 106.04 249.598 105.605 250.579 104.95C251.934 104.045 253.701 103.701 254.326 103.077C255.103 102.3 252.932 99.3529 252.453 98.3936C251.828 97.1447 249.955 92.7738 249.955 92.7738L249.643 86.2174C249.643 86.2174 251.516 85.178 251.516 86.5297L251.516 89.6517C251.516 90.9006 251.516 91.8372 251.828 92.7738C252.453 94.6471 253.194 96.4416 254.014 98.0813C254.326 98.7058 254.722 99.1434 255.262 99.9546C255.887 100.891 256.45 101.501 256.511 102.452C256.551 103.078 256.199 104.013 256.199 104.013C256.199 104.013 255.517 105.003 254.95 105.245C254.242 105.547 252.765 105.887 252.765 105.887L251.204 106.511C250.291 107.069 249.551 107.348 248.706 108.072C247.856 108.8 246.884 109.557 246.208 110.258C245.536 110.955 245.408 110.98 244.705 111.632C244.069 112.22 243.61 112.575 242.991 113.188C242.039 114.129 241.573 114.363 240.589 115.253C239.558 116.184 238.784 116.466 237.779 117.438C236.854 118.333 236.168 118.989 235.281 119.936C234.602 120.661 234.277 121.229 233.589 121.942C232.913 122.643 233.018 122.823 232.159 123.995C231.725 124.586 231.445 125.177 231.222 125.868C231.006 126.539 230.762 128.042 230.829 128.678C230.931 129.652 231.217 130.032 231.57 130.864C231.997 131.87 233.096 132.737 233.753 133.985C234.168 134.773 234.344 135.234 234.657 136.171C234.907 136.922 235.338 138.55 235.281 139.605C235.243 140.3 234.758 141.481 234.345 142.103C233.827 142.881 233.306 143.352 232.471 143.352C231.535 143.352 230.527 142.876 229.974 142.727C228.81 142.415 227.788 141.478 227.164 141.166C226.304 140.736 225.546 140.274 224.666 139.917C223.717 139.532 222.741 139.176 221.856 138.668C221.132 138.253 220.95 137.308 220.607 136.795C220.324 136.371 220.14 135.707 219.977 135.173C219.782 134.538 219.935 133.336 219.935 133.336L219.977 129.302C219.977 129.302 219.983 127.429 219.983 126.18C219.983 124.931 220.295 123.37 220.295 123.37L220.577 120.918L224.354 114.316L226.755 110.258L229.036 107.136L231.846 104.326L231.535 100.03C231.535 100.03 231.343 97.7486 230.91 95.5839C230.598 94.0228 230.285 92.7741 230.285 92.7741L229.661 89.0275L229.378 87.4665Z" fill="#292626"/>
<path d="M256.207 104.639C255.585 104.955 254.958 105.263 254.958 105.263L254.904 103.39C254.904 103.39 255.111 102.454 255.583 102.454L257.456 102.454C258.152 102.454 259.084 102.606 259.456 102.755C259.828 102.904 260.467 103.023 261.202 103.39C261.827 103.702 262.653 104.276 263.068 104.95C263.482 105.625 263.662 105.827 264.004 106.511C264.317 107.136 264.324 107.85 264.324 108.386L264.324 109.322C264.324 109.322 265.324 109.807 264.949 109.634C264.949 109.634 265.253 109.946 265.519 110.116C265.879 110.348 266.117 110.57 266.502 110.882C267.013 111.297 267.438 112.131 267.438 112.131C267.438 112.131 267.906 112.416 268.063 113.692C268.139 114.317 268.222 114.779 268.222 115.386C268.222 115.923 267.751 117.751 267.751 117.751C267.751 117.751 267.542 118.043 268.057 118.29C268.612 118.556 269.028 118.699 269.427 119.148C269.74 119.502 270.107 119.837 270.32 120.249C270.681 120.947 270.78 121.363 270.873 122.123C270.976 122.972 270.754 123.482 270.569 124.307C270.431 124.921 269.877 125.791 269.877 125.791C269.877 125.791 270.248 126.493 270.569 127.118C270.767 127.505 270.865 127.74 271.185 128.678C271.286 128.973 271.505 129.303 271.505 129.927C271.505 130.784 271.185 132.112 271.185 132.112C270.873 132.737 270.561 133.673 270.248 134.298C269.842 135.111 268.739 135.547 268.739 135.547L267.438 134.61C267.438 134.61 268.841 133.313 269 133.049C269.427 132.338 269.624 131.8 269.624 131.8C269.624 131.8 269.877 131.284 269.877 130.864L269.877 129.616C269.877 129.063 269.749 128.61 269.624 128.366C269.464 128.055 269.421 127.182 268.739 127.117C268.127 127.059 267.759 127.742 267.134 128.055C266.456 128.394 266.242 128.345 265.573 128.679C264.949 128.991 264.941 128.99 264.004 129.303C263.26 129.552 262.916 129.567 262.131 129.567C261.194 129.567 259.611 129.26 259.611 129.26L259.611 128.055C259.611 128.055 260.244 128.102 261.194 128.054C261.887 128.018 262.755 128.054 263.068 128.054C263.692 128.054 264.789 127.485 265.565 127.117C266.202 126.815 266.628 126.679 267.126 126.18C267.751 125.556 268.375 125.244 268.375 125.244C268.375 125.244 269.139 124.6 269.312 123.995C269.514 123.289 269.533 122.769 269.427 122.033C269.319 121.289 269.076 120.587 268.46 120.081C268.015 119.715 267.67 119.624 267.124 119.419C266.695 119.259 265.885 119.625 265.885 119.625L264.566 120.081C263.928 120.177 262.736 120.942 262.139 121.186C261.484 121.454 260.876 121.83 260.234 122.123C259.593 122.416 258.822 122.766 258.08 123.059C257.498 123.29 256.489 122.828 256.207 122.747C255.74 122.613 255.46 122.235 255.583 121.807C255.656 121.549 257.919 121.537 258.705 121.186C259.416 120.868 260.332 120.427 261.027 120.081C261.861 119.665 262.327 119.28 263.076 119.001C263.824 118.721 264.867 117.998 265.519 117.564C266.784 116.721 266.887 115.409 266.553 113.95C266.4 113.283 266.249 112.991 265.794 112.443C265.476 112.061 264.761 111.769 264.324 111.508C263.641 111.098 263.723 111.21 262.927 111.195C262.418 111.186 261.819 111.507 261.397 111.885C260.928 112.307 259.831 112.926 259.456 113.418C259.009 114.004 257.453 115.06 256.831 115.386C256.073 115.783 255.053 116.341 254.334 116.815C253.389 117.439 252.22 117.954 251.212 118.376C250.559 118.649 248.817 119.162 248.09 119.177C247.408 119.192 245.905 118.97 245.904 118.29C245.904 117.297 248.311 117.564 249.027 117.44C249.291 117.394 250.777 116.814 251.516 116.502C252.343 116.152 253.524 115.386 254.334 114.942C255.144 114.498 255.201 114.607 255.895 114.005C256.301 113.653 257.029 113.11 257.456 112.756C258.08 112.239 257.653 112.559 258.08 112.132C258.204 112.008 258.576 111.802 259.017 111.508C259.615 111.109 259.946 110.882 259.946 110.882C259.946 110.882 260.744 110.287 261 110.116C261.404 109.847 262.509 109.408 262.763 109.01C263.104 108.476 262.734 107.701 262.451 107.137C262.139 106.512 261.924 105.985 261.515 105.576C261.202 105.263 261.118 105.168 260.882 104.95C260.545 104.638 260.118 104.327 259.456 104.327L257.768 104.327L257.761 104.327C257.079 104.327 256.822 104.327 256.207 104.639Z" fill="#292626"/>
<path fill-rule="evenodd" clip-rule="evenodd" d="M252.773 160.836C251.567 160.535 251.547 160.524 251.007 160.243L250.946 160.212C250.49 159.975 249.386 158.85 249.339 158.339C249.285 157.765 249.595 157.363 249.93 156.927C250.044 156.779 250.16 156.628 250.267 156.464C250.634 155.901 250.884 155.55 251.205 155.102C251.312 154.951 251.427 154.79 251.558 154.606C252.092 153.85 252.452 153.342 252.452 153.342C252.452 153.342 252.828 152.51 252.4 151.911C251.917 151.236 251.838 150.969 251.688 150.461C251.642 150.305 251.589 150.127 251.516 149.908C251.295 149.246 251.118 148.603 251.203 148.035C251.31 147.322 251.447 147.098 251.818 146.489L251.828 146.474C252.251 145.78 253.276 145.255 254.013 144.912C254.545 144.665 255.262 144.288 255.262 144.288C255.262 144.288 254.806 143.206 254.95 142.415C254.999 142.148 255.029 141.916 255.058 141.703L255.058 141.703C255.148 141.029 255.21 140.561 255.724 139.87L255.726 139.866L255.726 139.866C256.21 139.216 256.505 138.819 257.205 138.409C258.023 137.931 258.616 137.831 259.564 137.838C260.511 137.844 261.913 138.443 261.913 138.443C261.913 138.443 262.07 138.187 262.131 137.732C262.226 137.011 262.303 136.699 262.443 136.483C262.932 135.73 263.067 135.546 264.004 135.234C264.287 135.14 264.528 135.032 264.75 134.934L264.75 134.934L264.75 134.934L264.75 134.934C265.144 134.758 265.478 134.61 265.877 134.61L267.438 134.61C267.52 134.61 267.589 134.607 267.649 134.604L267.649 134.604L267.649 134.604L267.649 134.604C268.048 134.588 268.048 134.588 268.687 135.546C269.165 136.263 269.282 136.798 269.45 137.569L269.45 137.569C269.502 137.806 269.558 138.064 269.632 138.357C269.835 139.169 269.944 140.855 269.632 141.791C269.42 142.427 268.99 143.086 268.375 143.352C267.403 143.774 265.885 143.352 265.885 143.352C265.885 143.352 265.718 143.909 265.885 144.288L265.916 144.358C266.069 144.701 266.19 144.971 266.197 145.849C266.204 146.686 266.029 147.338 265.565 148.035C264.941 148.971 264.277 149.283 263.38 149.283C263.15 149.283 262.825 149.154 262.494 149.021C261.924 148.793 261.337 148.559 261.194 148.971C261.079 149.305 261.146 149.749 261.212 150.191C261.285 150.669 261.357 151.144 261.194 151.47C260.875 152.109 260.786 152.196 260.301 152.674L260.257 152.718L260.214 152.761C259.727 153.241 259.615 153.351 259.009 153.654C258.495 153.911 258.072 153.967 258.072 153.967C258.072 153.967 257.135 153.967 256.831 153.968C256.723 153.968 256.631 153.947 256.553 153.929C256.311 153.874 256.207 153.85 256.207 154.592C256.207 155.029 256.205 155.33 256.203 155.654C256.201 156.023 256.199 156.423 256.199 157.089C256.199 158.238 255.977 160.326 255.582 160.524C254.958 160.836 253.984 161.139 252.773 160.836ZM252.452 159.274C252.411 159.249 252.331 159.229 252.233 159.204C251.903 159.122 251.364 158.988 251.364 158.422C251.364 157.847 251.488 157.109 251.836 156.652C251.998 156.44 252.206 156.202 252.417 155.963C252.659 155.687 252.904 155.408 253.085 155.16C253.303 154.859 253.404 154.651 253.498 154.456C253.614 154.217 253.72 153.999 254.021 153.656C254.343 153.289 254.646 154.592 254.646 154.592C254.646 154.592 254.966 155.142 254.958 155.841C254.95 156.464 254.95 156.665 254.95 157.401L254.95 157.401C254.95 157.92 254.965 157.987 254.972 158.024C254.98 158.059 254.982 158.066 254.958 158.422C254.931 158.837 254.936 158.938 254.943 159.055C254.947 159.111 254.95 159.172 254.95 159.274C254.95 159.393 254.95 159.586 254.326 159.586C254.013 159.586 253.901 159.599 253.845 159.606C253.789 159.613 253.789 159.613 253.701 159.586C253.509 159.529 253.342 159.51 253.185 159.492C252.94 159.465 252.717 159.44 252.452 159.274ZM252.842 150.143C252.953 150.483 253.024 150.703 253.289 151.034C253.513 151.313 253.642 151.43 253.804 151.578L253.804 151.578L253.804 151.578C253.903 151.667 254.014 151.768 254.166 151.923C254.333 152.094 254.883 152.31 255.262 152.405C255.383 152.436 255.491 152.479 255.602 152.524C255.837 152.618 256.087 152.718 256.51 152.718C256.858 152.717 257.143 152.618 257.45 152.51L257.45 152.51L257.45 152.51C257.55 152.475 257.652 152.439 257.76 152.405C258.155 152.282 258.459 152.121 258.823 151.923C259.367 151.628 259.633 151.156 259.633 151.156C259.633 151.156 259.815 150.979 259.953 150.221C260.01 149.906 259.988 149.575 259.969 149.298L259.969 149.298C259.96 149.177 259.953 149.067 259.953 148.972C259.953 148.66 259.937 148.345 259.633 148.034L259.572 147.973C259.327 147.722 259.306 147.7 259.008 147.41C258.848 147.253 258.743 147.128 258.649 147.015C258.496 146.832 258.369 146.679 258.072 146.473L258.027 146.442C257.434 146.031 257.172 145.849 256.519 145.849C255.886 145.849 255.074 145.912 254.502 146.04C254.019 146.148 253.846 146.324 253.545 146.628C253.497 146.677 253.445 146.73 253.389 146.786C253.292 146.881 253.188 146.969 253.087 147.055C252.759 147.334 252.452 147.596 252.452 148.034C252.452 148.659 252.538 149.246 252.764 149.908C252.794 149.993 252.819 150.071 252.842 150.143ZM260.258 146.161C260.112 146.016 260.062 145.965 260.005 145.909C259.94 145.844 259.868 145.771 259.633 145.537C259.321 145.225 258.805 144.819 258.384 144.6C258.094 144.449 257.86 144.371 257.62 144.291C257.383 144.212 257.141 144.131 256.831 143.976C256.549 143.835 256.459 143.299 256.519 142.728L256.526 142.661C256.581 142.134 256.596 141.991 256.831 141.479C256.906 141.316 256.964 141.163 257.018 141.02C257.136 140.707 257.235 140.444 257.455 140.23L257.541 140.147C257.839 139.855 257.938 139.758 258.384 139.605L258.509 139.562C259.099 139.358 259.495 139.222 260.142 139.314C260.811 139.408 261.091 139.991 261.382 140.598L261.382 140.598C261.423 140.683 261.464 140.769 261.507 140.854C261.615 141.071 261.728 141.283 261.84 141.495L261.84 141.495C262.051 141.891 262.262 142.288 262.451 142.728C262.625 143.132 262.963 143.481 263.336 143.865C263.555 144.091 263.787 144.33 264.004 144.6C264.509 145.227 264.729 146.18 264.629 146.473C264.443 147.017 263.871 147.424 263.38 147.722C262.974 147.968 261.931 147.622 261.507 147.41C261.072 147.193 260.788 146.823 260.551 146.514C260.447 146.379 260.352 146.256 260.258 146.161ZM263.571 139.993C263.735 140.344 263.937 140.778 264.012 140.855C264.071 140.915 264.136 140.989 264.208 141.072C264.51 141.419 264.94 141.912 265.565 142.103C265.578 142.107 265.59 142.11 265.603 142.114C266.046 142.25 266.528 142.397 267.438 141.79C267.783 141.561 268.063 140.644 268.063 140.229C268.063 139.605 268.063 138.356 267.75 137.732C267.534 137.299 267.206 136.868 267.134 136.796C267.113 136.775 267.103 136.765 267.091 136.754C267.063 136.727 267.029 136.694 266.822 136.484C266.661 136.321 266.181 136.17 265.565 136.171L265.561 136.171C265.125 136.171 264.94 136.172 264.628 136.483C264.47 136.642 264.306 136.725 264.145 136.806C263.989 136.885 263.836 136.963 263.692 137.107C263.379 137.42 263.067 138.044 263.068 138.356L263.068 138.36C263.068 138.799 263.068 138.983 263.387 139.606C263.43 139.689 263.496 139.832 263.571 139.993Z" fill="#292626"/>
<path d="M250.275 159.9C249.677 161.075 251.548 192.074 251.836 192.961C252.124 193.849 249.964 194.866 247.154 195.803C244.344 196.74 236.85 197.365 232.815 197.079C229.287 196.828 228.421 196.74 225.299 195.804C222.878 195.077 222.153 194.505 221.864 193.618C221.576 192.731 221.24 187.304 221.24 183.003C221.24 176.759 220.989 172.972 221.865 166.456C222.615 160.873 224.05 152.322 224.05 152.322C224.05 152.322 224.675 149.119 224.675 147.797C224.675 146.475 224.05 141.479 224.05 141.479C224.05 141.479 222.801 139.294 224.05 138.67C225.299 138.045 225.242 138.811 225.923 140.543C226.169 141.167 226.236 142.104 226.236 144.914C226.236 147.724 226.325 151.542 225.923 152.719C225.522 153.896 224.281 159.159 223.738 164.583C222.606 175.891 223.452 191.779 223.738 192.961C224.024 194.143 227.096 194.513 229.045 194.867C232.479 195.491 233.122 195.465 236.85 195.491C239.799 195.512 242.158 195.491 244.656 194.867C247.153 194.243 248.933 194.137 249.531 192.961C250.13 191.786 247.82 161.056 248.714 159.587C249.609 158.119 253.086 151.782 253.086 151.782C253.086 151.782 256.113 151.881 254.334 153.343C252.555 154.805 250.873 158.724 250.275 159.9Z" fill="#292626"/>
<path d="M233.446 104.017C233.446 101.621 233.446 102.305 232.869 98.8822C232.292 95.4591 231.863 94.6001 231.734 92.0365C231.05 88.6134 230.022 86.9017 232.076 86.9017C234.13 86.9016 240.291 86.9017 242.687 87.5862C243.675 87.8683 242.315 91.7265 242.135 93.1814C241.779 96.0472 240.811 100.422 240.811 100.422C240.811 100.422 240.057 104.601 239.217 107.162C238.472 109.434 230.36 116.575 229.338 118.735C228.252 121.031 226.722 127.722 228.312 130.373C229.338 132.085 229.528 133.217 231.392 135.166C232.778 136.614 233.998 139.963 232.614 141.327C231.463 142.461 226.257 138.931 224.546 138.246C223.844 137.965 222.502 136.511 222.221 136.167C221.303 135.038 221.466 132.048 221.466 130.373C221.466 128.32 222.221 125.924 222.221 124.212C222.221 123.224 222.022 122.4 222.221 121.474C222.467 120.335 223.943 118.361 224.546 117.366C225.168 116.341 225.906 114.572 226.6 113.601C228.312 111.205 227.579 112.289 229.338 110.178C231.05 108.124 233.446 106.43 233.446 104.017Z" fill="white"/>
<path d="M3.75209 211.785C8.57623 206.547 11.6396 212.077 21.9409 212.276C27.7693 212.388 40.7526 212.455 40.7526 212.455C40.7526 212.455 56.4477 212.257 61.8101 211.785C67.1726 211.314 61.8101 228.276 61.8101 228.276C61.8101 228.276 60.0436 234.207 60.0436 244.628C60.0436 251.064 64.1991 264.605 60.0436 269.504C53.4744 269.504 50.8459 271.913 43.3221 271.913C30.4823 271.913 19.4342 271.913 19.4342 271.913C19.4342 271.913 13.1636 271.913 7.78886 269.504C0.323319 277.629 3.75209 259.752 3.75209 252.263C3.75209 242.896 3.75209 237.644 3.75209 228.276C3.75209 221.836 -0.602103 216.514 3.75209 211.785Z" fill="white"/>
<path d="M26.699 190.09H87.2852L65.0361 209.601L0 208.917L26.699 190.09Z" fill="#F2F2F2"/>
<path d="M86.3638 189.406L86.3638 252.388L62.4031 276.006L63.43 209.259L86.3638 189.406Z" fill="#F2F2F2"/>
<path d="M37.1915 259.828L24.3608 256.895" stroke="#FF9010" stroke-linecap="round"/>
<path d="M21.0617 244.735L21.387 244.355L21.3856 244.354L21.0617 244.735ZM40.5962 244.735L40.2722 244.354L40.2708 244.355L40.5962 244.735ZM37.0802 256.283C37.3494 256.344 37.6175 256.176 37.6791 255.907C37.7406 255.637 37.5723 255.369 37.3031 255.308L37.0802 256.283ZM35.6139 263.829C35.8831 263.891 36.1512 263.722 36.2127 263.453C36.2742 263.184 36.1059 262.916 35.8367 262.854L35.6139 263.829ZM25.3889 260.466C25.1197 260.405 24.8516 260.573 24.79 260.842C24.7285 261.111 24.8968 261.379 25.166 261.441L25.3889 260.466ZM29.795 249.261C29.5267 249.195 29.2562 249.36 29.1908 249.628C29.1253 249.896 29.2898 250.167 29.5581 250.232L29.795 249.261ZM36.692 249.93C36.692 250.206 36.9159 250.43 37.192 250.43C37.4682 250.43 37.692 250.206 37.692 249.93L36.692 249.93ZM23.861 249.93C23.861 250.206 24.0848 250.43 24.3609 250.43C24.6371 250.43 24.861 250.206 24.861 249.93L23.861 249.93ZM35.4109 251.145L35.2924 251.631L35.4109 251.145ZM27.3987 253.557L27.2872 254.044L27.3987 253.557ZM16.2461 233.242C16.2461 225.188 22.775 218.659 30.8289 218.659V217.659C22.2228 217.659 15.2461 224.635 15.2461 233.242H16.2461ZM30.8289 218.659C38.8828 218.659 45.4117 225.188 45.4117 233.242H46.4117C46.4117 224.635 39.4351 217.659 30.8289 217.659V218.659ZM21.3856 244.354C18.2402 241.679 16.2461 237.693 16.2461 233.242H15.2461C15.2461 237.999 17.3784 242.258 20.7377 245.116L21.3856 244.354ZM45.4117 233.242C45.4117 237.693 43.4177 241.679 40.2722 244.354L40.9201 245.116C44.2794 242.258 46.4117 237.999 46.4117 233.242H45.4117ZM37.3031 255.308L27.5101 253.069L27.2872 254.044L37.0802 256.283L37.3031 255.308ZM35.8367 262.854L25.3889 260.466L25.166 261.441L35.6139 263.829L35.8367 262.854ZM35.5294 250.659L29.795 249.261L29.5581 250.232L35.2924 251.631L35.5294 250.659ZM37.692 249.93C37.692 249.009 37.8781 248.362 38.3438 247.684C38.8316 246.974 39.6329 246.219 40.9216 245.115L40.2708 244.355C38.9931 245.45 38.0923 246.285 37.5196 247.118C36.9247 247.984 36.6919 248.834 36.692 249.93L37.692 249.93ZM24.861 249.93C24.861 248.846 24.6602 247.997 24.0924 247.128C23.5446 246.289 22.6679 245.453 21.387 244.355L20.7363 245.115C22.0217 246.216 22.7947 246.97 23.2551 247.675C23.6954 248.348 23.861 248.997 23.861 249.93L24.861 249.93ZM35.2924 251.631C36.5139 251.929 37.6917 251.004 37.6917 249.746H36.6917C36.6917 250.355 36.1211 250.804 35.5294 250.659L35.2924 251.631ZM27.5101 253.069C25.9601 252.715 24.861 251.336 24.861 249.746H23.861C23.861 251.803 25.2826 253.586 27.2872 254.044L27.5101 253.069Z" fill="#FF9010"/>
<path d="M34.0413 233.331L31.8195 241.774C31.6756 242.321 31.1809 242.702 30.6152 242.702V242.702C30.0413 242.702 29.5418 242.31 29.4055 241.752L27.3477 233.331" stroke="#FF9010" stroke-linecap="round"/>
<path fill-rule="evenodd" clip-rule="evenodd" d="M24.9989 189.385L0 206.998V274.434L64.9393 274.747L86.088 254.283L84.8311 254.158L84.8331 253.256L64.939 272.874L65.2512 208.871L87.7302 190.138L87.578 219.662L88.8234 219.665L88.9793 187.641H50.4238L50.3905 188.89H86.7933L64.9388 207.31H3.12158L25.0486 191.533L24.9989 189.385ZM1.56114 208.559L1.24894 273.484L63.3783 273.186L63.6905 208.559H1.56114Z" fill="#3E3B3B"/>
<path d="M75.6467 214.735C68.5213 217.944 70.1772 240.061 72.2242 241.777C74.2713 243.492 79.4125 245.884 80.0971 246.911C80.7817 247.938 81.1807 248.194 85.2315 253.072C85.9385 253.924 90.5888 257.895 91.3928 260.261C92.1968 262.626 94.1312 263.543 96.8695 264.368C98.0777 264.941 100.223 267.547 100.635 268.133C103.229 271.832 105.427 271.214 107.823 273.044C109.877 278.06 114.445 281.613 116.038 282.51C120.01 284.745 119.914 282.599 120.488 280.456C126.473 283.707 128.017 282.09 129.388 282.168C130.414 277.718 133.69 278.617 134.522 274.295C135.121 273.723 132.209 268.665 133.153 268.133C134.989 267.1 134.635 263.723 134.864 261.288C135.108 258.7 122.99 246.917 123.569 246.227C123.793 245.958 117.065 241.092 115.354 234.246C112.958 233.219 113.642 231.508 113.642 231.508L113.642 227.743L120.488 228.77L124.938 226.374C124.938 226.374 126.992 225.004 128.703 221.581C125.28 218.501 131.282 215.703 123.569 215.762C119.576 215.793 122.79 219.418 119.119 219.528C115.6 219.632 110.927 218.371 107.823 218.501C95.5003 226.548 91.3928 223.672 90.0236 221.581C72.9459 211.092 75.6467 214.735 75.6467 214.735Z" fill="#F2F2F2"/>
<path d="M80.4393 246.911C79.2498 245.722 79.7521 246.169 78.3828 244.515C77.0135 242.861 76.3326 243.054 75.3057 242.461C72.5685 242.461 71.8776 239.039 71.5367 236.985C71.1958 234.931 70.5128 230.481 70.5128 227.4C70.5128 226.476 85.9161 232.535 89.1436 235.29C90.5133 236.459 100.051 257.865 104.058 257.865C105.083 257.865 108.508 260.603 109.877 261.63C112.485 263.586 123.226 273.953 123.226 273.953C123.226 273.953 128.261 279.379 129.045 280.114C130.33 281.319 127.134 282.553 125.621 282.167C124.25 281.818 106.796 264.368 106.796 264.368L105.769 262.999L103.714 262.999C103.373 262.999 101.662 262.544 101.662 264.368C101.662 265.053 104.27 264.785 105.083 265.395C106.454 266.422 114.467 275.121 115.01 275.664C116.038 276.691 119.177 279.687 119.458 280.798C119.803 282.167 118.661 283.993 117.75 283.537C115.697 282.51 112.177 277.965 111.587 277.375C110.218 276.006 103.714 269.503 103.03 269.16C102.004 268.134 96.1849 264.037 95.4992 263.341C94.5572 262.386 91.7351 259.918 91.3916 259.397C90.0236 257.865 87.0891 254.641 86.94 254.442C85.9161 253.073 86.0311 253.396 85.5709 252.797C84.2046 251.019 84.344 251.392 83.1777 249.992C81.4662 247.938 81.4662 247.938 80.4393 246.911Z" fill="white"/>
<path d="M130.814 256.639C130.284 256.116 120.675 243.702 120.173 243.216C119.9 242.952 116.009 238.694 114.267 234.784C112.748 231.374 113.331 228.228 113.331 228.228L115.204 229.164C115.204 229.164 114.992 232.003 116.453 234.784C118.178 238.068 121.077 240.716 121.731 241.653C122.385 242.589 133.558 256.633 133.936 257.575C134.218 258.276 134.538 259.386 134.861 259.886C135.183 260.385 135.81 262.571 136.007 263.508C136.164 264.253 136.434 265.38 136.121 266.317L136.12 266.321C135.809 267.254 135.809 267.255 135.183 267.894C134.826 268.259 134.31 268.326 134.249 268.815C134.217 269.068 135.809 271.312 135.809 271.312C135.809 271.312 136.121 272.249 136.121 272.561C136.121 272.561 136.077 273.357 136.121 273.81C136.167 274.277 136.11 274.669 136.007 275.19C135.871 275.881 135.809 276.308 135.809 276.308C135.809 276.308 135.498 277.869 134.561 278.805C134.14 279.227 133.541 279.15 133 279.43C132.555 279.66 131.751 279.742 131.751 279.742C131.751 279.742 131.751 280.366 131.439 280.991L130.814 282.24C130.593 282.683 129.567 283.46 129.15 283.668C128.526 283.98 128.357 284.016 127.487 284.069C126.756 284.113 124.903 284.176 124.258 283.668C123.634 283.176 122.073 281.928 122.073 281.928C122.073 281.928 121.897 282.514 121.731 283.134C121.576 283.709 120.757 284.751 120.179 285.05C119.921 285.183 118.923 285.674 118.223 285.674C116.903 285.674 114.892 284.069 114.892 284.069C114.375 284.336 104.123 273.216 103.652 272.776C102.403 271.61 94.1136 265.068 94.1136 265.068L94.1139 262.379C94.1139 262.379 98.0871 265.134 101.778 268.19C105.347 271.146 108.625 274.429 108.961 274.754C108.873 274.657 108.866 274.647 108.959 274.747C109 274.79 108.999 274.791 108.961 274.754C109.702 275.57 116.141 282.552 116.141 282.552C116.141 282.552 117.077 283.712 117.889 283.668C119.051 283.606 118.664 283.267 118.923 283.134C119.381 282.897 119.47 282.687 119.572 282.419C119.82 281.767 119.68 281.295 119.458 280.581C119.259 279.941 119.434 279.924 118.923 279.43C118.368 278.893 118.77 279.023 118.223 278.493C117.712 277.999 117.804 277.813 117.077 277.244C116.776 277.008 113.832 274.316 111.145 271.437C108.33 268.42 105.473 265.785 105.311 265.381C105.13 264.931 103.092 265.324 102.091 264.756C100.996 264.135 102.091 263.195 102.091 263.195L105.526 263.195C105.526 263.195 110.521 267.878 111.77 269.127C112.299 269.657 118.148 275.875 118.695 276.308C119.362 276.835 121.454 279.119 122.073 279.742C122.58 280.253 123.141 280.778 123.752 281.303C124.679 282.101 125.195 282.24 125.195 282.24C125.195 282.24 125.738 282.552 126.444 282.552C127.117 282.552 127.438 282.662 128.005 282.24C128.577 281.813 129.083 281.516 129.253 280.679C129.376 280.075 128.941 279.43 128.777 279.15C128.523 278.718 128.005 278.181 128.005 278.181L126.58 276.742C125.955 276.118 125.326 275.555 124.882 275.059C124.396 274.514 123.824 274.018 123.321 273.498C122.819 272.978 121.991 272.245 121.448 271.625C121.094 271.219 110.184 261.833 106.507 258.512C105.766 257.843 103.972 257.941 103.965 257.887C103.886 257.36 103.873 256.698 104.277 256.639C104.768 256.566 106.278 256.642 106.946 257.178C110.801 260.277 123.39 270.891 123.909 271.437C124.46 272.017 125.196 272.749 125.764 273.3C126.445 273.961 126.756 274.434 127.38 275.059C128.005 275.683 129.202 276.853 129.878 277.244C131.127 277.967 132.239 277.892 133.312 276.932C133.803 276.493 133.835 275.474 134.104 274.782C134.293 274.299 134.37 273.851 134.41 273.3C134.472 272.437 133.31 271.495 133 270.688C132.802 270.172 128.315 267.05 128.005 266.629C127.612 266.097 125.977 264.543 125.507 264.132C124.975 263.666 122.894 261.388 122.373 260.902C121.737 260.309 120.784 259.647 120.179 259.001C119.412 258.182 115.337 254.663 114.58 253.829C114.09 253.289 109.266 249.558 108.959 248.833C108.672 248.154 109.021 247.251 109.584 246.96C110.407 246.535 114.391 251.326 118.638 255.078C118.846 255.261 119.575 256.014 120.199 256.639C120.693 257.132 120.754 257.07 121.76 257.887C122.767 258.705 122.689 258.503 123.321 259.136L124.258 260.073C124.57 260.385 124.714 260.385 125.195 260.902C125.495 261.226 125.507 261.009 126.131 261.946C126.529 262.542 127.38 263.508 127.38 263.508C127.38 263.508 129.475 265.642 129.72 265.827C130.106 266.118 132.255 267.481 132.688 267.566C133.268 267.68 133.895 266.843 134.249 266.317C134.64 265.736 134.515 264.735 134.41 264.132C134.302 263.508 133.712 261.963 133.624 261.634C133.429 260.902 132.726 259.627 132.375 259.001C131.751 257.887 131.553 257.366 130.814 256.639Z" fill="#292626"/>
<path d="M81.7984 251.019C81.2793 250.13 76.803 245.087 75.5542 244.775C74.3054 244.463 72.5913 243.838 70.8711 241.653C69.8185 240.316 69.3124 234.168 68.9976 229.477C68.7979 226.5 68.9977 223.857 69.3098 222.296C70.0186 218.751 71.0003 217.598 72.8867 214.932C74.3496 212.865 75.4843 213.577 76.1786 213.554C76.873 213.531 80.2373 213.866 83.0473 215.427C86.9075 217.572 86.5662 217.493 90.228 220.423C93.3501 222.92 94.2868 223.545 94.2868 223.545C94.2868 223.545 99.581 221.671 100.836 221.047C102.092 220.423 105.526 217.925 105.526 217.925C105.526 217.925 105.838 218.706 106.463 219.174C107.087 219.641 102.092 222.296 100.836 222.921C100.38 223.147 96.7722 224.793 95.2173 225.105C93.6624 225.418 93.0078 225.187 92.4074 224.482C91.8071 223.776 88.9791 221.984 85.8571 219.174C82.735 216.364 77.0636 215.177 76.1786 215.115C75.2936 215.053 73.2966 216.891 72.4319 218.706C70.8711 221.984 70.5591 223.164 70.559 226.979C70.5589 230.008 70.8711 231.038 70.8711 233.535C70.8711 236.033 72.2254 240.451 72.7443 241.341C73.2633 242.23 75.5542 242.902 76.803 243.214C77.5966 243.412 84.6994 252.015 90.228 258.2C93.3997 261.748 96.4721 264.444 96.4721 264.444C96.4721 264.444 94.6072 266.007 93.6623 265.068C92.7174 264.13 90.316 261.676 88.0425 258.824C85.223 255.287 82.0857 251.511 81.7984 251.019Z" fill="#292626"/>
<path d="M106.463 217.612C105.773 217.785 105.527 217.925 105.527 217.925L105.214 220.422C105.214 220.422 107.202 218.831 108.648 218.549C109.845 218.315 110.587 218.253 111.77 218.549C113.02 218.861 113.995 219.547 115.517 219.798C117.081 220.055 118.191 220.57 119.575 219.798C120.557 219.25 121.449 217.612 121.449 217.612C121.449 217.612 122.796 216.081 123.946 216.051C124.717 216.031 125.199 216.218 125.819 216.676C126.876 217.456 126.618 218.492 126.757 219.798C126.901 221.153 126.444 223.232 126.444 223.232C126.444 223.232 125.079 225.108 123.946 226.042C122.849 226.947 122.189 227.515 120.824 227.915C119.303 228.361 118.335 228.139 116.765 227.915C115.389 227.719 113.956 227.291 113.331 226.979C112.706 226.666 113.331 228.852 113.331 228.852C113.331 228.852 114.581 229.164 115.517 229.476C115.979 229.631 116.375 229.658 116.766 229.789C118.27 230.29 119.278 230.136 120.825 229.789C122.262 229.465 123.044 228.749 124.258 227.915C125.538 227.037 127.068 225.105 127.068 225.105C127.068 225.105 128.29 223.504 128.629 222.295C129.024 220.887 128.629 218.549 128.629 218.549C128.629 218.549 128.109 216.307 127.068 215.427C126.444 214.899 125.987 214.695 125.195 214.49C124.251 214.247 123.627 214.196 122.697 214.49C121.462 214.881 121.094 215.737 120.2 216.676C119.543 217.365 119.499 218.14 118.639 218.549C117.758 218.968 117.107 218.38 116.142 218.237C114.997 218.067 114.461 217.861 113.331 217.612C111.897 217.297 111.053 216.964 109.585 216.988C108.36 217.008 107.712 217.3 106.463 217.612Z" fill="#292626"/>
<path d="M24.2417 196.936C29.0835 203.366 51.6868 202.071 50.3175 198.99C48.9483 195.909 50.9669 181.756 54.4251 178.11C63.3248 181.875 64.6251 177.689 65.0362 171.606C65.0543 171.338 66.381 175.406 71.5398 170.922C72.4401 170.139 72.5666 167.499 73.2512 165.103C73.9358 162.707 80.1424 165.568 78.3857 163.734C80.4394 159.968 78.3857 154.149 83.1778 155.176C87.1595 152.233 82.4932 145.966 83.1778 143.538C85.2316 138.435 80.3014 139.014 81.124 137.377C83.1747 133.295 77.3588 129.504 77.3588 127.45C80.3109 121.314 73.9358 121.974 72.5666 121.974C69.8283 121.289 66.4952 131.478 61.2709 131.216C60.5073 130.712 65.7376 125.893 64.9712 125.054C63.4799 123.423 73.9358 116.155 71.5398 115.128C70.8552 111.217 69.1437 111.217 67.0899 111.217C64.7328 111.217 64.9292 113.171 64.0766 107.597C64.0038 99.2738 60.5193 93.3993 60.5193 93.3993L36.6259 93.3993L33.5452 93.9054C33.5452 93.9054 34.9117 101.976 36.2833 112.047C35.2564 117.866 29.4374 125.054 28.4105 132.242C29.0377 136.065 25.7695 141.404 26.4414 144.907C27.0854 148.266 26.4285 147.084 27.0414 150.042C29.0951 157.572 28.0069 158.257 29.7184 161.338C26.6378 180.506 24.2417 196.936 24.2417 196.936Z" fill="#F2F2F2"/>
<path d="M32.8914 98.3491L33.2936 94.4211L36.2798 93.7706C35.2451 95.5484 35.3781 100.913 36.2798 103.032C37.1274 105.024 37.1052 105.731 37.2908 108.028C37.4674 110.213 36.9398 110.687 36.2185 113.335C35.4588 116.124 33.9922 117.627 33.2936 119.812C32.595 121.998 31.5357 126.136 31.5357 126.136C31.5357 126.136 29.009 131.439 28.7258 134.253C28.5928 135.575 28.7258 137.063 29.3503 138.936C29.7842 140.238 30.2869 140.636 31.0369 142.058C31.6457 143.213 31.8479 143.611 32.2102 145.005C32.4556 145.95 32.6635 146.409 32.8914 147.365C33.1521 148.458 33.5181 149.965 34.3458 150.8C35.4232 151.887 35.9203 152.457 37.4679 152.986C38.6358 153.384 39.7004 153.598 40.9017 153.922C42.5154 154.358 45.1671 155.327 46.7525 155.795C47.8086 156.108 50.1538 157.438 51.2045 156.732C51.8561 156.294 52.4534 155.795 53.0778 154.547C53.7022 153.298 51.5344 151.13 50.8923 150.488C49.9557 149.551 47.4356 148.108 46.7525 147.64C45.897 147.054 45.4873 146.707 44.6291 145.951C43.3993 144.868 43.0622 144.556 42.1505 143.307C41.7364 142.74 41.2853 141.183 41.2139 140.497C41.0371 138.8 42.0079 137.114 42.7749 135.502C43.4242 134.137 44.3521 133.16 45.1838 132.068C45.897 131.131 46.7525 129.57 47.9728 128.009C49.137 126.52 49.6435 125.823 50.9759 124.493C52.2652 123.205 52.9931 122.522 54.1507 121.14C55.2632 119.812 55.5754 119.579 56.1998 118.643C57.0483 117.37 57.1365 117.082 58.0731 115.833C58.888 114.746 60.2432 112.748 61.5077 112.082C63.2533 111.162 65.0256 110.381 64.6295 109.589C64.0051 108.34 62.3888 104.679 62.1318 103.969C61.3712 101.869 61.1952 98.9736 61.1952 98.9736L60.1907 92.9315C60.1907 92.9315 62.4662 91.9228 62.7562 93.3538C63.0912 95.0065 62.7562 94.6027 62.9403 96.4759C63.0728 97.8246 63.2125 99.3574 63.3806 100.535C63.6928 102.72 63.6928 102.096 64.3173 103.969C64.593 104.796 65.004 105.342 65.5661 106.467C66.1905 107.715 66.0324 107.711 66.5027 108.652C66.8149 109.276 68.4632 110.196 68.4632 110.196C68.4632 110.196 67.6983 111.224 66.939 111.464C65.99 111.764 64.9417 112.399 64.9417 112.399L63.6928 113.023C62.5057 113.588 62.0916 114 61.1952 114.896C60.2586 115.833 59.6338 116.77 59.0097 117.706C58.4269 118.581 58.2569 118.952 57.6405 119.812C57.1365 120.516 56.4621 121.623 55.8876 122.389C54.9507 123.638 55.5754 123.014 54.6388 123.95C53.5282 125.061 53.6836 125.135 52.4534 126.136C51.3213 127.057 51.5787 127.032 50.5109 128.009C49.6934 128.757 47.458 132.068 46.7525 133.004C46.1123 133.854 45.6077 134.598 44.6291 135.814C44.1348 136.428 43.2324 139.332 43.0622 140.057C42.8968 140.762 43.7115 142.371 44.6291 143.307C45.4121 144.106 45.897 144.868 47.1458 145.805C48.2624 146.642 49.7275 147.526 50.8923 148.302C51.8289 148.927 53.0778 149.551 53.7022 150.488C54.1949 151.227 54.8069 152.182 54.951 153.298C55.046 154.033 54.4725 156.086 54.0144 156.732C53.4408 157.541 51.5247 158.261 50.5109 158.605C49.7348 158.869 47.2091 158.021 46.5214 157.669C45.1838 156.984 44.3144 156.357 43.0622 156.108C41.6771 155.832 39.7409 155.574 38.404 155.171C36.9619 154.736 36.0341 154.485 34.6576 153.922C33.5313 153.462 32.8914 152.049 32.2102 151.112C31.8094 150.561 31.1182 149.844 31.0369 149.238C30.9113 148.302 30.5831 147.292 30.5831 147.292L29.3503 142.995C29.3503 142.995 26.687 139.221 26.8526 138.936C27.0182 138.652 26.1046 137.505 25.916 136.126C25.6142 133.921 26.7666 132.09 27.477 129.882C28.1693 127.73 29.0478 126.637 29.7772 124.493C30.3916 122.686 30.4117 121.617 31.0369 119.812C31.5398 118.36 32.5413 116.145 32.5413 116.145L33.7212 113.023L34.8621 110.196C34.8621 110.196 35.2975 108.569 34.6575 106.154C33.6643 102.408 33.7212 102.695 33.7212 102.695L33.2936 100.535L32.8914 98.3491Z" fill="#292626"/>
<path d="M61.8191 114.272C61.1249 114.823 59.1259 114.524 59.1259 114.524L60.2581 113.335C60.2581 113.335 62.0264 111.601 62.5971 111.462C63.3532 111.278 65.1893 110.178 66.3235 109.901C67.1665 109.695 68.1609 109.82 68.7569 109.901C69.353 109.982 70.3158 110.408 71.1854 110.838C71.8168 111.15 72.4342 112.086 72.7467 112.711C73.0592 113.335 73.2095 114.175 73.2095 115.154C73.2095 115.806 72.4215 117.732 72.122 118.331C71.9444 118.686 68.3347 122.776 65.2534 126.238C62.9159 128.865 61.1947 130.819 61.1947 130.819C61.1947 130.819 63.265 129.729 65.5656 127.385C66.6278 126.302 67.2041 125.066 68.1263 123.95C69.5948 122.173 71.1903 120.701 71.3499 120.637C71.3499 120.637 73.1419 120.158 73.6429 120.204C74.1602 120.251 75.3404 120.576 75.8686 120.828C76.5699 121.163 77.4297 122.077 77.4297 122.077C77.4297 122.077 77.9237 122.499 78.3663 123.95C78.5828 124.66 78.8703 125.111 78.9907 125.824C79.0972 126.453 78.9907 128.009 78.9907 128.009C78.9907 128.009 78.6302 130.057 79.3029 130.194C80.0275 130.342 80.2162 130.41 80.7877 130.819C81.2379 131.141 81.1492 131.336 81.4884 131.755C82.0649 132.468 82.162 132.453 82.425 133.317C82.7191 134.283 82.7372 134.253 83.0494 135.502C83.23 136.224 83.199 137.01 83.199 137.01C83.199 137.01 83.4876 137.501 83.9861 138C84.2981 138.312 84.4719 138.43 84.6103 139.249C84.6722 139.615 84.7894 140.56 84.7894 141.313C84.7894 142.243 84.6103 144.244 84.6103 144.244L84.6085 144.247C84.2969 144.871 83.9859 145.493 83.3615 146.117L81.8004 147.678L80.2396 146.741C80.2396 146.741 81.8366 145.457 82.1128 145.18C82.7371 144.556 82.7371 144.244 82.7371 144.244C82.7371 144.244 83.199 143.171 83.199 142.683L83.199 141.313C83.199 140.646 83.2399 140.259 83.199 139.975C83.0493 138.936 82.4249 139.249 81.8004 139.561C81.1056 139.908 81.0213 139.924 80.3271 140.475C79.5733 141.073 79.3043 141.079 78.5605 141.669L78.517 141.703C77.8585 142.226 77.6705 142.375 76.8462 143.171C76.1365 143.857 75.46 144.308 74.6406 144.854L74.6198 144.868C73.6832 145.493 72.7466 145.727 72.7466 145.727L70.8733 145.18C70.8733 145.18 72.4344 144.38 73.371 143.619C74.0554 143.064 74.6198 142.371 75.5564 141.746C76.4526 141.149 76.8749 140.846 77.7419 140.185C78.4527 139.643 78.9907 139.248 79.6151 138.624C80.3807 137.858 80.864 137.063 80.864 137.063C80.864 137.063 81.0866 136.575 81.1762 135.814C81.2807 134.927 81.0631 134.657 80.7877 133.825C80.5094 132.984 80.2396 132.692 79.6151 132.068C79.1405 131.593 79.0688 131.522 78.3663 131.443C77.8152 131.382 76.8053 131.755 76.8053 131.755L75.5564 132.925C74.8033 133.227 73.9494 133.987 73.371 134.565C72.7466 135.19 72.1222 135.814 71.3499 136.751C70.5776 137.687 69.5279 138.685 68.6879 139.248C68.0289 139.691 65.2988 141.757 64.9414 141.746C64.3491 141.727 63.9414 141.013 64.0047 140.475C64.043 140.151 66.2446 138.644 67.1268 138C67.9256 137.417 70.5773 134.553 71.3499 133.941C72.277 133.207 73.1443 132.305 73.9954 131.755C74.8465 131.206 75.8991 130.674 76.4931 129.882C77.4297 128.633 77.2374 125.875 76.5437 124.262C76.2264 123.525 75.9036 123.209 75.2442 122.701C74.7837 122.347 74.2651 122.077 73.6429 122.077C72.7063 122.077 73.0893 122.171 72.122 122.389C71.504 122.529 70.6963 123.503 70.2487 123.95C69.6245 124.575 68.9302 125.581 68.3755 126.136C67.7512 126.76 66.2538 128.692 65.5656 129.258C64.7262 129.948 63.9551 130.805 63.0679 131.443C61.9435 132.252 60.3995 132.799 59.1259 133.317C58.0728 133.745 56.6518 133.825 55.8873 133.941C55.0533 134.067 54.1489 133.49 54.014 132.692C53.817 131.527 56.7823 132.306 57.136 132.068C57.4184 131.878 58.801 131.403 59.6337 130.819C60.5661 130.165 61.1948 128.946 61.8191 128.009C62.4435 127.073 62.6589 127.046 63.3802 126.136C63.8023 125.603 64.182 125.116 64.629 124.575C65.2822 123.783 65.1329 123.954 65.5656 123.326C65.6913 123.144 65.7295 122.908 66.2053 122.433C66.8508 121.788 67.1266 121.453 67.1266 121.453C67.1266 121.453 68.0998 120.479 68.3755 120.204C68.8114 119.769 69.7079 118.872 69.9365 118.331C70.2433 117.604 71.1854 116.283 71.1854 115.521C71.1854 115.154 71.4016 114.921 71.1854 114.272C70.8731 113.335 70.764 112.983 70.5077 112.711C69.6243 111.774 68.9119 111.598 68.1263 111.462C67.3408 111.326 66.4725 111.81 65.3383 112.086C64.5061 112.289 62.5008 113.731 61.8191 114.272Z" fill="#292626"/>
<path fill-rule="evenodd" clip-rule="evenodd" d="M58.3845 180.772C57.4483 180.561 56.1995 180.148 55.6178 179.515C55.1901 179.05 54.6385 178.338 54.36 177.675C54.0207 176.867 54.1101 175.575 54.6385 174.84C54.9174 174.453 55.0662 174.203 55.2062 173.968C55.3751 173.684 55.5311 173.423 55.8869 172.967C56.5585 172.107 58.0723 171.094 58.0723 171.094C58.0723 171.094 60.2578 170.469 61.1944 170.157C61.1968 169.735 60.371 169.013 59.5662 168.309L59.5662 168.309L59.5662 168.309C58.866 167.696 58.1817 167.098 58.0723 166.723C57.8793 166.433 57.6969 166.161 57.5259 165.905C56.5906 164.507 55.9976 163.621 55.8869 163.289C55.7828 162.976 55.6717 162.695 55.5605 162.413C55.3383 161.85 55.116 161.286 54.9502 160.479C54.8423 159.953 55.049 158.837 55.1863 158.095C55.2167 157.931 55.2436 157.786 55.2631 157.669C55.3989 156.852 55.7239 155.565 56.1991 154.859C56.7303 154.07 57.4598 153.376 58.3845 152.986C59.0514 152.705 60.57 152.673 60.57 152.673C60.57 152.673 60.389 152.637 60.5706 151.737C60.8261 150.471 61.2248 149.768 62.0729 148.735C62.1907 148.592 62.285 148.471 62.3669 148.366L62.367 148.366L62.3671 148.366C62.7081 147.929 62.8333 147.769 63.5432 147.393C64.5698 146.848 65.3135 146.734 66.5025 146.742C67.6916 146.749 68.3758 147.054 68.3758 147.054C68.3758 147.054 69.2365 147.884 69.3124 147.366C69.3242 147.285 69.335 147.209 69.3452 147.137C69.4386 146.473 69.4886 146.118 69.9368 145.493C70.5509 144.637 72.0258 144.524 73.0589 144.868C73.3528 144.966 73.6775 145.095 74.0278 145.234L74.0279 145.234C74.7938 145.538 75.6825 145.89 76.6406 146.075C76.8353 146.113 77.0051 146.156 77.174 146.199C77.6302 146.315 78.0793 146.429 78.9909 146.429C79.2553 146.429 79.6784 146.398 80.1678 146.362L80.1679 146.362C81.4193 146.269 83.1035 146.144 83.674 146.429C84.9226 147.054 85.7804 148.132 86.1714 149.551C86.4256 150.474 86.2515 153.17 85.8592 154.234C85.593 154.957 83.821 156.429 83.0494 156.732C81.8293 157.211 80.5519 157.357 80.5519 157.357C80.5519 157.357 81.1761 158.605 81.1763 159.23C81.1765 159.792 80.8639 162.664 80.5519 163.289C80.2727 163.848 78.9907 165.162 78.6787 165.474C78.4931 165.66 77.4513 165.774 76.493 165.786C76.1211 165.791 75.7498 165.75 75.437 165.715C74.9605 165.662 74.6197 165.624 74.6197 165.786C74.6197 166.182 74.5911 169.416 74.3078 170.157C74.0054 170.948 73.6412 171.381 73.0589 172.031C72.5983 172.544 72.2804 172.665 71.8585 172.824C71.7471 172.867 71.6284 172.912 71.4979 172.967C70.6868 173.313 69.9371 173.592 69.0002 173.592L67.7514 173.592C67.7514 173.592 66.5023 173.279 65.8779 173.279C65.5949 173.279 65.7043 173.585 65.8672 174.041C66.0087 174.437 66.1906 174.946 66.1903 175.465C66.1899 176.53 65.5659 177.65 64.9581 178.338C64.0921 179.319 62.9398 180.235 62.4442 180.46C61.6609 180.815 59.9046 181.116 58.3845 180.772ZM56.5438 177.721L56.5438 177.721C56.4016 177.572 56.254 177.417 56.1027 177.26C55.6103 176.749 56.3903 174.749 57.0291 174.185C57.1421 174.085 57.2382 174 57.3232 173.925L57.3233 173.925L57.3233 173.925C57.7186 173.577 57.8744 173.44 58.3843 172.967C59.2778 172.139 60.5108 171.718 61.1942 171.718L62.7552 171.718C62.7552 171.718 63.7118 172.437 64.004 173.279C64.2957 174.12 64.3142 174.243 64.3162 175.153C64.3185 176.167 64.196 176.391 63.9395 176.86C63.8771 176.974 63.8068 177.102 63.7284 177.26C63.6123 177.494 63.5695 177.616 63.541 177.696C63.5276 177.735 63.5173 177.764 63.504 177.791C63.4609 177.881 63.3861 177.956 63.0682 178.274L63.0682 178.274L63.0682 178.274L63.0674 178.275C62.936 178.406 62.4437 178.69 61.8188 178.899C61.6132 178.968 61.3756 179.059 61.1376 179.151C60.6528 179.337 60.1665 179.524 59.9456 179.523C59.078 179.523 58.8162 179.413 58.1451 179.129C58.0913 179.106 58.0349 179.082 57.9753 179.057C57.7095 178.945 57.1808 178.39 56.5438 177.721ZM57.6885 163.295L57.7208 163.347C58.0431 163.867 58.2295 164.085 58.4641 164.36C58.6066 164.526 58.767 164.714 58.9864 165.003C59.2286 165.322 61.6332 168.284 62.4429 168.908C62.7618 169.154 63.1174 169.423 63.4668 169.688L63.4677 169.689L63.4677 169.689C64.2655 170.292 65.0308 170.872 65.2528 171.094C65.5649 171.406 67.4379 172.03 68.3747 172.031C68.9934 172.031 70.3434 171.777 70.8722 171.406C71.6619 170.852 72.4332 169.221 72.4332 169.221C72.4332 169.221 73.0376 167.186 72.7454 165.786C72.5204 164.708 70.2477 162.04 69.6244 161.416C69.4215 161.213 68.9632 160.656 68.5506 160.155C68.1262 159.64 67.7502 159.183 67.7501 159.23C67.75 159.299 66.6964 158.211 66.0379 157.531C65.8183 157.304 65.6427 157.123 65.5646 157.044C64.9433 156.423 64.5488 156.078 63.7564 155.691C63.3034 155.469 62.9991 155.302 62.6948 155.135C62.3906 154.968 62.0863 154.801 61.6332 154.579C60.8409 154.192 60.2575 154.235 59.3209 154.547C58.4313 154.843 58.316 154.936 57.7208 155.691C57.1256 156.446 57.0625 156.691 56.8229 157.721C56.5314 158.973 56.5105 159.23 56.5106 160.479C56.5107 161.396 57.2236 162.545 57.6885 163.295ZM71.2379 160.784L71.2378 160.784C70.4902 159.775 69.6224 158.603 69.3126 158.293C68.7488 157.73 68.1083 156.976 67.5977 156.376L67.5977 156.376C67.2597 155.978 66.9786 155.648 66.8145 155.484C66.284 154.953 65.6107 154.534 64.9674 154.134C64.8535 154.063 64.7406 153.993 64.6295 153.923C64.5587 153.878 64.443 153.814 64.3018 153.736L64.3017 153.736C63.8314 153.475 63.0781 153.059 62.7557 152.674C62.2595 152.081 62.7306 151.153 63.0393 150.545L63.0682 150.488C63.1045 150.416 63.1375 150.35 63.1684 150.287L63.1686 150.287C63.3937 149.832 63.5094 149.598 64.0044 149.239C64.5079 148.874 64.643 148.805 65.2532 148.615C66.0006 148.383 66.7236 148.479 67.4943 148.581C67.5794 148.593 67.6651 148.604 67.7514 148.615C68.7091 148.737 70.553 150.168 71.1857 150.8C71.5009 151.116 72.2995 151.755 73.0904 152.388C73.8662 153.01 74.6345 153.625 74.9322 153.922C75.1769 154.167 75.6922 154.62 76.2727 155.131L76.2729 155.131L76.2729 155.131C77.1738 155.923 78.2316 156.853 78.6787 157.357C79.3112 158.069 79.6153 159.23 79.6153 160.167C79.6153 160.827 78.9915 162.664 78.3662 163.289C77.9554 163.699 75.8685 164.225 75.2443 164.225C74.3838 164.225 72.7464 162.664 72.4344 162.352C72.3001 162.218 71.8034 161.547 71.2379 160.784ZM72.8025 149.62C73.4751 150.315 74.7918 151.676 74.9307 151.737C75.1537 151.835 75.5037 152.104 75.9274 152.429C76.2825 152.701 76.6892 153.013 77.1162 153.298C77.22 153.367 77.3077 153.421 77.3905 153.472C77.6992 153.661 77.9384 153.808 78.6773 154.547C79.0341 154.904 79.7673 155.484 80.2384 155.484C80.8627 155.484 81.7994 155.171 82.4239 154.859C82.9269 154.608 83.985 153.611 84.2971 152.986C84.6092 152.361 84.5732 149.966 84.2971 149.552C83.6726 148.615 80.498 148.615 79.9259 148.615C79.3015 148.615 76.8039 147.99 76.1794 147.678C75.555 147.366 72.4941 146.117 71.9982 146.117C71.6455 146.117 71.3914 146.436 71.1594 146.726C71.0614 146.849 70.9674 146.967 70.8715 147.054C70.5248 147.368 71.5232 148.346 72.1908 149.001C72.2784 149.086 72.3604 149.167 72.4329 149.239C72.4835 149.29 72.6191 149.43 72.8025 149.62Z" fill="#292626"/>
<path d="M52.2486 182.391C51.6192 183.357 50.598 198.013 50.8125 198.79C51.0269 199.568 48.9495 200.295 46.2715 200.912C43.5934 201.529 36.5668 201.57 32.8211 201.06C29.5456 200.614 28.7433 200.482 25.8889 199.476C23.6753 198.696 23.0342 198.159 22.8194 197.382C22.6047 196.604 23.5492 190.983 24.0428 187.329C24.8864 181.084 26.1694 178.792 27.3846 173.279C28.4258 168.556 27.7893 162.664 27.7893 162.664C27.7893 162.664 25.808 150.369 25.8889 149.239C25.9698 148.109 25.2925 141.434 25.2925 141.434C25.2925 141.434 26.1817 139.076 27.3846 138.624C28.5875 138.172 26.0114 141.158 26.5413 142.683C26.7324 143.233 27.5565 147.461 27.3846 149.864C27.2126 152.266 30.1091 161.685 29.6626 162.664C29.2161 163.644 30.0844 167.2 29.2462 171.801C27.4987 181.394 24.4124 195.914 24.6068 196.943C24.8013 197.973 27.6442 198.49 29.4402 198.921C32.6049 199.681 33.2054 199.7 36.6813 199.968C39.4296 200.18 41.6314 200.317 43.999 199.948C46.3666 199.578 48.0328 199.605 48.6628 198.639C49.2927 197.673 49.8876 183.218 50.8118 182.021C51.7361 180.825 55.3662 175.636 55.3662 175.636C55.3662 175.636 55.5765 176.375 55.5765 177.338C55.5765 178.301 52.8781 181.425 52.2486 182.391Z" fill="#292626"/>
<path d="M35.5252 115.117C36.3869 112.94 36.9684 112.389 37.3107 108.624C37.4802 106.76 35.9925 103.295 35.5244 100.409C35.5244 97.6708 35.5939 95.1119 36.2852 94.2476C37.6545 92.5359 45.6085 92.7601 46.9934 94.2476C48.496 95.8616 47.0703 101.131 46.9934 102.739C46.8418 105.908 46.0372 110.697 46.0372 110.697C46.0372 110.697 45.4986 115.29 44.6583 118.062C43.913 120.521 38.7846 130.283 37.653 132.585C36.4506 135.031 41.1812 139.377 41.7605 142.854C42.1028 144.907 49.291 149.357 52.0294 151.753C54.0651 153.534 52.714 155.176 51.0025 156.545C49.5797 157.684 39.5621 153.126 36.9683 152.78C35.9447 152.643 34.648 150.802 34.2298 150.384C32.8609 149.015 32.3651 145.342 31.456 143.504C30.3663 141.302 29.4435 139.562 28.8434 137.377C28.5385 136.266 28.6803 134.969 28.8434 133.954C29.044 132.706 29.0808 131.234 29.7802 130.189C30.5011 129.111 31.0383 127.635 31.456 126.423C32.5186 123.343 32.0992 124.148 32.8609 121.289C33.4767 118.978 34.5723 117.524 35.5252 115.117Z" fill="white"/>
<path d="M30.4632 3.88159H91.0494L68.8002 23.3924L3.76416 22.7078L30.4632 3.88159Z" fill="#F2F2F2"/>
<path d="M92.0771 4.90869L92.0771 67.891L68.1165 91.5094L69.1434 24.7618L92.0771 4.90869Z" fill="#F2F2F2"/>
<path d="M5.5685 28.2894C10.3926 23.0505 13.456 28.5808 23.7573 28.7797C29.5857 28.8922 42.569 28.9587 42.569 28.9587C42.569 28.9587 58.2641 28.7611 63.6266 28.2894C68.989 27.8176 63.6266 44.7803 63.6266 44.7803C63.6266 44.7803 61.86 50.7111 61.86 61.1323C61.86 67.5674 66.0155 81.109 61.86 86.0078C55.2908 86.0078 52.6623 88.4173 45.1385 88.4173C32.2988 88.4173 21.2506 88.4173 21.2506 88.4173C21.2506 88.4173 14.98 88.4173 9.60527 86.0078C2.13973 94.1331 5.5685 76.256 5.5685 68.7671C5.5685 59.3997 5.5685 54.1477 5.5685 44.7803C5.5685 38.3402 1.2143 33.0179 5.5685 28.2894Z" fill="white"/>
<path d="M29.1778 39.5143L28.7778 39.2143L28.6778 39.3476V39.5143H29.1778ZM29.1778 55.0018L29.6521 55.1599L29.6778 55.0829V55.0018H29.1778ZM20.9597 78.0748C20.8724 78.3368 21.014 78.62 21.276 78.7073C21.5379 78.7946 21.8211 78.653 21.9084 78.3911L20.9597 78.0748ZM38.4703 39.5143H38.9703V39.3476L38.8703 39.2143L38.4703 39.5143ZM38.4703 55.0018H37.9703V55.0829L37.9959 55.1599L38.4703 55.0018ZM45.7397 78.3911C45.827 78.653 46.1101 78.7946 46.3721 78.7073C46.6341 78.62 46.7757 78.3368 46.6883 78.0748L45.7397 78.3911ZM32.224 35.4527L31.824 35.1527L32.224 35.4527ZM31.824 35.1527L28.7778 39.2143L29.5778 39.8143L32.624 35.7527L31.824 35.1527ZM28.6778 39.5143V55.0018H29.6778V39.5143H28.6778ZM28.7035 54.8437L20.9597 78.0748L21.9084 78.3911L29.6521 55.1599L28.7035 54.8437ZM35.024 35.7527L38.0703 39.8143L38.8703 39.2143L35.824 35.1527L35.024 35.7527ZM37.9703 39.5143V55.0018H38.9703V39.5143H37.9703ZM37.9959 55.1599L45.7397 78.3911L46.6883 78.0748L38.9446 54.8437L37.9959 55.1599ZM32.624 35.7527C33.224 34.9527 34.424 34.9527 35.024 35.7527L35.824 35.1527C34.824 33.8193 32.824 33.8193 31.824 35.1527L32.624 35.7527Z" fill="#FF8900"/>
<path d="M29.1797 39.5142H34.9875" stroke="#FF8900" stroke-linecap="round"/>
<path d="M29.1797 44.9348H34.9875" stroke="#FF8900" stroke-linecap="round"/>
<path d="M29.3726 49.9683H34.7932" stroke="#FF8900" stroke-linecap="round"/>
<path d="M29.3726 55.002H34.7932" stroke="#FF8900" stroke-linecap="round"/>
<path d="M29.1789 44.9349H19.5756C18.4498 44.9349 18.1826 43.363 19.2453 42.9911L27.2429 40.1919" stroke="#FF8900" stroke-linecap="round"/>
<path d="M38.4707 39.5142L48.4043 42.9909C49.4669 43.3628 49.1998 44.9348 48.0739 44.9348H40.7938" stroke="#FF8900" stroke-linecap="round"/>
<path d="M13.6914 46.6772H17.5633" stroke="#FF8900" stroke-linecap="round"/>
<path d="M29.1789 55.0016H19.5756C18.4498 55.0016 18.1826 53.4296 19.2453 53.0577L27.2429 50.2586" stroke="#FF8900" stroke-linecap="round"/>
<path d="M13.6914 56.7441H17.5633" stroke="#FF8900" stroke-linecap="round"/>
<path d="M50.0869 46.6772H53.9588" stroke="#FF8900" stroke-linecap="round"/>
<path d="M38.4707 49.5813L48.4043 53.058C49.4669 53.43 49.1998 55.0019 48.0739 55.0019H40.7938" stroke="#FF8900" stroke-linecap="round"/>
<path d="M50.0869 56.7441H53.9588" stroke="#FF8900" stroke-linecap="round"/>
<path d="M28.2109 58.0996L42.7304 67.5857" stroke="#FF8900" stroke-linecap="round"/>
<path d="M25.6943 65.2622L46.2152 78.2329" stroke="#FF8900" stroke-linecap="round"/>
<path d="M33.8259 61.7773L29.1797 65.0684" stroke="#FF8900" stroke-linecap="round"/>
<path d="M39.2457 57.7122L35.9546 60.0353" stroke="#FF8900" stroke-linecap="round"/>
<path d="M40.7942 66.2302L36.1479 69.5213" stroke="#FF8900" stroke-linecap="round"/>
<path d="M19.4995 80.556V80.556C19.4995 79.273 20.5396 78.2329 21.8226 78.2329H45.8282C47.1112 78.2329 48.1513 79.273 48.1513 80.556V80.556" stroke="#FF8900" stroke-linecap="round"/>
<path d="M34.2119 70.8762L28.5977 74.7481" stroke="#FF8900" stroke-linecap="round" stroke-linejoin="round"/>
<path fill-rule="evenodd" clip-rule="evenodd" d="M0.68457 93.5078V22.8066L29.4326 2.5127H93.7888L93.6012 41.1408L92.2968 41.1379L92.482 5.1311L68.9609 24.7703L68.6342 91.871L89.5748 71.1809L91.829 71.3474L68.6344 93.8351L0.68457 93.5078ZM1.9917 92.5115L2.31838 24.443H67.328L67.0014 92.1983L1.9917 92.5115ZM3.95041 23.1338L30.7383 3.82188H91.5011L68.6334 23.1338H3.95041Z" fill="#3E3B3B"/>
<path d="M79.7122 42.9838C71.7059 46.7867 74.7663 66.1708 77.4373 67.5564C80.1083 68.942 99.1797 68.9501 113.292 69.649C113.624 69.6654 112.378 69.3209 117.872 73.4576C118.831 74.1796 114.3 77.5524 115.587 79.6868C116.874 81.8211 120.546 81.4195 122.834 80.036C124.349 80.4409 124.553 82.9922 125.124 83.4981C128.724 86.6871 133.369 86.8187 136.187 86.2718C136.824 92.1561 142.183 90.1082 144.2 90.7747C149.228 92.4363 150.302 90.0851 150.683 88.0085C158.244 90.4025 157.435 83.591 159.073 83.5125C163.621 83.2944 164.793 81.4382 165.173 77.2849C165.804 76.6813 167.56 77.1975 168.605 76.5941C170.639 75.4202 172.487 73.3718 172.417 71.0578C172.343 68.5995 170.299 65.8861 170.889 65.1731C171.117 64.8963 180.766 64.4322 187.671 63.7958C197.97 63.8001 206.743 62.4194 206.743 62.4194L208.261 50.3058L207.493 37.8451C207.493 37.8451 197.848 42.3581 185.373 43.3737C177.273 44.0331 168.202 44.1849 159.055 45.0931C154.319 45.5633 148.901 43.8866 144.56 44.3948C140.398 44.8819 140.98 46.0031 137.313 46.4684C127.779 49.5795 125.11 52.6934 120.533 52.3453C98.7868 44.3754 79.7122 42.9838 79.7122 42.9838Z" fill="#F2F2F2"/>
<path d="M204.86 38.0246L207.466 36.6703L207.457 38.5829C207.457 38.5829 205.856 38.8523 204.855 39.1175C203.342 39.5182 202.588 40.0104 201.093 40.4665C199.427 40.9749 198.46 41.162 196.755 41.5396C195.183 41.8879 194.293 42.3275 192.706 42.6141C191.468 42.8379 190.768 42.9383 189.526 43.146C188.285 43.3537 187.601 43.2707 186.348 43.4047C183.994 43.6565 182.361 43.6597 179.992 43.6489C178.187 43.6406 177.213 43.3629 175.37 43.6277C174.099 43.8104 173.734 43.8947 172.479 44.161C170.362 44.6102 169.146 44.7485 166.987 44.9556C164.179 45.225 162.586 45.148 159.764 45.1958C156.042 45.2588 151.089 45.272 150.232 45.1522C148.211 44.8697 145.996 43.9266 143.59 44.8486C142.459 45.2817 142.094 45.7253 140.984 46.2028C139.813 46.7062 138.972 46.7779 137.801 47.2812C136.691 47.7588 136.239 48.0384 135.195 48.6355C134.417 49.0806 133.588 49.4541 132.878 49.9911C132.066 50.6053 131.837 50.994 131.425 51.8972C130.889 53.0727 131.042 53.8964 131.121 55.1747C131.181 56.1393 131.267 56.6769 131.399 57.6351L131.409 57.7049C131.58 58.9522 131.691 59.7581 132.251 60.9179C132.653 61.7532 132.757 62.3923 133.686 62.8371C134.263 63.113 134.586 62.9826 135.13 62.8437C135.981 62.6269 136.29 62.0293 136.87 61.4855C137.45 60.9417 137.629 60.6918 138.031 60.1246C138.594 59.3324 138.981 58.7713 139.486 57.9453C140.097 56.9464 140.135 56.3586 140.941 55.4928C141.363 55.04 141.562 54.7268 142.102 54.4052C143.438 53.6092 144.615 54.0543 146.146 54.4237C147.3 54.7022 147.914 54.9026 149.03 55.2566C150.283 55.6534 150.982 55.8878 152.203 56.3641C153.696 56.9466 154.444 57.4702 155.951 58.0206C157.382 58.5435 158.269 58.8776 159.699 59.404C160.97 59.8717 161.612 60.019 162.872 60.5115C164.092 60.9885 164.848 61.0894 166.044 61.619C167.096 62.0848 167.381 62.3873 168.349 62.9957C169.684 63.8356 170.201 65.5168 171.804 65.4707C172.812 65.4417 173.167 64.7016 174.12 64.3883C175.206 64.0311 177.011 63.855 177.011 63.855C177.011 63.855 189.015 64.3362 196.654 63.6717C198.577 63.5044 199.652 63.3787 201.567 63.1477C203.83 62.8747 207.348 62.3544 207.348 62.3544L207.342 63.7206C207.342 63.7206 205.862 63.8217 204.163 63.9793C202.699 64.115 200.703 64.2884 199.25 64.5033C198.223 64.6552 197.681 64.6399 196.649 64.7646C195.083 64.954 194.183 65.0266 192.604 65.0193L189.427 65.0048L185.671 64.9876L181.627 64.9691C179.935 64.9614 178.967 64.7047 177.295 64.9493C176.375 65.0838 175.829 65.1234 174.981 65.4852C174.097 65.8626 173.685 66.2403 172.953 66.8421C172.471 67.2379 171.793 67.9298 171.793 67.9298L170.642 66.8316L169.204 65.4588L167.765 64.3592C166.906 63.764 166.421 63.4161 165.46 62.9825C164.494 62.5464 163.731 62.1549 162.866 61.8777C162.004 61.6017 161.685 61.6549 160.846 61.3219C160.089 61.0213 159.598 60.7639 158.828 60.493C157.646 60.077 157.1 59.865 155.944 59.3868C154.734 58.8863 154.004 58.4579 152.773 58.0061C151.64 57.5904 151.047 57.249 149.89 56.9C149.003 56.6327 148.464 56.352 147.582 56.0697C146.717 55.7925 146.227 55.6512 145.274 55.5126C144.605 55.4154 143.904 55.333 143.252 55.5034C142.618 55.669 142.571 55.8902 142.093 56.3178C141.36 56.9737 141.144 57.6711 140.639 58.4971C140.028 59.496 139.882 60.0041 139.183 60.9496L139.153 60.9907C138.62 61.7111 138.429 61.9694 137.731 62.5824C137.136 63.106 136.861 63.3981 135.992 63.9406C135.419 64.2981 134.941 64.2655 134.258 64.206C133.402 64.1314 132.859 63.94 132.239 63.377C131.765 62.9459 131.642 62.5772 131.379 62.0069C130.963 61.1051 130.735 60.5072 130.524 59.5438C130.29 58.4781 130.36 57.8931 130.247 56.8101C130.126 55.6419 129.967 54.977 129.972 53.8032C129.977 52.8429 130.028 52.2774 130.272 51.3454L130.279 51.3194C130.421 50.7771 130.509 50.4421 130.856 49.9819C131.276 49.4259 132.306 48.8955 132.306 48.8955L135.779 47.272C135.779 47.272 138.095 46.1896 138.384 46.1909C138.673 46.1923 140.99 44.8367 140.99 44.8367L144.175 43.2118L149.372 43.782L153.703 44.0751L157.459 44.0923L163.526 43.8468L169.305 43.3267C169.305 43.3267 172.798 42.7592 175.086 42.5335C177.891 42.2568 182.309 42.2933 182.309 42.2933L189.531 42.0531L192.711 41.5211L196.76 40.4467L200.809 39.3722L204.86 38.0246Z" fill="#292626"/>
<path fill-rule="evenodd" clip-rule="evenodd" d="M170.88 67.0097C170.88 67.0097 171.589 68.1324 171.737 68.9375C171.775 69.1439 171.818 69.3226 171.859 69.4918C171.945 69.8427 172.02 70.1534 172.018 70.5878C172.017 70.7694 172.019 70.9393 172.021 71.1012C172.029 71.8959 172.036 72.4965 171.717 73.3348C171.507 73.8874 171.275 74.1731 170.916 74.6168C170.893 74.6455 170.869 74.6748 170.845 74.7049C170.828 74.7265 170.81 74.7479 170.793 74.7689C170.339 75.333 170.051 75.6898 169.396 76.0725C168.879 76.3748 168.546 76.5031 167.951 76.6155C167.288 76.7409 166.872 76.78 166.22 76.6076C165.735 76.4791 165.465 76.3492 165.069 76.0527C164.818 75.8652 164.494 75.5004 164.494 75.5004C164.494 75.5004 164.864 74.5013 165.079 73.8541C165.161 73.6067 165.262 73.3975 165.357 73.1999C165.549 72.8026 165.718 72.4523 165.665 71.9329C165.605 71.3577 165.466 71.0129 165.094 70.5561C164.81 70.2071 164.541 70.0585 164.186 69.8622C164.11 69.82 164.029 69.7755 163.944 69.7264C163.409 69.4188 162.977 69.2961 162.494 69.1589C162.233 69.0845 161.956 69.0059 161.64 68.8913C160.74 68.5652 160.284 68.4828 159.334 68.3311C159.033 68.283 158.749 68.2299 158.497 68.1828C158.099 68.1085 157.781 68.0492 157.604 68.0484C157.198 68.0465 156.883 68.5087 156.735 68.8689C156.488 69.4683 156.514 69.9068 156.728 70.5178C156.885 70.9679 157.147 71.2062 157.449 71.4815C157.585 71.6052 157.729 71.7362 157.875 71.8973C158.256 72.3161 158.584 72.6084 158.916 72.9044C159.221 73.1763 159.53 73.4513 159.886 73.8303C160.383 74.3597 160.822 74.7626 161.328 75.2284C161.42 75.3123 161.513 75.3982 161.609 75.4872C161.837 75.6971 161.983 75.8464 162.121 75.9869C162.297 76.1667 162.459 76.3322 162.758 76.5918C162.873 76.6908 162.978 76.7773 163.077 76.8587C163.386 77.1129 163.634 77.3169 163.907 77.6964C164.192 78.0923 164.34 78.3369 164.479 78.7983C164.697 79.5206 164.695 80.0019 164.47 80.7221C164.327 81.1823 164.191 81.4354 163.888 81.8188C163.455 82.3677 163.086 82.6049 162.441 82.9115C161.03 83.5819 159.643 83.8212 158.402 82.893C158.029 82.6143 157.874 82.3039 157.709 81.9736C157.59 81.7374 157.467 81.491 157.256 81.2388C156.927 80.8465 156.582 80.5383 156.198 80.1936C155.989 80.0068 155.769 79.8093 155.532 79.5819C155.335 79.3924 155.165 79.235 155.005 79.086C154.708 78.8112 154.444 78.5655 154.096 78.2012C153.95 78.0485 153.789 77.8708 153.625 77.6895C153.123 77.1339 152.59 76.5453 152.372 76.5443C151.894 76.5421 151.795 76.6359 151.793 77.0913C151.792 77.2837 152.155 77.6539 152.513 78.0189C152.666 78.1753 152.818 78.3307 152.941 78.4707C153.131 78.6882 153.308 78.9005 153.48 79.1069C153.78 79.4653 154.065 79.8062 154.376 80.1263C154.595 80.3522 154.755 80.4923 154.906 80.6252C155.092 80.789 155.266 80.9418 155.525 81.2309C155.642 81.3625 155.761 81.4846 155.876 81.604C156.18 81.917 156.465 82.2115 156.672 82.6103L156.956 83.7109C156.956 83.7109 156.992 84.3827 156.951 84.8102C156.943 84.8879 156.937 84.9613 156.931 85.0315C156.895 85.4538 156.869 85.7599 156.656 86.1831C156.312 86.8674 155.657 87.2637 154.919 87.5493C154.215 87.8216 153.724 87.8191 152.984 87.8153C152.956 87.8152 152.927 87.815 152.898 87.8149L151.167 87.807C151.167 87.807 150.758 86.3026 150.312 85.6044C149.936 85.0173 149.661 84.7228 149.164 84.2249C148.751 83.8124 148.417 83.5683 148.032 83.2872C147.85 83.1546 147.657 83.0137 147.439 82.8429C147.286 82.7229 147.152 82.6163 147.027 82.5162C146.695 82.2522 146.422 82.0341 146.002 81.737C145.349 81.2756 144.276 80.6297 144.276 80.6297L143.408 81.1754C143.408 81.1754 144.519 82.073 145.132 82.5575C145.491 82.8411 145.704 83.0025 145.94 83.1809C146.114 83.3133 146.301 83.4552 146.57 83.6634C146.594 83.6825 146.619 83.7012 146.643 83.7198C147.341 84.2609 147.77 84.5939 148.293 85.3203C148.425 85.5032 148.555 85.6678 148.682 85.8272C148.966 86.1856 149.23 86.5181 149.44 86.9745C149.508 87.1228 149.573 87.2515 149.635 87.3724C149.793 87.6835 149.925 87.9431 150.01 88.3513C150.142 88.983 150.116 89.4811 149.714 89.999C149.354 90.4638 148.848 90.6466 148.268 90.8169C148.208 90.8345 148.152 90.8513 148.098 90.8674C147.753 90.9703 147.512 91.0422 147.113 91.0864C146.665 91.136 145.383 90.8037 145.383 90.8037C145.383 90.8037 144.814 90.4351 144.233 89.9739C143.988 89.7794 143.658 89.4216 143.658 89.4216L143.076 90.5183C143.076 90.5183 143.876 91.6246 144.801 91.9003C145.377 92.0721 146.531 92.1831 147.108 92.1857C147.108 92.1857 147.396 92.187 148.263 91.9162C148.326 91.8966 148.408 91.8765 148.503 91.8531C148.838 91.7709 149.335 91.649 149.708 91.3731C149.803 91.303 149.884 91.2467 149.956 91.1969C150.221 91.0131 150.357 90.9187 150.577 90.5526C150.88 90.0515 151.162 88.9063 151.162 88.9063C151.162 88.9063 152.218 88.9452 152.893 88.9142C153.11 88.9042 153.307 88.9015 153.493 88.899C154.082 88.891 154.557 88.8846 155.202 88.6499C155.922 88.3881 156.283 88.0934 156.846 87.6341C156.876 87.6094 156.907 87.5842 156.938 87.5585C157.001 87.5069 157.061 87.4597 157.117 87.4149C157.383 87.2029 157.581 87.0457 157.807 86.738C158.156 86.265 158.278 85.9343 158.391 85.3665C158.496 84.8393 158.396 84.2672 158.396 84.2672L161.281 84.2804C161.619 84.2819 162.081 84.1238 162.515 83.975C162.804 83.876 163.082 83.781 163.303 83.74C163.591 83.6863 164.749 82.9221 164.749 82.9221C164.749 82.9221 165.34 82.3928 165.619 81.8267C165.818 81.4257 165.834 81.1315 165.854 80.7891C165.865 80.6071 165.876 80.4115 165.915 80.1791C165.988 79.7553 165.966 79.408 165.944 79.0607C165.933 78.887 165.922 78.7133 165.923 78.5301C165.925 78.1431 165.638 77.7043 165.638 77.7043C165.638 77.7043 167.051 77.8141 167.946 77.7149C168.021 77.7066 168.092 77.6991 168.159 77.692C168.608 77.6446 168.922 77.6115 169.39 77.4466C170.152 77.1784 170.549 76.8999 171.126 76.3552C171.703 75.8106 171.943 75.4122 172.288 74.7115C172.572 74.1342 172.662 73.7274 172.784 73.1829C172.811 73.0602 172.84 72.9306 172.873 72.7904C173.024 72.1535 173.102 71.7924 173.169 71.1427C173.174 71.1023 173.178 71.0626 173.182 71.0237C173.263 70.2405 173.314 69.752 173.179 68.9441C173.107 68.507 172.896 67.8435 172.896 67.8435L170.88 67.0097ZM158.463 69.7015C158.349 70.023 158.747 70.8023 158.747 70.8023L159.607 71.9056L160.756 73.0102C160.875 73.1239 160.972 73.2227 161.064 73.3162C161.234 73.4886 161.386 73.6428 161.618 73.8387C161.69 73.8991 161.754 73.9571 161.814 74.0114C162.109 74.2771 162.306 74.4545 162.77 74.3936C163.243 74.3314 163.626 73.9275 163.927 73.5744C164.12 73.3494 164.141 73.2119 164.175 72.9975C164.186 72.926 164.199 72.8459 164.22 72.7512C164.315 72.318 164.212 72.0068 163.936 71.6505C163.695 71.3389 163.412 71.0383 163.074 70.8221C162.956 70.7461 162.857 70.6796 162.764 70.6167C162.592 70.5007 162.438 70.3969 162.211 70.2684C161.883 70.0822 161.497 69.9545 161.123 69.831C161.004 69.7915 160.886 69.7525 160.771 69.7122C160.336 69.5585 160.079 69.4935 159.618 69.4321C159.534 69.4208 159.453 69.4075 159.375 69.3947C158.94 69.3233 158.616 69.2702 158.463 69.7015Z" fill="#292626"/>
<path fill-rule="evenodd" clip-rule="evenodd" d="M114.867 76.6472C115.301 75.5838 115.891 75.0764 116.897 74.4578C116.991 74.4 117.076 74.3432 117.156 74.2893C117.436 74.101 117.663 73.9488 118.053 73.9134C118.597 73.8641 118.926 74.1163 119.306 74.4077C119.451 74.5196 119.605 74.6372 119.781 74.7458C120.17 74.9863 120.428 75.2232 120.691 75.4643C120.926 75.6804 121.165 75.8998 121.505 76.1279C122.248 76.6258 123.52 77.2364 123.52 77.2364C123.52 77.2364 124.381 76.5447 124.967 76.1437C125.212 75.976 125.42 75.8088 125.617 75.6509C126.113 75.2528 126.534 74.9147 127.281 74.7801C127.835 74.6806 128.167 74.7083 128.724 74.7867C129.429 74.886 129.843 74.9923 130.452 75.3443C131.134 75.7379 131.551 76.0376 131.889 76.7251C132.132 77.2208 132.171 78.1005 132.171 78.1005C132.171 78.1005 133.414 77.9767 134.19 78.1098C135.282 78.297 135.889 78.5921 136.782 79.2209L136.786 79.2237C137.424 79.6735 137.815 79.9488 138.218 80.6017C138.689 81.3646 138.789 81.9179 138.785 82.803C138.781 83.688 138.198 84.9989 138.198 84.9989C138.198 84.9989 138.905 84.9489 139.352 85.0042C140.058 85.0916 140.482 85.1933 141.08 85.5618C141.606 85.8856 141.846 86.245 142.129 86.6687L142.129 86.6687C142.243 86.8404 142.365 87.0227 142.515 87.2174C142.666 87.4129 142.826 87.5729 142.977 87.7241C143.307 88.0551 143.595 88.3442 143.662 88.8716C143.73 89.415 143.687 89.7898 143.367 90.2444C143.061 90.6793 142.658 90.7818 142.188 90.9011C142.011 90.9459 141.826 90.993 141.632 91.061L141.524 91.0989C140.509 91.4564 139.851 91.688 138.745 91.5975C138.657 91.5903 138.572 91.584 138.489 91.5779C137.803 91.5274 137.286 91.4893 136.728 91.0386C136.321 90.7102 136.181 90.3848 136.003 89.9671L136.003 89.967C135.961 89.8702 135.918 89.7684 135.868 89.6605C135.453 88.7535 135.303 87.1844 135.303 87.1844C135.303 87.1844 134.806 87.573 134.435 87.7301C133.682 88.0487 133.099 87.9425 132.37 87.8096C132.202 87.7789 132.026 87.7468 131.838 87.7182L131.824 87.7161C131.023 87.5938 130.543 87.5207 129.821 87.1593C129.465 86.9807 129.249 86.7286 129.039 86.4837C128.791 86.1936 128.552 85.9136 128.097 85.7772C127.778 85.6818 127.508 85.7298 127.239 85.7775C126.963 85.8264 126.689 85.8751 126.366 85.7693C125.923 85.6246 125.686 85.384 125.421 85.115C125.277 84.9693 125.125 84.8152 124.928 84.6634C124.731 84.5116 124.558 84.3903 124.394 84.2755C124.091 84.0636 123.82 83.8742 123.491 83.5575C123.372 83.4432 123.257 83.3429 123.148 83.2479C122.792 82.937 122.501 82.6826 122.343 82.1781C122.182 81.6638 122.349 80.8039 122.349 80.8039C122.349 80.8039 121.835 81.1589 121.481 81.3496C120.644 81.8016 120.125 82.0481 119.17 82.1636C118.158 82.2859 117.469 82.3448 116.574 81.8769C115.587 81.3601 115.222 80.6847 114.853 79.6703C114.448 78.5545 114.419 77.7476 114.867 76.6472ZM116.602 76.3807C116.711 76.2123 116.794 76.0274 116.874 75.8494C117.071 75.4101 117.248 75.0132 117.762 75.0118C118.127 75.0108 118.314 75.2239 118.522 75.4621C118.635 75.5912 118.754 75.7277 118.912 75.8416C119.07 75.9555 119.203 76.053 119.328 76.1452C119.559 76.3154 119.766 76.4676 120.063 76.6714C120.334 76.8582 120.571 76.9927 120.799 77.1219L120.799 77.1219C121.123 77.3062 121.429 77.4797 121.789 77.7787C122.149 78.078 122.651 78.6071 122.651 78.6071C122.651 78.6071 122.135 79.1218 121.781 79.4277C121.676 79.5181 121.582 79.6026 121.492 79.6824L121.492 79.6825C121.124 80.0101 120.845 80.2592 120.334 80.5204C120.257 80.5594 120.185 80.5974 120.114 80.6342C119.605 80.9008 119.225 81.1001 118.6 81.0622C117.994 81.0255 117.667 80.824 117.16 80.5059L117.158 80.505C116.627 80.1714 116.277 79.9522 116.011 79.4013C115.68 78.7189 115.795 78.1977 116.019 77.4774C116.145 77.0748 116.293 76.8494 116.506 76.5261L116.506 76.5261C116.537 76.4799 116.568 76.4317 116.602 76.3807ZM126.153 76.7009C126.049 76.7922 125.944 76.8849 125.829 76.9724C125.447 77.2653 125.355 77.3657 125.091 77.6519C125.052 77.6944 125.009 77.741 124.96 77.793C124.643 78.1339 124.329 78.4941 124.09 78.8884C123.862 79.264 123.843 79.5643 123.819 79.9442C123.812 80.0435 123.806 80.1483 123.795 80.2612C123.785 80.365 123.771 80.4591 123.759 80.5479C123.719 80.8248 123.687 81.0505 123.79 81.3606C123.832 81.4898 123.856 81.5882 123.878 81.676C123.917 81.839 123.948 81.9657 124.074 82.1864C124.366 82.6937 124.935 83.2898 124.935 83.2898C124.935 83.2898 125.917 84.2702 126.661 84.397C126.727 84.4082 126.789 84.4199 126.85 84.4312C127.195 84.4959 127.462 84.5458 127.815 84.4023C128.187 84.2511 128.321 83.9877 128.477 83.6822C128.538 83.5622 128.602 83.4357 128.686 83.3069C128.95 82.8985 129.098 82.6621 129.268 82.2102C129.373 81.9299 129.476 81.7002 129.581 81.4666L129.581 81.4666L129.581 81.4665C129.669 81.2706 129.759 81.072 129.851 80.8387C129.968 80.546 130.055 80.3495 130.143 80.1529L130.143 80.1529L130.143 80.1529L130.143 80.1529L130.143 80.1528C130.231 79.9563 130.318 79.7597 130.435 79.4671C130.471 79.3755 130.508 79.2898 130.543 79.2078C130.705 78.8315 130.834 78.5325 130.729 78.0942C130.605 77.5708 130.554 77.3735 130.157 76.9922C129.761 76.6109 129.259 76.3124 128.719 76.1611C128.061 75.9771 127.635 75.94 126.987 76.1531C126.65 76.2642 126.406 76.4784 126.153 76.7009ZM130.128 83.0378C130.208 82.8496 130.281 82.6923 130.35 82.5435L130.35 82.5435C130.478 82.2689 130.592 82.0234 130.711 81.6663C130.806 81.3818 130.941 81.161 131.084 80.9267C131.153 80.8137 131.224 80.6975 131.293 80.5695C131.585 80.03 131.856 79.6907 132.452 79.4755C132.741 79.3711 133.334 79.4271 133.895 79.4821C133.981 79.4905 134.062 79.4976 134.139 79.5044L134.139 79.5044C134.575 79.5428 134.892 79.5707 135.336 79.7635C135.849 79.986 136.133 80.1752 136.487 80.5933C136.789 80.9512 136.886 81.2179 137.038 81.6378L137.059 81.6953L137.079 81.7518C137.292 82.3365 137.431 82.719 137.34 83.3456C137.236 84.0588 136.947 84.4353 136.466 84.9907C136.008 85.5209 135.681 85.8105 135.019 86.0835C134.534 86.2832 134.174 86.3013 133.721 86.3239C133.586 86.3307 133.443 86.3379 133.286 86.3504C132.5 86.4131 131.555 86.4341 131.267 86.3412C130.733 86.169 130.41 85.9697 130.116 85.5114C129.874 85.1334 129.819 84.853 129.833 84.4107C129.851 83.8329 129.9 83.5735 130.128 83.0378ZM138.481 86.3737C138.193 86.3724 137.681 86.5127 137.614 86.6445C137.56 86.7511 137.485 86.8774 137.407 87.0104C137.26 87.2584 137.099 87.5298 137.032 87.7414C136.898 88.1651 136.936 88.407 137.027 88.8411C137.107 89.2207 137.281 89.4293 137.601 89.6684C137.931 89.9156 138.243 89.9218 138.611 89.9292C138.746 89.9319 138.888 89.9348 139.042 89.9499C139.404 89.9853 139.66 89.9766 139.951 89.9667C140.11 89.9613 140.28 89.9555 140.485 89.9565C140.82 89.958 140.961 89.9586 141.076 89.9053C141.16 89.8668 141.23 89.8002 141.352 89.6855C141.672 89.3834 141.782 88.7218 141.647 88.3122C141.603 88.1809 141.583 88.0794 141.565 87.9887C141.532 87.8241 141.506 87.6947 141.362 87.4865C141.138 87.1634 140.827 86.8872 140.5 86.6577C140.262 86.4909 140.065 86.456 139.805 86.4102C139.752 86.4007 139.696 86.3908 139.636 86.3791C139.303 86.3141 139.186 86.3266 139.005 86.3461C138.885 86.359 138.737 86.3748 138.481 86.3737Z" fill="#292626"/>
<path d="M111.234 71.1441C110.08 70.5884 77.6925 69.6142 76.8235 69.8853C75.9545 70.1564 73.9543 64.9163 73.6712 63.538C73.3881 62.1598 73.4073 57.9992 73.4237 54.4509C73.439 51.1472 73.7311 49.4144 74.9061 46.4726C75.7874 44.2664 77.2424 41.5272 78.1113 41.2558C78.9802 40.9844 84.6442 42.0311 88.8057 42.6814C95.1667 43.6755 98.7475 44.2431 104.987 45.7842C110.245 47.0826 118.273 49.6997 118.273 49.6997C118.273 49.6997 121.451 50.5685 122.898 50.2716C124.345 49.9746 136.515 45.1024 136.515 45.1024C136.515 45.1024 138.542 44.561 140.853 45.1222C143.164 45.6835 138.203 46.1138 136.507 46.7544C131.517 48.6394 126.366 50.8381 123.759 51.6522C121.153 52.4663 120.287 52.0034 119.132 51.631C117.977 51.2586 111.982 49.0519 107.292 47.7221C96.6119 44.694 80.4199 42.3679 79.2619 42.6377C78.1038 42.9075 77.1072 44.775 76.3522 46.4792C74.8911 49.7768 74.5913 52.075 74.5755 55.5576C74.563 58.3111 74.251 63.2656 75.687 65.4749C77.1229 67.6842 76.8347 67.407 77.9891 67.9632C79.1436 68.5195 111.243 69.217 112.685 70.0493C114.127 70.8817 123.643 76.983 123.643 76.983C123.643 76.983 124.209 79.7388 122.771 78.0804C121.332 76.422 112.388 71.6998 111.234 71.1441Z" fill="#292626"/>
<path d="M184.051 43.5445C191.49 43.2701 204.651 38.8763 205.509 38.5748C206.367 38.2734 205.046 45.7625 203.794 47.4179C202.435 49.2141 200.319 48.3116 198.072 48.7985C193.645 49.7576 186.627 50.7307 186.627 50.7307C186.627 50.7307 180.029 51.8569 175.755 52.1102C171.963 52.3349 169.823 52.2568 166.027 52.1081C161.993 51.9501 153.458 51.831 149.431 51.5523C145.746 51.2971 144.281 52.1033 141.993 54.5908C140.045 56.7081 138.513 62.0807 135.7 62.8806C133.256 63.5755 132.977 62.3815 131.98 60.1161C131.586 59.2219 131.12 54.4543 131.12 53.4829C131.12 52.1005 131.406 51.272 133.408 49.8905C135.808 48.2345 138.193 47.2674 140.846 46.0229C142.195 45.3904 142.797 44.854 144.279 44.6417C146.102 44.3808 147.601 44.6976 149.43 44.9187C151.315 45.1467 153.253 45.1679 155.152 45.1969C159.515 45.2633 160.246 45.27 164.595 44.922C168.111 44.6407 170.603 44.0947 174.609 43.5425C177.993 43.0759 176.612 43.8189 184.051 43.5445Z" fill="white"/>
<rect x="209.312" y="22.8923" width="58.8748" height="60.2439" fill="white"/>
<path d="M236.011 0.300781H296.597L274.348 19.8116L209.312 19.127L236.011 0.300781Z" fill="#F2F2F2"/>
<path d="M295.676 2.35474L295.676 65.337L271.715 88.9554L272.742 22.2079L295.676 2.35474Z" fill="#F2F2F2"/>
<path d="M224.373 61.282C225.345 67.9282 230.367 80.9017 242.674 79.6256C244 68.9916 234.982 63.1429 224.373 61.282Z" stroke="#FF8900" stroke-linecap="round"/>
<path d="M243.857 66.2971C247.204 63.7663 251.687 62.1191 256.495 61.282C255.832 65.7822 253.29 73.1955 247.848 77.0802" stroke="#FF8900" stroke-linecap="round"/>
<circle cx="239.645" cy="47.0639" r="14.7716" stroke="#FF8900" stroke-linecap="round"/>
<path d="M224.637 47.2H254.428" stroke="#FF8900" stroke-linecap="round"/>
<path d="M239.896 32.0625V61.7974" stroke="#FF8900" stroke-linecap="round"/>
<path d="M239.897 32.0625C242.42 33.7745 247.466 38.2798 247.466 47.2003C247.466 55.2017 242.42 60.4458 239.897 62.0678" stroke="#FF8900" stroke-linecap="round"/>
<path d="M239.897 32.0625C237.374 33.7745 232.328 38.2798 232.328 47.2003C232.328 55.2017 237.374 60.4458 239.897 62.0678" stroke="#FF8900" stroke-linecap="round"/>
<path d="M229.417 36.3873C231.889 38.0267 235.309 39.3608 239.896 39.3608C244.01 39.3608 247.395 38.0267 249.934 36.3873" stroke="#FF8900" stroke-linecap="round"/>
<path d="M250.177 57.472C247.704 55.8327 244.043 54.4985 239.456 54.4985C235.342 54.4985 231.651 55.8327 229.112 57.472" stroke="#FF8900" stroke-linecap="round"/>
<path fill-rule="evenodd" clip-rule="evenodd" d="M207.72 19.3875V86.9311L272.762 87.2438L296.528 64.2478L296.84 0H235.238L207.72 19.3875ZM209.284 20.9511L208.972 85.9796L271.199 85.6804L271.512 20.9511H209.284ZM236.49 1.25083L210.848 19.7002H272.763L294.652 1.25083H236.49ZM273.075 21.2634L295.59 2.50128L295.277 63.1654L272.762 85.3673L273.075 21.2634Z" fill="#3E3B3B"/>
</svg>
