<svg width="375" height="196" viewBox="0 0 375 196" fill="none" xmlns="http://www.w3.org/2000/svg">
<path d="M118.071 41.135C118.071 41.135 118.071 45.0906 118.071 48.052C118.071 52.3392 112.789 55 108.102 55C103.414 55 98.0001 52.0032 98.0001 48.052C98.0001 44.7508 98.0001 41.135 98.0001 41.135C98.0001 41.135 97.9999 37.3209 98.0001 31.9985C98.0001 31.3383 99.3206 25 108.102 25C116.883 25 118.071 31.9985 118.071 31.9985C118.071 36.4882 118.071 41.135 118.071 41.135Z" fill="white"/>
<path d="M98.0001 41.135L99.0001 41.135V41.1349L98.0001 41.135ZM98.0001 41.135L99.0001 41.1349V41.1348L99.0001 41.1342L99.0001 41.1321L99.0001 41.1238L99.0001 41.0908L99.0001 40.9607L99.0001 40.4558L99 38.5626L99.0001 31.9986C99.0001 31.9988 99.0002 31.9979 99.0005 31.9957C99.0051 31.9587 99.0526 31.5763 99.2785 30.9816C99.5058 30.3833 99.8909 29.6339 100.518 28.9022C101.743 27.4708 103.984 26 108.102 26C112.181 26 114.388 27.6057 115.598 29.1226C116.216 29.8987 116.593 30.6768 116.813 31.2594C116.923 31.5497 116.993 31.7882 117.035 31.949C117.051 32.0112 117.063 32.0616 117.071 32.0985V32.1038V32.1301V32.1564V32.1828V32.2091V32.2354V32.2618V32.2881V32.3144V32.3408V32.3671V32.3934V32.4198V32.4461V32.4724V32.4988V32.5251V32.5514V32.5778V32.6041V32.6304V32.6568V32.6831V32.7094V32.7358V32.7621V32.7884V32.8147V32.841V32.8673V32.8936V32.9199V32.9462V32.9725V32.9988V33.0251V33.0514V33.0777V33.1039V33.1302V33.1565V33.1827V33.209V33.2352V33.2614V33.2877V33.3139V33.3401V33.3663V33.3925V33.4187V33.4449V33.4711V33.4972V33.5234V33.5495V33.5757V33.6018V33.6279V33.654V33.6801V33.7062V33.7323V33.7584V33.7844V33.8105V33.8365V33.8626V33.8886V33.9146V33.9406V33.9665V33.9925V34.0185V34.0444V34.0703V34.0962V34.1221V34.148V34.1739V34.1998V34.2256V34.2514V34.2772V34.303V34.3288V34.3546V34.3804V34.4061V34.4318V34.4575V34.4832V34.5089V34.5345V34.5602V34.5858V34.6114V34.637V34.6625V34.6881V34.7136V34.7391V34.7646V34.7901V34.8155V34.841V34.8664V34.8918V34.9171V34.9425V34.9678V34.9931V35.0184V35.0437V35.0689V35.0942V35.1194V35.1445V35.1697V35.1948V35.22V35.245V35.2701V35.2952V35.3202V35.3452V35.3701V35.3951V35.42V35.4449V35.4698V35.4946V35.5195V35.5442V35.569V35.5938V35.6185V35.6432V35.6678V35.6925V35.7171V35.7417V35.7662V35.7908V35.8153V35.8397V35.8642V35.8886V35.913V35.9373V35.9617V35.986V36.0102V36.0345V36.0587V36.0829V36.107V36.1311V36.1552V36.1793V36.2033V36.2273V36.2513V36.2752V36.2991V36.3229V36.3468V36.3706V36.3943V36.4181V36.4418V36.4654V36.4891V36.5127V36.5362V36.5597V36.5832V36.6067V36.6301V36.6535V36.6769V36.7002V36.7234V36.7467V36.7699V36.7931V36.8162V36.8393V36.8624V36.8854V36.9084V36.9313V36.9542V36.9771V36.9999V37.0227V37.0454V37.0682V37.0908V37.1135V37.136V37.1586V37.1811V37.2036V37.226V37.2484V37.2707V37.2931V37.3153V37.3375V37.3597V37.3819V37.404V37.426V37.448V37.47V37.4919V37.5138V37.5356V37.5574V37.5792V37.6009V37.6225V37.6441V37.6657V37.6872V37.7087V37.7301V37.7515V37.7728V37.7941V37.8154V37.8366V37.8577V37.8788V37.8999V37.9209V37.9419V37.9628V37.9836V38.0045V38.0252V38.0459V38.0666V38.0872V38.1078V38.1283V38.1488V38.1692V38.1896V38.2099V38.2302V38.2504V38.2705V38.2907V38.3107V38.3307V38.3507V38.3706V38.3904V38.4102V38.43V38.4497V38.4693V38.4889V38.5084V38.5279V38.5473V38.5667V38.586V38.6053V38.6245V38.6436V38.6627V38.6818V38.7007V38.7197V38.7385V38.7573V38.7761V38.7948V38.8134V38.832V38.8505V38.869V38.8874V38.9057V38.924V38.9423V38.9604V38.9786V38.9966V39.0146V39.0325V39.0504V39.0682V39.086V39.1037V39.1213V39.1389V39.1564V39.1738V39.1912V39.2085V39.2258V39.243V39.2601V39.2772V39.2942V39.3111V39.328V39.3448V39.3616V39.3783V39.3949V39.4115V39.428V39.4444V39.4607V39.477V39.4933V39.5094V39.5255V39.5416V39.5575V39.5734V39.5893V39.6051V39.6207V39.6364V39.6519V39.6674V39.6829V39.6982V39.7135V39.7287V39.7439V39.759V39.774V39.7889V39.8038V39.8186V39.8333V39.848V39.8626V39.8771V39.8915V39.9059V39.9202V39.9345V39.9486V39.9627V39.9767V39.9907V40.0045V40.0183V40.0321V40.0457V40.0593V40.0728V40.0862V40.0996V40.1128V40.126V40.1392V40.1522V40.1652V40.1781V40.1909V40.2037V40.2163V40.2289V40.2414V40.2539V40.2662V40.2785V40.2907V40.3029V40.3149V40.3269V40.3388V40.3506V40.3623V40.374V40.3856V40.3971V40.4085V40.4198V40.4311V40.4422V40.4533V40.4644V40.4753V40.4861V40.4969V40.5076V40.5182V40.5287V40.5392V40.5495V40.5598V40.57V40.5801V40.5901V40.6001V40.6099V40.6197V40.6294V40.639V40.6485V40.658V40.6673V40.6766V40.6857V40.6948V40.7038V40.7128V40.7216V40.7303V40.739V40.7476V40.7561V40.7645V40.7728V40.781V40.7891V40.7972V40.8051V40.813V40.8208V40.8284V40.836V40.8435V40.851V40.8583V40.8655V40.8727V40.8797V40.8867V40.8936V40.9004V40.907V40.9136V40.9201V40.9266V40.9329V40.9391V40.9452V40.9513V40.9572V40.9631V40.9688V40.9745V40.9801V40.9856V40.9909V40.9962V41.0014V41.0065V41.0115V41.0164V41.0212V41.026V41.0306V41.0351V41.0395V41.0438V41.0481V41.0522V41.0562V41.0602V41.064V41.0677V41.0714V41.0749V41.0784V41.0817V41.085V41.0881V41.0911V41.0941V41.0969V41.0997V41.1023V41.1049V41.1073V41.1096V41.1119V41.114V41.116V41.118V41.1198V41.1215V41.1232V41.1247V41.1261V41.1274V41.1286V41.1297V41.1307V41.1316V41.1324V41.1331V41.1337V41.1341V41.1345V41.1348V41.1349L118.071 41.135L117.071 41.135V41.1352V41.1354V41.1357V41.1361V41.1366V41.1372V41.1379V41.1386V41.1395V41.1404V41.1415V41.1426V41.1438V41.1451V41.1464V41.1479V41.1495V41.1511V41.1528V41.1546V41.1565V41.1585V41.1606V41.1627V41.165V41.1673V41.1697V41.1722V41.1747V41.1774V41.1801V41.183V41.1859V41.1889V41.1919V41.1951V41.1983V41.2017V41.2051V41.2086V41.2121V41.2158V41.2195V41.2233V41.2272V41.2312V41.2352V41.2393V41.2436V41.2478V41.2522V41.2567V41.2612V41.2658V41.2705V41.2752V41.2801V41.285V41.29V41.2951V41.3002V41.3054V41.3107V41.3161V41.3216V41.3271V41.3327V41.3384V41.3442V41.35V41.3559V41.3619V41.3679V41.3741V41.3803V41.3866V41.3929V41.3993V41.4058V41.4124V41.419V41.4258V41.4326V41.4394V41.4463V41.4533V41.4604V41.4676V41.4748V41.4821V41.4894V41.4969V41.5044V41.5119V41.5196V41.5273V41.535V41.5429V41.5508V41.5588V41.5668V41.5749V41.5831V41.5914V41.5997V41.6081V41.6165V41.6251V41.6337V41.6423V41.651V41.6598V41.6687V41.6776V41.6866V41.6956V41.7047V41.7139V41.7231V41.7324V41.7418V41.7512V41.7607V41.7703V41.7799V41.7896V41.7993V41.8091V41.819V41.8289V41.8389V41.849V41.8591V41.8693V41.8795V41.8898V41.9002V41.9106V41.9211V41.9316V41.9422V41.9528V41.9636V41.9743V41.9852V41.996V42.007V42.018V42.0291V42.0402V42.0514V42.0626V42.0739V42.0852V42.0966V42.1081V42.1196V42.1312V42.1428V42.1545V42.1662V42.178V42.1899V42.2018V42.2137V42.2257V42.2378V42.2499V42.2621V42.2743V42.2866V42.2989V42.3113V42.3237V42.3362V42.3487V42.3613V42.3739V42.3866V42.3993V42.4121V42.425V42.4379V42.4508V42.4638V42.4768V42.4899V42.503V42.5162V42.5295V42.5427V42.5561V42.5694V42.5829V42.5963V42.6099V42.6234V42.637V42.6507V42.6644V42.6781V42.6919V42.7058V42.7197V42.7336V42.7476V42.7616V42.7757V42.7898V42.8039V42.8181V42.8324V42.8467V42.861V42.8754V42.8898V42.9042V42.9187V42.9333V42.9479V42.9625V42.9772V42.9919V43.0066V43.0214V43.0362V43.0511V43.066V43.081V43.096V43.111V43.1261V43.1412V43.1563V43.1715V43.1867V43.202V43.2173V43.2326V43.248V43.2634V43.2789V43.2943V43.3099V43.3254V43.341V43.3567V43.3723V43.388V43.4038V43.4195V43.4353V43.4512V43.4671V43.483V43.4989V43.5149V43.5309V43.5469V43.563V43.5791V43.5953V43.6114V43.6276V43.6439V43.6602V43.6765V43.6928V43.7092V43.7255V43.742V43.7584V43.7749V43.7914V43.808V43.8246V43.8412V43.8578V43.8744V43.8911V43.9079V43.9246V43.9414V43.9582V43.975V43.9919V44.0088V44.0257V44.0426V44.0596V44.0766V44.0936V44.1106V44.1277V44.1448V44.1619V44.179V44.1962V44.2134V44.2306V44.2479V44.2651V44.2824V44.2997V44.317V44.3344V44.3518V44.3692V44.3866V44.404V44.4215V44.439V44.4565V44.474V44.4916V44.5092V44.5268V44.5444V44.562V44.5797V44.5973V44.615V44.6327V44.6505V44.6682V44.686V44.7038V44.7216V44.7394V44.7572V44.7751V44.7929V44.8108V44.8287V44.8467V44.8646V44.8825V44.9005V44.9185V44.9365V44.9545V44.9725V44.9906V45.0087V45.0267V45.0448V45.0629V45.081V45.0992V45.1173V45.1355V45.1536V45.1718V45.19V45.2082V45.2264V45.2446V45.2629V45.2811V45.2994V45.3177V45.3359V45.3542V45.3725V45.3908V45.4092V45.4275V45.4458V45.4642V45.4825V45.5009V45.5193V45.5377V45.556V45.5744V45.5928V45.6113V45.6297V45.6481V45.6665V45.685V45.7034V45.7219V45.7403V45.7588V45.7772V45.7957V45.8142V45.8327V45.8511V45.8696V45.8881V45.9066V45.9251V45.9436V45.9621V45.9806V45.9991V46.0177V46.0362V46.0547V46.0732V46.0917V46.1102V46.1288V46.1473V46.1658V46.1843V46.2028V46.2214V46.2399V46.2584V46.2769V46.2954V46.314V46.3325V46.351V46.3695V46.388V46.4065V46.425V46.4435V46.462V46.4805V46.499V46.5175V46.536V46.5545V46.573V46.5914V46.6099V46.6283V46.6468V46.6653V46.6837V46.7021V46.7206V46.739V46.7574V46.7758V46.7942V46.8126V46.831V46.8494V46.8678V46.8862V46.9045V46.9229V46.9412V46.9595V46.9779V46.9962V47.0145V47.0328V47.0511V47.0693V47.0876V47.1059V47.1241V47.1423V47.1605V47.1788V47.197V47.2151V47.2333V47.2515V47.2696V47.2877V47.3059V47.324V47.3421V47.3601V47.3782V47.3963V47.4143V47.4323V47.4503V47.4683V47.4863V47.5042V47.5222V47.5401V47.558V47.5759V47.5938V47.6116V47.6295V47.6473V47.6651V47.6829V47.7007V47.7184V47.7362V47.7539V47.7716V47.7893V47.8069V47.8246V47.8422V47.8598V47.8774V47.8949V47.9125V47.93V47.9475V47.9649V47.9824V47.9998V48.0172V48.0346V48.052C117.071 49.7342 116.043 51.1964 114.311 52.2876C112.58 53.3784 110.276 54 108.102 54C105.95 54 103.612 53.3062 101.833 52.1658C100.031 51.011 99.0001 49.5411 99.0001 48.052L99.0001 43.3555L99.0001 41.7515L99.0001 41.2968L99.0001 41.1764V41.1455L99.0001 41.1376V41.1357V41.1352V41.135L98.0001 41.135Z" stroke="#FF8900" stroke-opacity="0.8" stroke-width="2"/>
<path d="M110.357 46.7946L105.955 45.7886" stroke="#FF9010" stroke-linecap="round"/>
<path d="M104.824 41.617L105.149 41.2374L105.147 41.2362L104.824 41.617ZM111.525 41.617L111.201 41.2362L111.199 41.2374L111.525 41.617ZM110.245 45.8986C110.515 45.9601 110.783 45.7918 110.844 45.5226C110.906 45.2534 110.738 44.9853 110.468 44.9237L110.245 45.8986ZM109.742 48.4874C110.012 48.549 110.28 48.3806 110.341 48.1114C110.403 47.8422 110.234 47.5741 109.965 47.5126L109.742 48.4874ZM106.381 46.6933C106.112 46.6318 105.844 46.8002 105.782 47.0694C105.721 47.3386 105.889 47.6067 106.158 47.6682L106.381 46.6933ZM107.897 42.8504C107.629 42.785 107.359 42.9494 107.293 43.2177C107.228 43.4859 107.392 43.7565 107.66 43.8219L107.897 42.8504ZM109.857 43.3991C109.857 43.6752 110.081 43.899 110.357 43.899C110.633 43.899 110.857 43.6751 110.857 43.399L109.857 43.3991ZM105.455 43.399C105.455 43.6751 105.679 43.899 105.955 43.899C106.231 43.899 106.455 43.6752 106.455 43.3991L105.455 43.399ZM106.997 44.6433L106.886 45.1307L106.997 44.6433ZM103.5 37.6742C103.5 35.0927 105.593 33 108.174 33V32C105.04 32 102.5 34.5404 102.5 37.6742H103.5ZM108.174 33C110.756 33 112.848 35.0927 112.848 37.6742H113.848C113.848 34.5404 111.308 32 108.174 32V33ZM105.147 41.2362C104.139 40.378 103.5 39.1009 103.5 37.6742H102.5C102.5 39.4065 103.277 40.9579 104.5 41.9979L105.147 41.2362ZM112.848 37.6742C112.848 39.1009 112.21 40.378 111.201 41.2362L111.849 41.9979C113.071 40.9579 113.848 39.4065 113.848 37.6742H112.848ZM110.468 44.9237L107.109 44.1559L106.886 45.1307L110.245 45.8986L110.468 44.9237ZM109.965 47.5126L106.381 46.6933L106.158 47.6682L109.742 48.4874L109.965 47.5126ZM109.864 43.3302L107.897 42.8504L107.66 43.8219L109.628 44.3017L109.864 43.3302ZM110.857 43.399C110.857 43.1405 110.906 42.9855 111.023 42.8148C111.162 42.6118 111.404 42.3787 111.85 41.9967L111.199 41.2374C110.765 41.6099 110.423 41.922 110.199 42.2484C109.952 42.6071 109.857 42.9659 109.857 43.3991L110.857 43.399ZM106.455 43.3991C106.455 42.9778 106.375 42.6206 106.138 42.2582C105.922 41.9266 105.587 41.6127 105.149 41.2374L104.498 41.9967C104.941 42.3759 105.172 42.6071 105.301 42.805C105.41 42.972 105.455 43.1286 105.455 43.399L106.455 43.3991ZM109.628 44.3017C110.253 44.4544 110.857 43.9804 110.857 43.3361H109.857C109.857 43.337 109.857 43.3367 109.857 43.3358C109.857 43.3349 109.858 43.334 109.858 43.3331C109.858 43.3323 109.859 43.3319 109.859 43.3316C109.859 43.3314 109.859 43.3313 109.859 43.3313C109.859 43.3313 109.859 43.3312 109.86 43.3311C109.86 43.331 109.86 43.3307 109.861 43.3306C109.862 43.3303 109.863 43.3302 109.864 43.3302C109.865 43.3302 109.865 43.3304 109.864 43.3302L109.628 44.3017ZM107.109 44.1559C106.726 44.0685 106.455 43.7283 106.455 43.3361H105.455C105.455 44.1948 106.049 44.9394 106.886 45.1307L107.109 44.1559Z" fill="#FF9010"/>
<path d="M109.277 37.7048L108.515 40.6011C108.465 40.7888 108.295 40.9196 108.101 40.9196V40.9196C107.905 40.9196 107.733 40.785 107.686 40.5938L106.98 37.7048" stroke="#FF9010" stroke-linecap="round"/>
<path fill-rule="evenodd" clip-rule="evenodd" d="M209.743 184.993C208.196 182.524 207.127 179.765 205.048 177.61C204.237 176.77 203.622 175.701 203.217 174.557C202.887 173.621 202.38 173.18 201.239 173.487C198.767 174.154 196.897 172.941 195.383 171.166C193.752 169.25 192.784 167.037 192.944 164.441C192.987 163.751 192.637 163.205 192.293 162.636C190.917 160.37 189.724 158.055 190.77 155.283C191.159 154.256 190.25 154.305 189.779 154.26C186.69 153.959 183.933 152.693 181.203 151.366C180.281 150.918 179.255 150.509 178.552 149.803C175.001 146.226 170.551 143.555 167.756 139.226C167.04 138.118 166.052 138.151 165.278 138.716C163.636 139.906 161.949 139.315 160.279 139.138C157.836 138.88 155.649 137.624 153.272 137.173C150.506 136.647 148.548 134.381 145.778 133.94C145.533 133.9 145.327 133.502 145.138 133.243C144.667 132.599 144.095 132.236 143.33 132.704C142.257 133.361 141.78 132.786 141.329 131.886C140.573 130.382 139.279 129.084 138.948 127.433C137.644 120.907 117.697 118.691 116.415 118.279C114.352 117.612 112.969 115.967 112.155 114.019C111.534 112.528 110.523 111.838 109.039 111.531C106.456 110.994 104.563 109.432 103.036 107.349C102.549 106.685 102.425 106.133 103.138 105.528C103.53 105.194 103.909 104.861 103.89 104.181C103.864 103.265 104.21 102.507 105.364 102.409C105.825 102.369 106.424 101.941 106.286 101.451C106.11 100.82 105.387 100.905 104.893 101.094C103.971 101.447 103.125 101.922 102.915 103.056C102.798 103.687 102.615 104.57 101.912 104.544C101.143 104.518 101.241 103.55 101.098 102.968C100.623 101.081 100.064 99.1948 100.699 97.2069C101.032 96.164 100.094 95.788 99.4628 95.3335C93.9276 91.3611 92.3582 85.5087 93.084 79.3392C93.8 73.2612 95.8271 67.3728 100.025 62.5602C100.937 61.5172 101.532 60.3369 101.778 58.9408C102.124 56.9399 103.929 55.861 104.952 54.2753C105.4 53.5821 105.773 54.2458 105.845 54.7624C106.064 56.3122 105.789 57.8848 106.07 59.4476C106.155 59.925 105.662 60.3108 105.142 60.4317C101.987 61.1674 100.372 62.946 99.7374 66.5293C100.758 66.0258 101.111 65.1954 101.47 64.2963C102.023 62.91 102.461 61.2851 104.58 61.7036C104.805 61.7493 105.22 61.6185 105.312 61.4453C106.152 59.8955 107.928 58.8754 107.431 56.5737C107.051 54.818 107.202 52.889 108.771 51.4733C109.497 50.8194 110.461 50.8979 111.292 50.5546C113.316 49.7209 115.068 48.9722 115.379 46.3304C115.608 44.3949 116.948 42.8125 118.246 41.3052C120.087 39.1735 121.728 36.8685 123.605 34.7728C125.946 32.1539 128.869 30.4472 132.387 29.862C133.089 29.7443 133.691 29.3683 134.394 28.4005C131.997 28.94 129.974 29.3323 128.133 30.5355C124.484 32.919 121.643 36.0446 119.04 39.5135C117.324 41.8022 115.189 43.7737 114.009 46.4579C113.907 46.6901 113.679 46.9843 113.463 47.0301C111.524 47.4453 109.961 48.6256 108.297 49.6849C107.878 48.8054 108.464 48.3771 108.778 47.9586C111.092 44.8788 113.381 41.7989 116.023 38.9512C119.502 35.2011 122.941 31.4444 127.038 28.358C130.732 25.5724 134.855 23.4963 138.903 21.2861C140.756 20.2726 142.45 18.955 144.327 17.997C148.669 15.7836 152.507 12.6351 157.186 11.0526C157.902 10.8107 158.624 10.6276 159.409 10.6014C164.62 10.4249 169.829 10.1633 175.04 10.0162C178.349 9.92139 181.648 10.2614 184.944 10.5491C186.134 10.6538 187.321 10.6276 188.52 10.4805C192.068 10.0456 195.576 10.1404 198.836 11.8602C200.003 12.4781 201.007 12.537 202.363 12.1054C205.587 11.0821 211.95 12.0008 214.634 16.0451C215.128 16.7939 215.592 17.0652 216.488 16.8723C217.877 16.5715 219.178 17.0423 220.421 17.6276C221.281 18.033 222.163 18.2292 223.112 18.1147C227.293 17.608 231.145 18.3796 234.659 20.8448C236.742 22.3062 238.913 23.5225 241.692 23.4571C243.536 23.4146 245.266 24.3791 246.626 25.7196C247.626 26.7069 248.797 27.2497 250.108 27.7205C253.05 28.7798 256.245 29.2637 258.788 31.294C263.12 34.7499 266.54 38.8858 268.309 44.2183C268.512 44.8265 268.639 45.5065 269.316 45.5065C270.464 45.5065 271.029 46.3239 271.762 46.9287C272.013 47.1347 272.245 47.3734 272.445 47.6284C273.19 48.5766 274.25 48.8479 275.361 49.0179C275.26 47.9259 274.586 47.1674 273.923 46.3598C273.426 45.755 272.229 45.0553 272.873 44.3164C273.579 43.5056 274.263 44.7741 274.822 45.1796C276.394 46.3173 277.424 47.9259 277.987 49.8059C278.242 50.6592 278.592 51.4276 279.497 51.8068C282.417 53.0296 284.081 55.3738 285.039 58.2608C285.507 59.6699 286.131 60.8862 287.122 62.0469C288.887 64.1164 289.616 66.7157 289.956 69.3934C290.522 73.8366 290.365 78.2537 289.796 82.7068C289.325 86.3947 288.711 90.0664 288.858 93.859C289.09 99.8977 287.857 105.717 284.843 111.05C284.408 111.818 284.195 112.613 284.601 113.378C286.693 117.34 286.471 121.8 287.383 126.014C288.361 130.52 288.171 134.845 285.994 138.988C285.641 139.658 285.441 140.433 284.849 140.943C283.613 142.012 282.953 143.421 282.332 144.886C281.044 147.93 278.49 148.469 276.162 146.092C274.397 144.288 272.854 142.293 270.67 140.9C269.875 140.394 269.509 139.92 268.796 140.943C267.541 142.748 265.867 143.509 263.722 142.48C262.79 142.032 262.512 142.702 262.071 143.281C259.383 146.785 258.671 150.974 257.925 155.146C257.248 158.932 256.65 162.731 255.963 166.514C255.627 168.374 254.79 169.799 252.57 169.77C251.87 169.76 251.566 170.329 251.265 170.859C249.48 174.007 247.401 175.047 244.066 172.801C243.713 172.562 243.33 172.216 242.892 172.582C242.405 172.987 242.124 173.559 242.317 174.177C242.532 174.874 242.562 175.564 242.559 176.27C242.539 179.137 240.63 180.425 237.998 179.265C236.366 178.545 234.999 177.329 233.267 176.757C232.4 176.469 231.609 176.008 230.674 175.841C228.313 175.423 226.561 173.975 225.538 171.921C224.553 169.943 223.02 168.384 221.954 166.497C221.614 165.896 221.255 165.909 220.833 166.399C220.728 166.523 220.614 166.644 220.483 166.742C218.704 168.096 217.704 169.544 219.126 171.866C219.891 173.115 219.855 174.658 219.45 176.152C219.208 177.038 219.244 177.98 219.577 178.885C220.369 181.027 220.006 183.051 218.907 184.989C215.847 184.993 212.793 184.993 209.743 184.993ZM245.112 127.692C242.836 130.288 242.487 134.907 237.514 133.233C237.837 133.927 238.083 134.394 238.276 134.885C238.861 136.349 239.502 137.847 239.207 139.445C238.746 141.95 239.22 144.268 240.191 146.557C240.594 147.501 241.234 148.525 241.153 149.46C240.907 152.265 242.608 153.197 244.801 153.834C245.109 153.923 245.481 154.178 245.694 153.828C246.4 152.677 247.767 151.987 248.071 150.581C248.506 148.574 248.803 146.534 249.251 144.53C249.431 143.728 249.205 143.287 248.516 142.973C244.546 141.168 242.153 135.238 244.488 130.814C244.89 130.046 245.334 129.169 245.112 127.692ZM247.397 93.9048C244.824 95.2224 242.545 96.2653 240.126 96.8081C235.539 97.8379 230.932 98.773 226.286 99.5348C222.827 100.1 219.512 101.398 216.112 102.229C210.459 103.605 205.028 105.554 199.607 107.591C199.182 107.751 198.659 107.767 198.636 108.415C199.104 108.699 199.476 108.457 199.794 108.343C204.381 106.715 208.968 105.113 213.689 103.887C218.348 102.677 222.981 101.408 227.709 100.444C232.413 99.4858 237.262 99.0869 241.777 97.2789C243.722 96.4975 245.838 96.0038 247.397 93.9048ZM209.164 18.373C208.242 17.5981 207.336 17.366 206.525 16.9508C202.89 15.1003 198.953 14.5379 194.974 14.5902C191.309 14.6393 187.644 15.0708 183.992 15.4501C182.145 15.643 180.327 16.1007 178.496 16.4375C179.804 16.8887 180.997 16.3884 182.253 16.4767C185.548 16.7056 188.808 16.0909 192.084 15.8915C195.403 15.6888 198.643 16.1955 201.866 16.9181C204.204 17.4445 206.405 18.6542 209.164 18.373ZM175.547 15.2997C171.401 16.1825 167.622 18.0395 163.816 19.8116C160.2 21.4954 157.065 23.9867 153.373 25.6509C148.999 27.6257 145.095 30.6107 141.796 34.2268C140.979 35.1226 140.465 36.1427 140.495 37.4603C141.335 37.1432 141.724 36.571 142.015 35.819C142.444 34.7139 142.731 33.4257 143.696 32.7032C146.975 30.2413 150.117 27.5505 154.067 26.1086C155.018 25.7621 156.12 25.7326 156.904 24.9578C159.961 21.9433 163.983 20.6061 167.723 18.7948C170.286 17.5491 173.151 16.9802 175.547 15.2997ZM140.07 24.9022C140.91 24.4216 141.436 23.9311 141.672 23.2609C142.296 21.4692 143.755 20.6976 145.376 20.1222C148.025 19.1839 150.699 18.3174 153.341 17.3595C155.757 16.4833 158.166 16.0059 160.579 17.2581C161.397 17.6799 162.263 17.2222 163.097 17.5916C163.447 17.7453 164.11 17.3889 164.143 16.8037C164.176 16.2184 163.561 16.2446 163.192 16.1301C162.584 15.9471 161.89 16.225 161.308 15.7836C160.01 14.8027 158.405 14.7602 157.091 15.2441C152.726 16.8625 148.149 17.8891 143.934 19.9293C141.891 20.9199 140.766 22.5939 140.07 24.9022ZM121.486 62.4228C118.148 62.7138 115.863 64.4009 114.156 66.6405C111.795 69.7334 109.709 73.0487 107.637 76.3509C105.92 79.0874 104.71 82.0398 104.913 85.3845C104.933 85.6885 104.812 86.1168 105.233 86.1953C105.587 86.2607 105.864 85.9207 105.976 85.6493C106.149 85.2177 106.257 84.7306 106.263 84.263C106.309 80.902 107.538 77.9791 109.271 75.1444C110.965 72.3719 112.94 69.789 114.584 66.9936C115.657 65.1692 117.219 64.1687 119.282 63.9072C120.129 63.8026 120.839 63.5149 121.486 62.4228ZM138.602 37.918C131.327 40.7232 126.848 45.9021 123.628 52.6928C125.351 51.9997 125.7 50.4434 126.377 49.2435C128.891 44.7872 131.863 40.926 137.17 39.5985C137.762 39.4514 138.255 38.9185 138.602 37.918ZM137.232 60.1048C132.828 61.6709 128.028 68.2948 129.101 71.1622C130.837 69.3705 130.582 66.8367 131.795 64.9403C133.076 62.9296 135.143 61.8376 137.232 60.1048ZM103.063 94.5488C103.998 94.2448 103.913 93.5222 104.05 92.8291C104.334 91.3742 103.994 89.4256 106.437 89.4354C106.708 89.4354 107.006 89.1378 107.238 88.9221C107.375 88.7945 107.499 88.5428 107.473 88.3728C107.424 88.0458 107.091 87.9837 106.832 88.0393C106.42 88.1308 106.008 88.2747 105.629 88.4578C103.072 89.7002 102.546 91.8515 103.063 94.5488ZM251.805 33.1315C255.921 31.9577 258.219 34.9624 261.374 37.0549C257.827 32.6313 253.874 31.0129 251.805 33.1315Z" fill="#E7E7E7"/>
<path fill-rule="evenodd" clip-rule="evenodd" d="M164.999 138.435C165.14 141.835 164.126 142.918 161.014 142.934C157.022 142.954 153.671 141.227 150.633 138.89C149.172 137.765 147.324 137.212 146.118 135.754C145.804 135.375 145.052 135.064 145.503 134.453C145.863 133.962 146.468 134.355 146.828 134.607C149.672 136.594 153.102 137.029 156.263 138.147C159.068 139.138 162.004 140.027 164.999 138.435Z" fill="#E7E7E7"/>
<path fill-rule="evenodd" clip-rule="evenodd" d="M218.897 184.993C218.076 181.187 217.148 177.401 216.474 173.569C216.111 171.503 216.477 169.43 217.929 167.733C219.358 166.059 220.95 165.83 222.63 167.239C223.788 168.21 224.805 169.374 225.789 170.532C227.701 172.784 230.039 174.066 232.988 174.615C237.206 175.397 241.335 176.603 245.716 176.165C249.457 175.792 252.991 175.086 255.966 172.506C259.121 169.77 262.571 167.354 265.601 164.49C268.583 161.671 269.969 157.771 271.375 154.004C272.091 152.085 271.395 150.464 269.623 149.365C268.341 148.57 266.847 148.116 265.572 147.315C263.865 146.246 262.276 144.99 260.635 143.817C260.727 143.676 260.818 143.535 260.91 143.395C260.046 143.444 259.183 143.483 258.32 143.539C256.715 143.643 255.309 143.908 253.831 144.932C252.174 146.079 249.921 146.913 247.93 146.91C244.86 146.903 241.911 147.358 238.906 147.773C236.836 148.057 234.688 147.698 232.586 147.812C230.771 147.913 228.924 148.103 227.175 148.57C223.866 149.453 220.495 150.094 217.203 149.166C215.212 148.603 213.829 149.3 212.155 149.898C207.153 151.69 202.114 153.403 197.024 154.926C195.402 155.41 193.571 155.286 191.838 155.276C190.727 155.27 190.282 155.701 190.495 156.705C190.717 157.751 190.923 158.866 191.446 159.772C194.284 164.676 197.485 169.286 201.418 173.445C204.38 176.577 206.273 180.5 206.482 184.999C206.048 184.999 205.61 184.999 205.175 184.999C204.773 181.661 203.239 178.843 201.313 176.145C197.678 171.055 194.107 165.918 190.586 160.749C189.54 159.216 188.664 157.529 189.579 155.286C180.627 153.926 174.059 149.28 169.933 141.168C166.15 143.428 162.07 144.108 158.094 142.734C153.128 141.018 148.246 138.922 143.587 136.493C139.33 134.273 136.989 130.356 136.11 125.583C135.996 124.955 135.26 124.072 134.681 123.958C131.752 123.379 128.783 122.977 125.821 122.585C121.453 122.003 117.288 120.878 113.642 118.285C111.785 116.964 110.35 115.32 109.666 113.077C109.545 112.681 109.156 112.276 108.784 112.067C104.442 109.641 101.146 106.168 98.5664 101.97C97.1998 99.7472 95.8429 97.5174 94.5188 95.268C91.6613 90.4063 89.7061 85.2699 90.0363 79.5124C90.2227 76.2298 92.0046 73.6338 94.133 71.355C96.3889 68.9356 98.3114 66.4507 99.3184 63.2009C100.123 60.6016 102.408 59.3167 104.631 59.5783C104.602 59.6796 104.586 59.8562 104.533 59.8693C101.571 60.5493 100.306 62.7137 99.3282 65.3653C98.7462 66.9477 97.6346 68.3667 96.6145 69.7497C95.4898 71.2798 94.1265 72.6366 92.9952 74.1635C90.7 77.2662 90.2194 80.7449 91.3082 84.397C92.0209 86.787 92.6683 89.2587 93.8224 91.4427C95.9803 95.523 98.4814 99.4235 100.852 103.393C101.041 103.707 101.316 103.971 101.643 104.37C102.264 102.222 102.529 100.355 101.95 98.1713C100.996 94.5716 101.13 90.8902 103.268 87.5455C103.549 87.1041 103.539 86.3914 103.477 85.8257C102.98 81.3792 104.707 77.6651 107.126 74.1144C108.748 71.7342 110.189 69.2363 111.729 66.8006C112.341 65.8361 112.923 64.8389 113.652 63.9659C114.94 62.4227 116.46 61.2163 118.841 61.3536C116.797 57.816 118.288 54.8866 120.217 52.0846C123.581 47.2033 127.655 42.9889 132.445 39.4775C134.214 38.1827 136.041 37.0482 138.474 37.1496C138.166 32.4677 141.05 30.0156 144.64 28.165C146.952 26.9749 149.469 26.1804 151.741 24.9282C155.815 22.6788 159.673 20.0305 163.809 17.9119C166.925 16.3164 170.24 14.8647 173.634 14.1324C176.514 13.5079 179.637 14.0049 182.651 14.0049C182.658 14.2207 182.664 14.4332 182.671 14.649C181.978 14.649 181.285 14.662 180.591 14.6457C179.882 14.6293 179.172 14.613 178.469 14.5443C175.923 14.2926 173.506 14.6915 171.159 15.7475C167.749 17.2842 164.267 18.6704 160.87 20.2365C159.549 20.8446 158.163 21.5607 157.179 22.5873C155.55 24.2809 153.392 24.8073 151.441 25.8012C148.351 27.3738 145.209 28.868 142.234 30.64C140.099 31.9086 139 34.0272 139.167 36.5742C139.249 37.8166 138.513 38.0748 137.643 38.4868C135.705 39.4088 133.645 40.2066 131.941 41.4686C127.881 44.4732 124.601 48.2757 121.855 52.5096C121.064 53.7324 120.377 55.0468 119.831 56.3971C119.2 57.9533 119.22 59.4802 120.73 60.6605C121.034 60.8959 121.198 61.3111 121.42 61.6315C121.214 61.8048 121.136 61.9258 121.051 61.9323C116.738 62.1416 114.162 64.5773 112.38 68.3307C111.383 70.4264 109.964 72.3293 108.627 74.2452C106.511 77.2826 104.857 80.4965 104.69 84.2629C104.644 85.2993 105.06 86.3587 105.311 87.6436C102.532 88.3334 103.124 91.155 102.689 93.4338C102.487 94.4931 102.526 95.6048 102.496 96.6935C102.444 98.7762 103.346 99.9009 104.962 100.228C104.419 100.918 103.562 101.647 103.183 102.569C102.539 104.138 102.784 105.76 104.157 106.891C105.946 108.362 107.803 109.765 109.728 111.05C110.892 111.828 112.197 112.469 113.524 112.917C114.819 113.352 116.231 113.711 117.578 113.665C120.979 113.548 122.329 112.018 122.437 108.617C122.463 107.803 122.496 106.979 122.649 106.182C123.088 103.929 124.565 102.958 126.704 103.831C128.907 104.727 131.019 105.887 133.069 107.104C136.702 109.265 138.814 110.197 140.743 110.344C139.219 108.778 137.375 107.11 135.806 105.211C133.426 102.33 133.334 98.8677 134.044 95.4217C134.59 92.7701 135.25 90.0924 136.29 87.6043C138.16 83.1349 137.094 79.4339 133.965 76.0761C132.582 74.595 131.059 73.1401 130.915 71.0084C130.833 69.7823 130.931 68.2915 131.565 67.3237C132.801 65.4437 134.475 63.8482 135.966 62.135C136.071 62.22 136.175 62.305 136.28 62.39C135.293 63.6357 134.344 64.9174 133.308 66.1205C130.974 68.8244 130.947 71.0771 133.337 73.7777C134.24 74.7977 135.273 75.7067 136.113 76.7725C138.428 79.7118 139.102 82.893 137.823 86.5646C136.738 89.6837 135.989 92.9238 135.198 96.1344C133.642 102.448 137.627 107.679 142.852 109.438C150.293 111.946 157.901 114.054 165.879 114.408C172.143 114.686 177.426 112.302 183.004 108.928C181.86 108.464 181.098 108.048 180.281 107.842C176.697 106.934 173.052 106.24 169.518 105.175C164.947 103.795 163.198 98.5898 165.97 94.9313C165.058 96.9387 165.087 98.9462 165.99 100.911C166.801 102.673 168.023 103.906 170.07 104.289C175.141 105.24 180.209 106.224 185.247 107.339C188.719 108.107 191.878 105.354 192.62 102.595C192.803 101.912 193.006 101.232 193.136 100.542C193.202 100.198 193.274 99.6655 193.091 99.4955C191.933 98.4329 190.792 97.3115 189.478 96.481C188.17 95.6571 186.3 96.5595 185.515 98.2694C184.554 100.365 182.909 101.559 180.758 102.15C179.431 102.516 178.77 102.327 177.802 101.343C178.182 101.326 178.515 101.235 178.806 101.307C181.804 102.055 183.786 99.793 184.57 97.7005C185.836 94.3199 189.432 93.339 192.312 95.5754C193.169 96.2391 193.967 96.9845 194.843 97.622C197.4 99.4857 200.329 100.006 203.432 100.251C213.097 101.016 222.349 98.5604 231.713 96.9093C235.499 96.2423 238.939 94.7318 242.005 92.5674C243.715 91.361 244.932 89.4418 246.328 87.8103C246.661 87.4212 246.831 86.8916 247.217 86.5025C246.91 89.1181 245.657 91.2302 243.663 92.9009C239.916 96.0396 235.45 97.4717 230.739 98.3806C223.804 99.7178 216.817 100.878 209.987 102.634C205.56 103.772 201.268 105.459 197.24 107.905C193.695 110.056 189.461 111.053 185.865 113.133C180.843 116.036 175.86 119.142 171.358 122.777C167.412 125.965 166.601 130.585 168.396 135.388C169.939 139.521 172.28 143.173 175.154 146.465C178.42 150.209 182.919 151.752 187.555 152.916C195.163 154.825 202.173 152.471 209.111 149.757C211.034 149.005 212.881 148.054 214.793 147.279C215.3 147.073 216.141 146.913 216.467 147.178C219.505 149.64 222.742 148.718 225.936 147.789C226.783 147.544 227.473 146.756 228.427 146.079C230.912 146.187 233.832 146.504 236.732 146.367C238.442 146.285 240.109 145.448 241.813 145.013C242.166 144.922 242.591 145.115 242.983 145.154C245.072 145.36 247.191 145.883 249.244 145.687C252.602 145.366 255.123 142.496 254.861 139.818C254.809 139.285 254.645 138.759 254.482 138.245C253.857 136.271 253.978 135.973 256.054 135.139C254.103 136.277 254.953 137.497 255.659 138.801C256.084 139.583 256.218 140.518 256.564 141.348C256.705 141.688 257.016 142.149 257.313 142.198C259.255 142.535 263.385 141.62 264.382 139.23C265.078 137.552 265.216 135.99 264.375 134.374C264.176 133.989 263.944 133.619 263.738 133.237C262.201 130.363 262.329 130.026 264.787 127.989C265.896 127.067 266.785 125.884 268.044 125.017C266.968 126.289 265.987 127.669 264.784 128.803C263.725 129.804 263.525 130.565 264.362 131.85C266.67 135.394 266.755 136.199 265.954 140.998C268.972 141.531 271.98 142.215 275.024 142.551C278.032 142.885 279.569 141.744 280.589 138.886C281.828 135.424 281.861 131.844 281.527 128.241C281.458 127.482 281.419 126.714 281.265 125.972C280.834 123.87 280.406 121.741 277.45 121.234C279.301 120.819 280.556 121.457 281.154 123.229C281.723 124.909 282.201 126.688 282.286 128.447C282.459 131.945 282.338 135.46 282.338 138.997C282.799 138.187 283.456 137.31 283.835 136.323C285.797 131.229 286.814 125.995 286.081 120.495C285.581 116.732 285.212 112.953 284.793 109.18C284.747 108.751 284.6 108.225 284.78 107.901C285.777 106.097 284.757 105.528 283.286 104.831C282.145 104.292 281.213 103.265 280.258 102.382C278.957 101.179 277.542 100.718 275.769 101.14C274.838 101.362 273.703 101.555 272.889 101.215C272.091 100.878 271.267 99.9369 271.039 99.0999C270.797 98.2138 271.294 97.1741 272.536 96.9976C272.592 97.1153 272.68 97.2166 272.66 97.282C271.774 100.041 272.405 100.751 275.295 100.1C277.326 99.6426 279.032 100.055 280.546 101.509C281.524 102.451 282.544 103.383 283.675 104.119C285.346 105.201 286.552 104.651 287.366 102.87C289.508 98.1648 288.906 93.3717 288.262 88.474C287.834 85.2111 287.961 81.8533 288.082 78.5478C288.18 75.7819 288.779 73.0322 288.857 70.2662C288.9 68.8211 288.432 67.3139 287.958 65.9113C287.128 63.4461 286.13 61.0332 285.186 58.6105C284.035 55.6647 282.047 53.4611 278.82 51.6498C279.248 52.9478 279.395 53.909 279.853 54.6871C282.152 58.6203 281.955 62.8347 281.288 67.0719C280.994 68.9519 279.938 70.4984 278.333 71.6067C277.257 72.3489 276.149 73.0453 275.109 73.8332C272.977 75.4418 272.729 76.9131 274.118 79.1658C274.39 79.6039 274.645 80.0551 274.988 80.6371C272.356 79.5254 271.421 76.2069 273.183 74.291C274.197 73.1892 275.478 72.2868 276.757 71.489C278.836 70.191 280.167 68.4222 280.478 66.0159C280.932 62.4881 281.063 58.9963 279.363 55.6451C278.637 54.2196 278.169 52.6045 277.888 51.022C277.097 46.5755 273.994 43.0837 269.296 41.7824C269.747 44.9604 269.096 47.782 266.468 49.7437C265.595 50.3943 264.428 50.6526 263.028 51.2443C264.607 49.6946 266.039 48.668 266.968 47.3013C268.923 44.4209 268.459 41.5667 265.833 39.2976C263.734 37.4831 261.518 35.8124 259.363 34.0632C257.349 32.4284 254.972 31.7582 252.471 31.4018C251.637 31.2841 251.163 31.4901 251.484 32.4709C251.579 32.7652 251.552 33.102 251.268 33.5433C250.957 32.8698 250.572 32.2225 250.352 31.5195C249.502 28.7993 247.711 27.0861 244.984 26.3243C243.519 25.9156 242.038 25.5527 240.583 25.1081C237.781 24.2482 235.012 23.2968 232.2 22.4761C229.758 21.7634 227.283 21.1552 224.808 20.5537C223.013 20.1188 221.1 20.0207 219.407 19.3472C212.335 16.5322 204.949 15.0053 197.501 13.6812C195.101 13.2562 192.688 12.8671 190.318 12.3047C187.879 11.726 185.639 13.8676 183.155 12.6382C180.742 11.4449 178.133 12.0399 175.589 12.0661C173.085 12.0922 170.58 11.9843 168.079 12.0399C166.072 12.0857 164.267 12.7461 162.652 14.4463C164.342 14.8909 165.853 15.2865 167.363 15.6854C167.337 15.826 167.307 15.9666 167.281 16.1104C165.944 15.9044 164.581 15.7933 163.27 15.4696C159.327 14.4986 155.57 14.7307 151.826 16.4897C149.185 17.7321 146.343 18.556 143.597 19.5695C141.89 20.2006 140.246 20.897 140.056 23.0581C138.049 22.4369 133.746 24.0585 132.857 25.8502C132.625 26.3145 132.906 27.0371 132.948 27.6092C124.405 30.967 118.206 37.0286 113.704 44.9996C114.75 41.7694 116.431 38.8922 118.841 36.5022C121.159 34.2038 123.575 31.9969 126.03 29.8423C126.916 29.0641 128.002 28.4789 129.071 27.9558C130.562 27.2267 132.026 26.7624 132.971 25.0329C133.982 23.1823 136.146 22.5317 138.209 22.0805C138.686 21.9759 139.173 21.7568 139.572 21.4724C140.74 20.6387 141.753 19.4976 143.028 18.9255C146.294 17.4607 149.685 16.2772 152.997 14.9073C155.959 13.6812 158.944 13.2038 162.08 14.3253C163.672 11.7587 166.34 11.2323 168.9 11.1833C173.513 11.0983 178.169 11.1702 182.733 11.7587C184.632 12.0039 186.293 11.9941 188.121 11.641C189.635 11.3468 191.276 11.3272 192.803 11.5658C197.527 12.3015 202.235 13.1417 206.921 14.0899C209.739 14.6588 212.495 15.5219 215.287 16.2183C219.711 17.3201 224.138 18.3925 228.565 19.4747C229.199 19.6317 229.882 19.684 230.454 19.9652C234.947 22.1557 239.812 23.1071 244.588 24.3757C247.462 25.1375 250.215 26.2197 251.14 29.5873C251.238 29.9502 252.056 30.1954 252.586 30.3425C254.4 30.846 256.359 31.0128 258.029 31.8007C262.322 33.8278 266.399 36.2276 269.293 40.2C269.701 40.7591 270.453 41.2168 271.133 41.3999C274.494 42.2958 276.825 44.47 278.146 47.5139C279.14 49.8058 280.428 51.6138 282.531 52.9576C285.611 54.9258 286.775 58.1986 287.981 61.4092C288.419 62.5699 288.694 63.8384 289.351 64.8618C290.691 66.951 290.577 69.1775 290.456 71.4759C290.185 76.5731 289.861 81.6735 289.799 86.7772C289.769 89.1966 290.25 91.6258 290.577 94.042C291.126 98.0929 290.116 101.715 287.605 104.893C285.98 106.95 285.964 109.098 286.343 111.619C287.311 118.011 288.19 124.465 287.229 130.935C286.889 133.22 286.075 135.463 285.238 137.634C284.548 139.429 283.463 141.028 281.288 141.391C281.001 141.44 280.684 141.652 280.487 141.881C278.447 144.245 275.76 144.389 272.99 143.974C270.47 143.598 267.955 143.097 265.48 142.493C263.924 142.113 262.652 142.538 261.05 143.464C262.149 144.33 263.032 145.206 264.074 145.801C265.529 146.628 267.105 147.246 268.632 147.949C272.265 149.617 273.268 151.994 271.875 155.763C269.629 161.848 266.003 166.896 260.668 170.662C259.468 171.509 258.225 172.32 257.12 173.281C251.386 178.261 244.686 178.49 237.703 177.27C235.941 176.963 234.224 176.384 232.465 176.047C229.078 175.4 226.498 173.523 224.318 170.966C223.611 170.139 222.899 169.306 222.101 168.567C220.603 167.184 219.466 167.393 218.41 169.152C217.327 170.96 217.383 172.954 217.779 174.87C218.478 178.261 219.394 181.605 220.218 184.97C219.77 184.993 219.332 184.993 218.897 184.993ZM110.16 112.642C112.092 116.386 115.012 118.331 118.546 119.181C122.339 120.093 126.233 120.564 130.071 121.287C132.03 121.656 133.982 122.094 135.897 122.647C136.349 122.777 136.911 123.454 136.96 123.925C137.5 129.261 140.063 133.224 144.905 135.525C148.331 137.157 152.006 138.301 155.344 140.083C159.196 142.139 162.985 142.3 166.974 140.91C167.7 140.658 168.386 140.286 169.145 139.942C167.121 136.826 166.114 133.665 166.448 130.268C166.928 125.357 169.766 121.872 173.774 119.256C177.642 116.732 181.526 114.231 185.433 111.769C186.486 111.105 187.595 110.34 188.772 110.098C194.17 108.997 198.266 105.361 202.824 103.062C200.248 102.546 197.508 101.993 194.667 101.424C194.565 101.814 194.454 102.225 194.353 102.637C193.303 106.852 190.344 109.108 185.963 109.137C185.404 109.14 184.78 109.51 184.296 109.863C181.304 112.047 178.28 114.097 174.618 115.097C168.226 116.843 161.808 116.755 155.397 115.5C152.369 114.908 149.466 113.652 146.428 113.129C140.717 112.152 135.329 110.507 130.604 107.035C129.908 106.525 129.117 106.126 128.338 105.743C124.863 104.03 124.046 104.498 123.774 108.32C123.451 112.887 120.302 115.212 115.793 114.159C114.008 113.744 112.259 113.214 110.16 112.642Z" fill="#393939"/>
<path fill-rule="evenodd" clip-rule="evenodd" d="M117.202 60.7292C114.188 59.1958 111.033 59.6666 107.855 59.7287C105.197 59.781 103.758 57.4008 104.115 54.3275C104.481 51.1692 108.564 46.8829 111.716 46.363C111.948 46.3238 112.2 46.3892 112.347 46.3957C110.873 47.4387 109.284 48.3672 107.93 49.5639C106.266 51.0351 105.184 52.9216 105.086 55.2364C104.965 57.9763 106.962 59.6666 109.604 58.9408C112.452 58.1626 114.894 59.0258 117.202 60.7292Z" fill="#393939"/>
<path fill-rule="evenodd" clip-rule="evenodd" d="M232.582 26.7818C232.947 26.0291 233.75 25.8816 234.379 25.5474C245.716 19.5075 257.317 14.0547 269.522 10.0081C275.487 8.02994 281.521 6.26254 287.795 5.56401C290.872 5.22076 293.963 5.1485 297.037 5.69649C302.921 6.74428 305.893 10.9475 304.89 16.879C304.018 22.0246 301.645 26.556 298.91 30.8827C294.383 38.0516 289.239 44.7599 283.468 50.9744C282.86 51.6278 282.291 52.3143 281.734 52.9496C281.887 53.4976 282.279 53.4885 282.6 53.5247C292.867 54.6236 303.044 56.3248 313.153 58.4083C325.526 60.9616 337.783 63.9665 349.458 68.9465C355.129 71.3643 360.642 74.0801 365.025 78.5904C369.636 83.3356 370.073 88.7643 366.256 93.7624C365.1 95.2768 363.722 96.6016 362.212 97.7668C356.313 102.313 349.569 105.204 342.642 107.682C329.675 112.322 316.274 115.242 302.754 117.663C302.172 117.768 301.591 117.889 300.713 118.06C302.391 119.584 303.886 120.948 305.387 122.303C312.802 128.99 319.705 136.141 324.996 144.698C327.03 147.992 328.756 151.433 329.355 155.335C330.209 160.899 327.77 165.1 322.503 167.036C317.766 168.776 312.844 168.999 307.883 168.659C290.83 167.481 274.684 162.423 258.707 156.778C235.548 148.591 213.327 138.242 191.534 126.936C190.617 126.461 189.973 126.479 189.095 127.039C173.408 137.05 157.278 146.272 140.453 154.209C128.876 159.671 117.087 164.603 104.552 167.451C99.3718 168.628 94.1468 169.402 88.823 168.565C86.4052 168.186 84.1523 167.364 82.4505 165.521C80.4462 163.347 79.889 160.671 80.2994 157.819C81.1173 152.123 83.8017 147.194 86.8576 142.461C91.6002 135.111 97.3256 128.553 103.282 122.188C103.575 121.875 104.025 121.643 103.986 120.978C102.095 120.457 100.106 120.361 98.1525 120.09C81.3241 117.753 64.6964 114.486 48.4882 109.29C41.16 106.938 34.0056 104.132 27.4235 100.049C24.3136 98.1191 21.3716 95.9723 19.2624 92.8711C16.3593 88.6047 16.4762 84.5038 19.6579 80.4C22.4502 76.7959 26.1861 74.3842 30.1079 72.2615C38.0023 67.986 46.5108 65.3334 55.0913 62.9066C64.6185 60.2119 74.2925 58.1735 84.0564 56.5446C84.2931 56.5055 84.5178 56.394 84.8204 56.2887C84.6406 55.4817 83.9815 55.1445 83.5021 54.6989C76.4736 48.2044 69.7176 41.4509 64.0882 33.6617C61.1522 29.6 58.4408 25.3818 57.0836 20.468C56.6043 18.7307 56.2477 16.9542 56.5054 15.1266C57.0297 11.3991 59.1898 8.95729 62.5483 7.5241C65.5682 6.23243 68.7739 5.79585 72.0275 5.69348C81.0155 5.41045 89.7727 7.01225 98.464 9.05665C109.079 11.5527 119.433 14.9309 129.667 18.6915C129.745 18.7216 129.796 18.824 129.973 19.0167C128.864 18.9896 128.001 18.5169 127.127 18.2008C116.398 14.3197 105.508 10.9987 94.3655 8.5448C88.1369 7.17183 81.8334 6.19931 75.4579 6.03672C71.7309 5.94338 67.986 6.21436 64.3908 7.44281C58.2311 9.54442 55.9841 13.853 57.7907 20.1187C59.2917 25.3276 62.2397 29.7265 65.5083 33.9297C71.6201 41.7852 78.7146 48.6801 86.1536 55.2439C86.8157 55.828 87.4119 55.9665 88.3047 55.834C91.0011 55.4366 93.6765 54.8224 96.4328 54.9187C93.6195 55.3824 90.8033 55.8491 87.8463 56.3368C88.6732 57.7068 89.9674 58.4053 91.037 59.3116C112.635 77.5757 136.055 93.2144 160.301 107.646C169.618 113.192 179.098 118.452 188.658 123.564C189.76 124.154 190.569 124.154 191.651 123.456C209.585 111.858 226.866 99.3506 243.433 85.8557C255.189 76.2811 266.484 66.1855 277.093 55.3312C277.498 54.9187 278.034 54.5815 278.178 53.7053C274.816 53.2868 271.509 52.8713 268.201 52.4588C270.017 51.7633 271.775 52.3805 273.549 52.4347C274.885 52.4769 276.221 52.7358 277.551 52.9315C278.657 53.0941 279.505 52.8472 280.32 51.9469C287.21 44.3444 294.2 36.8292 299.389 27.8688C301.504 24.2165 303.293 20.4409 304.03 16.2106C304.815 11.7032 302.733 8.13532 298.317 6.87375C294.083 5.66337 289.805 6.06683 285.554 6.74127C274.726 8.45447 264.612 12.4439 254.581 16.6742C247.547 19.64 240.635 22.8737 233.822 26.3242C233.424 26.5259 233.046 26.7879 232.567 26.7517L232.582 26.7818ZM112.71 112.857C112.746 112.894 112.779 112.93 112.815 112.969C112.335 114.068 111.323 114.691 110.541 115.516C109.357 116.772 108.105 117.961 106.949 119.542C133.328 122.721 159.579 124.221 185.979 124.416C185.836 123.76 185.371 123.721 185.051 123.543C181.249 121.436 177.429 119.364 173.636 117.244C152.553 105.46 132.112 92.6453 112.596 78.3797C103.719 71.8912 94.9587 65.2371 86.8816 57.7429C85.9858 56.9089 85.1559 56.7192 84.0654 56.927C74.8887 58.6703 65.721 60.4558 56.6941 62.9006C47.6433 65.3515 38.7812 68.3112 30.4764 72.7553C27.2976 74.4564 24.2627 76.3925 21.7131 78.9788C16.635 84.1245 16.6679 89.6464 21.785 94.774C23.8852 96.8786 26.312 98.5497 28.8795 100.019C35.995 104.093 43.6886 106.712 51.5111 108.982C68.714 113.975 86.3513 116.73 104.04 119.217C105.421 119.412 106.346 119.003 107.314 118.012C109.046 116.23 110.598 114.239 112.71 112.857ZM275.433 98.095C275.988 98.4262 276.578 98.7062 277.09 99.0947C284.22 104.493 291.285 109.979 298.089 115.793C298.76 116.368 299.377 116.591 300.249 116.419C303.281 115.814 306.331 115.302 309.366 114.703C323.237 111.957 336.959 108.669 349.967 102.937C355.009 100.715 359.875 98.1372 363.767 94.0935C368.102 89.5922 368.308 85.097 364.318 80.3217C361.58 77.0428 358.002 74.8238 354.287 72.8306C346.135 68.4557 337.402 65.6466 328.537 63.2047C313.317 59.0165 297.762 56.5476 282.186 54.1961C281.195 54.0455 280.422 54.2292 279.658 55.0271C269.69 65.4599 258.997 75.1038 247.912 84.3172C231.512 97.9475 214.336 110.512 196.558 122.258C195.621 122.878 194.677 123.48 193.733 124.091C228.549 124.374 263.099 122.309 297.747 116.817C292.999 112.538 288.385 108.724 283.726 104.957C280.934 102.699 277.896 100.757 275.286 98.2697C275.34 98.2125 275.385 98.1553 275.433 98.095ZM194.218 126.009C194.2 126.136 194.179 126.259 194.161 126.382C194.497 126.572 194.83 126.774 195.171 126.952C215.715 137.499 236.659 147.146 258.416 154.896C274.508 160.628 290.779 165.789 307.979 166.969C312.784 167.298 317.563 167.126 322.144 165.368C326.605 163.657 328.558 160.041 327.677 155.323C326.973 151.551 325.31 148.196 323.243 145.044C316.769 135.174 308.563 126.843 300.036 118.798C299.479 118.271 298.913 118.277 298.251 118.379C293.226 119.147 288.205 119.972 283.169 120.65C270.02 122.414 256.81 123.627 243.577 124.522C232.327 125.28 221.062 125.738 209.788 125.988C204.599 126.102 199.407 126.009 194.218 126.009ZM186.929 126.485C182.321 125.994 177.839 126 173.36 125.895C159.546 125.563 145.758 124.85 131.983 123.745C123.534 123.067 115.107 122.23 106.697 121.18C105.645 121.047 105.022 121.294 104.378 122.023C100.891 125.949 97.4005 129.866 94.2247 134.06C90.6535 138.775 87.2441 143.593 84.6166 148.913C82.8101 152.574 81.345 156.353 81.8124 160.583C82.0101 162.369 82.7741 163.808 84.2032 164.916C86.0577 166.358 88.2148 166.897 90.4768 167.084C95.7617 167.52 100.918 166.665 106.02 165.389C118.471 162.272 130.212 157.253 141.753 151.74C153.97 145.905 165.796 139.329 177.396 132.341C180.59 130.417 183.753 128.439 186.929 126.485Z" fill="#555252"/>
<path fill-rule="evenodd" clip-rule="evenodd" d="M104.465 53.54C102.593 54.07 100.654 54.4644 98.647 54.3259C100.588 54.0639 102.527 53.802 104.465 53.54Z" fill="#555252"/>
<path fill-rule="evenodd" clip-rule="evenodd" d="M232.563 26.7578C232.485 26.9234 232.395 27.0619 232.072 26.8511C232.308 26.818 232.446 26.8 232.584 26.7819L232.563 26.7578Z" fill="#555252"/>
<path fill-rule="evenodd" clip-rule="evenodd" d="M275.295 98.2729C275.17 98.1645 275.047 98.0561 274.921 97.9478C275.173 97.7129 275.298 97.9176 275.433 98.0953C275.385 98.1555 275.34 98.2127 275.295 98.2729Z" fill="#555252"/>
<path fill-rule="evenodd" clip-rule="evenodd" d="M112.71 112.858C112.764 112.795 112.818 112.734 112.872 112.671C113.022 112.807 112.938 112.891 112.812 112.966C112.779 112.93 112.743 112.894 112.71 112.858Z" fill="#555252"/>
<path d="M159 172.332C159 172.332 159 179.033 159 184.049C159 191.311 150.053 195.819 142.112 195.819C134.171 195.819 125 190.742 125 184.049C125 178.457 125 172.332 125 172.332C125 172.332 125 165.871 125 156.855C125 155.737 127.237 145 142.112 145C156.987 145 159 156.855 159 156.855C159 164.46 159 172.332 159 172.332Z" fill="white"/>
<path d="M125 172.332L126 172.332V172.332L125 172.332ZM125 172.332L126 172.332V172.332V172.333V172.336V172.35L126 172.402L126 172.606L126 173.376L126 176.093L126 184.049C126 186.909 127.97 189.584 131.118 191.602C134.243 193.605 138.334 194.819 142.112 194.819C145.913 194.819 149.946 193.735 153.001 191.811C156.056 189.886 158 187.219 158 184.049V184.02V183.99V183.961V183.931V183.902V183.872V183.842V183.813V183.783V183.753V183.723V183.694V183.664V183.634V183.604V183.574V183.544V183.514V183.484V183.454V183.424V183.394V183.364V183.333V183.303V183.273V183.243V183.212V183.182V183.152V183.121V183.091V183.06V183.03V182.999V182.969V182.938V182.908V182.877V182.846V182.816V182.785V182.754V182.724V182.693V182.662V182.631V182.601V182.57V182.539V182.508V182.477V182.446V182.415V182.384V182.354V182.323V182.292V182.261V182.23V182.199V182.167V182.136V182.105V182.074V182.043V182.012V181.981V181.95V181.918V181.887V181.856V181.825V181.794V181.762V181.731V181.7V181.669V181.637V181.606V181.575V181.544V181.512V181.481V181.45V181.418V181.387V181.356V181.324V181.293V181.262V181.23V181.199V181.168V181.136V181.105V181.074V181.042V181.011V180.979V180.948V180.917V180.885V180.854V180.823V180.791V180.76V180.728V180.697V180.666V180.634V180.603V180.572V180.54V180.509V180.478V180.446V180.415V180.384V180.352V180.321V180.29V180.258V180.227V180.196V180.164V180.133V180.102V180.071V180.039V180.008V179.977V179.946V179.915V179.883V179.852V179.821V179.79V179.759V179.728V179.697V179.665V179.634V179.603V179.572V179.541V179.51V179.479V179.448V179.417V179.386V179.355V179.324V179.294V179.263V179.232V179.201V179.17V179.139V179.109V179.078V179.047V179.016V178.986V178.955V178.924V178.894V178.863V178.833V178.802V178.772V178.741V178.711V178.68V178.65V178.619V178.589V178.559V178.528V178.498V178.468V178.438V178.407V178.377V178.347V178.317V178.287V178.257V178.227V178.197V178.167V178.137V178.107V178.077V178.048V178.018V177.988V177.958V177.929V177.899V177.87V177.84V177.811V177.781V177.752V177.722V177.693V177.664V177.634V177.605V177.576V177.547V177.518V177.488V177.459V177.43V177.401V177.373V177.344V177.315V177.286V177.257V177.229V177.2V177.171V177.143V177.114V177.086V177.057V177.029V177.001V176.972V176.944V176.916V176.888V176.86V176.832V176.804V176.776V176.748V176.72V176.692V176.665V176.637V176.609V176.582V176.554V176.527V176.5V176.472V176.445V176.418V176.391V176.363V176.336V176.309V176.282V176.255V176.229V176.202V176.175V176.148V176.122V176.095V176.069V176.042V176.016V175.99V175.964V175.937V175.911V175.885V175.859V175.833V175.808V175.782V175.756V175.73V175.705V175.679V175.654V175.628V175.603V175.578V175.553V175.527V175.502V175.477V175.453V175.428V175.403V175.378V175.354V175.329V175.305V175.28V175.256V175.231V175.207V175.183V175.159V175.135V175.111V175.087V175.064V175.04V175.016V174.993V174.969V174.946V174.923V174.899V174.876V174.853V174.83V174.807V174.785V174.762V174.739V174.717V174.694V174.672V174.649V174.627V174.605V174.583V174.561V174.539V174.517V174.495V174.474V174.452V174.431V174.409V174.388V174.367V174.346V174.325V174.304V174.283V174.262V174.241V174.221V174.2V174.18V174.159V174.139V174.119V174.099V174.079V174.059V174.039V174.019V174V173.98V173.961V173.942V173.922V173.903V173.884V173.865V173.846V173.828V173.809V173.791V173.772V173.754V173.736V173.717V173.699V173.681V173.664V173.646V173.628V173.611V173.593V173.576V173.559V173.541V173.524V173.507V173.491V173.474V173.457V173.441V173.424V173.408V173.392V173.376V173.36V173.344V173.328V173.313V173.297V173.282V173.266V173.251V173.236V173.221V173.206V173.191V173.177V173.162V173.148V173.133V173.119V173.105V173.091V173.077V173.063V173.05V173.036V173.023V173.01V172.996V172.983V172.97V172.958V172.945V172.932V172.92V172.908V172.895V172.883V172.871V172.859V172.848V172.836V172.825V172.813V172.802V172.791V172.78V172.769V172.758V172.747V172.737V172.727V172.716V172.706V172.696V172.686V172.677V172.667V172.657V172.648V172.639V172.63V172.621V172.612V172.603V172.595V172.586V172.578V172.57V172.561V172.554V172.546V172.538V172.531V172.523V172.516V172.509V172.502V172.495V172.488V172.482V172.475V172.469V172.463V172.457V172.451V172.445V172.439V172.434V172.428V172.423V172.418V172.413V172.408V172.404V172.399V172.395V172.391V172.387V172.383V172.379V172.375V172.372V172.368V172.365V172.362V172.359V172.356V172.354V172.351V172.349V172.347V172.345V172.343V172.341V172.34V172.338V172.337V172.336V172.335V172.334V172.333V172.333V172.332V172.332L159 172.332L158 172.332V172.332V172.331V172.331V172.33V172.329V172.328V172.326V172.325V172.323V172.321V172.319V172.317V172.314V172.312V172.309V172.306V172.303V172.3V172.296V172.293V172.289V172.285V172.281V172.277V172.272V172.268V172.263V172.258V172.253V172.247V172.242V172.236V172.23V172.224V172.218V172.212V172.205V172.199V172.192V172.185V172.178V172.17V172.163V172.155V172.147V172.139V172.131V172.123V172.114V172.106V172.097V172.088V172.079V172.07V172.06V172.051V172.041V172.031V172.021V172.011V172V171.99V171.979V171.968V171.957V171.946V171.935V171.923V171.911V171.9V171.888V171.876V171.863V171.851V171.838V171.826V171.813V171.8V171.786V171.773V171.76V171.746V171.732V171.718V171.704V171.69V171.676V171.661V171.647V171.632V171.617V171.602V171.586V171.571V171.555V171.54V171.524V171.508V171.492V171.476V171.459V171.443V171.426V171.409V171.392V171.375V171.358V171.34V171.323V171.305V171.287V171.269V171.251V171.233V171.214V171.196V171.177V171.158V171.14V171.12V171.101V171.082V171.062V171.043V171.023V171.003V170.983V170.963V170.943V170.922V170.902V170.881V170.86V170.839V170.818V170.797V170.776V170.754V170.733V170.711V170.689V170.667V170.645V170.623V170.6V170.578V170.555V170.533V170.51V170.487V170.464V170.44V170.417V170.394V170.37V170.346V170.322V170.298V170.274V170.25V170.226V170.201V170.177V170.152V170.127V170.102V170.077V170.052V170.026V170.001V169.975V169.95V169.924V169.898V169.872V169.846V169.82V169.793V169.767V169.74V169.714V169.687V169.66V169.633V169.606V169.578V169.551V169.523V169.496V169.468V169.44V169.412V169.384V169.356V169.328V169.3V169.271V169.242V169.214V169.185V169.156V169.127V169.098V169.069V169.039V169.01V168.98V168.951V168.921V168.891V168.861V168.831V168.801V168.77V168.74V168.71V168.679V168.648V168.618V168.587V168.556V168.525V168.493V168.462V168.431V168.399V168.368V168.336V168.304V168.272V168.24V168.208V168.176V168.144V168.112V168.079V168.047V168.014V167.981V167.949V167.916V167.883V167.85V167.816V167.783V167.75V167.716V167.683V167.649V167.615V167.582V167.548V167.514V167.48V167.446V167.411V167.377V167.343V167.308V167.273V167.239V167.204V167.169V167.134V167.099V167.064V167.029V166.994V166.958V166.923V166.887V166.852V166.816V166.78V166.745V166.709V166.673V166.637V166.6V166.564V166.528V166.492V166.455V166.419V166.382V166.345V166.309V166.272V166.235V166.198V166.161V166.124V166.086V166.049V166.012V165.974V165.937V165.899V165.862V165.824V165.786V165.748V165.71V165.672V165.634V165.596V165.558V165.52V165.481V165.443V165.404V165.366V165.327V165.289V165.25V165.211V165.172V165.133V165.094V165.055V165.016V164.977V164.938V164.898V164.859V164.82V164.78V164.741V164.701V164.661V164.622V164.582V164.542V164.502V164.462V164.422V164.382V164.342V164.302V164.261V164.221V164.181V164.14V164.1V164.059V164.019V163.978V163.937V163.896V163.856V163.815V163.774V163.733V163.692V163.651V163.61V163.569V163.527V163.486V163.445V163.403V163.362V163.321V163.279V163.238V163.196V163.154V163.113V163.071V163.029V162.987V162.945V162.903V162.861V162.819V162.777V162.735V162.693V162.651V162.609V162.567V162.524V162.482V162.44V162.397V162.355V162.312V162.27V162.227V162.184V162.142V162.099V162.056V162.014V161.971V161.928V161.885V161.842V161.799V161.756V161.713V161.67V161.627V161.584V161.541V161.498V161.454V161.411V161.368V161.325V161.281V161.238V161.194V161.151V161.108V161.064V161.021V160.977V160.934V160.89V160.846V160.803V160.759V160.715V160.672V160.628V160.584V160.54V160.496V160.453V160.409V160.365V160.321V160.277V160.233V160.189V160.145V160.101V160.057V160.013V159.969V159.925V159.88V159.836V159.792V159.748V159.704V159.66V159.615V159.571V159.527V159.483V159.438V159.394V159.35V159.305V159.261V159.217V159.172V159.128V159.083V159.039V158.995V158.95V158.906V158.861V158.817V158.772V158.728V158.683V158.639V158.594V158.55V158.505V158.461V158.416V158.371V158.327V158.282V158.238V158.193V158.149V158.104V158.059V158.015V157.97V157.926V157.881V157.836V157.792V157.747V157.703V157.658V157.613V157.569V157.524V157.48V157.435V157.39V157.346V157.301V157.256V157.212V157.167V157.123V157.078V157.034V156.989V156.951C157.999 156.944 157.997 156.937 157.995 156.929C157.98 156.856 157.955 156.744 157.916 156.597C157.84 156.303 157.714 155.875 157.518 155.357C157.125 154.319 156.455 152.934 155.352 151.551C153.175 148.82 149.238 146 142.112 146C134.948 146 130.954 148.57 128.738 151.159C127.615 152.469 126.925 153.811 126.517 154.886C126.313 155.423 126.181 155.889 126.101 156.244C126.061 156.422 126.035 156.569 126.019 156.679C126.011 156.735 126.006 156.778 126.003 156.811C126 156.842 126 156.856 126 156.856C126 156.856 126 156.856 126 156.855C126 161.363 126 165.232 126 167.975L126 171.182L126 172.037L126 172.257L126 172.313L126 172.327L126 172.331V172.332V172.332L125 172.332Z" stroke="#FF8900" stroke-opacity="0.8" stroke-width="2"/>
<path d="M139.682 159.23L139.282 158.93L139.182 159.063V159.23H139.682ZM139.682 168.177L140.156 168.335L140.182 168.258V168.177H139.682ZM134.734 181.44C134.647 181.702 134.788 181.985 135.05 182.072C135.312 182.16 135.596 182.018 135.683 181.756L134.734 181.44ZM145.051 159.23H145.551V159.063L145.451 158.93L145.051 159.23ZM145.051 168.177H144.551V168.258L144.576 168.335L145.051 168.177ZM149.05 181.756C149.137 182.018 149.42 182.16 149.682 182.072C149.944 181.985 150.086 181.702 149.999 181.44L149.05 181.756ZM140.366 157.484L139.282 158.93L140.082 159.53L141.166 158.084L140.366 157.484ZM139.182 159.23V168.177H140.182V159.23H139.182ZM139.208 168.019L134.734 181.44L135.683 181.756L140.156 168.335L139.208 168.019ZM143.566 158.084L144.651 159.53L145.451 158.93L144.366 157.484L143.566 158.084ZM144.551 159.23V168.177H145.551V159.23H144.551ZM144.576 168.335L149.05 181.756L149.999 181.44L145.525 168.019L144.576 168.335ZM141.166 158.084C141.766 157.284 142.966 157.284 143.566 158.084L144.366 157.484C143.366 156.151 141.366 156.151 140.366 157.484L141.166 158.084Z" fill="#FF8900"/>
<path d="M139.682 159.229H143.037" stroke="#FF8900" stroke-linecap="round"/>
<path d="M139.682 162.361H143.037" stroke="#FF8900" stroke-linecap="round"/>
<path d="M139.794 165.269H142.926" stroke="#FF8900" stroke-linecap="round"/>
<path d="M139.794 168.177H142.926" stroke="#FF8900" stroke-linecap="round"/>
<path d="M139.682 162.361H136.619C135.493 162.361 135.226 160.789 136.289 160.417L138.564 159.621" stroke="#FF8900" stroke-linecap="round"/>
<path d="M145.051 159.229L148.444 160.417C149.507 160.789 149.24 162.361 148.114 162.361H146.393" stroke="#FF8900" stroke-linecap="round"/>
<path d="M130.735 163.368H132.972" stroke="#FF8900" stroke-linecap="round"/>
<path d="M139.682 168.177H136.619C135.493 168.177 135.226 166.605 136.289 166.233L138.564 165.437" stroke="#FF8900" stroke-linecap="round"/>
<path d="M130.735 169.183H132.972" stroke="#FF8900" stroke-linecap="round"/>
<path d="M151.761 163.368H153.998" stroke="#FF8900" stroke-linecap="round"/>
<path d="M145.051 165.045L148.444 166.233C149.507 166.605 149.24 168.177 148.114 168.177H146.393" stroke="#FF8900" stroke-linecap="round"/>
<path d="M151.761 169.183H153.998" stroke="#FF8900" stroke-linecap="round"/>
<path d="M139.123 169.966L147.511 175.447" stroke="#FF8900" stroke-linecap="round"/>
<path d="M137.669 174.104L149.525 181.598" stroke="#FF8900" stroke-linecap="round"/>
<path d="M142.366 172.091L139.682 173.993" stroke="#FF8900" stroke-linecap="round"/>
<path d="M145.498 169.743L143.597 171.085" stroke="#FF8900" stroke-linecap="round"/>
<path d="M146.393 174.664L143.708 176.565" stroke="#FF8900" stroke-linecap="round"/>
<path d="M134.09 182.94V182.94C134.09 182.199 134.691 181.598 135.432 181.598H149.301C150.042 181.598 150.643 182.199 150.643 182.94V182.94" stroke="#FF8900" stroke-linecap="round"/>
<path d="M142.591 177.348L139.347 179.585" stroke="#FF8900" stroke-linecap="round" stroke-linejoin="round"/>
<path d="M336.5 66.3611C336.5 66.3611 336.5 74.5397 336.5 80.6628C336.5 89.5271 325.579 95.0287 315.887 95.0287C306.194 95.0287 295 88.8325 295 80.6628C295 73.8372 295 66.3611 295 66.3611C295 66.3611 295 58.4749 295 47.4704C295 46.1052 297.731 33 315.887 33C334.043 33 336.5 47.4704 336.5 47.4704C336.5 56.7532 336.5 66.3611 336.5 66.3611Z" fill="white"/>
<path d="M295 66.3611L296 66.3611V66.361L295 66.3611ZM295 66.3611L296 66.3612V66.3614V66.3625V66.3665V66.3828L296 66.4467L296 66.6957L296 67.6359L296 70.9523L296 80.6628C296 84.2612 298.476 87.5855 302.348 90.0675C306.198 92.535 311.233 94.0287 315.887 94.0287C320.563 94.0287 325.528 92.6969 329.295 90.3238C333.062 87.9503 335.5 84.6336 335.5 80.6628V80.6269V80.591V80.555V80.5189V80.4828V80.4467V80.4105V80.3743V80.3381V80.3018V80.2654V80.229V80.1926V80.1561V80.1196V80.0831V80.0465V80.0098V79.9732V79.9365V79.8997V79.8629V79.8261V79.7893V79.7524V79.7154V79.6785V79.6415V79.6044V79.5674V79.5303V79.4931V79.456V79.4188V79.3816V79.3443V79.307V79.2697V79.2323V79.195V79.1575V79.1201V79.0826V79.0452V79.0076V78.9701V78.9325V78.8949V78.8573V78.8197V78.782V78.7443V78.7066V78.6688V78.6311V78.5933V78.5555V78.5177V78.4798V78.4419V78.4041V78.3662V78.3282V78.2903V78.2523V78.2144V78.1764V78.1383V78.1003V78.0623V78.0242V77.9861V77.9481V77.91V77.8718V77.8337V77.7956V77.7574V77.7193V77.6811V77.6429V77.6047V77.5665V77.5283V77.4901V77.4519V77.4136V77.3754V77.3371V77.2989V77.2606V77.2224V77.1841V77.1458V77.1075V77.0692V77.031V76.9927V76.9544V76.9161V76.8778V76.8395V76.8012V76.7629V76.7246V76.6863V76.648V76.6097V76.5714V76.5331V76.4949V76.4566V76.4183V76.38V76.3418V76.3035V76.2653V76.227V76.1888V76.1505V76.1123V76.0741V76.0359V75.9977V75.9595V75.9213V75.8831V75.845V75.8068V75.7687V75.7306V75.6925V75.6544V75.6163V75.5782V75.5402V75.5021V75.4641V75.4261V75.3881V75.3502V75.3122V75.2743V75.2363V75.1984V75.1606V75.1227V75.0849V75.0471V75.0093V74.9715V74.9337V74.896V74.8583V74.8206V74.7829V74.7453V74.7077V74.6701V74.6325V74.595V74.5575V74.52V74.4825V74.4451V74.4077V74.3704V74.333V74.2957V74.2584V74.2212V74.184V74.1468V74.1096V74.0725V74.0354V73.9983V73.9613V73.9243V73.8874V73.8505V73.8136V73.7767V73.7399V73.7032V73.6664V73.6297V73.5931V73.5565V73.5199V73.4833V73.4468V73.4104V73.374V73.3376V73.3013V73.265V73.2287V73.1925V73.1564V73.1203V73.0842V73.0482V73.0122V72.9762V72.9404V72.9045V72.8687V72.833V72.7973V72.7617V72.7261V72.6905V72.655V72.6196V72.5842V72.5488V72.5135V72.4783V72.4431V72.408V72.3729V72.3379V72.3029V72.268V72.2332V72.1984V72.1636V72.1289V72.0943V72.0598V72.0252V71.9908V71.9564V71.9221V71.8878V71.8536V71.8194V71.7854V71.7513V71.7174V71.6835V71.6496V71.6159V71.5822V71.5485V71.5149V71.4814V71.448V71.4146V71.3813V71.3481V71.3149V71.2818V71.2488V71.2158V71.1829V71.1501V71.1173V71.0846V71.052V71.0195V70.987V70.9546V70.9223V70.8901V70.8579V70.8258V70.7938V70.7618V70.73V70.6982V70.6665V70.6348V70.6033V70.5718V70.5404V70.5091V70.4779V70.4467V70.4156V70.3846V70.3537V70.3229V70.2921V70.2615V70.2309V70.2004V70.17V70.1397V70.1094V70.0793V70.0492V70.0192V69.9893V69.9595V69.9298V69.9002V69.8706V69.8412V69.8118V69.7826V69.7534V69.7243V69.6953V69.6664V69.6376V69.6089V69.5803V69.5517V69.5233V69.495V69.4667V69.4386V69.4105V69.3826V69.3547V69.327V69.2993V69.2718V69.2443V69.2169V69.1897V69.1625V69.1355V69.1085V69.0817V69.0549V69.0283V69.0017V68.9753V68.9489V68.9227V68.8966V68.8706V68.8447V68.8188V68.7931V68.7676V68.7421V68.7167V68.6914V68.6663V68.6412V68.6163V68.5915V68.5667V68.5421V68.5177V68.4933V68.469V68.4449V68.4208V68.3969V68.3731V68.3494V68.3258V68.3024V68.279V68.2558V68.2327V68.2097V68.1868V68.1641V68.1414V68.1189V68.0965V68.0742V68.0521V68.0301V68.0081V67.9864V67.9647V67.9432V67.9217V67.9005V67.8793V67.8583V67.8373V67.8166V67.7959V67.7754V67.755V67.7347V67.7145V67.6945V67.6746V67.6549V67.6352V67.6157V67.5964V67.5771V67.558V67.5391V67.5202V67.5015V67.4829V67.4645V67.4462V67.428V67.41V67.3921V67.3744V67.3568V67.3393V67.3219V67.3047V67.2877V67.2707V67.254V67.2373V67.2208V67.2045V67.1882V67.1722V67.1562V67.1404V67.1248V67.1093V67.0939V67.0787V67.0636V67.0487V67.0339V67.0193V67.0048V66.9905V66.9763V66.9623V66.9484V66.9347V66.9211V66.9076V66.8944V66.8812V66.8682V66.8554V66.8427V66.8302V66.8178V66.8056V66.7936V66.7817V66.7699V66.7583V66.7469V66.7356V66.7245V66.7135V66.7027V66.6921V66.6816V66.6712V66.6611V66.6511V66.6412V66.6315V66.622V66.6127V66.6035V66.5944V66.5856V66.5768V66.5683V66.5599V66.5517V66.5437V66.5358V66.5281V66.5205V66.5132V66.506V66.4989V66.4921V66.4854V66.4788V66.4725V66.4663V66.4603V66.4544V66.4488V66.4433V66.438V66.4328V66.4278V66.423V66.4184V66.414V66.4097V66.4056V66.4017V66.3979V66.3944V66.391V66.3878V66.3847V66.3819V66.3792V66.3767V66.3744V66.3723V66.3704V66.3686V66.367V66.3657V66.3644V66.3634V66.3626V66.3619V66.3615V66.3612L336.5 66.3611C335.5 66.3611 335.5 66.3611 335.5 66.361V66.3607V66.3601V66.3593V66.3584V66.3572V66.3557V66.3541V66.3522V66.3502V66.3479V66.3454V66.3427V66.3397V66.3366V66.3332V66.3297V66.3259V66.3219V66.3177V66.3133V66.3087V66.3038V66.2988V66.2935V66.2881V66.2824V66.2765V66.2704V66.2641V66.2576V66.2509V66.244V66.2369V66.2296V66.222V66.2143V66.2064V66.1982V66.1899V66.1814V66.1726V66.1637V66.1545V66.1452V66.1356V66.1259V66.1159V66.1058V66.0955V66.0849V66.0742V66.0633V66.0521V66.0408V66.0293V66.0176V66.0056V65.9935V65.9812V65.9688V65.9561V65.9432V65.9301V65.9169V65.9034V65.8898V65.8759V65.8619V65.8477V65.8333V65.8187V65.8039V65.789V65.7738V65.7585V65.743V65.7273V65.7114V65.6953V65.679V65.6626V65.6459V65.6291V65.6121V65.5949V65.5776V65.56V65.5423V65.5244V65.5063V65.4881V65.4696V65.451V65.4322V65.4132V65.3941V65.3748V65.3552V65.3356V65.3157V65.2957V65.2755V65.2551V65.2345V65.2138V65.1929V65.1718V65.1506V65.1292V65.1076V65.0858V65.0639V65.0418V65.0195V64.9971V64.9745V64.9517V64.9288V64.9056V64.8824V64.8589V64.8353V64.8115V64.7876V64.7635V64.7392V64.7148V64.6902V64.6655V64.6406V64.6155V64.5902V64.5648V64.5393V64.5135V64.4877V64.4616V64.4354V64.4091V64.3826V64.3559V64.3291V64.3021V64.2749V64.2476V64.2202V64.1926V64.1648V64.1369V64.1088V64.0806V64.0522V64.0237V63.995V63.9662V63.9372V63.9081V63.8788V63.8494V63.8198V63.7901V63.7602V63.7302V63.7V63.6697V63.6393V63.6087V63.5779V63.547V63.516V63.4848V63.4535V63.422V63.3904V63.3586V63.3267V63.2947V63.2625V63.2302V63.1977V63.1651V63.1324V63.0995V63.0665V63.0334V63.0001V62.9666V62.9331V62.8994V62.8655V62.8316V62.7975V62.7632V62.7288V62.6943V62.6597V62.6249V62.59V62.555V62.5198V62.4845V62.4491V62.4135V62.3779V62.342V62.3061V62.27V62.2338V62.1975V62.1611V62.1245V62.0878V62.0509V62.014V61.9769V61.9397V61.9024V61.8649V61.8274V61.7897V61.7518V61.7139V61.6758V61.6377V61.5994V61.5609V61.5224V61.4838V61.445V61.4061V61.3671V61.3279V61.2887V61.2493V61.2099V61.1703V61.1306V61.0908V61.0508V61.0108V60.9706V60.9303V60.89V60.8495V60.8089V60.7681V60.7273V60.6864V60.6453V60.6042V60.5629V60.5215V60.4801V60.4385V60.3968V60.355V60.3131V60.2711V60.229V60.1867V60.1444V60.102V60.0595V60.0168V59.9741V59.9313V59.8883V59.8453V59.8021V59.7589V59.7156V59.6721V59.6286V59.5849V59.5412V59.4974V59.4535V59.4094V59.3653V59.3211V59.2768V59.2324V59.1879V59.1433V59.0986V59.0538V59.0089V58.964V58.9189V58.8738V58.8285V58.7832V58.7378V58.6923V58.6467V58.601V58.5552V58.5094V58.4634V58.4174V58.3713V58.3251V58.2788V58.2324V58.1859V58.1394V58.0928V58.0461V57.9993V57.9524V57.9054V57.8584V57.8113V57.7641V57.7168V57.6694V57.622V57.5745V57.5269V57.4792V57.4314V57.3836V57.3357V57.2877V57.2397V57.1915V57.1433V57.0951V57.0467V56.9983V56.9498V56.9012V56.8526V56.8038V56.755V56.7062V56.6573V56.6083V56.5592V56.5101V56.4608V56.4116V56.3622V56.3128V56.2633V56.2138V56.1642V56.1145V56.0648V56.015V55.9651V55.9152V55.8652V55.8151V55.765V55.7148V55.6646V55.6143V55.5639V55.5135V55.463V55.4125V55.3619V55.3112V55.2605V55.2097V55.1589V55.108V55.0571V55.0061V54.955V54.9039V54.8527V54.8015V54.7503V54.6989V54.6476V54.5961V54.5447V54.4931V54.4415V54.3899V54.3382V54.2865V54.2347V54.1829V54.131V54.0791V54.0271V53.9751V53.923V53.8709V53.8188V53.7666V53.7143V53.662V53.6097V53.5573V53.5049V53.4524V53.3999V53.3474V53.2948V53.2422V53.1895V53.1368V53.0841V53.0313V52.9785V52.9256V52.8727V52.8198V52.7668V52.7138V52.6608V52.6077V52.5546V52.5014V52.4482V52.395V52.3418V52.2885V52.2352V52.1819V52.1285V52.0751V52.0216V51.9682V51.9147V51.8612V51.8076V51.754V51.7004V51.6468V51.5931V51.5394V51.4857V51.432V51.3782V51.3244V51.2706V51.2168V51.1629V51.109V51.0551V51.0012V50.9473V50.8933V50.8393V50.7853V50.7313V50.6772V50.6231V50.5691V50.515V50.4608V50.4067V50.3525V50.2984V50.2442V50.19V50.1358V50.0815V50.0273V49.973V49.9188V49.8645V49.8102V49.7559V49.7016V49.6472V49.5929V49.5385V49.4842V49.4298V49.3754V49.3211V49.2667V49.2123V49.1579V49.1035V49.049V48.9946V48.9402V48.8858V48.8313V48.7769V48.7224V48.668V48.6135V48.5591V48.5046V48.4502V48.3957V48.3413V48.2868V48.2324V48.1779V48.1235V48.069V48.0146V47.9601V47.9057V47.8513V47.7968V47.7424V47.688V47.6336V47.5792V47.5649C335.497 47.5503 335.494 47.5336 335.49 47.5149C335.47 47.4228 335.438 47.2821 335.391 47.0997C335.296 46.7347 335.14 46.2043 334.897 45.5637C334.411 44.2806 333.583 42.5686 332.22 40.8585C329.522 37.4736 324.653 34 315.887 34C307.082 34 302.145 37.1625 299.394 40.3737C298.006 41.9954 297.151 43.6568 296.645 44.9886C296.127 46.3519 296 47.2987 296 47.4704C296 52.9727 296 57.6953 296 61.0424L296 64.9569L296 66.0007L296 66.2698L296 66.3381L296 66.3553L296 66.3596V66.3607V66.3609L295 66.3611Z" stroke="#FF8900" stroke-opacity="0.8" stroke-width="2"/>
<path d="M301 75.5H333.392M304.176 64.0676L318.943 64.0676C320.795 64.0146 324.682 65.235 327.834 68.5135C331.804 72.6419 328.787 73.5946 324.5 73.5946C321.07 73.5946 309.786 73.5946 304.176 73.5946" stroke="#FF8900" stroke-linecap="round"/>
<path d="M317.514 69.1486H305.764C304.887 69.1486 304.176 68.4377 304.176 67.5607C304.176 66.6838 304.887 65.9729 305.764 65.9729H314.338L317.514 69.1486Z" stroke="#FF8900" stroke-linecap="round" stroke-linejoin="round"/>
<path d="M306.716 65.9729L309.892 69.1486" stroke="#FF8900" stroke-linecap="round"/>
<path d="M310.209 65.9729L313.385 69.1486" stroke="#FF8900" stroke-linecap="round"/>
<path d="M317.354 64.0676L318.169 64.8822C320.901 67.614 324.606 69.1487 328.469 69.1487V69.1487" stroke="#FF8900" stroke-linecap="round"/>
<path d="M305.605 58.1926V58.6926H306.105V58.1926H305.605ZM311.639 58.1926H311.139V58.6926H311.639V58.1926ZM301 60.0743C300.724 60.0743 300.5 60.2982 300.5 60.5743C300.5 60.8505 300.724 61.0743 301 61.0743V60.0743ZM312.909 61.0743C313.185 61.0743 313.409 60.8505 313.409 60.5743C313.409 60.2982 313.185 60.0743 312.909 60.0743V61.0743ZM321.483 55.5169C321.759 55.5169 321.983 55.293 321.983 55.0169C321.983 54.7407 321.759 54.5169 321.483 54.5169V55.5169ZM309.551 55.0169C309.551 55.293 309.775 55.5169 310.051 55.5169C310.327 55.5169 310.551 55.293 310.551 55.0169H309.551ZM316.084 55.0169H315.584V55.5169H316.084V55.0169ZM301 57.6926C300.724 57.6926 300.5 57.9164 300.5 58.1926C300.5 58.4687 300.724 58.6926 301 58.6926V57.6926ZM316.72 58.6926C316.996 58.6926 317.22 58.4687 317.22 58.1926C317.22 57.9164 316.996 57.6926 316.72 57.6926V58.6926ZM306.105 58.1926C306.105 56.8025 307.232 55.6757 308.622 55.6757V54.6757C306.679 54.6757 305.105 56.2502 305.105 58.1926H306.105ZM308.622 55.6757C310.012 55.6757 311.139 56.8025 311.139 58.1926H312.139C312.139 56.2502 310.564 54.6757 308.622 54.6757V55.6757ZM301 61.0743H312.909V60.0743H301V61.0743ZM310.551 55.0169C310.551 53.6269 311.678 52.5 313.068 52.5V51.5C311.125 51.5 309.551 53.0746 309.551 55.0169H310.551ZM313.068 52.5C314.458 52.5 315.584 53.6269 315.584 55.0169H316.584C316.584 53.0746 315.01 51.5 313.068 51.5V52.5ZM301 58.6926H305.605V57.6926H301V58.6926ZM311.639 58.6926H316.72V57.6926H311.639V58.6926ZM321.483 54.5169H316.084V55.5169H321.483V54.5169Z" fill="#FF8900"/>
<path d="M65.1177 122.123C65.1177 122.123 65.1177 128.649 65.1177 133.536C65.1177 140.61 56.4026 145 48.6679 145C40.9332 145 32.0002 140.055 32.0002 133.536C32.0002 128.089 32.0002 122.123 32.0002 122.123C32.0002 122.123 31.9998 115.829 32.0002 107.048C32.0002 105.958 34.179 95.5 48.6679 95.5C63.1568 95.5 65.1177 107.048 65.1177 107.048C65.1177 114.455 65.1177 122.123 65.1177 122.123Z" fill="white"/>
<path d="M32.0002 122.123L33.0002 122.123V122.123L32.0002 122.123ZM32.0002 122.123L33.0002 122.123V122.123V122.124V122.127V122.14L33.0002 122.191L33.0002 122.39L33.0002 123.14L33.0002 125.787L33.0002 133.536C33.0002 136.309 34.9108 138.908 37.9732 140.871C41.013 142.819 44.9928 144 48.6679 144C52.3659 144 56.2898 142.946 59.2603 141.075C62.2314 139.203 64.1177 136.611 64.1177 133.536V133.507V133.478V133.45V133.421V133.392V133.363V133.334V133.306V133.277V133.248V133.219V133.19V133.161V133.131V133.102V133.073V133.044V133.015V132.985V132.956V132.927V132.897V132.868V132.839V132.809V132.78V132.75V132.721V132.691V132.662V132.632V132.602V132.573V132.543V132.513V132.484V132.454V132.424V132.394V132.364V132.335V132.305V132.275V132.245V132.215V132.185V132.155V132.125V132.095V132.065V132.035V132.005V131.975V131.945V131.914V131.884V131.854V131.824V131.794V131.763V131.733V131.703V131.673V131.642V131.612V131.582V131.552V131.521V131.491V131.46V131.43V131.4V131.369V131.339V131.309V131.278V131.248V131.217V131.187V131.156V131.126V131.095V131.065V131.034V131.004V130.973V130.943V130.912V130.882V130.851V130.821V130.79V130.76V130.729V130.699V130.668V130.637V130.607V130.576V130.546V130.515V130.485V130.454V130.424V130.393V130.362V130.332V130.301V130.271V130.24V130.21V130.179V130.149V130.118V130.088V130.057V130.026V129.996V129.965V129.935V129.904V129.874V129.843V129.813V129.782V129.752V129.722V129.691V129.661V129.63V129.6V129.569V129.539V129.509V129.478V129.448V129.417V129.387V129.357V129.326V129.296V129.266V129.236V129.205V129.175V129.145V129.115V129.084V129.054V129.024V128.994V128.964V128.934V128.904V128.874V128.844V128.813V128.783V128.753V128.723V128.694V128.664V128.634V128.604V128.574V128.544V128.514V128.484V128.455V128.425V128.395V128.366V128.336V128.306V128.277V128.247V128.217V128.188V128.158V128.129V128.099V128.07V128.041V128.011V127.982V127.953V127.923V127.894V127.865V127.836V127.806V127.777V127.748V127.719V127.69V127.661V127.632V127.603V127.574V127.545V127.517V127.488V127.459V127.43V127.402V127.373V127.345V127.316V127.287V127.259V127.231V127.202V127.174V127.145V127.117V127.089V127.061V127.033V127.004V126.976V126.948V126.92V126.892V126.864V126.837V126.809V126.781V126.753V126.726V126.698V126.67V126.643V126.615V126.588V126.561V126.533V126.506V126.479V126.451V126.424V126.397V126.37V126.343V126.316V126.289V126.262V126.236V126.209V126.182V126.156V126.129V126.102V126.076V126.05V126.023V125.997V125.971V125.944V125.918V125.892V125.866V125.84V125.814V125.788V125.763V125.737V125.711V125.686V125.66V125.635V125.609V125.584V125.559V125.533V125.508V125.483V125.458V125.433V125.408V125.383V125.358V125.334V125.309V125.284V125.26V125.235V125.211V125.187V125.162V125.138V125.114V125.09V125.066V125.042V125.018V124.994V124.971V124.947V124.923V124.9V124.876V124.853V124.83V124.807V124.784V124.76V124.737V124.715V124.692V124.669V124.646V124.624V124.601V124.579V124.556V124.534V124.512V124.49V124.468V124.446V124.424V124.402V124.38V124.358V124.337V124.315V124.294V124.272V124.251V124.23V124.209V124.188V124.167V124.146V124.125V124.105V124.084V124.064V124.043V124.023V124.003V123.982V123.962V123.942V123.922V123.903V123.883V123.863V123.844V123.824V123.805V123.786V123.766V123.747V123.728V123.709V123.691V123.672V123.653V123.635V123.616V123.598V123.58V123.562V123.543V123.526V123.508V123.49V123.472V123.455V123.437V123.42V123.402V123.385V123.368V123.351V123.334V123.318V123.301V123.284V123.268V123.251V123.235V123.219V123.203V123.187V123.171V123.155V123.14V123.124V123.109V123.093V123.078V123.063V123.048V123.033V123.018V123.003V122.989V122.974V122.96V122.946V122.931V122.917V122.903V122.89V122.876V122.862V122.849V122.835V122.822V122.809V122.796V122.783V122.77V122.757V122.745V122.732V122.72V122.708V122.695V122.683V122.671V122.66V122.648V122.636V122.625V122.614V122.603V122.591V122.58V122.57V122.559V122.548V122.538V122.527V122.517V122.507V122.497V122.487V122.477V122.468V122.458V122.449V122.44V122.431V122.422V122.413V122.404V122.395V122.387V122.378V122.37V122.362V122.354V122.346V122.339V122.331V122.323V122.316V122.309V122.302V122.295V122.288V122.281V122.275V122.268V122.262V122.256V122.25V122.244V122.238V122.233V122.227V122.222V122.217V122.212V122.207V122.202V122.197V122.193V122.188V122.184V122.18V122.176V122.172V122.168V122.165V122.162V122.158V122.155V122.152V122.149V122.147V122.144V122.142V122.139V122.137V122.135V122.133V122.132V122.13V122.129V122.127V122.126V122.125V122.125V122.124V122.123V122.123V122.123L65.1177 122.123L64.1177 122.123V122.122V122.122V122.121V122.121V122.12V122.118V122.117V122.116V122.114V122.112V122.11V122.108V122.106V122.103V122.101V122.098V122.095V122.091V122.088V122.085V122.081V122.077V122.073V122.069V122.064V122.06V122.055V122.05V122.045V122.04V122.035V122.029V122.024V122.018V122.012V122.006V121.999V121.993V121.986V121.979V121.972V121.965V121.958V121.95V121.943V121.935V121.927V121.919V121.911V121.902V121.894V121.885V121.876V121.867V121.858V121.849V121.839V121.829V121.82V121.81V121.8V121.789V121.779V121.768V121.758V121.747V121.736V121.724V121.713V121.702V121.69V121.678V121.666V121.654V121.642V121.629V121.617V121.604V121.591V121.578V121.565V121.552V121.539V121.525V121.511V121.497V121.483V121.469V121.455V121.441V121.426V121.411V121.396V121.381V121.366V121.351V121.336V121.32V121.304V121.289V121.273V121.256V121.24V121.224V121.207V121.191V121.174V121.157V121.14V121.122V121.105V121.088V121.07V121.052V121.034V121.016V120.998V120.98V120.961V120.943V120.924V120.905V120.886V120.867V120.848V120.828V120.809V120.789V120.77V120.75V120.73V120.71V120.689V120.669V120.648V120.628V120.607V120.586V120.565V120.544V120.523V120.501V120.48V120.458V120.436V120.414V120.392V120.37V120.348V120.325V120.303V120.28V120.257V120.235V120.212V120.188V120.165V120.142V120.118V120.095V120.071V120.047V120.023V119.999V119.975V119.951V119.926V119.902V119.877V119.852V119.827V119.802V119.777V119.752V119.727V119.701V119.676V119.65V119.624V119.598V119.572V119.546V119.52V119.494V119.467V119.441V119.414V119.387V119.36V119.333V119.306V119.279V119.252V119.224V119.197V119.169V119.141V119.113V119.085V119.057V119.029V119.001V118.973V118.944V118.915V118.887V118.858V118.829V118.8V118.771V118.742V118.713V118.683V118.654V118.624V118.594V118.565V118.535V118.505V118.475V118.444V118.414V118.384V118.353V118.323V118.292V118.261V118.231V118.2V118.169V118.137V118.106V118.075V118.043V118.012V117.98V117.949V117.917V117.885V117.853V117.821V117.789V117.757V117.724V117.692V117.659V117.627V117.594V117.561V117.529V117.496V117.463V117.43V117.396V117.363V117.33V117.296V117.263V117.229V117.196V117.162V117.128V117.094V117.06V117.026V116.992V116.957V116.923V116.889V116.854V116.819V116.785V116.75V116.715V116.68V116.645V116.61V116.575V116.54V116.505V116.469V116.434V116.398V116.363V116.327V116.291V116.256V116.22V116.184V116.148V116.112V116.075V116.039V116.003V115.967V115.93V115.894V115.857V115.82V115.784V115.747V115.71V115.673V115.636V115.599V115.562V115.524V115.487V115.45V115.412V115.375V115.337V115.3V115.262V115.224V115.187V115.149V115.111V115.073V115.035V114.997V114.959V114.92V114.882V114.844V114.805V114.767V114.728V114.69V114.651V114.612V114.574V114.535V114.496V114.457V114.418V114.379V114.34V114.301V114.261V114.222V114.183V114.143V114.104V114.065V114.025V113.985V113.946V113.906V113.866V113.827V113.787V113.747V113.707V113.667V113.627V113.587V113.547V113.506V113.466V113.426V113.386V113.345V113.305V113.264V113.224V113.183V113.143V113.102V113.061V113.02V112.98V112.939V112.898V112.857V112.816V112.775V112.734V112.693V112.652V112.611V112.57V112.528V112.487V112.446V112.404V112.363V112.321V112.28V112.239V112.197V112.155V112.114V112.072V112.03V111.989V111.947V111.905V111.863V111.821V111.78V111.738V111.696V111.654V111.612V111.57V111.527V111.485V111.443V111.401V111.359V111.317V111.274V111.232V111.19V111.147V111.105V111.062V111.02V110.978V110.935V110.893V110.85V110.807V110.765V110.722V110.68V110.637V110.594V110.552V110.509V110.466V110.423V110.38V110.338V110.295V110.252V110.209V110.166V110.123V110.08V110.037V109.994V109.951V109.908V109.865V109.822V109.779V109.736V109.693V109.65V109.607V109.564V109.52V109.477V109.434V109.391V109.348V109.304V109.261V109.218V109.175V109.131V109.088V109.045V109.001V108.958V108.915V108.871V108.828V108.785V108.741V108.698V108.655V108.611V108.568V108.525V108.481V108.438V108.394V108.351V108.307V108.264V108.221V108.177V108.134V108.09V108.047V108.003V107.96V107.916V107.873V107.83V107.786V107.743V107.699V107.656V107.612V107.569V107.525V107.482V107.438V107.395V107.352V107.308V107.265V107.221V107.178V107.144C64.1165 107.138 64.1152 107.131 64.1138 107.125C64.0989 107.054 64.0742 106.945 64.0372 106.803C63.9633 106.517 63.8407 106.101 63.6498 105.598C63.2675 104.589 62.6161 103.242 61.5442 101.897C59.4283 99.2429 55.6012 96.5 48.6679 96.5C41.6967 96.5 37.8142 99.0008 35.6602 101.516C34.5696 102.789 33.8988 104.094 33.5019 105.139C33.3035 105.661 33.1753 106.114 33.0977 106.458C33.0588 106.631 33.0334 106.773 33.0181 106.88C33.0105 106.933 33.0057 106.976 33.003 107.007C33.0005 107.035 33.0002 107.048 33.0002 107.048C33.0002 107.048 33.0002 107.048 33.0002 107.048C33 111.439 33 115.207 33 117.878L33.0001 121.002L33.0002 121.835L33.0002 122.05L33.0002 122.104L33.0002 122.118L33.0002 122.122V122.122V122.123L32.0002 122.123Z" stroke="#FF8900" stroke-opacity="0.8" stroke-width="2"/>
<path d="M39.5 123.231C40.0682 127.114 43.0024 134.694 50.1933 133.949C50.9682 127.735 45.699 124.318 39.5 123.231Z" stroke="#FF8900" stroke-linecap="round"/>
<path d="M50.8849 126.161C52.8408 124.682 55.46 123.72 58.2695 123.231C57.8818 125.86 56.3966 130.192 53.2174 132.461" stroke="#FF8900" stroke-linecap="round"/>
<circle cx="48.4236" cy="114.923" r="8.42308" stroke="#FF8900" stroke-linecap="round"/>
<path d="M39.6538 115.003H57.0605" stroke="#FF8900" stroke-linecap="round"/>
<path d="M48.5703 106.158V123.532" stroke="#FF8900" stroke-linecap="round"/>
<path d="M48.5707 106.158C50.0449 107.158 52.9932 109.791 52.9932 115.003C52.9932 119.678 50.0449 122.742 48.5707 123.69" stroke="#FF8900" stroke-linecap="round"/>
<path d="M48.5709 106.158C47.0967 107.158 44.1484 109.791 44.1484 115.003C44.1484 119.678 47.0967 122.742 48.5709 123.69" stroke="#FF8900" stroke-linecap="round"/>
<path d="M42.4473 108.685C43.892 109.643 45.89 110.422 48.5702 110.422C50.9742 110.422 52.9522 109.643 54.4355 108.685" stroke="#FF8900" stroke-linecap="round"/>
<path d="M54.5771 121.005C53.1324 120.047 50.9933 119.267 48.3132 119.267C45.9092 119.267 43.7528 120.047 42.2695 121.005" stroke="#FF8900" stroke-linecap="round"/>
</svg>
