<svg width="458" height="549" viewBox="0 0 458 549" fill="none" xmlns="http://www.w3.org/2000/svg">
<path d="M482.065 81.016C479.462 81.016 477.021 80.36 474.58 79.212C412.254 46.74 358.065 32.8 293.298 32.8C228.694 32.8 167.833 48.38 112.016 79.048C104.042 83.312 94.2785 80.524 89.8848 72.488C85.6538 64.452 88.4202 54.612 96.394 50.184C157.092 16.892 223.324 0 293.298 0C362.621 0 423.157 15.416 489.551 50.02C497.525 54.12 500.617 64.124 496.548 72.16C493.619 77.736 487.924 81.016 482.065 81.016ZM16.3306 253.216C13.076 253.216 9.82136 252.232 6.89221 250.264C-0.430659 245.016 -2.2207 234.848 2.98668 227.468C35.2073 181.548 76.3781 145.468 125.197 120.048C227.555 66.748 358.39 66.584 460.91 119.72C509.567 144.976 550.575 180.728 582.958 226.32C588.166 233.7 586.538 243.868 579.215 249.116C571.893 254.364 561.64 252.724 556.433 245.344C527.142 204.016 490.039 171.544 446.102 148.912C352.695 100.532 233.413 100.696 140.168 149.24C96.0685 172.2 58.8032 204.836 29.6745 246.492C26.4199 250.92 21.3752 253.216 16.3306 253.216ZM219.906 648.948C215.675 648.948 211.607 647.308 208.353 644.028C180.2 615.328 164.904 597.124 142.935 557.6C120.478 517.256 108.599 467.892 108.599 415.084C108.599 317.668 191.266 238.292 292.972 238.292C394.679 238.292 477.346 317.504 477.346 415.084C477.346 424.104 470.023 431.484 461.073 431.484C452.123 431.484 444.8 424.104 444.8 415.084C444.8 335.708 376.779 271.092 292.972 271.092C209.329 271.092 141.145 335.708 141.145 415.084C141.145 462.316 151.56 505.94 171.25 541.528C192.242 579.248 206.237 595.484 231.298 620.904C237.644 627.3 237.644 637.796 231.135 644.028C228.206 647.472 223.975 648.948 219.906 648.948ZM453.099 588.268C414.369 588.268 380.359 578.428 352.206 559.24C303.875 526.112 274.909 472.32 274.909 415.248C274.909 406.228 282.232 398.848 291.182 398.848C300.133 398.848 307.455 406.228 307.455 415.248C307.455 461.332 331.051 504.956 370.595 532.016C393.54 547.76 420.553 555.468 453.099 555.468C460.91 555.468 474.091 554.648 487.11 552.352C495.897 550.712 504.359 556.78 505.987 565.636C507.614 574.492 501.593 583.02 492.805 584.66C473.766 588.104 457.656 588.268 453.099 588.268ZM387.519 656C386.054 656 384.59 655.836 383.288 655.344C331.377 641.076 297.529 621.724 262.379 586.464C216.977 540.872 191.917 480.028 191.917 415.248C191.917 361.948 236.83 318.652 292.159 318.652C347.487 318.652 392.401 361.948 392.401 415.248C392.401 450.344 422.831 479.044 460.097 479.044C497.362 479.044 527.793 450.508 527.793 415.248C527.793 291.592 422.018 191.06 291.996 191.06C199.402 191.06 114.945 242.884 76.8663 323.244C64.1733 349.812 57.8269 380.808 57.8269 415.248C57.8269 440.832 60.1051 481.176 79.47 533.492C82.5619 542.02 78.3309 551.368 69.8689 554.648C61.4069 557.764 52.1313 553.5 48.8767 544.972C32.9291 501.84 25.118 459.528 25.118 415.248C25.118 375.888 32.6036 340.136 47.4121 309.14C90.8611 217.628 186.872 158.424 291.833 158.424C439.755 158.424 560.176 273.716 560.176 415.412C560.176 468.712 515.099 512.008 459.934 512.008C404.768 512.008 359.692 468.712 359.692 415.412C359.692 380.316 329.261 351.616 291.996 351.616C254.731 351.616 224.3 380.152 224.3 415.412C224.3 471.336 245.943 523.98 285.161 563.34C315.917 594.172 345.86 611.228 391.75 623.856C400.375 626.316 405.582 635.336 403.141 644.028C401.188 651.244 394.679 656 387.519 656Z" fill="#FBFBFB"/>
<path d="M482.065 81.016C479.462 81.016 477.021 80.36 474.58 79.212C412.254 46.74 358.065 32.8 293.298 32.8C228.694 32.8 167.833 48.38 112.016 79.048C104.042 83.312 94.2785 80.524 89.8848 72.488C85.6538 64.452 88.4202 54.612 96.394 50.184C157.092 16.892 223.324 0 293.298 0C362.621 0 423.157 15.416 489.551 50.02C497.525 54.12 500.617 64.124 496.548 72.16C493.619 77.736 487.924 81.016 482.065 81.016ZM16.3306 253.216C13.076 253.216 9.82136 252.232 6.89221 250.264C-0.430659 245.016 -2.2207 234.848 2.98668 227.468C35.2073 181.548 76.3781 145.468 125.197 120.048C227.555 66.748 358.39 66.584 460.91 119.72C509.567 144.976 550.575 180.728 582.958 226.32C588.166 233.7 586.538 243.868 579.215 249.116C571.893 254.364 561.64 252.724 556.433 245.344C527.142 204.016 490.039 171.544 446.102 148.912C352.695 100.532 233.413 100.696 140.168 149.24C96.0685 172.2 58.8032 204.836 29.6745 246.492C26.4199 250.92 21.3752 253.216 16.3306 253.216ZM219.906 648.948C215.675 648.948 211.607 647.308 208.353 644.028C180.2 615.328 164.904 597.124 142.935 557.6C120.478 517.256 108.599 467.892 108.599 415.084C108.599 317.668 191.266 238.292 292.972 238.292C394.679 238.292 477.346 317.504 477.346 415.084C477.346 424.104 470.023 431.484 461.073 431.484C452.123 431.484 444.8 424.104 444.8 415.084C444.8 335.708 376.779 271.092 292.972 271.092C209.329 271.092 141.145 335.708 141.145 415.084C141.145 462.316 151.56 505.94 171.25 541.528C192.242 579.248 206.237 595.484 231.298 620.904C237.644 627.3 237.644 637.796 231.135 644.028C228.206 647.472 223.975 648.948 219.906 648.948ZM453.099 588.268C414.369 588.268 380.359 578.428 352.206 559.24C303.875 526.112 274.909 472.32 274.909 415.248C274.909 406.228 282.232 398.848 291.182 398.848C300.133 398.848 307.455 406.228 307.455 415.248C307.455 461.332 331.051 504.956 370.595 532.016C393.54 547.76 420.553 555.468 453.099 555.468C460.91 555.468 474.091 554.648 487.11 552.352C495.897 550.712 504.359 556.78 505.987 565.636C507.614 574.492 501.593 583.02 492.805 584.66C473.766 588.104 457.656 588.268 453.099 588.268ZM387.519 656C386.054 656 384.59 655.836 383.288 655.344C331.377 641.076 297.529 621.724 262.379 586.464C216.977 540.872 191.917 480.028 191.917 415.248C191.917 361.948 236.83 318.652 292.159 318.652C347.487 318.652 392.401 361.948 392.401 415.248C392.401 450.344 422.831 479.044 460.097 479.044C497.362 479.044 527.793 450.508 527.793 415.248C527.793 291.592 422.018 191.06 291.996 191.06C199.402 191.06 114.945 242.884 76.8663 323.244C64.1733 349.812 57.8269 380.808 57.8269 415.248C57.8269 440.832 60.1051 481.176 79.47 533.492C82.5619 542.02 78.3309 551.368 69.8689 554.648C61.4069 557.764 52.1313 553.5 48.8767 544.972C32.9291 501.84 25.118 459.528 25.118 415.248C25.118 375.888 32.6036 340.136 47.4121 309.14C90.8611 217.628 186.872 158.424 291.833 158.424C439.755 158.424 560.176 273.716 560.176 415.412C560.176 468.712 515.099 512.008 459.934 512.008C404.768 512.008 359.692 468.712 359.692 415.412C359.692 380.316 329.261 351.616 291.996 351.616C254.731 351.616 224.3 380.152 224.3 415.412C224.3 471.336 245.943 523.98 285.161 563.34C315.917 594.172 345.86 611.228 391.75 623.856C400.375 626.316 405.582 635.336 403.141 644.028C401.188 651.244 394.679 656 387.519 656Z" fill="url(#paint0_linear)"/>
<defs>
<linearGradient id="paint0_linear" x1="128.5" y1="32" x2="211" y2="460" gradientUnits="userSpaceOnUse">
<stop stop-color="#E8F9FE"/>
<stop offset="1" stop-color="#F5FAFD"/>
</linearGradient>
</defs>
</svg>
