<svg width="140" height="50" viewBox="0 0 140 50" fill="none" xmlns="http://www.w3.org/2000/svg">
<path d="M21.8002 32.7V31.5H20.4002V32.7H19.7002V38.6H20.4002V39.8H21.8002V38.6H22.5002V32.7H21.8002ZM21.5002 37.7H20.5002V33.7H21.5002V37.7Z" fill="#403B3A"/>
<path d="M8.89981 17.2999V16.0999H7.49982V17.2999H6.7998V23.1998H7.49982V24.3998H8.89981V23.1998H9.59982V17.2999H8.89981ZM8.69983 22.2999H7.69983V18.2999H8.69983V22.2999Z" fill="#403B3A"/>
<path d="M17.2002 49.1C17.6002 49.1 17.9002 48.7999 17.9002 48.3999C17.9002 47.9999 17.6002 47.7 17.2002 47.7H15.4002C15.0002 47.7 14.7002 47.9999 14.7002 48.3999C14.7002 48.7999 15.0002 49.1 15.4002 49.1H17.2002Z" fill="#403B3A"/>
<path d="M2.29941 16.1V22.5C2.29941 22.9 1.99943 23.2 1.59943 23.2C1.19943 23.2 0.899414 22.9 0.899414 22.5V16.1C0.899414 7.59996 7.79941 0.699951 16.2994 0.699951C24.7994 0.699951 31.6994 7.59996 31.6994 16.1V24.8999C31.6994 25.2999 31.3994 25.6 30.9994 25.6C30.5994 25.6 30.2994 25.2999 30.2994 24.8999V16.1C30.2994 8.39996 23.9994 2.09996 16.2994 2.09996C8.59941 2.09996 2.29941 8.39996 2.29941 16.1Z" fill="#403B3A"/>
<path d="M28.4 19.3999C28.4 18.9999 28.1 18.7 27.7 18.7C27.3 18.7 27 18.9999 27 19.3999V24.2L30.5 31.1C30.7 31.5 31.1 31.5999 31.5 31.3999C31.9 31.1999 32 30.7999 31.8 30.3999L28.5 23.8V19.3999H28.4Z" fill="#403B3A"/>
<path d="M11.3 41.0999L9.60001 44.3998H4.70001C4.30001 44.3998 4 44.6999 4 45.0999C4 45.4999 4.30001 45.7999 4.70001 45.7999H10.5L12.2 42.4998H20.4L22.1 45.7999H27.9C28.3 45.7999 28.6 45.4999 28.6 45.0999C28.6 44.6999 28.3 44.3998 27.9 44.3998H23L21.3 41.0999H11.3Z" fill="#403B3A"/>
<path d="M1.59943 25.8998H4.79941L5.59943 24.2999V16.1998C5.59943 10.2998 10.3994 5.49985 16.2994 5.49985C22.1994 5.49985 26.9994 10.2998 26.9994 16.1998C26.9994 16.5998 27.2994 16.8998 27.6994 16.8998C28.0994 16.8998 28.3994 16.5998 28.3994 16.1998C28.3994 9.49984 22.9994 4.09985 16.2994 4.09985C9.59941 4.09985 4.19943 9.49984 4.19943 16.1998V23.9998L3.89941 24.5999H1.59943C1.19943 24.5999 0.899414 24.8999 0.899414 25.2999C0.899414 25.6999 1.19943 25.8998 1.59943 25.8998Z" fill="#403B3A"/>
<path d="M23.6996 47.6999H20.8996L19.1996 44.3999H13.2996L11.5996 47.6999H8.79959C8.39959 47.6999 8.09961 47.9999 8.09961 48.3999C8.09961 48.7999 8.39959 49.0999 8.79959 49.0999H12.4996L14.1996 45.7999H18.2996L19.9996 49.0999H23.6996C24.0996 49.0999 24.3996 48.7999 24.3996 48.3999C24.3996 47.9999 24.0996 47.6999 23.6996 47.6999Z" fill="#403B3A"/>
<path d="M21.2996 25.1C20.8996 24.9 20.4996 25.1 20.2996 25.4L14.1996 37.7H10.2996H10.0996H1.79959C1.39959 37.7 1.09961 38 1.09961 38.4C1.09961 38.8 1.39959 39.1 1.79959 39.1H10.0996H10.2996H15.0996L21.5996 26C21.7996 25.7 21.6996 25.3 21.2996 25.1Z" fill="#EF7D00"/>
<path d="M2.49982 42.4998H8.19983C8.59983 42.4998 8.89981 42.1999 8.89981 41.7999C8.89981 41.3999 8.59983 41.0999 8.19983 41.0999H2.49982C2.09982 41.0999 1.7998 41.3999 1.7998 41.7999C1.7998 42.1999 2.09982 42.4998 2.49982 42.4998Z" fill="#403B3A"/>
<path d="M1.59943 27.8001H5.99942L7.09943 25.7001C7.29943 25.3001 7.69943 25.2 8.09943 25.4C8.49943 25.6 8.59941 26 8.39941 26.4L6.89941 29.3001H1.59943C1.19943 29.3001 0.899414 29.0001 0.899414 28.6001C0.899414 28.1001 1.19943 27.8001 1.59943 27.8001Z" fill="#403B3A"/>
<path d="M30.9999 35.8H29.0999L23.6999 25V16.1001C23.6999 12.0001 20.3999 8.70004 16.2999 8.70004C12.9999 8.70004 9.99992 10.9 9.19992 14.2C9.09992 14.6 8.6999 14.8 8.2999 14.7C7.8999 14.6 7.6999 14.2 7.7999 13.8C8.7999 10 12.2999 7.30005 16.2999 7.30005C21.1999 7.30005 25.0999 11.2001 25.0999 16.1001V24.6001L29.9999 34.3H31.0999C31.4999 34.3 31.7999 34.6 31.7999 35C31.7999 35.4 31.3999 35.8 30.9999 35.8Z" fill="#403B3A"/>
<path d="M1.59982 32.4998H8.89981L12.2998 25.7999V16.0999C12.2998 13.8999 14.0998 12.0999 16.2998 12.0999C18.4998 12.0999 20.2998 13.8999 20.2998 16.0999V22.7999C20.2998 23.1999 20.5998 23.4998 20.9998 23.4998C21.3998 23.4998 21.6998 23.1999 21.6998 22.7999V16.0999C21.6998 13.0999 19.2998 10.5999 16.1998 10.5999C13.1998 10.5999 10.6998 12.9999 10.6998 16.0999V25.3998L7.89981 30.9998H1.49982C1.09982 30.9998 0.799805 31.2998 0.799805 31.6998C0.899805 32.1998 1.19982 32.4998 1.59982 32.4998Z" fill="#403B3A"/>
<path d="M1.59943 35.8001H11.9994L16.9994 25.8001V18.4001C18.2994 18.0001 18.8994 16.7001 18.5994 15.4001C18.1994 14.1001 16.8994 13.5001 15.5994 13.8001C14.2994 14.2001 13.6994 15.5001 13.9994 16.8001C14.1994 17.5001 14.7994 18.1001 15.5994 18.4001V25.5001L11.0994 34.5001H1.59943C1.19943 34.5001 0.899414 34.8001 0.899414 35.2001C0.899414 35.6001 1.19943 35.8001 1.59943 35.8001Z" fill="#0BBBEF"/>
<path d="M30.0994 41.0999H24.0994C23.6994 41.0999 23.3994 41.3999 23.3994 41.7999C23.3994 42.1999 23.6994 42.4998 24.0994 42.4998H30.0994C30.4994 42.4998 30.7994 42.1999 30.7994 41.7999C30.7994 41.3999 30.4994 41.0999 30.0994 41.0999Z" fill="#403B3A"/>
<path d="M31.2996 37.6999H27.8996L22.9996 27.9999C22.7996 27.5999 22.3996 27.4999 21.9996 27.6999C21.5996 27.8999 21.4996 28.2999 21.6996 28.6999L26.9996 39.1999H31.1996H31.2996C31.6996 39.1999 31.9996 38.8999 31.9996 38.4999C31.9996 38.0999 31.6996 37.6999 31.2996 37.6999Z" fill="#EF7D00"/>
<path d="M53.2996 22.1H47.5996L46.3996 25.8999H43.5996L49.1996 9.69995H51.7996L57.3996 25.8999H54.5996L53.2996 22.1ZM48.2996 19.8H52.5996L50.4996 13.3999H50.3996L48.2996 19.8Z" fill="#403B3A"/>
<path d="M62.4998 25.7999H59.7998V9.59985H62.4998V25.7999Z" fill="#403B3A"/>
<path d="M68.7996 19.0999V25.7999H66.0996V9.59985H71.6996C73.4996 9.59985 74.8996 9.99985 75.8996 10.7999C76.8996 11.5999 77.3996 12.7999 77.3996 14.2999C77.3996 15.0999 77.1996 15.8998 76.6996 16.4998C76.2996 17.0998 75.5996 17.5998 74.7996 17.9998C75.6996 18.2998 76.3996 18.7998 76.7996 19.3998C77.1996 20.0998 77.3996 20.8999 77.3996 21.7999V23.0999C77.3996 23.5999 77.4996 23.9998 77.5996 24.4998C77.6996 24.9998 77.8996 25.2998 78.1996 25.4998V25.7999H75.3996C75.0996 25.5999 74.8996 25.1998 74.7996 24.6998C74.6996 24.1998 74.6996 23.6999 74.6996 23.0999V21.7999C74.6996 20.9999 74.4996 20.2999 73.9996 19.7999C73.4996 19.2999 72.8996 19.0999 71.9996 19.0999H68.7996ZM68.7996 16.9998H71.4996C72.5996 16.9998 73.3996 16.7998 73.8996 16.3998C74.3996 15.9998 74.5996 15.3998 74.5996 14.4998C74.5996 13.6998 74.3996 12.9999 73.8996 12.5999C73.3996 12.0999 72.6996 11.8998 71.6996 11.8998H68.7996V16.9998Z" fill="#403B3A"/>
<path d="M92.4 20.5C92.5 22.2 91.9 23.5 90.8 24.5C89.7 25.5 88.2 26 86.4 26C84.5 26 83 25.4001 81.8 24.1001C80.6 22.8001 80 21.2 80 19.2V16.1001C80 14.1001 80.6 12.5 81.7 11.2C82.9 9.90004 84.4 9.30005 86.2 9.30005C88.1 9.30005 89.6 9.80005 90.7 10.8C91.8 11.8 92.3 13.1 92.3 14.8V14.9H89.7C89.7 13.8 89.4 13 88.8 12.4C88.2 11.8 87.4 11.5 86.2 11.5C85.1 11.5 84.2 11.9 83.6 12.8C83 13.7 82.6 14.8001 82.6 16.1001V19.2C82.6 20.5 82.9 21.6 83.6 22.5C84.3 23.4 85.1 23.8 86.3 23.8C87.4 23.8 88.2 23.5 88.8 22.9C89.4 22.3 89.7 21.5 89.7 20.4H92.4V20.5Z" fill="#403B3A"/>
<path d="M107.8 19.1999C107.8 21.1999 107.2 22.7999 105.9 24.0999C104.7 25.3999 103 26.0999 101.1 26.0999C99.1996 26.0999 97.5996 25.4999 96.3996 24.0999C95.1996 22.7999 94.5996 21.1999 94.5996 19.1999V16.2999C94.5996 14.2999 95.1996 12.6999 96.3996 11.3999C97.5996 10.0999 99.1996 9.3999 101.1 9.3999C103.1 9.3999 104.7 10.0999 105.9 11.3999C107.1 12.6999 107.8 14.2999 107.8 16.2999V19.1999ZM105.1 16.2999C105.1 14.9999 104.7 13.7999 104 12.9999C103.3 12.0999 102.3 11.6999 101.1 11.6999C99.8996 11.6999 98.9996 12.0999 98.2996 12.9999C97.5996 13.8999 97.2996 14.9999 97.2996 16.2999V19.1999C97.2996 20.5999 97.5996 21.6999 98.2996 22.5999C98.9996 23.4999 99.8996 23.8999 101.1 23.8999C102.3 23.8999 103.3 23.4999 104 22.5999C104.7 21.6999 105.1 20.5999 105.1 19.1999V16.2999Z" fill="#403B3A"/>
<path d="M123.3 25.8H120.6L113.4 14.1H113.3V25.7H110.6V9.5H113.3L120.5 21.2H120.6V9.60001H123.3V25.8Z" fill="#403B3A"/>
<path d="M139.5 25.8H136.8L129.6 14.1H129.5V25.7H126.8V9.5H129.5L136.7 21.2H136.8V9.60001H139.5V25.8Z" fill="#403B3A"/>
<path d="M43.5 32.7999C43.5 32.6999 43.6 32.5999 43.7 32.5999H46.2C47.6 32.5999 48.5 33.4998 48.5 34.6998C48.5 35.5998 47.9 36.1998 47.4 36.4998C48 36.6998 48.7 37.2999 48.7 38.2999C48.7 39.5999 47.7 40.4998 46.3 40.4998H43.7C43.6 40.4998 43.5 40.3999 43.5 40.2999V32.7999ZM46.4 39.5999C47.2 39.5999 47.8 38.9998 47.8 38.1998C47.8 37.3998 47.1 36.7999 46.2 36.7999H44.4V39.5999H46.4ZM46.2 36.0999C47.1 36.0999 47.5 35.4998 47.5 34.6998C47.5 33.8998 47 33.3998 46.2 33.3998H44.4V36.0999H46.2Z" fill="#403B3A"/>
<path d="M50.5996 32.7999C50.5996 32.6999 50.6996 32.5999 50.7996 32.5999H55.1996C55.2996 32.5999 55.3996 32.6999 55.3996 32.7999V33.0999C55.3996 33.1999 55.2996 33.2999 55.1996 33.2999H51.3996V35.9998H54.5996C54.6996 35.9998 54.7996 36.0998 54.7996 36.1998V36.4998C54.7996 36.5998 54.6996 36.6998 54.5996 36.6998H51.3996V39.5999H55.1996C55.2996 39.5999 55.3996 39.6999 55.3996 39.7999V40.0999C55.3996 40.1999 55.2996 40.2999 55.1996 40.2999H50.7996C50.6996 40.2999 50.5996 40.1999 50.5996 40.0999V32.7999Z" fill="#403B3A"/>
<path d="M57.1996 32.7999C57.1996 32.6999 57.2996 32.5999 57.3996 32.5999H57.7996C57.8996 32.5999 57.9996 32.6999 57.9996 32.7999V39.6998H61.1996C61.2996 39.6998 61.3996 39.7998 61.3996 39.8998V40.1998C61.3996 40.2998 61.2996 40.3998 61.1996 40.3998H57.2996C57.1996 40.3998 57.0996 40.2998 57.0996 40.1998V32.7999H57.1996Z" fill="#403B3A"/>
<path d="M66.3002 33.2999H64.4002C64.3002 33.2999 64.2002 33.1999 64.2002 33.0999V32.7999C64.2002 32.6999 64.3002 32.5999 64.4002 32.5999H69.1002C69.2002 32.5999 69.3002 32.6999 69.3002 32.7999V33.0999C69.3002 33.1999 69.2002 33.2999 69.1002 33.2999H67.2002V40.1998C67.2002 40.2998 67.1002 40.3998 67.0002 40.3998H66.6002C66.5002 40.3998 66.4002 40.2998 66.4002 40.1998V33.2999H66.3002Z" fill="#403B3A"/>
<path d="M70.5 32.7999C70.5 32.6999 70.6 32.5999 70.7 32.5999H75.1C75.2 32.5999 75.3 32.6999 75.3 32.7999V33.0999C75.3 33.1999 75.2 33.2999 75.1 33.2999H71.3V35.9998H74.5C74.6 35.9998 74.7 36.0998 74.7 36.1998V36.4998C74.7 36.5998 74.6 36.6998 74.5 36.6998H71.3V39.5999H75.1C75.2 39.5999 75.3 39.6999 75.3 39.7999V40.0999C75.3 40.1999 75.2 40.2999 75.1 40.2999H70.7C70.6 40.2999 70.5 40.1999 70.5 40.0999V32.7999Z" fill="#403B3A"/>
<path d="M80.5996 32.3999C81.6996 32.3999 82.4996 32.7999 83.2996 33.3999C83.3996 33.4999 83.3996 33.5999 83.2996 33.6999L82.9996 33.9999C82.8996 34.0999 82.7996 34.0999 82.6996 33.9999C82.0996 33.4999 81.2996 33.1999 80.5996 33.1999C78.7996 33.1999 77.4996 34.6999 77.4996 36.3999C77.4996 38.0999 78.8996 39.5999 80.5996 39.5999C81.5996 39.5999 82.0996 39.1999 82.6996 38.7999C82.7996 38.6999 82.8996 38.6999 82.9996 38.7999L83.2996 39.0999C83.3996 39.1999 83.3996 39.2999 83.2996 39.3999C82.4996 40.0999 81.5996 40.4999 80.5996 40.4999C78.3996 40.4999 76.5996 38.6999 76.5996 36.4999C76.5996 34.1999 78.3996 32.3999 80.5996 32.3999Z" fill="#403B3A"/>
<path d="M85 32.7999C85 32.6999 85.1 32.5999 85.2 32.5999H85.6C85.7 32.5999 85.8 32.6999 85.8 32.7999V36.0999H90.3V32.7999C90.3 32.6999 90.4 32.5999 90.5 32.5999H90.9C91 32.5999 91.1 32.6999 91.1 32.7999V40.1998C91.1 40.2998 91 40.3998 90.9 40.3998H90.5C90.4 40.3998 90.3 40.2998 90.3 40.1998V36.7999H85.8V40.1998C85.8 40.2998 85.7 40.3998 85.6 40.3998H85.2C85.1 40.3998 85 40.2998 85 40.1998V32.7999Z" fill="#403B3A"/>
<path d="M93.5996 32.5999C93.5996 32.4999 93.6996 32.3999 93.7996 32.3999H94.0996L99.1996 38.6999V32.6999C99.1996 32.5999 99.2996 32.4999 99.3996 32.4999H99.7996C99.8996 32.4999 99.9996 32.5999 99.9996 32.6999V40.1999C99.9996 40.2999 99.8996 40.3999 99.7996 40.3999H99.5996L94.4996 33.9999V40.0999C94.4996 40.1999 94.3996 40.2999 94.2996 40.2999H93.8996C93.7996 40.2999 93.6996 40.1999 93.6996 40.0999V32.5999H93.5996Z" fill="#403B3A"/>
<path d="M105.7 32.3999C107.9 32.3999 109.7 34.1999 109.7 36.3999C109.7 38.5999 107.9 40.3999 105.7 40.3999C103.5 40.3999 101.7 38.5999 101.7 36.3999C101.7 34.1999 103.5 32.3999 105.7 32.3999ZM105.7 39.6999C107.5 39.6999 108.9 38.1999 108.9 36.4999C108.9 34.7999 107.4 33.1999 105.7 33.1999C103.9 33.1999 102.5 34.6999 102.5 36.4999C102.5 38.2999 104 39.6999 105.7 39.6999Z" fill="#403B3A"/>
<path d="M111.5 32.7999C111.5 32.6999 111.6 32.5999 111.7 32.5999H112.1C112.2 32.5999 112.3 32.6999 112.3 32.7999V39.6998H115.5C115.6 39.6998 115.7 39.7998 115.7 39.8998V40.1998C115.7 40.2998 115.6 40.3998 115.5 40.3998H111.6C111.5 40.3998 111.4 40.2998 111.4 40.1998V32.7999H111.5Z" fill="#403B3A"/>
<path d="M120.3 32.3999C122.5 32.3999 124.3 34.1999 124.3 36.3999C124.3 38.5999 122.5 40.3999 120.3 40.3999C118.1 40.3999 116.3 38.5999 116.3 36.3999C116.3 34.1999 118.1 32.3999 120.3 32.3999ZM120.3 39.6999C122.1 39.6999 123.5 38.1999 123.5 36.4999C123.5 34.7999 122 33.1999 120.3 33.1999C118.5 33.1999 117.1 34.6999 117.1 36.4999C117.1 38.2999 118.5 39.6999 120.3 39.6999Z" fill="#403B3A"/>
<path d="M129.5 32.3999C130.6 32.3999 131.4 32.7999 132.2 33.3999C132.3 33.4999 132.3 33.5999 132.2 33.6999C132.1 33.7999 132 33.8999 131.9 33.9999C131.8 34.0999 131.7 34.0999 131.6 33.9999C131 33.4999 130.2 33.0999 129.5 33.0999C127.7 33.0999 126.4 34.5999 126.4 36.2999C126.4 37.9999 127.7 39.4999 129.5 39.4999C130.7 39.4999 131.5 38.9999 131.5 38.9999V37.3999C131.5 37.3999 131.5 37.2999 131.5 37.1999V36.9999C131.5 36.8999 131.6 36.7999 131.7 36.7999H132.1C132.2 36.7999 132.3 36.8999 132.3 36.9999V39.5999C132.3 39.6999 132.3 39.6999 132.2 39.7999C132.2 39.7999 131.1 40.4999 129.4 40.4999C127.2 40.4999 125.4 38.6999 125.4 36.4999C125.5 34.1999 127.3 32.3999 129.5 32.3999Z" fill="#403B3A"/>
<path d="M135.8 36.5999L133.1 32.8998C133 32.7998 133.1 32.5999 133.3 32.5999H133.8C133.9 32.5999 133.9 32.6998 134 32.6998L136.3 35.7999L138.6 32.6998C138.6 32.6998 138.7 32.5999 138.8 32.5999H139.3C139.5 32.5999 139.6 32.7998 139.5 32.8998L136.8 36.5999V40.1998C136.8 40.2998 136.7 40.3998 136.6 40.3998H136.2C136.1 40.3998 136 40.2998 136 40.1998V36.5999H135.8Z" fill="#403B3A"/>
</svg>
