<?xml version="1.0" standalone="no"?>
<!DOCTYPE svg PUBLIC "-//W3C//DTD SVG 20010904//EN"
 "http://www.w3.org/TR/2001/REC-SVG-20010904/DTD/svg10.dtd">
<svg version="1.0" xmlns="http://www.w3.org/2000/svg"
 width="144.000000pt" height="144.000000pt" viewBox="0 0 144.000000 144.000000"
 preserveAspectRatio="xMidYMid meet">
<metadata>
Created by potrace 1.11, written by Peter Selinger 2001-2013
</metadata>
<g transform="translate(0.000000,144.000000) scale(0.100000,-0.100000)"
fill="#000000" stroke="none">
<path d="M501 1233 l-203 -203 100 0 101 0 100 100 c54 55 102 100 106 100 3
0 123 -116 265 -257 l259 -258 -261 -262 -262 -262 -104 104 -104 103 -94 -1
c-52 0 -94 -4 -94 -7 0 -12 391 -391 400 -388 8 3 550 539 550 544 0 5 70 74
75 74 7 0 45 39 45 46 0 4 11 16 24 28 l25 21 -363 361 -362 360 -203 -203z"/>
<path d="M13 934 c-2 -6 -3 -40 -1 -75 l3 -64 428 0 c236 0 432 2 435 5 4 3 7
35 7 73 0 52 -3 67 -15 68 -8 1 -203 2 -434 3 -297 1 -420 -2 -423 -10z"/>
<path d="M19 629 c-6 -3 -9 -37 -7 -75 l3 -69 428 0 c262 0 431 3 435 9 10 16
8 128 -3 134 -12 8 -844 9 -856 1z"/>
</g>
</svg>
